<svg width="14" height="22" viewBox="0 0 14 22" fill="none" xmlns="http://www.w3.org/2000/svg">
<g clip-path="url(#clip0)">
<path d="M11.5211 22H2.27029C1.01799 22 0 20.982 0 19.7297V2.27029C0 1.01799 1.01799 0 2.27029 0H11.5211C12.7734 0 13.7914 1.01799 13.7914 2.27029V19.7297C13.7914 20.982 12.7734 22 11.5211 22ZM2.27029 0.565553C1.33309 0.565553 0.565553 1.33309 0.565553 2.27029V19.7297C0.565553 20.675 1.33309 21.4344 2.27029 21.4344H11.5211C12.4664 21.4344 13.2259 20.6669 13.2259 19.7297V2.27029C13.2259 1.33309 12.4583 0.565553 11.5211 0.565553H2.27029V0.565553Z" fill="#10B1E8"/>
<path d="M6.85124 9.25887C4.75869 9.25887 3.05396 7.55413 3.05396 5.46159C3.05396 3.36904 4.75869 1.66431 6.85124 1.66431C8.94378 1.66431 10.6485 3.36904 10.6485 5.46159C10.6485 7.55413 8.94378 9.25887 6.85124 9.25887ZM6.85124 2.22178C5.06571 2.22178 3.61951 3.67606 3.61951 5.45351C3.61951 7.23096 5.07379 8.68524 6.85124 8.68524C8.63677 8.68524 10.083 7.23096 10.083 5.45351C10.083 3.67606 8.62869 2.22178 6.85124 2.22178Z" fill="#10B1E8"/>
<path d="M6.85122 20.1418C4.01538 20.1418 1.71277 17.8392 1.71277 15.0033C1.71277 12.1675 4.01538 9.86487 6.85122 9.86487C9.67898 9.86487 11.9897 12.1675 11.9897 15.0033C11.9816 17.8392 9.67898 20.1418 6.85122 20.1418ZM6.85122 10.4385C4.33047 10.4385 2.27832 12.4906 2.27832 15.0114C2.27832 17.5321 4.33047 19.5843 6.85122 19.5843C9.37197 19.5843 11.4241 17.5321 11.4241 15.0114C11.4241 12.4906 9.37197 10.4385 6.85122 10.4385Z" fill="#10B1E8"/>
<path d="M6.85129 18.6955C4.8153 18.6955 3.16711 17.0393 3.16711 15.0113C3.16711 12.9754 4.82338 11.3191 6.85129 11.3191C8.88728 11.3191 10.5435 12.9754 10.5435 15.0113C10.5355 17.0393 8.8792 18.6955 6.85129 18.6955ZM6.85129 11.8846C5.13039 11.8846 3.73267 13.2824 3.73267 15.0113C3.73267 16.7322 5.13039 18.138 6.85129 18.138C8.57218 18.138 9.97798 16.7403 9.97798 15.0113C9.96991 13.2824 8.57218 11.8846 6.85129 11.8846Z" fill="#10B1E8"/>
<path d="M5.70406 16.999C5.70406 16.999 5.54247 16.902 5.46976 16.8454C4.91228 16.4172 4.58911 15.7628 4.58911 15.0599C4.58911 13.8157 5.59903 12.8058 6.84324 12.8058C7.19065 12.8058 7.52999 12.8866 7.837 13.032C7.91779 13.0724 8.07938 13.1694 8.07938 13.1694L7.78852 13.6541C7.78852 13.6541 7.65926 13.5733 7.58654 13.541C7.36032 13.4279 7.10178 13.3713 6.84324 13.3713C5.91412 13.3713 5.15466 14.1308 5.15466 15.0599C5.15466 15.5851 5.39704 16.0698 5.80909 16.393C5.86564 16.4415 5.99491 16.5142 5.99491 16.5142L5.70406 16.999Z" fill="#10B1E8"/>
<path d="M5.70404 7.44109C5.70404 7.44109 5.54245 7.34414 5.46973 7.28759C4.91226 6.8513 4.59717 6.20496 4.59717 5.50206C4.59717 4.25784 5.60708 3.24792 6.8513 3.24792C7.19871 3.24792 7.53804 3.32872 7.84506 3.47415C7.92585 3.51454 8.08744 3.61149 8.08744 3.61149L7.7885 4.09625C7.7885 4.09625 7.65923 4.01546 7.58652 3.98314C7.3603 3.87003 7.10984 3.81348 6.8513 3.81348C5.92218 3.81348 5.16272 4.57293 5.16272 5.50206C5.16272 6.02721 5.4051 6.52005 5.81715 6.83515C5.8737 6.88362 6.00297 6.95633 6.00297 6.95633L5.70404 7.44109Z" fill="#10B1E8"/>
<path d="M7.52187 5.4535C7.52187 5.86555 7.19062 6.1968 6.77858 6.1968C6.36653 6.1968 6.03528 5.86555 6.03528 5.4535C6.03528 5.04146 6.36653 4.71021 6.77858 4.71021C7.18254 4.71021 7.52187 5.04146 7.52187 5.4535Z" fill="#10B1E8"/>
<path d="M7.59451 15.0033C7.59451 15.4154 7.26325 15.7466 6.85121 15.7466C6.43916 15.7466 6.10791 15.4154 6.10791 15.0033C6.10791 14.5913 6.43916 14.26 6.85121 14.26C7.25517 14.26 7.59451 14.5913 7.59451 15.0033Z" fill="#10B1E8"/>
</g>
<defs>
<clipPath id="clip0">
<rect width="13.7914" height="22" fill="white"/>
</clipPath>
</defs>
</svg>
