<svg width="58" height="22" viewBox="0 0 58 22" fill="none" xmlns="http://www.w3.org/2000/svg">
<path d="M0 1.04761H52.7561C53.4447 1.04761 54.1266 1.18309 54.7629 1.44633C55.3991 1.70957 55.9772 2.09541 56.4641 2.58181C56.951 3.06821 57.3373 3.64566 57.6008 4.28117C57.8644 4.91669 58 5.59783 58 6.2857V22H5.2439C3.85313 22 2.51933 21.4481 1.5359 20.4658C0.552481 19.4835 0 18.1511 0 16.7619L0 1.04761Z" fill="#AF0476"/>
<path d="M0 0H52.7561C53.4447 0 54.1266 0.135487 54.7629 0.398726C55.3991 0.661965 55.9772 1.0478 56.4641 1.5342C56.951 2.0206 57.3373 2.59805 57.6008 3.23356C57.8644 3.86908 58 4.55022 58 5.2381V20.9524H5.2439C3.85313 20.9524 2.51933 20.4005 1.5359 19.4182C0.552481 18.4358 0 17.1035 0 15.7143L0 0Z" fill="#CC3B8D"/>
<path d="M11.0344 12.714H7.3018L6.43085 15.5601H5L7.94879 6.4874C7.97478 6.38017 8.03755 6.28541 8.12618 6.21957C8.21482 6.15374 8.32374 6.12098 8.43403 6.12698H9.85244C9.96758 6.11263 10.0838 6.14347 10.1767 6.21302C10.2695 6.28257 10.3317 6.38539 10.3501 6.49983L13.3238 15.5601H11.9054L11.0344 12.714ZM10.6736 11.4712L9.56627 7.89181L9.45429 7.50653L9.34231 7.12125H8.96904L8.74508 7.89181L7.63773 11.4712H10.6736Z" fill="white" stroke="white" stroke-width="0.75"/>
<path d="M19.7204 10.6012C19.8944 10.6177 20.0657 10.6553 20.2306 10.713L20.6536 10.8746C20.7951 10.9453 20.9218 11.0423 21.0269 11.1604L21.3255 11.6203C21.4422 11.7617 21.5424 11.916 21.6241 12.0801L21.8854 12.5897C21.9842 12.8002 22.0714 13.016 22.1467 13.236L22.3955 13.932L22.6817 14.7398L22.9927 15.6098H21.5868C21.031 14.0355 20.6702 13.0744 20.5043 12.7264C20.3848 12.4199 20.2056 12.1402 19.9771 11.9033C19.7485 11.6665 19.4752 11.4774 19.173 11.3469C18.9555 11.2792 18.7289 11.2457 18.5011 11.2474H17.5928C17.6514 11.5675 17.6846 11.8916 17.6924 12.2168V15.6098H16.3237V6.12695H17.5928V9.02276C17.5872 9.38107 17.5539 9.7384 17.4933 10.0916H18.4389C18.7195 10.0945 18.9967 10.0306 19.2476 9.90517C19.4922 9.7811 19.7083 9.60758 19.8822 9.39561C20.0839 9.14764 20.2552 8.87643 20.3923 8.58777C20.5596 8.24352 20.7091 7.89092 20.8402 7.53136C20.9812 7.15851 21.1305 6.74423 21.2881 6.28852V6.15181H22.6692C22.3567 7.13605 21.9912 8.10273 21.5743 9.04762C21.4438 9.38821 21.2436 9.69786 20.9865 9.9568C20.7295 10.2157 20.4211 10.4183 20.0813 10.5514L19.7204 10.6012Z" fill="white" stroke="white" stroke-width="0.75"/>
<path d="M33.9556 14.454V17.6232H33.0225L32.8981 15.5601H25.9927V6.12695H27.3613V14.454H31.3801V6.12695H32.7114V14.454H33.9556Z" fill="white" stroke="white" stroke-width="0.75"/>
<path d="M44.1098 15.5601H42.8656V8.89848C42.8608 8.52377 42.8899 8.14939 42.9527 7.77993H42.8656C42.7231 8.14661 42.5568 8.50364 42.3679 8.84877L38.3989 15.5601H36.9556V6.12695H38.2744V12.714C38.2726 13.105 38.2435 13.4953 38.1873 13.8823H38.2496C38.4018 13.5135 38.5806 13.1563 38.7846 12.8134L42.7287 6.12695H44.1098V15.5601Z" fill="white" stroke="white" stroke-width="0.75"/>
<path d="M49.2748 11.3347V11.2601C49.0087 11.2392 48.7501 11.1618 48.5162 11.0333C48.2824 10.9047 48.0787 10.7278 47.9186 10.5144C47.6066 9.98552 47.4634 9.37424 47.508 8.762C47.4686 8.38165 47.509 7.99725 47.6269 7.63343C47.7447 7.26961 47.9373 6.93437 48.1923 6.64918C48.8695 6.16198 49.7006 5.93676 50.5315 6.01533C51.9581 6.01533 53.0531 6.05676 53.8162 6.13962V15.5727H52.4475V11.8442H50.5439C50.2553 11.8149 49.9663 11.8961 49.7353 12.0714C49.5043 12.2468 49.3486 12.5032 49.2997 12.7888L48.5034 15.6225H47.1099L47.9435 12.7391C48.0045 12.4009 48.1629 12.088 48.3994 11.8385C48.6359 11.589 48.9401 11.4139 49.2748 11.3347ZM52.4475 10.6138V7.1836H50.5563C50.0889 7.13406 49.6195 7.25792 49.2375 7.53159C48.9503 7.90754 48.8168 8.37847 48.8642 8.849C48.8225 9.32674 48.9551 9.80344 49.2375 10.1913C49.4058 10.3416 49.6027 10.4565 49.8165 10.5291C50.0303 10.6017 50.2565 10.6305 50.4817 10.6138H52.4475Z" fill="white" stroke="white" stroke-width="0.75"/>
</svg>
