<svg width="7" height="10" viewBox="0 0 7 10" fill="none" xmlns="http://www.w3.org/2000/svg">
<path d="M2.56404 0.864304C2.17352 0.47378 1.54035 0.47378 1.14983 0.864304C0.759302 1.25483 0.759302 1.88799 1.14983 2.27852L2.56404 0.864304ZM5.28551 4.99998L5.99261 5.70709C6.18015 5.51955 6.28551 5.2652 6.28551 4.99998C6.28551 4.73477 6.18015 4.48041 5.99261 4.29288L5.28551 4.99998ZM1.14983 7.72145C0.759302 8.11197 0.759302 8.74514 1.14983 9.13566C1.54035 9.52618 2.17352 9.52618 2.56404 9.13566L1.14983 7.72145ZM1.14983 2.27852L4.5784 5.70709L5.99261 4.29288L2.56404 0.864304L1.14983 2.27852ZM4.5784 4.29288L1.14983 7.72145L2.56404 9.13566L5.99261 5.70709L4.5784 4.29288Z" fill="#999999"/>
</svg>
