<svg width="10" height="18" viewBox="0 0 10 18" fill="none" xmlns="http://www.w3.org/2000/svg">
<path d="M1.70711 0.292893C1.31658 -0.0976311 0.683417 -0.0976311 0.292893 0.292893C-0.0976311 0.683417 -0.0976311 1.31658 0.292893 1.70711L1.70711 0.292893ZM9 9L9.70711 9.70711C10.0976 9.31658 10.0976 8.68342 9.70711 8.29289L9 9ZM0.292893 16.2929C-0.0976311 16.6834 -0.0976311 17.3166 0.292893 17.7071C0.683417 18.0976 1.31658 18.0976 1.70711 17.7071L0.292893 16.2929ZM0.292893 1.70711L8.29289 9.70711L9.70711 8.29289L1.70711 0.292893L0.292893 1.70711ZM8.29289 8.29289L0.292893 16.2929L1.70711 17.7071L9.70711 9.70711L8.29289 8.29289Z" fill="#999999"/>
</svg>
