<svg width="8" height="8" viewBox="0 0 8 8" fill="none" xmlns="http://www.w3.org/2000/svg">
<path d="M6.72662 0.297678C6.91648 0.128153 7.20339 0.128309 7.39306 0.298039L7.58362 0.468564C7.80573 0.667315 7.80573 1.01501 7.58362 1.21376L4.33342 4.12222C4.14359 4.29209 3.85641 4.29209 3.66658 4.12222L0.416379 1.21376C0.194275 1.01501 0.194275 0.667315 0.416379 0.468564L0.606941 0.298039C0.796615 0.128309 1.08352 0.128153 1.27338 0.297678L3.66698 2.43494C3.85669 2.60432 4.14331 2.60432 4.33302 2.43494L6.72662 0.297678ZM6.72662 3.8771C6.91648 3.70757 7.20339 3.70773 7.39306 3.87746L7.58362 4.04798C7.80573 4.24673 7.80573 4.59443 7.58362 4.79318L4.33342 7.70164C4.14359 7.8715 3.85641 7.8715 3.66658 7.70164L0.416379 4.79318C0.194275 4.59443 0.194275 4.24673 0.416379 4.04798L0.606941 3.87746C0.796615 3.70773 1.08352 3.70757 1.27338 3.8771L3.66698 6.01435C3.85669 6.18374 4.14331 6.18374 4.33302 6.01435L6.72662 3.8771Z" fill="#10B1E8"/>
</svg>
