<svg width="25" height="18" viewBox="0 0 25 18" fill="none" xmlns="http://www.w3.org/2000/svg">
<path fill-rule="evenodd" clip-rule="evenodd" d="M6.23938 14.3365V3.66347C6.23938 3.31289 6.31013 2.96576 6.44758 2.64199C6.58503 2.31821 6.78647 2.02417 7.04035 1.77672C7.29423 1.52927 7.59555 1.33328 7.92703 1.19999C8.25851 1.06671 8.61363 0.998752 8.97203 1.00002H19.4308C19.5833 1.00002 19.7296 1.05928 19.8374 1.16477C19.9452 1.27026 20.0058 1.41333 20.0058 1.56252C20.0058 1.7117 19.9452 1.85477 19.8374 1.96026C19.7296 2.06575 19.5833 2.12501 19.4308 2.12501H8.97203C8.5557 2.12754 8.15717 2.29043 7.86278 2.57841C7.56839 2.86638 7.40186 3.25623 7.39928 3.66347V14.3365C7.40186 14.7438 7.56839 15.1336 7.86278 15.4216C8.15717 15.7096 8.5557 15.8725 8.97203 15.875H19.883C20.301 15.875 20.702 15.7132 20.9985 15.425C21.2951 15.1367 21.4629 14.7454 21.4655 14.3365V4.02886L21.0625 4.42309C21.0089 4.47549 20.9453 4.51706 20.8754 4.54542C20.8054 4.57378 20.7303 4.58837 20.6546 4.58837C20.5788 4.58837 20.5038 4.57378 20.4338 4.54542C20.3638 4.51706 20.3002 4.47549 20.2467 4.42309C20.1931 4.37068 20.1506 4.30847 20.1216 4.24001C20.0926 4.17154 20.0777 4.09816 20.0777 4.02405C20.0777 3.94994 20.0926 3.87656 20.1216 3.80809C20.1506 3.73962 20.1931 3.67741 20.2467 3.62501L22.0455 1.8654L23.8345 3.62501C23.9414 3.73084 24.0009 3.87387 24 4.02264C23.9991 4.17141 23.9378 4.31372 23.8296 4.41828C23.7214 4.52284 23.5752 4.58107 23.4231 4.58017C23.271 4.57927 23.1255 4.5193 23.0186 4.41347L22.6353 4.00001V14.3365C22.6353 15.0429 22.3484 15.7204 21.8378 16.2199C21.3271 16.7194 20.6346 17 19.9124 17H8.97203C8.61363 17.0012 8.25851 16.9333 7.92703 16.8C7.59555 16.6667 7.29423 16.4707 7.04035 16.2233C6.78647 15.9758 6.58503 15.6818 6.44758 15.358C6.31013 15.0342 6.23938 14.6871 6.23938 14.3365Z" fill="#fff" stroke="#fff" stroke-width="0.25"/>
<path fill-rule="evenodd" clip-rule="evenodd" d="M4.44057 15.8653V14.5961C4.44077 14.4404 4.42096 14.2854 4.38159 14.1345C4.34567 13.9973 4.28582 13.8672 4.20465 13.7499C4.12099 13.6439 4.01332 13.5583 3.89011 13.4999C3.75233 13.4346 3.60086 13.4017 3.44777 13.4038C3.33379 13.4039 3.2207 13.4234 3.11356 13.4615C2.99907 13.5035 2.89651 13.5716 2.81443 13.6603C2.73236 13.7489 2.67314 13.8555 2.64174 13.9711C2.57262 13.8394 2.46702 13.7295 2.33702 13.6538C2.20689 13.5636 2.05381 13.5103 1.89468 13.4999C1.72269 13.4978 1.5543 13.5482 1.41303 13.6442C1.27515 13.7404 1.16919 13.8742 1.10831 14.0288C1.03383 14.2089 0.997058 14.4018 1.00018 14.5961V15.8461L4.44057 15.8653ZM2.41566 15.2307H1.55064V14.6249C1.54942 14.5382 1.56966 14.4524 1.60962 14.3749C1.64225 14.3106 1.69353 14.2571 1.75707 14.2211C1.82981 14.1845 1.91134 14.1679 1.99298 14.173C2.07118 14.1712 2.14869 14.1877 2.21906 14.2211C2.28451 14.2535 2.33909 14.3035 2.37634 14.3653C2.41798 14.4387 2.43837 14.5218 2.43531 14.6057L2.41566 15.2307ZM3.90976 15.2307H2.9268V14.548C2.91884 14.4525 2.93575 14.3566 2.97595 14.2692C3.01667 14.196 3.0781 14.1359 3.15288 14.0961C3.2318 14.0562 3.31967 14.0364 3.40845 14.0384C3.49719 14.0368 3.58496 14.0566 3.66402 14.0961C3.73951 14.135 3.80119 14.1953 3.84096 14.2692C3.88713 14.3551 3.91078 14.4509 3.90976 14.548V15.2307Z" fill="#fff" stroke="#fff" stroke-width="0.25"/>
<path fill-rule="evenodd" clip-rule="evenodd" d="M4.43959 12.7788V12.1442H3.16173V11.5288L4.43959 10.8365V10.1154L3.16173 10.8365L3.02412 10.923H2.97497C2.92721 10.806 2.85332 10.7009 2.75871 10.6154C2.66234 10.5267 2.54866 10.4581 2.42451 10.4134C2.28578 10.3659 2.13867 10.3463 1.992 10.3557C1.85066 10.3557 1.71058 10.3818 1.57915 10.4327C1.47643 10.476 1.38303 10.538 1.30392 10.6154C1.21443 10.7068 1.14428 10.8146 1.0975 10.9327C1.07657 10.9857 1.06013 11.0404 1.04835 11.0961C1.04345 11.1666 1.04345 11.2372 1.04835 11.3077C1.04835 11.3942 1.04835 11.4904 1.04835 11.6057V12.7692L4.43959 12.7788ZM2.6211 12.1442H1.54967V11.673C1.54336 11.5962 1.54336 11.5191 1.54967 11.4423C1.54276 11.3912 1.54276 11.3395 1.54967 11.2884C1.58172 11.1999 1.64428 11.1251 1.7266 11.0769C1.81416 11.0309 1.91231 11.0078 2.01166 11.0096C2.08534 11.0054 2.15911 11.0161 2.22842 11.0409C2.29774 11.0657 2.36112 11.1041 2.41468 11.1538C2.51504 11.2649 2.56784 11.4095 2.56212 11.5577L2.6211 12.1442Z" fill="#fff" stroke="#fff" stroke-width="0.25"/>
<path fill-rule="evenodd" clip-rule="evenodd" d="M4.44032 10.029V9.38479L3.55565 9.08671V7.84633L4.44032 7.54825V6.89441L1.00977 8.12518V8.79825L4.44032 10.029ZM3.05434 8.92325L2.14018 8.60594L1.99273 8.55787H1.8158H1.67818H1.8158H1.99273H2.15984L3.074 8.25018L3.05434 8.92325Z" fill="#fff" stroke="#fff" stroke-width="0.25"/>
<path d="M4.44032 5.83667H1.00977V6.47128H4.44032V5.83667Z" fill="#fff" stroke="#fff" stroke-width="0.25"/>
<path fill-rule="evenodd" clip-rule="evenodd" d="M4.44032 5.02892V4.3847H1.93375H1.99273L2.13035 4.31739L2.30728 4.22123L2.47439 4.11546L4.44032 2.77893V2.15393H1.00977V2.78854H3.52616H3.46718L3.32957 2.85585L3.16246 2.92316L2.9757 3.05777L1.00977 4.3847V5.01931L4.44032 5.02892Z" fill="#fff" stroke="#fff" stroke-width="0.25"/>
<path fill-rule="evenodd" clip-rule="evenodd" d="M10.3188 13.7212C9.97057 13.5246 9.6952 13.225 9.53239 12.8654C9.35653 12.4583 9.2727 12.0188 9.28665 11.577V10.1539V4.84622C9.28665 4.69321 9.34879 4.54646 9.45939 4.43827C9.57 4.33008 9.72001 4.26929 9.87643 4.26929C10.0328 4.26929 10.1829 4.33008 10.2935 4.43827C10.4041 4.54646 10.4662 4.69321 10.4662 4.84622V10.1539V11.6058C10.442 11.973 10.5497 12.337 10.7709 12.6347C10.8933 12.7681 11.046 12.8716 11.2167 12.9367C11.3875 13.0019 11.5715 13.0268 11.7539 13.0097C11.9362 13.0253 12.1197 12.9997 12.2902 12.9346C12.4607 12.8696 12.6136 12.7669 12.7369 12.6347C12.9389 12.3546 13.0361 12.0151 13.0121 11.6731C13.0103 11.6443 13.0103 11.6154 13.0121 11.5866V4.84622C13.0015 4.76749 13.0081 4.68745 13.0317 4.61146C13.0552 4.53546 13.0951 4.46525 13.1486 4.40554C13.2021 4.34582 13.268 4.29797 13.3419 4.26519C13.4159 4.23241 13.4961 4.21545 13.5773 4.21545C13.6585 4.21545 13.7387 4.23241 13.8127 4.26519C13.8866 4.29797 13.9525 4.34582 14.006 4.40554C14.0595 4.46525 14.0994 4.53546 14.1229 4.61146C14.1465 4.68745 14.1531 4.76749 14.1425 4.84622V5.04814V11.6635C14.1119 12.084 13.9913 12.4935 13.7886 12.8654C13.6219 13.2225 13.3475 13.5211 13.0023 13.7212C12.5855 13.9383 12.1177 14.0444 11.6458 14.0289C11.1836 14.0411 10.7262 13.9351 10.3188 13.7212Z" fill="#fff" stroke="#fff" stroke-width="0.25"/>
<path fill-rule="evenodd" clip-rule="evenodd" d="M15.2434 13.3461V4.90384C15.2334 4.81718 15.2427 4.72944 15.2706 4.64661C15.2985 4.56377 15.3443 4.48781 15.405 4.4239C15.4656 4.36 15.5397 4.30966 15.6221 4.27633C15.7045 4.24299 15.7932 4.22745 15.8823 4.23077H17.5828C18.0557 4.21492 18.5251 4.31403 18.9492 4.51923C19.2943 4.69735 19.5705 4.981 19.7355 5.32692C19.9119 5.72715 19.9958 6.16054 19.9813 6.59615V7.73076C20.0054 8.0461 19.9638 8.36294 19.859 8.66209C19.7543 8.96125 19.5885 9.23649 19.3718 9.47114C19.1129 9.68714 18.8128 9.85099 18.489 9.95329C18.1651 10.0556 17.8238 10.0943 17.4845 10.0673H16.4426V13.1154V13.3365C16.424 13.4779 16.3533 13.6079 16.2439 13.702C16.1344 13.7962 15.9937 13.8481 15.8479 13.8481C15.7022 13.8481 15.5614 13.7962 15.4519 13.702C15.3425 13.6079 15.2718 13.4779 15.2532 13.3365L15.2434 13.3461ZM18.4872 8.83653C18.721 8.57056 18.8376 8.22485 18.8116 7.87499V6.54807C18.8344 6.20482 18.7335 5.86459 18.5265 5.58653C18.4004 5.45999 18.246 5.36374 18.0754 5.30535C17.9049 5.24697 17.7228 5.22802 17.5435 5.25H16.4426V9.1346H17.4944C17.8539 9.16427 18.2107 9.05366 18.4872 8.82691V8.83653Z" fill="#fff" stroke="#fff" stroke-width="0.25"/>
</svg>
