<svg width="39" height="32" viewBox="0 0 39 32" fill="none" xmlns="http://www.w3.org/2000/svg">
<g clip-path="url(#clip0)">
<path fill-rule="evenodd" clip-rule="evenodd" d="M34.1101 22.232H10.5402C10.1145 22.2331 9.70127 22.0879 9.36991 21.8206C9.03855 21.5533 8.80912 21.1803 8.72013 20.764L5.11015 3.94697L1.72013 3.69796C1.47719 3.67958 1.24028 3.61352 1.02286 3.50357C0.805448 3.39361 0.611829 3.24191 0.453041 3.05712C0.294252 2.87233 0.173435 2.65807 0.0974497 2.42658C0.0214641 2.1951 -0.00821558 1.9509 0.0101695 1.70796C0.0285545 1.46501 0.0945486 1.22808 0.204505 1.01066C0.314462 0.793244 0.46625 0.599609 0.651039 0.440821C0.835827 0.282033 1.05004 0.161201 1.28153 0.0852152C1.51302 0.00922953 1.75721 -0.0204197 2.00016 -0.00203461L6.78019 0.34997C7.1823 0.377518 7.56448 0.535006 7.8693 0.798701C8.17412 1.0624 8.385 1.418 8.47013 1.81196L12.0602 18.523H32.6101L35.3002 6.09896C35.4079 5.61706 35.7015 5.19723 36.1173 4.93089C36.5331 4.66455 37.0374 4.57329 37.5202 4.67697C37.7589 4.72687 37.9853 4.82346 38.1866 4.96121C38.3878 5.09895 38.5598 5.27512 38.6927 5.47958C38.8256 5.68404 38.9168 5.91275 38.961 6.15257C39.0052 6.39238 39.0014 6.63857 38.9501 6.87696L35.9401 20.763C35.8481 21.1797 35.6165 21.5524 35.2837 21.8196C34.9509 22.0867 34.5369 22.2322 34.1101 22.232ZM14.6202 24.609C15.3499 24.6139 16.0619 24.8348 16.6663 25.2439C17.2707 25.6529 17.7403 26.2318 18.0162 26.9074C18.292 27.5831 18.3614 28.3253 18.216 29.0404C18.0705 29.7555 17.7166 30.4116 17.1988 30.9258C16.6809 31.44 16.0224 31.7894 15.3063 31.9298C14.5902 32.0702 13.8484 31.9955 13.1747 31.715C12.501 31.4344 11.9255 30.9607 11.5207 30.3534C11.1159 29.7462 10.9 29.0327 10.9002 28.303C10.901 27.8159 10.9979 27.3338 11.1855 26.8842C11.373 26.4347 11.6475 26.0267 11.9931 25.6835C12.3387 25.3402 12.7487 25.0687 13.1995 24.8843C13.6503 24.6999 14.1331 24.6063 14.6202 24.609ZM30.3301 24.609C31.0599 24.6139 31.7719 24.8348 32.3763 25.2439C32.9806 25.6529 33.4503 26.2318 33.7261 26.9074C34.0019 27.5831 34.0715 28.3253 33.9261 29.0404C33.7806 29.7555 33.4266 30.4116 32.9087 30.9258C32.3909 31.44 31.7324 31.7894 31.0163 31.9298C30.3001 32.0702 29.5584 31.9955 28.8847 31.715C28.211 31.4344 27.6355 30.9607 27.2308 30.3534C26.826 29.7462 26.61 29.0327 26.6101 28.303C26.6109 27.8159 26.7079 27.3338 26.8954 26.8842C27.083 26.4347 27.3574 26.0267 27.703 25.6835C28.0487 25.3402 28.4586 25.0687 28.9095 24.8843C29.3603 24.6999 29.8431 24.6063 30.3301 24.609ZM31.0102 10.4H13.6502C13.1585 10.4 12.6868 10.2046 12.3391 9.85694C11.9915 9.50925 11.7962 9.03768 11.7962 8.54597C11.7962 8.05426 11.9915 7.58269 12.3391 7.235C12.6868 6.8873 13.1585 6.69197 13.6502 6.69197H31.0102C31.5019 6.69197 31.9734 6.8873 32.3211 7.235C32.6688 7.58269 32.8642 8.05426 32.8642 8.54597C32.8642 9.03768 32.6688 9.50925 32.3211 9.85694C31.9734 10.2046 31.5019 10.4 31.0102 10.4ZM29.7702 16.26H14.8902C14.6467 16.26 14.4056 16.212 14.1807 16.1188C13.9558 16.0257 13.7513 15.8891 13.5791 15.7169C13.407 15.5448 13.2705 15.3404 13.1773 15.1155C13.0841 14.8905 13.0362 14.6494 13.0362 14.406C13.0362 14.1625 13.0841 13.9214 13.1773 13.6965C13.2705 13.4715 13.407 13.2671 13.5791 13.095C13.7513 12.9228 13.9558 12.7863 14.1807 12.6931C14.4056 12.5999 14.6467 12.552 14.8902 12.552H29.7702C30.0137 12.552 30.2547 12.5999 30.4797 12.6931C30.7046 12.7863 30.9089 12.9228 31.0811 13.095C31.2533 13.2671 31.3899 13.4715 31.4831 13.6965C31.5762 13.9214 31.6242 14.1625 31.6242 14.406C31.6242 14.6494 31.5762 14.8905 31.4831 15.1155C31.3899 15.3404 31.2533 15.5448 31.0811 15.7169C30.9089 15.8891 30.7046 16.0257 30.4797 16.1188C30.2547 16.212 30.0137 16.26 29.7702 16.26Z" fill="#10B1E8"/>
</g>
<defs>
<clipPath id="clip0">
<rect width="39" height="32" fill="white"/>
</clipPath>
</defs>
</svg>
