<svg width="22" height="18" viewBox="0 0 22 18" fill="none" xmlns="http://www.w3.org/2000/svg">
<g clip-path="url(#clip0)">
<path d="M21.1462 2.6584C20.905 2.6515 20.6687 2.72737 20.4768 2.87336C20.2848 3.01935 20.1488 3.22664 20.0915 3.46063L18.5846 10.43H6.78095L5.02296 1.0038C5.01745 0.856167 4.98087 0.711342 4.91561 0.578743C4.85034 0.446143 4.75786 0.328738 4.64416 0.234158C4.53046 0.139578 4.3981 0.0699413 4.25567 0.0297744C4.11325 -0.0103925 3.96395 -0.0201904 3.81748 0.00101768H1.15538C0.875632 0.00101768 0.60734 0.111951 0.409528 0.309412C0.211716 0.506874 0.100586 0.774689 0.100586 1.05394C0.100586 1.3332 0.211716 1.60101 0.409528 1.79847C0.60734 1.99593 0.875632 2.10687 1.15538 2.10687H3.06406L5.02296 11.6835C5.08032 11.9175 5.21632 12.1247 5.40828 12.2707C5.60023 12.4167 5.83653 12.4926 6.07775 12.4857H19.2376C19.4434 12.4513 19.6345 12.3567 19.7865 12.2139C19.9385 12.0711 20.0446 11.8865 20.0915 11.6835L21.9499 3.86174C21.9952 3.59665 21.9372 3.3243 21.7878 3.10055C21.6383 2.87679 21.4088 2.7186 21.1462 2.6584ZM8.23757 13.8395C7.83255 13.8493 7.43945 13.9782 7.10746 14.21C6.77547 14.4418 6.51935 14.7662 6.37116 15.1426C6.22296 15.519 6.18928 15.9307 6.27432 16.3261C6.35936 16.7215 6.55935 17.0831 6.84926 17.3656C7.13917 17.6481 7.50611 17.8389 7.90415 17.9143C8.3022 17.9896 8.71367 17.9461 9.08705 17.7891C9.46043 17.6322 9.77914 17.3688 10.0033 17.0319C10.2274 16.695 10.347 16.2996 10.3472 15.8952C10.334 15.3454 10.106 14.8226 9.71179 14.4384C9.31758 14.0543 8.78847 13.8393 8.23757 13.8395ZM17.0778 13.8395C16.6727 13.8493 16.2796 13.9782 15.9476 14.21C15.6157 14.4418 15.3595 14.7662 15.2113 15.1426C15.0631 15.519 15.0295 15.9307 15.1145 16.3261C15.1995 16.7215 15.3995 17.0831 15.6894 17.3656C15.9793 17.6481 16.3463 17.8389 16.7443 17.9143C17.1424 17.9896 17.5538 17.9461 17.9272 17.7891C18.3006 17.6322 18.6193 17.3688 18.8435 17.0319C19.0676 16.695 19.1872 16.2996 19.1873 15.8952C19.1742 15.3454 18.9462 14.8226 18.552 14.4384C18.1578 14.0543 17.6287 13.8393 17.0778 13.8395ZM7.68506 5.86731H17.4796C17.7593 5.86731 18.0276 5.75638 18.2254 5.55892C18.4232 5.36146 18.5344 5.09364 18.5344 4.81439C18.5344 4.53513 18.4232 4.26732 18.2254 4.06986C18.0276 3.8724 17.7593 3.76146 17.4796 3.76146H7.68506C7.40531 3.76146 7.13702 3.8724 6.93921 4.06986C6.7414 4.26732 6.63027 4.53513 6.63027 4.81439C6.63027 5.09364 6.7414 5.36146 6.93921 5.55892C7.13702 5.75638 7.40531 5.86731 7.68506 5.86731ZM8.38826 7.07065C8.10851 7.07065 7.84022 7.18159 7.6424 7.37905C7.44459 7.57651 7.33346 7.84433 7.33346 8.12358C7.33346 8.40283 7.44459 8.67065 7.6424 8.86811C7.84022 9.06557 8.10851 9.17651 8.38826 9.17651H16.7764C17.0561 9.17651 17.3244 9.06557 17.5222 8.86811C17.72 8.67065 17.8312 8.40283 17.8312 8.12358C17.8312 7.84433 17.72 7.57651 17.5222 7.37905C17.3244 7.18159 17.0561 7.07065 16.7764 7.07065H8.38826Z" fill="white"/>
</g>
<defs>
<clipPath id="clip0">
<rect width="22" height="18" fill="white"/>
</clipPath>
</defs>
</svg>
