<svg width="30" height="28" viewBox="0 0 30 28" fill="none" xmlns="http://www.w3.org/2000/svg">
<g clip-path="url(#clip0)">
<path d="M16.9 27.1H2.1C1 27.1 0 26.2 0 25.1V2C0 0.9 0.9 0 2.1 0H17C18.1 0 19 0.9 19 2V2.5C19 2.7 18.8 2.9 18.7 2.9C18.6 2.9 18.4 2.7 18.4 2.5V2C18.4 1.3 17.8 0.7 17 0.7H2.1C1.3 0.7 0.7 1.3 0.7 2V25C0.7 25.7 1.3 26.3 2.1 26.3H17C17.7 26.3 18.4 25.7 18.4 25V16.2C18.4 16 18.6 15.9 18.7 15.9C18.8 15.9 19 16.1 19 16.2V25C19 26.1 18.1 27.1 16.9 27.1Z" fill="#10B1E8"/>
<path d="M11 25.2H8.09995C7.89995 25.2 7.69995 25 7.69995 24.9C7.69995 24.8 7.89995 24.6 8.09995 24.6H11C11.2 24.6 11.4 24.8 11.4 24.9C11.4 25 11.2 25.2 11 25.2Z" fill="#10B1E8"/>
<path d="M12.1 2.8H7.09995C6.89995 2.8 6.69995 2.6 6.69995 2.4C6.69995 2.2 6.89995 2 7.09995 2H12.1C12.3 2 12.5 2.2 12.5 2.4C12.5 2.6 12.3 2.8 12.1 2.8Z" fill="#10B1E8"/>
<path d="M18.5 23.5H0.599951C0.399951 23.5 0.199951 23.3 0.199951 23.2C0.199951 23.1 0.399951 22.9 0.599951 22.9H18.5C18.7 22.9 18.7999 23.1 18.7999 23.2C18.7999 23.3 18.7 23.5 18.5 23.5Z" fill="#10B1E8"/>
<path d="M21.3 9.19997C21.1 9.19997 21 9.19997 20.8 9.09997L18 7.39997C17.8 7.29997 17.6 7.09997 17.6 6.79997C17.5 6.59997 17.6 6.29997 17.7 6.09997L20 2.19997C20.1 1.99997 20.3 1.79997 20.5 1.79997C20.7 1.69997 21 1.79997 21.2 1.89997L24 3.59997C24.2 3.69997 24.4 3.89997 24.4 4.09997C24.5 4.29997 24.4 4.59997 24.3 4.79997L22 8.69997C21.9 8.89997 21.7 9.09997 21.5 9.09997C21.5 9.19997 21.4 9.19997 21.3 9.19997ZM20.7 2.49997C20.6 2.49997 20.6 2.59997 20.5 2.59997L18.2 6.49997C18.2 6.49997 18.2 6.59997 18.2 6.69997C18.2 6.79997 18.2 6.79997 18.3 6.79997L21.2 8.49997C21.2 8.49997 21.3 8.49997 21.4 8.49997C21.5 8.49997 21.5 8.49997 21.5 8.39997L23.8 4.49997C23.8 4.49997 23.8 4.39997 23.8 4.29997C23.8 4.19997 23.8 4.19997 23.7 4.19997L20.8 2.49997C20.8 2.49997 20.8 2.49997 20.7 2.49997Z" fill="#10B1E8"/>
<path d="M21.6001 2.70006C21.5001 2.70006 21.5001 2.70006 21.4001 2.70006C21.2001 2.60006 21.2001 2.40006 21.3001 2.20006L22.3001 0.40006C22.4001 0.20006 22.6001 0.20006 22.8001 0.30006C23.0001 0.40006 23.0001 0.60006 22.9001 0.80006L21.9001 2.60006C21.8001 2.60006 21.7001 2.70006 21.6001 2.70006Z" fill="#10B1E8"/>
<path d="M23.5 3.90001C23.4 3.90001 23.4 3.90001 23.3 3.90001C23.1 3.80001 23.1 3.60001 23.2 3.40001L24.2 1.60001C24.3 1.40001 24.5 1.40001 24.7 1.50001C24.9 1.60001 24.9 1.80001 24.8 2.00001L23.8 3.80001C23.8 3.80001 23.6 3.90001 23.5 3.90001Z" fill="#10B1E8"/>
<path d="M19.7 10.5L17.4 9.19995L18.5 7.19995L19.2 7.59995L18.4 8.89995L19.4 9.49995L20.2 8.19995L20.8 8.49995L19.7 10.5Z" fill="#10B1E8"/>
<path d="M21.5 19.5L20 18.6L21.1 16.8L21.7 16.6L22.5 17.1L22.6 17.7L21.5 19.5ZM20.7 18.4L21.4 18.8L22.1 17.6V17.4L21.6 17.1L21.4 17.2L20.7 18.4Z" fill="#10B1E8"/>
<path d="M20.9 20.2L19.7 19.5L20.2999 18.5L20.6 18.7L20.2 19.4L20.7999 19.7L21.2 19L21.5 19.2L20.9 20.2Z" fill="#10B1E8"/>
<path d="M20.7001 19.6L20.3 19.4L20.4 19.2L20.8 19.4L20.7001 19.6Z" fill="#10B1E8"/>
<path d="M13.2 19.5C12.3 19.5 11.5 19.1 11 18.4C10.4 17.7 10.3 16.6 10.7 15.7C11.1 14.7 12.1 13.8 13.5 13.1C15.1 12.3 16.4 11.7 17.2 11C18 10.3 18.4 9.50002 18.4 9.40002L19 9.70002C19 9.70002 18.6 10.7 17.7 11.5C16.8 12.3 15.5 13 13.9 13.7C12.6 14.3 11.7 15.1 11.4 16C11.1 16.7 11.2 17.5 11.6 18C12 18.5 12.7 18.8 13.5 18.8C14.6 18.7 15.3 17.9 15.9 17.2C16.2 16.8 16.5 16.3 16.9 15.7C17.5 14.8 18 13.9 18.5 13.4C19.4 12.4 20.2 11.9 21.4 12.1C22 12.2 22.4 12.5 22.7 13C23.2 13.7 23.2 14.8 23 15.5C22.8 16.2 22.7 16.7 22.5 17.1L21.9 16.8C22.1 16.5 22.2 16 22.4 15.4C22.5 14.8 22.5 14 22.2 13.5C22 13.2 21.7 13 21.4 12.9C20.5 12.7 19.9 13.1 19.2 14C18.7 14.5 18.2 15.4 17.6 16.2C17.2 16.8 16.9 17.3 16.6 17.7C16 18.5 15.1 19.5 13.7 19.6C13.4 19.5 13.3 19.5 13.2 19.5Z" fill="#10B1E8"/>
<path d="M24.2 26.9H24C23.9 26.9 23.8 26.8 23.7 26.7C23.4 26.1 23.6 23.4 23.6 23.3L27.7 6.69998C27.9 6.09998 28.5 5.69998 29.2 5.79998C29.8 5.99998 30.2 6.59998 30.1 7.29998L26 23.9C26 24.1 24.9 26.6 24.4 26.9H24.2ZM28.8 6.29998C28.6 6.29998 28.4 6.49998 28.3 6.69998L24.2 23.3C24.2 23.5 24.1 25 24.1 25.7C24.5 25 25.1 23.7 25.2 23.5L29.3 6.99998C29.4 6.69998 29.2 6.49998 28.9 6.39998C28.9 6.39998 28.9 6.29998 28.8 6.29998Z" fill="#10B1E8"/>
</g>
<defs>
<clipPath id="clip0">
<rect width="30" height="27.1" fill="white"/>
</clipPath>
</defs>
</svg>
