<svg width="23" height="17" viewBox="0 0 23 17" fill="none" xmlns="http://www.w3.org/2000/svg">
<g clip-path="url(#clip0)">
<path fill-rule="evenodd" clip-rule="evenodd" d="M17.8731 1.50859C17.8348 1.50859 12.7747 1.50859 12.7747 1.47061V0.664568C12.8035 -0.22787 10.2065 -0.22787 10.2352 0.664568V1.47251C10.2352 1.51048 5.44349 1.47252 5.13683 1.51049L0.00976562 13.3116C1.0831 15.7895 2.78895 17.0095 5.0602 17.0095C7.33145 17.0095 9.03727 15.7895 10.0819 13.3476L6.44974 3.50804H16.6368L12.9377 13.3476C13.9727 15.7895 15.6785 17.0095 17.9497 17.0095C20.221 17.0095 21.9268 15.7895 23.0002 13.3116L17.8731 1.50859ZM7.87764 13.3457C7.83931 13.3457 2.20431 13.3457 2.24264 13.3097C2.31931 13.2347 4.98346 6.39042 4.98346 6.39042C5.13679 5.94705 5.25185 5.94705 5.40519 6.39042L7.87764 13.3457ZM20.7289 13.1606H15.1705C15.8458 10.8342 16.6587 8.54918 17.6047 6.31732C17.7581 5.94705 17.8731 5.94705 18.0265 6.31732C20.6906 12.9755 20.7289 13.1226 20.7289 13.1606Z" fill="#10B1E8"/>
</g>
<defs>
<clipPath id="clip0">
<rect width="23" height="17" fill="white"/>
</clipPath>
</defs>
</svg>
