<svg width="24" height="22" viewBox="0 0 16 16" fill="none" xmlns="http://www.w3.org/2000/svg">
<path d="M14.5455 3.04761H1.45455C0.651222 3.04761 0 3.72984 0 4.57142V14.4762C0 15.3178 0.651222 16 1.45455 16H14.5455C15.3488 16 16 15.3178 16 14.4762V4.57142C16 3.72984 15.3488 3.04761 14.5455 3.04761Z" fill="#EF6406"/>
<path d="M14.5455 2.28552H1.45455C0.651222 2.28552 0 2.96776 0 3.80933V13.7141C0 14.5557 0.651222 15.2379 1.45455 15.2379H14.5455C15.3488 15.2379 16 14.5557 16 13.7141V3.80933C16 2.96776 15.3488 2.28552 14.5455 2.28552Z" fill="#F79839"/>
<path d="M1.45455 2.28552H14.5455C14.9312 2.28552 15.3012 2.44607 15.574 2.73184C15.8468 3.01761 16 3.40519 16 3.80933V6.09505H0V3.80933C0 3.40519 0.153246 3.01761 0.426027 2.73184C0.698807 2.44607 1.06878 2.28552 1.45455 2.28552Z" fill="#EF6406"/>
<path d="M4.36373 0H3.63645C3.23479 0 2.90918 0.341116 2.90918 0.761905V3.80952C2.90918 4.23031 3.23479 4.57143 3.63645 4.57143H4.36373C4.76539 4.57143 5.091 4.23031 5.091 3.80952V0.761905C5.091 0.341116 4.76539 0 4.36373 0Z" fill="#00B400"/>
<path d="M12.3636 0H11.6363C11.2347 0 10.9091 0.341116 10.9091 0.761905V3.80952C10.9091 4.23031 11.2347 4.57143 11.6363 4.57143H12.3636C12.7653 4.57143 13.0909 4.23031 13.0909 3.80952V0.761905C13.0909 0.341116 12.7653 0 12.3636 0Z" fill="#00B400"/>
</svg>
