<svg width="15" height="18" viewBox="0 0 15 18" fill="none" xmlns="http://www.w3.org/2000/svg">
<g clip-path="url(#clip0)">
<path fill-rule="evenodd" clip-rule="evenodd" d="M9.42894 12.2411C10.3166 12.2831 11.1606 12.6293 11.8119 13.2186C12.4633 13.8079 12.8801 14.6024 12.9891 15.462L12.9994 15.5201L13.0096 15.5781C13.0232 15.6961 12.9902 15.8148 12.9173 15.91C12.8798 15.9579 12.8245 15.9895 12.7634 15.998H2.24699C2.21668 15.9955 2.18724 15.9868 2.1607 15.9723C2.13416 15.9578 2.1111 15.9379 2.09307 15.9141C2.05144 15.8648 2.02162 15.8071 2.00565 15.7452C1.98968 15.6833 1.98799 15.6187 2.00076 15.5561C2.09272 14.6741 2.5071 13.8537 3.16828 13.2449C3.82946 12.6361 4.69333 12.2794 5.60201 12.2401H9.42894V12.2411ZM9.42894 10.2401H5.60201C4.21169 10.2844 2.88379 10.8134 1.85962 11.7309C0.83544 12.6484 0.182877 13.8935 0.0205452 15.2401C-0.043658 15.5666 -0.0350571 15.9027 0.0457191 16.2257C0.126495 16.5487 0.27755 16.851 0.488704 17.1121C0.699858 17.3732 0.966234 17.587 1.2696 17.739C1.57296 17.891 1.90626 17.9776 2.24699 17.993H12.7634C13.1077 17.9759 13.4441 17.8863 13.7494 17.7304C14.0548 17.5745 14.3219 17.3561 14.5325 17.09C14.743 16.824 14.892 16.5167 14.9692 16.1893C15.0464 15.8618 15.0499 15.522 14.9796 15.1931L14.959 15.1061C14.7756 13.7881 14.12 12.5757 13.108 11.6833C12.0959 10.791 10.7928 10.2763 9.42894 10.23V10.23V10.2401ZM7.50007 2.00006C7.82282 2.00284 8.14035 2.07936 8.42724 2.22351C8.71413 2.36766 8.96236 2.57544 9.1519 2.83008C9.45855 3.23505 9.60827 3.73274 9.57447 4.23499C9.54067 4.73723 9.32559 5.21158 8.96729 5.57404V5.58203C8.77937 5.77522 8.55362 5.92971 8.30338 6.03638C8.05313 6.14304 7.78344 6.19974 7.51034 6.20306C7.21819 6.19981 6.93005 6.1364 6.66482 6.01697C6.39959 5.89754 6.16326 5.72479 5.97135 5.51007C5.6477 5.15138 5.45669 4.69736 5.42879 4.22046C5.4009 3.74356 5.5377 3.27131 5.81742 2.87909C6.00488 2.61167 6.25571 2.39214 6.54859 2.23914C6.84147 2.08614 7.1678 2.00414 7.50007 2.00006V2.00006ZM7.50007 6.10352e-05C6.85292 0.00407179 6.21622 0.159167 5.64321 0.452332C5.0702 0.745497 4.57761 1.1682 4.20667 1.68506C3.64768 2.45823 3.37377 3.39312 3.42966 4.3374C3.48556 5.28168 3.86788 6.17969 4.51439 6.88507L4.53493 6.90607C4.90064 7.30627 5.34764 7.62805 5.84761 7.85107C6.34758 8.0741 6.88967 8.19348 7.43945 8.20166C7.98923 8.20984 8.53471 8.10667 9.04143 7.89862C9.54815 7.69057 10.0051 7.38218 10.3832 6.99304L10.4241 6.95007C11.1183 6.23846 11.5304 5.30952 11.5867 4.32916C11.6431 3.3488 11.3402 2.38085 10.732 1.59808C10.3569 1.10592 9.86987 0.705244 9.30908 0.427612C8.74828 0.149981 8.12903 0.00292585 7.50007 -0.00195312V6.10352e-05Z" fill="#344150"/>
</g>
<defs>
<clipPath id="clip0">
<rect width="15" height="18" fill="white"/>
</clipPath>
</defs>
</svg>
