<svg width="16" height="16" viewBox="0 0 16 16" fill="none" xmlns="http://www.w3.org/2000/svg">
<path d="M0.589474 5.06667H1.17895C1.51579 5.06667 1.76842 4.8 1.76842 4.44444V1.86667H4.29474C4.63158 1.86667 4.88421 1.6 4.88421 1.24444V0.622222C4.88421 0.266667 4.63158 0 4.29474 0H0.589474C0.252632 0 0 0.266667 0 0.622222V4.35556C0 4.71111 0.252632 5.06667 0.589474 5.06667ZM15.4105 0H11.7895C11.4526 0 11.2 0.266667 11.2 0.622222V1.24444C11.2 1.6 11.4526 1.86667 11.7895 1.86667H14.2316V4.35556C14.2316 4.71111 14.4842 4.97778 14.8211 4.97778H15.4105C15.7474 5.06667 16 4.71111 16 4.44444V0.622222C16 0.266667 15.7474 0 15.4105 0ZM4.29474 14.1333H1.76842V11.6444C1.76842 11.2889 1.51579 11.0222 1.17895 11.0222H0.589474C0.252632 11.0222 0 11.2889 0 11.6444V15.3778C0 15.7333 0.252632 16 0.589474 16H4.29474C4.63158 16 4.88421 15.7333 4.88421 15.3778V14.7556C4.88421 14.4 4.63158 14.1333 4.29474 14.1333ZM15.4105 10.9333H14.8211C14.4842 10.9333 14.2316 11.2 14.2316 11.5556V14.0444H11.7895C11.4526 14.0444 11.2 14.3111 11.2 14.6667V15.2889C11.2 15.6444 11.4526 15.9111 11.7895 15.9111H15.4105C15.7474 15.9111 16 15.6444 16 15.2889V11.5556C16 11.2889 15.7474 10.9333 15.4105 10.9333ZM8.25263 4.08889H7.91579C7.57895 4.08889 7.24211 4.35556 7.24211 4.71111V6.4C7.24211 6.75556 7.49474 7.02222 7.83158 7.02222H8.25263C8.58947 7.02222 8.8421 6.75556 8.8421 6.4V4.71111C8.8421 4.35556 8.58947 4.08889 8.25263 4.08889ZM8.25263 8.8H7.91579C7.57895 8.8 7.32632 9.06667 7.32632 9.42222V11.1111C7.32632 11.4667 7.57895 11.7333 7.91579 11.7333H8.33684C8.67368 11.7333 8.92632 11.4667 8.92632 11.1111V9.42222C8.84211 9.15556 8.58947 8.8 8.25263 8.8ZM11.6211 8.26667V7.82222C11.6211 7.46667 11.3684 7.2 11.0316 7.2H9.68421C9.34737 7.2 9.09474 7.46667 9.09474 7.82222V8.26667C9.09474 8.62222 9.34737 8.88889 9.68421 8.88889H11.0316C11.3684 8.88889 11.6211 8.62222 11.6211 8.26667ZM6.48421 7.2H5.13684C4.8 7.2 4.54737 7.46667 4.54737 7.82222V8.26667C4.54737 8.62222 4.8 8.88889 5.13684 8.88889H6.48421C6.82105 8.88889 7.07368 8.62222 7.07368 8.26667V7.82222C7.07368 7.46667 6.82105 7.2 6.48421 7.2Z" fill="#10B1E8"/>
</svg>
