<svg width="18" height="18" viewBox="0 0 18 18" fill="none" xmlns="http://www.w3.org/2000/svg">
<path d="M0.663158 5.7H1.32632C1.70526 5.7 1.98947 5.4 1.98947 5V2.1H4.83158C5.21053 2.1 5.49474 1.8 5.49474 1.4V0.7C5.49474 0.3 5.21053 0 4.83158 0H0.663158C0.284211 0 0 0.3 0 0.7V4.9C0 5.3 0.284211 5.7 0.663158 5.7ZM17.3368 0H13.2632C12.8842 0 12.6 0.3 12.6 0.7V1.4C12.6 1.8 12.8842 2.1 13.2632 2.1H16.0105V4.9C16.0105 5.3 16.2947 5.6 16.6737 5.6H17.3368C17.7158 5.7 18 5.3 18 5V0.7C18 0.3 17.7158 0 17.3368 0ZM4.83158 15.9H1.98947V13.1C1.98947 12.7 1.70526 12.4 1.32632 12.4H0.663158C0.284211 12.4 0 12.7 0 13.1V17.3C0 17.7 0.284211 18 0.663158 18H4.83158C5.21053 18 5.49474 17.7 5.49474 17.3V16.6C5.49474 16.2 5.21053 15.9 4.83158 15.9ZM17.3368 12.3H16.6737C16.2947 12.3 16.0105 12.6 16.0105 13V15.8H13.2632C12.8842 15.8 12.6 16.1 12.6 16.5V17.2C12.6 17.6 12.8842 17.9 13.2632 17.9H17.3368C17.7158 17.9 18 17.6 18 17.2V13C18 12.7 17.7158 12.3 17.3368 12.3ZM9.28421 4.6H8.90526C8.52632 4.6 8.14737 4.9 8.14737 5.3V7.2C8.14737 7.6 8.43158 7.9 8.81053 7.9H9.28421C9.66316 7.9 9.94737 7.6 9.94737 7.2V5.3C9.94737 4.9 9.66316 4.6 9.28421 4.6ZM9.28421 9.9H8.90526C8.52632 9.9 8.24211 10.2 8.24211 10.6V12.5C8.24211 12.9 8.52632 13.2 8.90526 13.2H9.37895C9.75789 13.2 10.0421 12.9 10.0421 12.5V10.6C9.94737 10.3 9.66316 9.9 9.28421 9.9ZM13.0737 9.3V8.8C13.0737 8.4 12.7895 8.1 12.4105 8.1H10.8947C10.5158 8.1 10.2316 8.4 10.2316 8.8V9.3C10.2316 9.7 10.5158 10 10.8947 10H12.4105C12.7895 10 13.0737 9.7 13.0737 9.3ZM7.29474 8.1H5.77895C5.4 8.1 5.11579 8.4 5.11579 8.8V9.3C5.11579 9.7 5.4 10 5.77895 10H7.29474C7.67368 10 7.95789 9.7 7.95789 9.3V8.8C7.95789 8.4 7.67368 8.1 7.29474 8.1Z" fill="#344150"/>
</svg>
