<svg width="128" height="21" viewBox="0 0 128 21" fill="none" xmlns="http://www.w3.org/2000/svg">
<path fill-rule="evenodd" clip-rule="evenodd" d="M8.49109 6.67617C6.6931 6.67617 4.89187 6.67289 3.0874 6.67289V2.12793H8.49109V6.67617Z" fill="#F68B1F"/>
<path fill-rule="evenodd" clip-rule="evenodd" d="M24.673 14.6594C24.673 15.9467 24.0186 17.7496 22.8458 18.784C21.6731 19.8184 20.5522 20.3636 18.6019 20.3636H3.0874V9.42153H8.49433V15.8088H17.507C18.0026 15.8088 18.3687 15.684 18.738 15.3457C19.1106 15.0075 19.2823 14.5346 19.2823 14.0781V8.30171C19.2823 7.99631 19.0976 7.51357 18.7283 7.15562C18.359 6.79768 17.8925 6.68602 17.3838 6.68602C14.9671 6.68602 12.5568 6.68274 10.1465 6.67945V2.12793H18.7089C20.3481 2.12793 21.469 2.53842 22.7843 3.65496C24.1028 4.77149 24.6698 6.53824 24.6698 7.81569V14.6594H24.673Z" fill="#0095DA"/>
<path fill-rule="evenodd" clip-rule="evenodd" d="M87.8263 20.3636H72.0105C70.6984 20.3636 69.3637 19.9465 68.0808 18.7971C66.9146 17.7561 66.2407 16.0682 66.2407 14.6594V7.81898C66.2407 6.39375 66.8789 4.70581 68.1975 3.58928C69.516 2.47274 70.6498 2.12793 72.3118 2.12793H87.8781V6.68274H73.5331C73.0212 6.68274 72.5709 6.8338 72.1887 7.15234C71.8258 7.45774 71.6476 7.8354 71.6476 8.27216V14.1996C71.6476 14.6463 71.8777 15.06 72.1887 15.3523C72.4997 15.6446 72.9467 15.8022 73.3906 15.8022H82.4388V13.0634H77.0384V9.42153H87.8295V20.3636H87.8263Z" fill="#0095DA"/>
<path fill-rule="evenodd" clip-rule="evenodd" d="M107.601 20.3636H89.7148V9.4281H107.601V13.07H95.1153V15.8088H107.601V20.3636ZM89.7148 6.68274V2.12793H107.601V6.68274H89.7148Z" fill="#0095DA"/>
<path d="M127.379 2.12793H109.493V6.68274H127.379V2.12793Z" fill="#F68B1F"/>
<path fill-rule="evenodd" clip-rule="evenodd" d="M127.379 20.3636H109.493V9.4281H127.379V13.0667H114.893V15.8088H127.379V20.3636Z" fill="#0095DA"/>
<path fill-rule="evenodd" clip-rule="evenodd" d="M3.32061 2.79462C2.2159 2.79462 1.10795 2.79134 0 2.79134V0H3.32061V2.79462Z" fill="#F68B1F"/>
<path fill-rule="evenodd" clip-rule="evenodd" d="M41.5934 20.3636H32.1985C30.7212 20.3636 29.3865 19.7134 28.3854 18.8037C27.3844 17.8941 26.5615 16.2291 26.5615 14.6594V7.81899C26.5615 6.37734 27.2548 4.73538 28.4211 3.65497C29.5873 2.57456 31.0257 2.13123 32.2017 2.13123H41.5674C42.6462 2.13123 43.4205 2.24288 44.2175 2.63695C42.9896 3.69766 42.0858 5.05721 41.6387 6.82396C41.3731 6.70902 41.169 6.68603 40.8612 6.68603H33.8539C33.342 6.68603 32.9436 6.78455 32.5548 7.09981C32.1952 7.4085 31.9685 7.83869 31.9685 8.27874V14.2062C31.9685 14.6528 32.179 15.0732 32.4835 15.3457C32.8237 15.6347 33.1509 15.8121 33.6628 15.8121H41.0361C41.5448 15.8121 41.8622 15.6544 42.2089 15.3523C42.5555 15.0502 42.7564 14.5215 42.7564 14.2062C42.7564 12.1439 42.7629 10.5151 42.7629 8.45607C42.7629 6.72216 43.7704 4.71239 45.3092 3.51376C46.4625 2.61725 47.9301 2.13123 49.3976 2.13123H58.6078C60.1693 2.13123 61.4393 2.7092 62.5213 3.71079C63.6033 4.71239 64.3452 6.26241 64.3452 7.82227V14.6627C64.3452 16.2324 63.6843 17.8087 62.3658 18.9285C61.0311 20.0418 59.8421 20.3669 58.3681 20.3669H49.2907C48.2216 20.3669 47.6644 20.2388 46.767 19.8644C48.092 18.7446 48.9084 17.2833 49.3458 15.6807C49.6049 15.7924 49.8058 15.8121 50.1103 15.8121H57.1176C57.7202 15.8121 58.0733 15.6643 58.4459 15.3195C58.8217 14.9747 58.9545 14.5346 58.9545 14.0814V8.25903C58.9545 7.98647 58.7666 7.45447 58.3973 7.1425C58.0118 6.82724 57.6781 6.68275 57.1144 6.68275H50.1071C49.5952 6.68275 49.1417 6.7944 48.7691 7.15563C48.3966 7.51687 48.2216 7.99304 48.2216 8.27545V13.8647C48.2216 15.7628 47.3404 17.5755 45.9053 18.7906C44.7552 19.7758 43.2294 20.3636 41.5934 20.3636Z" fill="#0095DA"/>
</svg>
