<svg width="77" height="20" viewBox="0 0 77 20" fill="none" xmlns="http://www.w3.org/2000/svg">
<g clip-path="url(#clip0)">
<path d="M12.4648 8.59553C12.461 5.84736 14.528 3.92725 17.4899 3.92725C20.4534 3.92304 22.5255 5.8376 22.527 8.58576C22.527 8.58576 22.5335 14.2829 22.535 14.9212H20.9279C20.9279 14.2877 20.9222 8.58576 20.9222 8.58576C20.9203 6.6994 19.4149 5.22451 17.492 5.22663C15.5734 5.22904 14.0692 6.70703 14.0709 8.59447C14.0709 8.59447 14.0758 14.2937 14.0764 14.9263C13.6626 14.9287 12.8868 14.9287 12.4702 14.9287C12.4702 14.2937 12.4649 8.5956 12.4649 8.5956" fill="#0D76BD"/>
<path d="M38.5973 0.300781C38.5981 0.965224 38.6117 14.2409 38.6117 14.9049C38.1807 14.9055 37.4186 14.9055 36.9868 14.9055C36.9868 14.244 36.9736 0.96773 36.9736 0.303287C37.4059 0.303287 38.1678 0.300882 38.5973 0.300882" fill="#0D76BD"/>
<path d="M70.8834 4.05701C67.8825 4.06001 65.4531 6.49535 65.4561 9.5005L65.4669 19.6993L66.9178 19.6969L66.9095 9.4981C66.9061 7.29447 68.6881 5.51209 70.8849 5.50954C73.0837 5.50833 74.8707 7.28576 74.873 9.49066C74.8747 11.6854 73.0962 13.4697 70.8934 13.4722L67.8329 13.4764L67.8339 14.9288L70.8934 14.9264C73.896 14.9216 76.3305 12.4864 76.3278 9.48802C76.3238 6.48562 73.8837 4.05598 70.8834 4.05725" fill="#0D76BD"/>
<path d="M45.8682 4.08155C42.82 4.08395 40.4322 6.47468 40.4356 9.52186C40.4387 12.5701 42.8304 14.9533 45.878 14.9492C48.9264 14.9468 51.3109 12.5595 51.3083 9.51231C51.3043 6.46428 48.9169 4.07773 45.8682 4.08155ZM45.8763 13.4985C43.6453 13.4985 41.8941 11.7529 41.892 9.52186C41.8892 7.28555 43.6376 5.5367 45.8682 5.53437C48.0997 5.53196 49.8523 7.28025 49.8549 9.51443C49.8576 11.7446 48.1079 13.4936 45.8763 13.4985Z" fill="#0D76BD"/>
<path d="M58.3155 4.06922C55.2653 4.07343 52.8803 6.46278 52.8843 9.50953C52.8868 12.5578 55.2783 14.9403 58.3237 14.9369C61.3735 14.9345 63.756 12.5455 63.7524 9.5004C63.7503 6.45089 61.3618 4.06709 58.3155 4.06922ZM58.3229 13.4862C56.0906 13.4862 54.3407 11.7407 54.3358 9.50868C54.3358 7.27661 56.0823 5.52395 58.3155 5.52204C60.548 5.51963 62.3011 7.26706 62.3034 9.5004C62.307 11.7348 60.5556 13.4845 58.3229 13.4862Z" fill="#0D76BD"/>
<path d="M8.90555 11.5148C8.2322 12.7265 6.95319 13.5374 5.43756 13.5374C3.29441 13.5398 1.6001 11.9309 1.46386 9.82596L9.40277 9.81772H10.8564C10.8613 9.72667 10.8675 9.64009 10.8675 9.5533C10.863 6.504 8.47752 4.11829 5.42822 4.12C2.38189 4.1224 -0.00381527 6.51377 4.58063e-06 9.56391C0.00211001 12.609 2.39144 14.9928 5.43904 14.9904C7.57816 14.988 9.38664 13.8099 10.2748 12.0553L8.90555 11.5148ZM5.42992 5.57511C7.28849 5.5715 8.81367 6.78282 9.26844 8.47523L1.59522 8.48395C2.05126 6.79112 3.57114 5.57513 5.42992 5.57513" fill="#0D76BD"/>
<path d="M33.1727 11.4927C32.4961 12.7044 31.2146 13.5134 29.6987 13.5134C27.5584 13.5176 25.8666 11.9061 25.7272 9.80325L33.6671 9.79537L34.3851 9.79296H35.1183C35.125 9.70362 35.1291 9.61789 35.1291 9.52897C35.1278 6.47882 32.7404 4.09481 29.6913 4.09778C26.6463 4.10199 24.2627 6.48922 24.2642 9.53809C24.2697 12.5859 26.6562 14.9699 29.7021 14.9659C31.8404 14.9641 33.651 13.7879 34.5393 12.0314L33.1727 11.4927ZM29.6926 5.54836C31.5531 5.54836 33.0715 6.7601 33.5356 8.45336L25.8602 8.46118C26.318 6.76665 27.8368 5.55279 29.6926 5.54833" fill="#0D76BD"/>
</g>
<defs>
<clipPath id="clip0">
<rect width="76.9293" height="20" fill="white"/>
</clipPath>
</defs>
</svg>
