<svg width="21" height="18" viewBox="0 0 21 18" fill="none" xmlns="http://www.w3.org/2000/svg">
<path fill-rule="evenodd" clip-rule="evenodd" d="M7.13104 1.88361C6.27344 1.69853 5.38028 1.77311 4.56527 2.09786C3.75022 2.42262 3.05033 2.98284 2.55504 3.70696C2.06233 4.42733 1.79424 5.27748 1.78442 6.15003C1.8045 6.93342 2.04671 7.69488 2.48282 8.34574C3.03258 9.07869 3.631 9.77386 4.27403 10.4265L9.92689 16.0513C9.92725 16.0516 9.92761 16.052 9.92797 16.0523C10.0347 16.1571 10.1782 16.2158 10.3278 16.2158C10.4775 16.2158 10.6211 16.157 10.7279 16.0521C10.7282 16.0518 10.7285 16.0515 10.7287 16.0513L16.3889 10.4286C17.0277 9.77042 17.6266 9.0747 18.1824 8.34514C18.6133 7.69263 18.8522 6.93209 18.8715 6.15039C18.8617 5.27784 18.5935 4.42754 18.1006 3.70696C17.6053 2.98277 16.9056 2.42259 16.0906 2.09786C15.2756 1.77311 14.3822 1.69853 13.5246 1.88361C12.6693 2.06819 11.8881 2.50269 11.2803 3.13188L11.2007 3.2174C11.0998 3.33571 10.9758 3.43214 10.8364 3.50078C10.68 3.57774 10.5078 3.61807 10.3326 3.61807C10.1583 3.61807 9.98577 3.57811 9.82868 3.50078C9.69584 3.43539 9.57873 3.34558 9.48232 3.23774L9.38888 3.14596L9.38026 3.13701C8.77173 2.50505 7.98866 2.06869 7.13104 1.88361ZM19.7637 6.1564L20.6556 6.17559C20.6312 7.31087 20.2824 8.41539 19.651 9.35895L19.6361 9.38122L19.6199 9.40255C19.0142 10.1996 18.3608 10.9593 17.6633 11.6774L17.6578 11.6831L11.9841 17.3192L11.9819 17.3213C11.5412 17.7562 10.947 18 10.3278 18C9.70865 18 9.11442 17.7562 8.67369 17.3213L8.67105 17.3187L3.00934 11.6852L3.0063 11.6821C2.30034 10.9658 1.64379 10.2025 1.04121 9.3973L1.02859 9.38043L1.01678 9.36299C0.378584 8.42056 0.0257394 7.31415 0.000304228 6.17634L0 6.16273L0.000111099 6.14912C0.0101682 4.91733 0.386878 3.71646 1.08234 2.69967C1.77781 1.68287 2.7605 0.896325 3.90482 0.440359C5.04918 -0.0156204 6.3033 -0.120336 7.50743 0.139527C8.55837 0.366331 9.52962 0.861892 10.3278 1.57428C11.126 0.861892 12.0973 0.366331 13.1482 0.139527C14.3523 -0.120334 15.6067 -0.0156246 16.751 0.440359C17.8955 0.896357 18.8779 1.68294 19.5733 2.69967C20.2687 3.71635 20.6457 4.9172 20.6558 6.14912L19.7637 6.1564Z" fill="#10B1E8"/>
</svg>
