<svg width="16" height="20" viewBox="0 0 16 20" fill="none" xmlns="http://www.w3.org/2000/svg">
<g clip-path="url(#clip0)">
<path d="M7.80673 15.9851C4.461 15.9851 1.78442 13.3829 1.78442 10.1115C1.78442 6.9145 4.461 4.23792 7.80673 4.23792C11.1525 4.23792 13.829 6.84015 13.829 10.1115C13.829 13.3085 11.1525 15.9851 7.80673 15.9851ZM7.80673 4.75836C4.7584 4.75836 2.30487 7.13754 2.30487 10.1115C2.30487 13.0855 4.7584 15.4647 7.80673 15.4647C10.8551 15.4647 13.3086 13.0855 13.3086 10.1115C13.3086 7.13754 10.8551 4.75836 7.80673 4.75836Z" fill="#10B1E8"/>
<path d="M7.80669 17.6951C3.49442 17.6951 0 14.2751 0 10.1115C0 5.87357 3.49442 2.45349 7.80669 2.45349C12.119 2.45349 15.6134 5.87357 15.6134 10.1115C15.6877 14.2751 12.1933 17.6951 7.80669 17.6951ZM7.80669 2.97394C3.79182 2.97394 0.520446 6.17096 0.520446 10.1115C0.520446 14.052 3.79182 17.249 7.80669 17.249C11.8216 17.249 15.0929 14.052 15.0929 10.1115C15.1673 6.17096 11.8959 2.97394 7.80669 2.97394Z" fill="#10B1E8"/>
<path d="M2.97394 4.68402L2.45349 4.60967L3.34568 0H12.1933L13.2342 4.53532L12.7137 4.68402L11.8215 0.520446H3.71743L2.97394 4.68402Z" fill="#10B1E8"/>
<path d="M12.342 20H3.49438L2.45349 15.6134L2.97394 15.4647L3.86613 19.4796H11.8959L12.7137 15.4647L13.2342 15.5391L12.342 20Z" fill="#10B1E8"/>
<path d="M6.46845 13.7546L6.3941 12.119H6.0967C5.42756 12.119 4.83276 11.5985 4.83276 10.9294V8.62453C4.83276 7.95538 5.35321 7.43494 6.0967 7.43494H9.88853C10.5577 7.43494 11.1525 7.95538 11.1525 8.62453V10.9294C11.1525 11.5985 10.632 12.119 9.88853 12.119H8.40154L6.46845 13.7546ZM6.0967 7.88103C5.72496 7.88103 5.35321 8.17843 5.35321 8.55018V10.855C5.35321 11.2268 5.65061 11.5242 6.0967 11.5242H6.91455V12.6394L8.10414 11.5985H9.81418C10.1859 11.5985 10.5577 11.3011 10.5577 10.9294V8.62453C10.5577 8.25278 10.2603 7.95538 9.81418 7.95538H6.0967V7.88103Z" fill="#10B1E8"/>
<path d="M14.9442 7.21185L14.7211 6.76575L15.0185 6.61705C15.0929 6.61705 15.1672 6.5427 15.1672 6.46835V6.394L14.8698 5.87356C14.8698 5.79921 14.7211 5.79921 14.5724 5.87356L14.2751 6.02226L14.052 5.57616L14.3494 5.42746C14.7211 5.20441 15.1672 5.35311 15.3159 5.65051L15.6133 6.17096C15.6877 6.31966 15.6877 6.46835 15.6877 6.61705C15.6133 6.8401 15.4646 6.9888 15.3159 7.06315L14.9442 7.21185Z" fill="#10B1E8"/>
<path d="M14.7212 15.093C14.5725 15.093 14.4238 15.0186 14.2751 14.9443L13.9777 14.7956L14.2751 14.3495L14.5725 14.5726C14.6468 14.6469 14.7955 14.6469 14.8699 14.5726L15.1673 14.0521V13.9778C15.1673 13.9034 15.0929 13.9034 15.0186 13.8291L14.7212 13.606L15.0186 13.1599L15.316 13.383C15.4646 13.4573 15.6133 13.6804 15.6877 13.8291C15.762 13.9778 15.6877 14.1265 15.6133 14.2752L15.316 14.7956C15.1673 15.0186 14.9442 15.093 14.7212 15.093Z" fill="#10B1E8"/>
</g>
<defs>
<clipPath id="clip0">
<rect width="15.6877" height="20" fill="white"/>
</clipPath>
</defs>
</svg>
