<svg width="22" height="22" viewBox="0 0 22 22" fill="none" xmlns="http://www.w3.org/2000/svg">
<path d="M7.5333 19.6666C6.99997 19.4 6.06663 17.9333 4.99997 16.1333C3.86663 14.2666 2.99997 13.0666 2.66663 11.8666C2.26663 10.6666 2.39997 9.99998 2.99997 9.33331C3.59997 8.66664 4.3333 8.59998 5.46663 8.39998C6.59997 8.26664 7.66663 7.79998 8.19997 6.86664C8.66663 5.93331 8.66663 5.19998 8.86663 4.26664C8.99997 3.33331 9.39997 2.79998 10.2 2.39998C11 1.99998 12.0666 2.26664 12.9333 2.73331C13.8 3.19998 16.6 4.86664 17.6 5.53331C18.6 6.19998 19.8666 6.93331 20 7.73331C20.1333 8.53331 19.4666 8.93331 18.6666 9.06664C18.1333 9.19998 16.3333 9.26664 15.4666 9.39998C14.6 9.46664 13.2 9.79998 12.3333 10.4C11.4666 11 10.5333 12 10.2 12.9333C9.86663 13.8666 9.59997 14.8666 9.59997 15.9333C9.5333 17 9.39997 18.4666 9.06663 19C8.7333 19.6666 8.1333 19.9333 7.5333 19.6666Z" stroke="#10B1E8" stroke-width="0.7" stroke-miterlimit="10"/>
<path d="M2.80005 3.06665C2.80005 3.06665 3.53338 2.53331 4.46672 2.39998C5.33338 2.33331 5.93338 2.59998 6.26672 2.99998C6.73338 3.53331 6.80005 3.99998 6.73338 5.13331C6.60005 6.99998 7.53338 7.53331 7.53338 7.53331" stroke="#10B1E8" stroke-width="0.7" stroke-miterlimit="10" stroke-linecap="round"/>
<path d="M10.6 5.39998C10.9682 5.39998 11.2667 5.10151 11.2667 4.73332C11.2667 4.36513 10.9682 4.06665 10.6 4.06665C10.2318 4.06665 9.93335 4.36513 9.93335 4.73332C9.93335 5.10151 10.2318 5.39998 10.6 5.39998Z" stroke="#10B1E8" stroke-width="0.7" stroke-miterlimit="10"/>
<path d="M13.0667 5.39998C13.4349 5.39998 13.7334 5.10151 13.7334 4.73332C13.7334 4.36513 13.4349 4.06665 13.0667 4.06665C12.6985 4.06665 12.4 4.36513 12.4 4.73332C12.4 5.10151 12.6985 5.39998 13.0667 5.39998Z" stroke="#10B1E8" stroke-width="0.7" stroke-miterlimit="10"/>
<path d="M13.1333 7.93331C13.5015 7.93331 13.8 7.63483 13.8 7.26664C13.8 6.89845 13.5015 6.59998 13.1333 6.59998C12.7652 6.59998 12.4667 6.89845 12.4667 7.26664C12.4667 7.63483 12.7652 7.93331 13.1333 7.93331Z" stroke="#10B1E8" stroke-width="0.7" stroke-miterlimit="10"/>
<path d="M10.6 7.93331C10.9682 7.93331 11.2667 7.63483 11.2667 7.26664C11.2667 6.89845 10.9682 6.59998 10.6 6.59998C10.2318 6.59998 9.93335 6.89845 9.93335 7.26664C9.93335 7.63483 10.2318 7.93331 10.6 7.93331Z" stroke="#10B1E8" stroke-width="0.7" stroke-miterlimit="10"/>
<path d="M4.80005 13.0667L7.06672 10.8" stroke="#10B1E8" stroke-width="0.7" stroke-miterlimit="10" stroke-linecap="round"/>
<path d="M7.06672 13.0667L4.80005 10.8" stroke="#10B1E8" stroke-width="0.7" stroke-miterlimit="10" stroke-linecap="round"/>
</svg>
