<svg width="17" height="22" viewBox="0 0 17 22" fill="none" xmlns="http://www.w3.org/2000/svg">
<g clip-path="url(#clip0)">
<path d="M0 15.4301V20.6485C0.0171751 21.0328 0.186791 21.3946 0.471747 21.6549C0.756702 21.9153 1.1338 22.0528 1.52056 22.0376H7.55556V15.4676L0 15.4301Z" fill="#008B00"/>
<path d="M9.44434 15.4301V22H15.4793C15.8599 22.0156 16.2316 21.8832 16.5155 21.6308C16.7994 21.3785 16.9732 21.0261 16.9999 20.6485V15.4301H9.44434Z" fill="#008B00"/>
<path d="M4.54275 7.2923C3.70592 7.36087 2.86679 7.19062 2.12397 6.80157C1.38115 6.41252 0.765512 5.82084 0.349417 5.09606C0.0387655 4.45081 -0.0705741 3.72798 0.0354567 3.02049C0.141488 2.313 0.458041 1.6532 0.944417 1.12592C1.32711 0.70132 1.80884 0.376578 2.34731 0.180203C2.88578 -0.0161725 3.46453 -0.0781746 4.03275 -0.000360247C4.73301 0.128601 5.39153 0.423808 5.95227 0.860129C6.51301 1.29645 6.95936 1.86097 7.25331 2.50561L9.1422 6.07216C9.19792 6.21963 9.19764 6.38222 9.14143 6.52949C9.08522 6.67677 8.97692 6.79864 8.83681 6.87229C8.6967 6.94593 8.53438 6.96631 8.38024 6.9296C8.22611 6.89289 8.09072 6.80161 7.99942 6.67285L6.11053 3.09691C5.90785 2.63922 5.59667 2.2371 5.20359 1.92492C4.81051 1.61274 4.34722 1.39978 3.85331 1.30425C3.50565 1.26379 3.1533 1.30563 2.82502 1.42633C2.49674 1.54704 2.20185 1.7432 1.96442 1.99879C1.64601 2.33023 1.43592 2.74963 1.36176 3.2019C1.28759 3.65417 1.35281 4.11816 1.54886 4.53292C2.05886 5.57472 3.30553 6.10971 4.96775 5.99708C5.05271 5.99153 5.13793 6.00267 5.21856 6.02986C5.29919 6.05704 5.37364 6.09974 5.43766 6.15552C5.50168 6.2113 5.55402 6.27906 5.59169 6.35494C5.62935 6.43082 5.65161 6.51333 5.6572 6.59776C5.66278 6.68219 5.65157 6.76689 5.62421 6.84701C5.59686 6.92714 5.55389 7.00112 5.49776 7.06474C5.44163 7.12837 5.37345 7.18038 5.29709 7.21781C5.22074 7.25525 5.13771 7.27737 5.05275 7.28292L4.54275 7.2923Z" fill="#00B400"/>
<path d="M12.4475 7.29266H11.9753C11.8037 7.28146 11.6436 7.20298 11.5303 7.07449C11.4169 6.946 11.3596 6.77802 11.3708 6.60751C11.3821 6.437 11.4611 6.27792 11.5904 6.16527C11.7197 6.05262 11.8887 5.99562 12.0603 6.00683C13.7036 6.11007 14.9881 5.55631 15.4886 4.53328C15.6836 4.11698 15.7465 3.65157 15.6689 3.19892C15.5912 2.74626 15.3769 2.3278 15.0542 1.99915C14.8163 1.74463 14.521 1.54982 14.1927 1.43072C13.8643 1.31161 13.5122 1.27161 13.1653 1.31399C12.668 1.40349 12.2005 1.61288 11.8036 1.9238C11.4068 2.23471 11.0928 2.63765 10.8892 3.09727L9.00029 6.67321C8.90899 6.80197 8.7736 6.89325 8.61946 6.92996C8.46532 6.96667 8.30301 6.94629 8.1629 6.87265C8.02279 6.799 7.91449 6.67713 7.85828 6.52985C7.80206 6.38258 7.80179 6.21999 7.85751 6.07253L9.7464 2.49659C10.0378 1.85461 10.4811 1.29224 11.0387 0.8575C11.5962 0.422756 12.2513 0.12855 12.9481 -1.30385e-07C13.5185 -0.082162 14.1005 -0.0232191 14.6425 0.171605C15.1845 0.366429 15.6698 0.691117 16.0553 1.11689C16.5521 1.63734 16.8799 2.29425 16.9961 3.00227C17.1123 3.71028 17.0116 4.43667 16.707 5.08703C16.2865 5.82359 15.6607 6.42365 14.905 6.81497C14.1493 7.20629 13.2959 7.37218 12.4475 7.29266Z" fill="#00B400"/>
<path d="M7.38574 7.15183C7.24259 7.15252 7.10319 7.10634 6.98908 7.02043L3.77797 4.62709C3.69846 4.58074 3.62976 4.51815 3.57639 4.44346C3.52302 4.36878 3.4862 4.28369 3.46837 4.19382C3.45053 4.10394 3.45209 4.01133 3.47293 3.9221C3.49376 3.83287 3.53341 3.74905 3.58926 3.67617C3.6451 3.60329 3.71586 3.54302 3.79688 3.49932C3.87789 3.45563 3.96731 3.42951 4.05923 3.42269C4.15115 3.41588 4.24348 3.42852 4.33012 3.45978C4.41677 3.49104 4.49575 3.54022 4.56186 3.60405L7.77297 5.9974C7.88409 6.07755 7.96643 6.19099 8.00792 6.32106C8.0494 6.45114 8.04785 6.59101 8.00348 6.72014C7.95911 6.84927 7.87426 6.96087 7.76138 7.03857C7.64851 7.11626 7.51354 7.15596 7.3763 7.15183H7.38574Z" fill="#00B400"/>
<path d="M9.62403 7.15181C9.48679 7.15594 9.35183 7.11624 9.23895 7.03855C9.12608 6.96085 9.04123 6.84925 8.99686 6.72012C8.95249 6.59099 8.95093 6.45112 8.99242 6.32104C9.0339 6.19097 9.11625 6.07753 9.22737 5.99738L12.4101 3.60403C12.4777 3.55103 12.5552 3.51178 12.638 3.48852C12.7209 3.46526 12.8076 3.45845 12.8931 3.46847C12.9786 3.4785 13.0612 3.50516 13.1364 3.54694C13.2115 3.58872 13.2776 3.64479 13.331 3.71197C13.3843 3.77914 13.4238 3.85609 13.4472 3.93844C13.4706 4.02078 13.4775 4.1069 13.4674 4.19187C13.4573 4.27685 13.4305 4.35902 13.3884 4.43369C13.3464 4.50836 13.29 4.57407 13.2224 4.62707L10.0207 7.02041C9.90693 7.10696 9.7673 7.15321 9.62403 7.15181Z" fill="#00B400"/>
<path d="M0 14.4915V19.7099C0.0171751 20.0942 0.186791 20.456 0.471747 20.7163C0.756702 20.9767 1.1338 21.1142 1.52056 21.099H7.55556V14.529L0 14.4915Z" fill="#00B400"/>
<path d="M7.55556 12.6143V6.75762C7.55556 6.44789 7.98056 6.19448 8.5 6.19448C9.01944 6.19448 9.44444 6.44789 9.44444 6.75762V12.6049H17V7.41461C16.9804 7.0328 16.8095 6.67423 16.5245 6.41741C16.2395 6.16059 15.8637 6.02643 15.4794 6.04431H1.52056C1.13627 6.02643 0.76051 6.16059 0.47553 6.41741C0.19055 6.67423 0.0195642 7.0328 0 7.41461L0 12.6143H7.55556Z" fill="#00B400"/>
<path d="M9.44434 14.4915V21.0614H15.4793C15.8599 21.077 16.2316 20.9446 16.5155 20.6922C16.7994 20.4399 16.9732 20.0875 16.9999 19.7099V14.4915H9.44434Z" fill="#00B400"/>
</g>
<defs>
<clipPath id="clip0">
<rect width="17" height="22" fill="white"/>
</clipPath>
</defs>
</svg>
