<svg width="29" height="24" viewBox="0 0 29 24" fill="none" xmlns="http://www.w3.org/2000/svg">
<g clip-path="url(#clip0)">
<path d="M27.8 14.5H27.1C27.1 14.4 27.3 8.1 23.4 4.1C21.3 1.9 18.3 0.8 14.5 0.8C10.7 0.8 7.69997 1.9 5.49997 4.2C1.59997 8.2 1.79997 14.4 1.79997 14.5H1.09997C1.09997 14.2 0.899969 7.9 4.99997 3.7C7.29997 1.2 10.5 0 14.5 0C18.4 0 21.6 1.2 23.9 3.6C28 7.8 27.8 14.2 27.8 14.5Z" fill="#10B1E8"/>
<path d="M22.5 23.4C21.3 23.4 20.3 22.4 20.3 21.2V12C20.3 10.8 21.3 9.80005 22.5 9.80005C23.7 9.80005 24.7001 10.8 24.7001 12V21.1C24.7001 22.4 23.7 23.4 22.5 23.4ZM22.5 10.5C21.7 10.5 21 11.2 21 12V21.1C21 21.9 21.7 22.6 22.5 22.6C23.3 22.6 24 22 24 21.2V12C24 11.2 23.3 10.5 22.5 10.5Z" fill="#10B1E8"/>
<path d="M6.39995 23.4C5.19995 23.4 4.19995 22.4 4.19995 21.2V12C4.19995 10.8 5.19995 9.80005 6.39995 9.80005C7.59995 9.80005 8.59995 10.8 8.59995 12V21.1C8.69995 22.4 7.69995 23.4 6.39995 23.4ZM6.39995 10.5C5.59995 10.5 4.89995 11.2 4.89995 12V21.1C4.89995 21.9 5.59995 22.6 6.39995 22.6C7.19995 22.6 7.99995 22 7.99995 21.2V12C7.99995 11.2 7.29995 10.5 6.39995 10.5Z" fill="#10B1E8"/>
<path d="M4.9 21.1L2.6 19.8H0V13.9H2.5L4.9 12.4V21.1ZM0.7 19H2.8L4.2 19.8V13.6L2.7 14.5H0.7V19Z" fill="#10B1E8"/>
<path d="M24 21.2V12.6L26.3 13.9H28.9V19.8H26.4L24 21.2ZM24.7 13.7V19.9L26.2 19H28.2V14.5H26.1L24.7 13.7Z" fill="#10B1E8"/>
<path d="M2.89995 14.2H2.19995V19.3H2.89995V14.2Z" fill="#10B1E8"/>
<path d="M26.6 14.1H25.9V19.3H26.6V14.1Z" fill="#10B1E8"/>
</g>
<defs>
<clipPath id="clip0">
<rect width="28.9" height="23.4" fill="white"/>
</clipPath>
</defs>
</svg>
