<svg width="20" height="20" viewBox="0 0 20 20" fill="none" xmlns="http://www.w3.org/2000/svg">
<g clip-path="url(#clip0)">
<path d="M14.2 1.2C15.1 1.2 15.8 1.9 15.8 2.8V6C15.8 6.1 15.7 6.3 15.5 6.3H6.5C5.9 6.3 5.5 6.7 5.5 7.3V16.4C5.5 17.7 6.5 18.7 7.8 18.7H17.8V19.2H0.7V18.7H1C1.9 18.7 2.7 18 2.7 17V7C2.7 6.6 2.4 6.3 2 6.3H1.3C1.2 6.3 1 6.2 1 6.1V1.5C1 1.4 1.1 1.2 1.2 1.2C1.2 1.2 1.2 1.2 1.3 1.2H14.2ZM14.2 0.5H1.3C0.7 0.5 0.3 0.9 0.3 1.5V6C0.3 6.6 0.7 7 1.3 7H1.9V17C1.9 17.6 1.5 18 0.9 18H0.7C0.3 18 0 18.3 0 18.7V19.3C0 19.7 0.3 20 0.7 20H17.8C18.2 20 18.4 19.7 18.4 19.4V18.8C18.4 18.4 18.1 18.2 17.8 18.2H7.8C6.9 18.2 6.2 17.5 6.2 16.6V7.3C6.2 7.2 6.3 7 6.5 7H15.6C16.2 7 16.6 6.6 16.6 6V2.8C16.6 1.6 15.6 0.5 14.2 0.5C14.3 0.5 14.3 0.5 14.2 0.5Z" fill="#fff"/>
<path d="M17.8 3.2C17.9 3.2 18.1 3.3 18.1 3.5V5.4C18.1 5.5 18 5.7 17.8 5.7H16.6V3.2H17.8ZM17.8 2.5H16.2C16 2.5 15.9 2.6 15.9 2.8V6C15.9 6.2 16 6.3 16.2 6.3H17.8C18.4 6.3 18.8 5.9 18.8 5.3V3.5C18.8 2.9 18.4 2.5 17.8 2.5Z" fill="#fff"/>
<path d="M18.1 11.3V15.5C18.1 16.9 17 18 15.6 18H10C8.60005 18 7.50005 16.9 7.50005 15.5V11.3H18.1ZM18.5 10.6H7.10005C6.90005 10.6 6.80005 10.7 6.80005 10.9V15.5C6.80005 17.3 8.20005 18.7 10 18.7H15.6C17.4 18.7 18.8 17.3 18.8 15.5V10.9C18.8 10.7 18.7 10.6 18.5 10.6Z" fill="#fff"/>
<path d="M14.2 7.0999V7.6999C14.2 7.7999 14.1 7.9999 13.9 7.9999H12C11.9 7.9999 11.7 7.8999 11.7 7.6999V7.0999H14.2ZM14.6 6.3999H11.3C11.1 6.3999 11 6.4999 11 6.6999V7.6999C11 8.2999 11.4 8.6999 12 8.6999H14C14.6 8.6999 15 8.2999 15 7.6999V6.6999C15 6.4999 14.8 6.3999 14.6 6.3999Z" fill="#fff"/>
<path d="M4.20002 2.49993C5.10002 2.49993 5.80002 3.19993 5.80002 4.09993C5.80002 4.99993 5.10002 5.69993 4.20002 5.69993C3.40002 5.69993 2.60002 4.99993 2.60002 4.09993C2.70002 3.19993 3.40002 2.49993 4.20002 2.49993ZM4.20002 1.79993C2.90002 1.79993 1.90002 2.79993 1.90002 4.09993C1.90002 5.39993 2.90002 6.39993 4.20002 6.39993C5.50002 6.39993 6.50002 5.39993 6.50002 4.09993C6.50002 2.89993 5.50002 1.79993 4.20002 1.79993Z" fill="#fff"/>
<path d="M2.90002 5.39993L5.50002 2.79993" stroke="#fff" stroke-width="0.7" stroke-linecap="round" stroke-linejoin="round"/>
<path d="M2.30005 9H5.70005" stroke="#fff" stroke-width="0.7" stroke-linecap="round" stroke-linejoin="round"/>
<path d="M13 8.29993V10.7999" stroke="#fff" stroke-width="0.7" stroke-linecap="round" stroke-linejoin="round"/>
<path d="M9.59998 12.2001H12" stroke="#fff" stroke-width="0.7" stroke-linecap="round" stroke-linejoin="round"/>
</g>
<defs>
<clipPath id="clip0">
<rect width="20" height="20" fill="white"/>
</clipPath>
</defs>
</svg>
