<svg width="14" height="22" viewBox="0 0 14 22" fill="none" xmlns="http://www.w3.org/2000/svg">
<g clip-path="url(#clip0)">
<path d="M9.90873 1.78093L9.5246 4.08569C9.5246 4.18172 9.5246 4.37378 9.62063 4.46982L9.90873 4.75791L9.90873 9.94362L9.14048 9.94362C8.94841 9.94362 8.75635 10.1357 8.75635 10.3278L8.75635 11.9603C8.75635 12.0563 8.75635 12.1524 8.85238 12.2484L9.33254 12.7285L8.85238 13.3047C8.75635 13.4008 8.75635 13.4968 8.75635 13.5928L8.75635 20.219C8.75635 20.4111 8.94841 20.6031 9.14048 20.6031L12.9817 20.6031C13.1738 20.6031 13.3659 20.4111 13.3659 20.219L13.3659 13.2087C13.3659 13.1127 13.3659 13.0166 13.2698 12.9206L12.7897 12.4405L13.2698 11.9603C13.3659 11.8643 13.3659 11.7682 13.3659 11.6722L13.3659 10.1357C13.3659 9.94363 13.1738 9.75156 12.9817 9.75156L12.2135 9.75156L12.2135 4.56585L12.5016 4.27775C12.5976 4.18172 12.5976 4.08569 12.5976 3.98966L12.5976 3.89363L12.2135 1.58886C12.2135 1.3968 12.0214 1.30077 11.8294 1.30077L10.2929 1.30077C10.1008 1.3968 9.90873 1.49283 9.90873 1.78093ZM9.90873 1.78093C9.90873 1.68489 9.90873 1.68489 9.90873 1.78093Z" stroke="#10B1E8" stroke-width="0.7" stroke-miterlimit="10" stroke-linecap="round"/>
<path d="M6.3556 19.4508L6.3556 8.50318L8.56433 6.29445C8.66036 6.19841 8.66036 6.10238 8.66036 6.00635L8.66036 3.70159C8.66036 3.60556 8.56433 3.50952 8.56433 3.41349L6.64369 1.87698C6.45163 1.78095 6.25957 1.78095 6.0675 1.97302C5.97147 2.06905 5.97147 2.16508 5.97147 2.16508L5.97147 4.66191L4.81909 5.52619L3.66671 4.66191L3.66671 2.16508C3.66671 1.97302 3.47465 1.78095 3.28258 1.78095C3.18655 1.78095 3.09052 1.78095 3.09052 1.87698L1.16988 3.41349C1.07385 3.50952 1.07385 3.60556 1.07385 3.70159L1.07385 6.00635C1.07385 6.10238 1.07385 6.19841 1.16988 6.29445L3.28258 8.50318L3.28258 19.4508C3.28258 20.3151 3.9548 20.9873 4.81909 20.9873C5.68338 20.9873 6.3556 20.3151 6.3556 19.4508Z" stroke="#10B1E8" stroke-width="0.7" stroke-miterlimit="10" stroke-linecap="round"/>
<path d="M12.1175 9.84766L9.81274 9.84766" stroke="#10B1E8" stroke-width="0.7" stroke-miterlimit="10" stroke-linecap="round"/>
<path d="M11.1572 19.4508L11.1572 14.1691" stroke="#10B1E8" stroke-width="0.7" stroke-miterlimit="10" stroke-linecap="round"/>
<path d="M9.33264 12.5365L12.6938 12.5365" stroke="#10B1E8" stroke-width="0.7" stroke-miterlimit="10" stroke-linecap="round"/>
</g>
<defs>
<clipPath id="clip0">
<rect width="22" height="14" fill="white" transform="translate(0 22) rotate(-90)"/>
</clipPath>
</defs>
</svg>
