<svg width="22" height="22" viewBox="0 0 22 22" fill="none" xmlns="http://www.w3.org/2000/svg">
<g clip-path="url(#clip0)">
<path d="M3.4582 3.60535C3.67894 3.60535 18.4682 3.60535 18.6154 3.60535C18.9097 3.60535 19.7927 3.7525 19.7927 5.07692C19.7927 6.40133 19.7927 15.5987 19.7927 15.5987H2.13379C2.13379 15.5987 2.13379 5.88628 2.13379 4.92976C2.13379 3.97324 2.796 3.60535 3.4582 3.60535Z" stroke="#fff" stroke-width="0.7" stroke-miterlimit="10"/>
<path d="M19.7191 15.9666C20.3077 16.6288 21.1906 17.6589 21.4114 17.8796C21.485 17.9532 21.485 18.0268 21.485 18.0268C21.485 18.0268 21.3378 18.1004 21.1171 18.1004H0.882943C0.662207 18.1004 0.588629 18.0268 0.51505 18.0268C0.51505 18.0268 0.51505 17.8796 0.662207 17.7325C1.0301 17.291 1.91304 16.2609 2.28094 15.893H19.7191V15.9666ZM19.9398 15.4515H1.98662C1.98662 15.4515 0.662207 16.9231 0.220736 17.5117C-0.220736 18.0268 0 18.6154 0.882943 18.6154C1.25084 18.6154 20.7492 18.6154 21.1171 18.6154C22.1472 18.6154 22.0736 17.8796 21.8528 17.5853C21.5585 17.2174 19.9398 15.4515 19.9398 15.4515Z" fill="#fff"/>
<path d="M13.98 17.3645H8.24084V18.4682H13.98V17.3645Z" fill="#fff"/>
<path d="M18.6889 4.70898H3.23743V14.4949H18.6889V4.70898Z" stroke="#fff" stroke-width="0.5" stroke-miterlimit="10"/>
</g>
<defs>
<clipPath id="clip0">
<rect width="22" height="22" fill="white"/>
</clipPath>
</defs>
</svg>
