<svg width="96" height="20" viewBox="0 0 96 20" fill="none" xmlns="http://www.w3.org/2000/svg">
<path d="M40.1424 4.44373C38.4398 4.44373 36.5036 5.23295 35.3206 6.81301L35.3214 6.80981L35.3206 6.81061L35.3214 4.69186H31.2607V19.4791H35.3206V11.0649C35.3206 9.5505 36.4948 7.94083 38.6688 7.94083C40.3489 7.94083 42.0874 9.10946 42.0874 11.0649V19.4791H46.148V10.3125C46.148 6.91147 43.7147 4.44373 40.1424 4.44373Z" fill="#E60012"/>
<path d="M75.008 4.6925L71.3372 14.7652L67.6664 4.6925H63.0278L69.1119 19.475H73.5616L79.6457 4.6925H75.008Z" fill="#E60012"/>
<path d="M19.1387 9.14715C19.8303 8.21865 20.9317 7.67355 22.262 7.67355C23.7252 7.67355 24.8354 8.50921 25.4094 9.74268L18.3151 12.6859C18.1214 11.1755 18.508 9.99401 19.1387 9.14715ZM26.9398 14.9327C25.2309 16.1974 24.2543 16.4992 22.6959 16.4992C21.2935 16.4992 20.1953 16.0637 19.4213 15.3001L29.8021 10.9938C29.5756 9.38889 28.9665 7.9553 28.0292 6.86511C26.6652 5.28105 24.6465 4.44299 22.1884 4.44299C17.7236 4.44299 14.3569 7.73679 14.3569 12.0872C14.3569 16.5504 17.7316 19.7305 22.6358 19.7305C25.3837 19.7305 28.1933 18.4282 29.5076 16.9066L26.9398 14.9327Z" fill="#E60012"/>
<path d="M13.9699 15.7506H4.74084V0.269409H0.625V19.4791H13.9699V15.7506Z" fill="#E60012"/>
<path d="M86.9369 7.92261C84.6693 7.92261 83.0228 9.64114 83.0228 12.0857C83.0228 14.4197 84.7669 16.2487 86.9913 16.2487C89.2598 16.2487 90.9055 14.483 90.9055 12.0857C90.9055 9.75161 89.1621 7.92261 86.9369 7.92261ZM86.9369 19.7282C82.4961 19.7282 79.0166 16.42 79.0166 12.0857C79.0166 7.80014 82.5201 4.44312 86.9913 4.44312C91.4322 4.44312 94.9109 7.75132 94.9109 12.0857C94.9109 16.3704 91.4082 19.7282 86.9369 19.7282Z" fill="#E60012"/>
<path d="M55.6744 7.92261C53.4068 7.92261 51.7611 9.64114 51.7611 12.0857C51.7611 14.4197 53.5044 16.2487 55.7296 16.2487C57.9973 16.2487 59.6429 14.483 59.6429 12.0857C59.6429 9.75161 57.8996 7.92261 55.6744 7.92261ZM55.6744 19.7282C51.2336 19.7282 47.7549 16.42 47.7549 12.0857C47.7549 7.80014 51.2576 4.44312 55.7296 4.44312C60.1696 4.44312 63.6491 7.75132 63.6491 12.0857C63.6491 16.3704 60.1456 19.7282 55.6744 19.7282Z" fill="#E60012"/>
</svg>
