<svg width="14" height="18" viewBox="0 0 14 18" fill="none" xmlns="http://www.w3.org/2000/svg">
<path d="M6.9843 1C3.67719 1 0.986694 3.59944 0.986694 6.79456C0.986694 10.7598 6.35399 16.581 6.58251 16.8269C6.79715 17.0579 7.1719 17.0575 7.38616 16.8269C7.61467 16.581 12.982 10.7598 12.982 6.79456C12.9819 3.59944 10.2914 1 6.9843 1ZM6.9843 15.679C5.1779 13.606 2.06673 9.516 2.06673 6.79463C2.06673 4.17481 4.27272 2.0435 6.9843 2.0435C9.69588 2.0435 11.9019 4.17481 11.9019 6.79459C11.9018 9.51609 8.79109 13.6053 6.9843 15.679Z" fill="#fff" stroke="#fff" stroke-width="0.5"/>
<path d="M6.98381 3.87927C5.31992 3.87927 3.96631 5.18712 3.96631 6.79468C3.96631 8.40224 5.31998 9.71008 6.98381 9.71008C8.64763 9.71008 10.0013 8.40224 10.0013 6.79468C10.0013 5.18712 8.64763 3.87927 6.98381 3.87927ZM6.98381 8.66658C5.91545 8.66658 5.04634 7.82687 5.04634 6.79468C5.04634 5.76249 5.91548 4.92277 6.98381 4.92277C8.05213 4.92277 8.92127 5.76249 8.92127 6.79468C8.92127 7.82687 8.0521 8.66658 6.98381 8.66658Z" fill="#fff" stroke="#fff" stroke-width="0.5"/>
</svg>
