<svg width="93" height="30" viewBox="0 0 93 30" fill="none" xmlns="http://www.w3.org/2000/svg">
<path d="M18.2959 9.68242C17.1237 8.47491 15.5103 7.88607 13.3541 7.88607C10.3418 7.88607 6.41537 8.48237 5.71595 8.59417V0.300659H0V26.7962L0.0410005 26.826C0.787748 27.3031 1.59323 27.675 2.43591 27.9316C3.91434 28.4285 6.42261 29.0323 9.97277 29.0323C13.5229 29.0323 16.2217 28.1279 17.9606 26.3216C19.6995 24.5153 20.5774 21.7376 20.5581 17.9039C20.5702 13.9658 19.8298 11.2701 18.2959 9.68242ZM14.9025 18.2915C14.9169 20.5624 14.7095 22.2991 13.6556 23.3948C12.7849 24.2967 11.3788 24.7191 9.22994 24.7191C6.91703 24.7191 5.92337 24.2221 5.71595 24.1153V12.5869H11.2631C12.6523 12.5869 13.5012 12.8353 14.0198 13.3621C14.7819 14.1522 14.9145 15.6404 14.9025 18.2915Z" fill="#231F20"/>
<path d="M50.9925 7.88611C46.3811 7.88611 41.4032 8.86752 41.3453 8.87994L41.2705 8.89485V12.5869H50.0663C50.9876 12.5869 51.6219 12.7832 52.0102 13.1832C52.5336 13.7249 52.5288 14.5746 52.5239 15.3945V16.3883C51.9644 16.3461 49.2053 16.1399 46.8056 16.1399C41.0173 16.1399 38.6465 17.8791 38.6465 22.1028C38.6465 26.9403 40.9329 29.005 46.2943 29.005C50.1873 28.9944 54.0564 28.3762 57.7696 27.1714L57.8323 27.149V15.5361C57.8395 11.7521 57.0243 7.88611 50.9925 7.88611ZM52.5312 24.0905C52.0175 24.1849 49.0389 24.7191 46.5716 24.7191C44.5337 24.7191 44.1598 23.7899 44.1598 22.0805C44.1598 20.4904 44.8351 20.0928 47.4447 20.0928H52.5432L52.5312 24.0905Z" fill="#231F20"/>
<path d="M86.0454 7.88611C79.835 7.88611 73.1784 9.21287 73.1109 9.22778L73.0361 9.24269V28.1677H78.5302V12.5869H84.3836C85.6522 12.5869 86.4578 12.8105 86.9184 13.2925C87.3791 13.7746 87.5021 14.6019 87.49 15.6454V28.1677H92.9841V15.4566C92.9841 10.1471 90.9099 7.88611 86.0454 7.88611Z" fill="#231F20"/>
<path d="M68.1865 8.44751H62.6924V28.1676H68.1865V8.44751Z" fill="#231F20"/>
<path d="M62.6489 0.305664V5.80154H68.1864V5.75931H68.2274V0.305664H62.6489Z" fill="#231F20"/>
<path d="M36.8813 7.88611C31.9323 7.88611 24.6222 9.20542 24.5474 9.22033L24.4702 9.23523V28.1677H29.9619V12.5869H36.9754V7.88611H36.8813Z" fill="#231F20"/>
</svg>
