<svg width="30" height="30" viewBox="0 0 30 30" fill="none" xmlns="http://www.w3.org/2000/svg">
<g clip-path="url(#clip0)">
<path fill-rule="evenodd" clip-rule="evenodd" d="M28.8602 29.9979H1.13884C0.509849 29.9979 0 29.488 0 28.859V1.13576C0 0.506727 0.509849 -0.00286674 1.13884 -0.00286674H28.8602C29.4892 -0.00286674 29.999 0.506727 29.999 1.13576V28.859C29.999 29.488 29.4892 29.9979 28.8602 29.9979Z" fill="#FF6700"/>
<path d="M23.5229 9.43297H21.1628C21.0618 9.43297 20.98 9.51336 20.98 9.61241V20.3812C20.98 20.4794 21.0618 20.5598 21.1628 20.5598H23.5229C23.6231 20.5598 23.7061 20.4794 23.7061 20.3812V9.61241C23.7061 9.51336 23.6231 9.43297 23.5229 9.43297Z" fill="white"/>
<path d="M15.4647 9.43297H6.47478C6.37373 9.43297 6.29248 9.51336 6.29248 9.61241V20.3812C6.29248 20.4794 6.37373 20.5598 6.47478 20.5598H8.83544C8.93592 20.5598 9.01918 20.4794 9.01918 20.3812V11.9293C9.01918 11.8317 9.10041 11.7507 9.20146 11.7507H14.2865C15.7165 11.7507 16.1224 12.846 16.1224 13.5526V20.3812C16.1224 20.4794 16.2045 20.5598 16.3056 20.5598H18.6648C18.7653 20.5598 18.8476 20.4794 18.8476 20.3812V12.7418C18.8476 12.1116 18.7718 11.2055 17.9588 10.408C17.1082 9.57537 16.3322 9.43297 15.4647 9.43297Z" fill="white"/>
<path d="M13.8113 13.7223H11.3329C11.2319 13.7223 11.1489 13.8027 11.1489 13.9011V20.3821C11.1489 20.48 11.2319 20.5604 11.3329 20.5604H13.8113C13.9115 20.5604 13.9936 20.48 13.9936 20.3821V13.9011C13.9936 13.8027 13.9115 13.7223 13.8113 13.7223Z" fill="white"/>
</g>
<defs>
<clipPath id="clip0">
<rect width="30" height="30" fill="white"/>
</clipPath>
</defs>
</svg>
