<svg width="30" height="28" viewBox="0 0 30 28" fill="none" xmlns="http://www.w3.org/2000/svg">
<g clip-path="url(#clip0)">
<path d="M6.6 13.9C6.5 13.9 6.4 13.9 6.4 13.8C6.3 13.7 3.5 11.1 3.5 6.80002C3.5 3.10002 6.2 0.200024 6.3 0.100024C6.4 2.44156e-05 6.6 2.44156e-05 6.7 0.100024C6.8 0.200024 6.8 0.500024 6.7 0.600024C6.7 0.600024 4.1 3.40002 4.1 6.80002C4.1 10.8 6.7 13.3 6.8 13.3C6.9 13.4 7 13.7 6.8 13.8C6.8 13.9 6.7 13.9 6.6 13.9Z" fill="#10B1E8"/>
<path d="M8.20005 12.3C8.10005 12.3 8.00005 12.3 8.00005 12.2C7.90005 12.1 5.80005 10.1 5.80005 6.80002C5.80005 3.90002 7.90005 1.70002 8.00005 1.60002C8.10005 1.50002 8.40005 1.50002 8.50005 1.60002C8.60005 1.70002 8.60005 2.00002 8.50005 2.10002C8.50005 2.10002 6.50005 4.20002 6.50005 6.80002C6.50005 9.80002 8.50005 11.7 8.50005 11.7C8.60005 11.8 8.70005 12.1 8.50005 12.2C8.40005 12.3 8.30005 12.3 8.20005 12.3Z" fill="#10B1E8"/>
<path d="M9.7 10.5C9.6 10.5 9.5 10.5 9.5 10.4C9.4 10.3 8 9.00005 8 6.90005C8 5.00005 9.3 3.60005 9.4 3.50005C9.5 3.40005 9.8 3.40005 9.9 3.50005C10 3.60005 10 3.90005 9.9 4.00005C9.9 4.00005 8.7 5.30005 8.7 6.90005C8.7 8.70005 9.9 9.90005 9.9 9.90005C10 10 10.1 10.3 9.9 10.4C9.9 10.4 9.8 10.5 9.7 10.5Z" fill="#10B1E8"/>
<path d="M19.4001 13.9C19.3001 13.9 19.2001 13.9 19.2001 13.8C19.1001 13.7 19.1001 13.4 19.2001 13.3C19.2001 13.3 21.8001 10.5 21.8001 7.09997C21.8001 3.09997 19.2001 0.599967 19.1001 0.599967C19.0001 0.499967 18.9001 0.199967 19.1001 0.0999671C19.2001 -3.2872e-05 19.5001 -0.100033 19.6001 0.0999671C19.7001 0.199967 22.5001 2.79997 22.5001 7.09997C22.5001 10.8 19.8001 13.7 19.7001 13.8C19.6001 13.9 19.5001 13.9 19.4001 13.9Z" fill="#10B1E8"/>
<path d="M17.8001 12.3C17.7001 12.3 17.6001 12.3 17.6001 12.2C17.5001 12.1 17.5001 11.8 17.6001 11.7C17.6001 11.7 19.6001 9.59997 19.6001 6.99997C19.6001 3.99997 17.6001 2.09997 17.6001 2.09997C17.5001 1.99997 17.4001 1.69997 17.6001 1.59997C17.7001 1.49997 18.0001 1.39997 18.1001 1.59997C18.2001 1.69997 20.3001 3.69997 20.3001 6.99997C20.3001 9.89997 18.2001 12.1 18.1001 12.2C18.0001 12.3 17.9001 12.3 17.8001 12.3Z" fill="#10B1E8"/>
<path d="M16.2 10.5C16.1 10.5 16 10.5 16 10.4C15.9 10.3 15.9 9.99999 16 9.89999C16 9.89999 17.2 8.59999 17.2 6.99999C17.2 5.19999 16 3.99999 16 3.99999C15.9 3.89999 15.8 3.59999 16 3.49999C16.1 3.39999 16.4 3.29999 16.5 3.49999C16.6 3.59999 18 4.89999 18 6.99999C18 8.89999 16.7 10.3 16.6 10.4C16.4 10.5 16.3 10.5 16.2 10.5Z" fill="#10B1E8"/>
<path d="M12.9 16.1C12.7 16.1 12.5 15.9 12.5 15.8V7.99998C12.5 7.79998 12.7 7.59998 12.9 7.59998C13.1 7.59998 13.3 7.79998 13.3 7.99998V15.8C13.2 16 13.1 16.1 12.9 16.1Z" fill="#10B1E8"/>
<path d="M28.5 16.2C28.7 16.2 28.8 16.3 28.8 16.5V23.9C28.8 24.1 28.7 24.2 28.5 24.2H1C0.8 24.2 0.7 24.1 0.7 23.9V16.5C0.7 16.3 0.8 16.2 1 16.2H28.5ZM28.5 15.5H1C0.4 15.5 0 16 0 16.5V23.9C0 24.5 0.5 24.9 1 24.9H28.4C29 24.9 29.4 24.4 29.4 23.9V16.5C29.5 16 29 15.5 28.5 15.5Z" fill="#10B1E8"/>
<path d="M5.4001 22.5C4.1001 22.5 3.1001 21.5 3.1001 20.2C3.1001 18.9 4.1001 17.9 5.4001 17.9C6.7001 17.9 7.7001 18.9 7.7001 20.2C7.7001 21.5 6.6001 22.5 5.4001 22.5ZM5.4001 18.6C4.5001 18.6 3.8001 19.3 3.8001 20.2C3.8001 21.1 4.5001 21.8 5.4001 21.8C6.3001 21.8 7.0001 21 7.0001 20.2C7.0001 19.4 6.3001 18.6 5.4001 18.6Z" fill="#10B1E8"/>
<path d="M6.6 27.1H2.5V24.2H6.7V27.1H6.6ZM3.2 26.4H6V24.9H3.2V26.4Z" fill="#10B1E8"/>
<path d="M27.0999 27.1H22.8999V24.2H27.0999V27.1ZM23.5999 26.4H26.3999V24.9H23.5999V26.4Z" fill="#10B1E8"/>
<path d="M14.3 18H12.7V18.7H14.3V18Z" fill="#10B1E8"/>
<path d="M14.3 20.5H12.7V21.2H14.3V20.5Z" fill="#10B1E8"/>
<path d="M17.3 18H15.7V18.7H17.3V18Z" fill="#10B1E8"/>
<path d="M17.3 20.5H15.7V21.2H17.3V20.5Z" fill="#10B1E8"/>
<path d="M20.4 18H18.8V18.7H20.4V18Z" fill="#10B1E8"/>
<path d="M20.4 20.5H18.8V21.2H20.4V20.5Z" fill="#10B1E8"/>
<path d="M23.4 18H21.8V18.7H23.4V18Z" fill="#10B1E8"/>
<path d="M23.4 20.5H21.8V21.2H23.4V20.5Z" fill="#10B1E8"/>
<path d="M26.4 18H24.8V18.7H26.4V18Z" fill="#10B1E8"/>
<path d="M26.4 20.5H24.8V21.2H26.4V20.5Z" fill="#10B1E8"/>
</g>
<defs>
<clipPath id="clip0">
<rect width="29.5" height="27.1" fill="white"/>
</clipPath>
</defs>
</svg>
