<svg width="34" height="22" viewBox="0 0 34 22" fill="none" xmlns="http://www.w3.org/2000/svg">
<path d="M0 1.04761H29.1231C30.4166 1.04761 31.657 1.55422 32.5716 2.45601C33.4862 3.35779 34 4.58087 34 5.85618V22H4.87687C3.58345 22 2.343 21.4934 1.4284 20.5916C0.513812 19.6898 0 18.4667 0 17.1914L0 1.04761Z" fill="#EF6406"/>
<path d="M0 0H29.1231C30.4166 0 31.657 0.506616 32.5716 1.4084C33.4862 2.31018 34 3.53326 34 4.80857V20.9524H4.87687C3.58345 20.9524 2.343 20.4458 1.4284 19.544C0.513812 18.6422 0 17.4191 0 16.1438L0 0Z" fill="#F79839"/>
<path d="M10.742 6.42184V14.1742C10.7561 14.2645 10.7486 14.3569 10.7201 14.4438C10.6916 14.5308 10.6429 14.61 10.5779 14.6751C10.5129 14.7402 10.4334 14.7895 10.3456 14.8189C10.2579 14.8484 10.1644 14.8572 10.0726 14.8447H8.8932C8.7462 14.8284 8.60839 14.766 8.50008 14.6666C8.369 14.5495 8.26407 14.4068 8.19195 14.2476L5.89695 9.79517C5.68326 9.37524 5.50899 8.93691 5.37633 8.48565H5.2382C5.29494 8.93386 5.31979 9.38544 5.31258 9.83708V14.8447H3.5382V7.09232C3.52472 6.99837 3.53413 6.90261 3.56567 6.81297C3.5972 6.72332 3.64994 6.64238 3.71953 6.57684C3.78911 6.5113 3.87353 6.46306 3.9658 6.4361C4.05806 6.40915 4.15551 6.40426 4.25008 6.42184H5.3657C5.52471 6.41173 5.68236 6.45615 5.81195 6.54756C5.94303 6.66465 6.04796 6.80736 6.12008 6.9666L8.24508 11.3247C8.45049 11.7298 8.65591 12.1803 8.86133 12.6761H9.03133C8.98174 12.0406 8.95695 11.5691 8.95695 11.2618V6.42184H10.742Z" fill="white"/>
<path d="M18.1583 13.3886L18.2433 14.7609C17.4642 14.8448 16.1431 14.8867 14.2802 14.8867C13.7838 14.91 13.2971 14.7451 12.9202 14.4257C12.7499 14.2676 12.6154 14.0756 12.5257 13.8626C12.4359 13.6495 12.393 13.4201 12.3996 13.1895V8.07713C12.393 7.84652 12.4359 7.61714 12.5257 7.40407C12.6154 7.19101 12.7499 6.99909 12.9202 6.84094C13.2971 6.52156 13.7838 6.35662 14.2802 6.37999C16.1431 6.37999 17.4642 6.4219 18.2433 6.50571L18.1583 7.88856H14.8752C14.7946 7.88119 14.7133 7.89042 14.6365 7.91567C14.5596 7.94092 14.489 7.98163 14.429 8.03523C14.326 8.17044 14.2769 8.33815 14.2908 8.50666V9.78475H17.6908V11.1257H14.2908V12.7495C14.2736 12.9248 14.3228 13.1003 14.429 13.2419C14.489 13.2955 14.5596 13.3362 14.6365 13.3615C14.7133 13.3867 14.7946 13.3959 14.8752 13.3886H18.1583Z" fill="white"/>
<path d="M30.4617 6.42183L29.1123 14.3314C29.0842 14.4812 29.0009 14.6155 28.8785 14.7085C28.7496 14.8021 28.5923 14.8501 28.4323 14.8447H26.626C26.4645 14.8488 26.3065 14.7969 26.1798 14.698C26.059 14.6053 25.9791 14.4702 25.9567 14.3209L25.0323 8.8104C24.9685 8.45421 24.919 8.10501 24.8835 7.76278H24.6498C24.6498 7.76278 24.6498 7.94088 24.5967 8.21326C24.5435 8.48564 24.5329 8.69516 24.501 8.83136L23.5873 14.3209C23.5611 14.4576 23.4856 14.5804 23.3748 14.6666C23.2472 14.7639 23.0898 14.8156 22.9285 14.8133H21.1223C20.9658 14.8163 20.8127 14.7684 20.6867 14.6771C20.5595 14.5866 20.4721 14.4517 20.4423 14.2999L19.061 6.42183H20.9948L21.8235 12.2675C21.8731 12.6307 21.9085 13.0393 21.9298 13.4933H22.1742C22.1742 13.2628 22.2344 12.8542 22.3548 12.2675L23.2685 7.02945C23.285 6.86884 23.3606 6.71976 23.481 6.6104C23.6043 6.50436 23.7638 6.44823 23.9273 6.45326H25.5635C25.7236 6.44984 25.8791 6.50594 25.9992 6.6104C26.1188 6.72034 26.1942 6.86912 26.2117 7.02945L27.1254 12.2675C27.2246 12.8682 27.2812 13.2698 27.2954 13.4723H27.6248C27.6248 13.0114 27.6602 12.6133 27.731 12.278L28.5704 6.40088L30.4617 6.42183Z" fill="white"/>
</svg>
