<svg width="22" height="8" viewBox="0 0 22 8" fill="none" xmlns="http://www.w3.org/2000/svg">
<path d="M0 3C0 1.34315 1.34315 0 3 0H22V5C22 6.65685 20.6569 8 19 8H0V3Z" fill="#E64A19"/>
<path d="M7.12744 1.48V6.632C7.12744 6.87733 7.00477 7 6.75944 7H5.96744C5.77544 7 5.63677 6.89867 5.55144 6.696L3.99944 3.312C3.81277 2.912 3.70344 2.63733 3.67144 2.488H3.57544C3.60744 2.712 3.62344 2.98933 3.62344 3.32V7H2.63944V1.848C2.63944 1.60267 2.76477 1.48 3.01544 1.48H3.79144C3.8981 1.48 3.98077 1.504 4.03944 1.552C4.10344 1.6 4.15944 1.67733 4.20744 1.784L5.71144 5.072C5.72744 5.10933 5.78344 5.23467 5.87944 5.448C5.97544 5.66133 6.04744 5.82667 6.09544 5.944H6.19144C6.16477 5.608 6.15144 5.30933 6.15144 5.048V1.48H7.12744ZM11.8782 6.192L11.9262 6.952C11.4409 6.99467 10.6302 7.016 9.49419 7.016C9.13152 7.016 8.84352 6.92267 8.63019 6.736C8.42219 6.54933 8.31552 6.29333 8.31019 5.968V2.512C8.31552 2.18667 8.42219 1.93067 8.63019 1.744C8.84352 1.55733 9.13152 1.464 9.49419 1.464C10.6302 1.464 11.4409 1.48533 11.9262 1.528L11.8782 2.296H9.71819C9.57419 2.296 9.47019 2.33067 9.40619 2.4C9.34752 2.46933 9.31819 2.58933 9.31819 2.76V3.728H11.5822V4.496H9.31819V5.728C9.31819 5.89867 9.34752 6.01867 9.40619 6.088C9.47019 6.15733 9.57419 6.192 9.71819 6.192H11.8782ZM19.7451 1.48L18.7931 6.72C18.7717 6.80533 18.7264 6.87467 18.6571 6.928C18.5931 6.976 18.5157 7 18.4251 7H17.3771C17.1691 7 17.0464 6.904 17.0091 6.712L16.3131 2.864C16.2864 2.72 16.2517 2.504 16.2091 2.216H16.0491C16.0011 2.52533 15.9664 2.74133 15.9451 2.864L15.2571 6.712C15.2411 6.79733 15.1984 6.86667 15.1291 6.92C15.0597 6.97333 14.9771 7 14.8811 7H13.8411C13.7504 7 13.6704 6.976 13.6011 6.928C13.5317 6.87467 13.4891 6.80533 13.4731 6.72L12.5211 1.48H13.5611L14.2171 5.504C14.2491 5.68533 14.2784 5.936 14.3051 6.256H14.4731C14.5211 5.94667 14.5637 5.696 14.6011 5.504L15.2811 1.8C15.3184 1.58667 15.4411 1.48 15.6491 1.48H16.6251C16.7157 1.48 16.7931 1.50933 16.8571 1.568C16.9264 1.62667 16.9691 1.704 16.9851 1.8L17.6651 5.512C17.7184 5.77867 17.7557 6.02667 17.7771 6.256H17.9531C17.9637 6.18133 17.9771 6.06133 17.9931 5.896C18.0144 5.72533 18.0304 5.6 18.0411 5.52L18.7051 1.48H19.7451Z" fill="white"/>
</svg>
