<svg width="114" height="20" viewBox="0 0 114 20" fill="none" xmlns="http://www.w3.org/2000/svg">
<g clip-path="url(#clip0)">
<path d="M0 18.5448V1.18091H7.28247C9.7392 1.20723 12.1082 1.33664 13.7533 3.54551C14.214 4.16847 14.8501 5.31349 14.8501 7.235C14.8501 9.65225 13.7972 11.1066 13.0733 11.7844C11.7792 13.0807 10.0463 13.2123 8.33535 13.2913H5.15476V18.5448H0ZM7.12892 9.264C7.98439 9.24207 8.94953 9.196 9.56372 8.57085C9.7392 8.3866 10.0244 8.0159 10.0244 7.41268C10.0024 6.81385 9.7392 6.44095 9.58566 6.2567C8.83986 5.44729 7.63343 5.53941 6.64635 5.53941H5.22056V9.264H7.12892Z" fill="#2C4285"/>
<path d="M23.2073 18.5645L23.0099 17.4086C22.3519 17.924 21.1454 18.9331 18.9739 18.9331C18.601 18.9331 16.9778 18.8826 15.8591 17.9504C15.3765 17.5314 14.543 16.5224 14.543 14.8531C14.543 14.4583 14.6526 13.7871 15.2888 12.9513C16.1881 11.7471 17.2629 11.4203 18.6448 11.0978L20.97 10.8083C21.2332 10.7337 21.5183 10.6613 21.8254 10.6131C21.8912 10.5867 22.2641 10.5363 22.4615 10.3893C22.659 10.2424 22.8125 9.67642 22.8125 9.40442C22.8125 8.91308 22.1764 8.51167 21.1893 8.51167C20.3119 8.51167 19.8951 8.82973 19.6758 9.14998C19.5661 9.32107 19.5222 9.46804 19.5003 9.86287L15.0913 9.83655C15.2888 8.82973 15.4862 8.01812 16.21 7.1824C17.1094 6.17338 18.5352 5.53507 21.3209 5.53507C21.8474 5.53507 23.997 5.31352 25.5763 6.37079C26.2125 6.78976 26.6292 7.2833 26.9144 7.94574C27.397 8.97888 27.2653 10.2292 27.2653 11.3128V14.7785C27.2434 16.9413 27.397 17.334 27.7918 18.5645H23.2073ZM22.7467 12.9886C22.1106 13.2102 21.4525 13.4076 20.7945 13.6291L20.3119 13.7761C20.0706 13.8244 19.3248 13.9867 19.3248 14.9211C19.3248 15.3401 19.5661 16.1012 20.5313 16.1012C20.6629 16.1012 21.2551 16.0442 21.5622 15.9455C22.4396 15.6998 22.5054 15.1295 22.7467 14.8816V12.9886Z" fill="#2C4285"/>
<path d="M36.4784 18.5777V12.4271C36.4784 13.1597 36.6758 10.0252 36.0177 9.71587C35.7984 9.60839 35.3816 9.39562 34.8771 9.40659C34.3068 9.41756 33.6707 9.69394 33.4513 10.2006C33.21 10.8192 33.1223 11.3873 33.1442 12.6749V18.5821H28.4062V5.8509H32.881L32.9468 7.32933C33.561 6.57696 34.2849 5.60522 36.9171 5.60522C38.8474 5.60522 40.317 6.27864 40.9093 8.23306C41.0409 8.7266 41.1067 9.20478 41.1506 10.2182V18.5777H36.4784Z" fill="#2C4285"/>
<path d="M62.8001 9.52949C62.7124 9.04472 62.3614 8.2419 61.155 8.2419C60.6285 8.2419 60.2337 8.38447 60.0363 8.50731C59.9266 8.55338 59.7511 8.87143 59.7511 9.23556C59.7511 9.33207 59.8388 9.62161 60.124 9.79271C60.2995 9.89142 60.7163 10.0121 61.1988 10.0669L63.0633 10.5517C64.3794 10.8851 65.5201 11.1198 66.4413 12.0411C66.902 12.4776 67.1433 13.0435 67.2091 13.2738C67.4284 13.9319 67.3187 14.4473 67.3187 14.6667C67.3187 16.1671 66.5949 17.0708 66.1781 17.459C65.2788 18.2838 63.853 18.9068 61.2427 18.9068C59.0711 18.9068 57.7111 18.3364 56.8995 17.8648C55.1667 16.8602 55.0789 15.0111 54.9692 14.4298L59.4879 14.4144C59.5318 14.851 59.5976 15.1778 59.9485 15.4915C60.2337 15.7591 60.5408 15.9433 61.3524 15.9433C62.3175 15.9433 62.8659 15.4783 62.8878 15.0549C62.9098 15.0045 62.9098 14.6645 62.7782 14.4956C62.5588 14.1315 61.9666 13.9779 61.1111 13.7586C61.1111 13.7586 58.4789 13.1927 58.2815 13.0983C57.6892 12.8263 55.2983 12.2889 55.2983 9.62161C55.2983 8.12125 56.066 7.32062 56.5047 6.90824C57.3163 6.20412 58.6543 5.55045 61.0453 5.55045C61.5717 5.55045 63.8091 5.52633 65.4762 6.66696C65.9368 6.98063 66.3097 7.36887 66.5949 7.82951C66.9897 8.48318 67.0555 9.26407 67.0994 9.52949H62.8001Z" fill="#2C4285"/>
<path d="M79.0983 17.1213C78.3305 17.9 76.7512 18.9221 74.1409 18.9221C73.3074 18.9221 71.0042 18.8739 69.3152 16.8778C68.6133 16.0267 67.7578 14.6141 67.7578 12.0806C67.7578 11.6419 67.7578 10.6438 68.1746 9.54926C69.1178 6.77446 71.6842 5.5088 74.3822 5.53293C75.1061 5.53293 77.3654 5.60532 78.9886 7.26142C79.8002 8.08838 80.8311 9.59752 80.8092 12.2758C80.8092 12.9317 80.7653 15.4169 79.0983 17.1213ZM75.5887 9.43519C75.1719 9.04475 74.5358 8.96578 74.3164 8.96578C73.768 8.96578 73.3732 9.28384 73.2416 9.38035C72.6713 9.84319 72.2545 10.5473 72.2545 12.1288C72.2545 13.3704 72.5397 15.4476 74.2945 15.4476C74.799 15.4476 75.2816 15.316 75.5887 14.9519C76.0054 14.4891 76.4441 13.6533 76.4222 12.1924C76.4222 12.12 76.4441 10.3104 75.5887 9.43519Z" fill="#2C4285"/>
<path d="M95.1768 5.80927H99.827V18.5997H95.1768V5.80927ZM95.1768 1.06689H99.827V4.39446H95.1768V1.06689Z" fill="#2C4285"/>
<path d="M108.776 10.7008C108.425 9.16534 107.679 9.08857 106.846 9.08857C106.166 9.08857 105.947 9.31889 105.727 9.50972C105.135 10.0142 104.937 10.6394 104.937 12.199C104.937 12.3174 104.872 14.4013 106.012 15.1931C106.341 15.4103 106.495 15.4234 106.89 15.4234C107.021 15.4234 107.416 15.4366 107.767 15.2699C108.228 15.0549 108.71 14.6601 108.798 13.5787L113.295 13.5414C113.251 13.8309 113.075 14.8509 112.637 15.691C111.518 17.9218 109.237 18.8519 106.934 18.8519C105.99 18.8519 105.332 18.7093 104.937 18.6369C103.117 18.1807 101.516 16.9084 100.814 15.0856C100.616 14.5351 100.353 13.6949 100.353 12.3021C100.353 11.7274 100.375 10.2402 101.187 8.75296C101.296 8.51387 101.669 7.91285 102.196 7.36227C103.907 5.68204 106.451 5.63379 107.065 5.63379C109.434 5.63379 110.904 6.52216 111.628 7.19338C111.847 7.41053 112.286 7.98962 112.637 8.78148C112.922 9.42856 113.075 10.0055 113.185 10.7008H108.776Z" fill="#2C4285"/>
<path d="M54.5309 14.8466V11.3874C54.5309 10.306 54.5309 8.85169 54.0703 7.82074C53.7632 7.1561 53.5439 6.7876 52.9077 6.37083C51.3284 5.31356 49.0033 5.51316 48.4768 5.51316C45.6911 5.51316 44.2653 6.248 43.3659 7.25701C42.6421 8.09274 42.4885 8.91092 42.2911 9.91993H46.7001C46.722 9.5251 46.7878 9.37814 46.8756 9.20485C47.1169 8.88679 47.4678 8.48538 48.3452 8.48538C49.3323 8.48538 49.9684 8.98769 49.9684 9.47904C49.9684 9.74884 49.9465 10.1897 49.7491 10.3367C49.5517 10.4859 49.0471 10.6613 48.9594 10.6855C48.7401 10.7228 48.4549 10.7886 48.1039 10.8807L45.8007 11.1724C44.4188 11.4927 43.344 11.7735 42.4447 12.9777C41.7866 13.8134 41.7866 14.5768 41.7866 14.9694C41.7866 16.6409 42.5105 17.606 42.9931 18.025C44.1117 18.9572 45.713 18.9221 46.1078 18.9221C48.2794 18.9221 49.42 17.9679 50.1 17.4525L50.2974 18.6589H55.0574C54.7942 17.8232 54.509 17.3867 54.5309 14.8466ZM48.7181 16.0201C48.411 16.1188 47.8846 16.0969 47.753 16.0903C46.9633 16.0376 46.5465 15.3182 46.5465 14.8992C46.5465 13.9648 47.2923 13.8134 47.5336 13.7652L48.0381 13.6248C48.6743 13.4032 49.3323 13.2168 49.9684 12.9952L49.9904 14.6206C49.7929 14.9869 49.5736 15.7744 48.7181 16.0201Z" fill="#2C4285"/>
<path d="M89.561 18.5536V12.3635C89.561 13.0962 89.7803 10.0011 89.1223 9.68963C88.9029 9.58654 88.4862 9.37157 88.0036 9.38254C87.4333 9.3935 86.7752 9.66989 86.5778 10.1766C86.3146 10.7952 86.183 11.2163 86.2049 12.5017L86.161 18.5777L81.5327 18.558V5.82685H85.9856L86.0514 7.30529C86.6655 6.55291 87.3894 5.58118 90.0436 5.58118C91.9519 5.58118 93.4216 6.39278 94.0138 8.3472C94.1454 8.84074 94.1674 9.16319 94.2332 10.1766V18.558L89.561 18.5536Z" fill="#2C4285"/>
</g>
<defs>
<clipPath id="clip0">
<rect width="113.295" height="20" fill="white"/>
</clipPath>
</defs>
</svg>
