<svg width="24" height="22" viewBox="0 0 24 22" fill="none" xmlns="http://www.w3.org/2000/svg">
<g clip-path="url(#clip0)">
<path d="M16.2647 17.6324H0.94507C0.428855 17.6324 0 17.2022 0 16.6745V8.23979C0 7.71212 0.428855 7.28186 0.94507 7.28186H18.5996C19.1238 7.28186 19.5447 7.71212 19.5447 8.23979V12.7616C19.5447 12.9158 19.4176 13.0457 19.2667 13.0457C19.1158 13.0457 18.9888 12.9158 18.9888 12.7616V8.23979C18.9888 8.02872 18.814 7.85013 18.5917 7.85013H0.94507C0.730642 7.85013 0.555923 8.02061 0.555923 8.23979V16.6745C0.555923 16.8856 0.730642 17.0641 0.94507 17.0641H16.2568C16.4077 17.0641 16.5347 17.194 16.5347 17.3483C16.5347 17.5025 16.4156 17.6324 16.2647 17.6324Z" fill="#10B1E8"/>
<path d="M2.9543 9.91223H2.33484V10.5373H2.9543V9.91223Z" fill="#10B1E8"/>
<path d="M4.22505 9.91223H3.60559V10.5373H4.22505V9.91223Z" fill="#10B1E8"/>
<path d="M5.49568 9.91223H4.87622V10.5373H5.49568V9.91223Z" fill="#10B1E8"/>
<path d="M6.75849 9.91223H6.14697V10.5373H6.75849V9.91223Z" fill="#10B1E8"/>
<path d="M8.02912 9.91223H7.4176V10.5373H8.02912V9.91223Z" fill="#10B1E8"/>
<path d="M9.29975 9.91223H8.68823V10.5373H9.29975V9.91223Z" fill="#10B1E8"/>
<path d="M10.5626 9.91223H9.95105V10.5373H10.5626V9.91223Z" fill="#10B1E8"/>
<path d="M11.8411 9.91223H11.2217V10.5373H11.8411V9.91223Z" fill="#10B1E8"/>
<path d="M13.1119 9.91223H12.4924V10.5373H13.1119V9.91223Z" fill="#10B1E8"/>
<path d="M14.3825 9.91223H13.7631V10.5373H14.3825V9.91223Z" fill="#10B1E8"/>
<path d="M15.6533 9.91223H15.0338V10.5373H15.6533V9.91223Z" fill="#10B1E8"/>
<path d="M16.916 9.91223H16.3044V10.5373H16.916V9.91223Z" fill="#10B1E8"/>
<path d="M2.9543 12.0878H2.33484V12.7129H2.9543V12.0878Z" fill="#10B1E8"/>
<path d="M4.22505 12.0878H3.60559V12.7129H4.22505V12.0878Z" fill="#10B1E8"/>
<path d="M5.49568 12.0878H4.87622V12.7129H5.49568V12.0878Z" fill="#10B1E8"/>
<path d="M6.75849 12.0878H6.14697V12.7129H6.75849V12.0878Z" fill="#10B1E8"/>
<path d="M8.02912 12.0878H7.4176V12.7129H8.02912V12.0878Z" fill="#10B1E8"/>
<path d="M9.29975 12.0878H8.68823V12.7129H9.29975V12.0878Z" fill="#10B1E8"/>
<path d="M10.5626 12.0878H9.95105V12.7129H10.5626V12.0878Z" fill="#10B1E8"/>
<path d="M11.8411 12.0878H11.2217V12.7129H11.8411V12.0878Z" fill="#10B1E8"/>
<path d="M13.1119 12.0878H12.4924V12.7129H13.1119V12.0878Z" fill="#10B1E8"/>
<path d="M14.3825 12.0878H13.7631V12.7129H14.3825V12.0878Z" fill="#10B1E8"/>
<path d="M15.6533 12.0878H15.0338V12.7129H15.6533V12.0878Z" fill="#10B1E8"/>
<path d="M16.916 12.0878H16.3044V12.7129H16.916V12.0878Z" fill="#10B1E8"/>
<path d="M2.9543 14.2147H2.33484V14.8479H2.9543V14.2147Z" fill="#10B1E8"/>
<path d="M4.22505 14.2147H3.60559V14.8479H4.22505V14.2147Z" fill="#10B1E8"/>
<path d="M5.49568 14.2147H4.87622V14.8479H5.49568V14.2147Z" fill="#10B1E8"/>
<path d="M12.8577 14.2147H6.401V14.8479H12.8577V14.2147Z" fill="#10B1E8"/>
<path d="M14.3825 14.2147H13.7631V14.8479H14.3825V14.2147Z" fill="#10B1E8"/>
<path d="M15.6533 14.2147H15.0338V14.8479H15.6533V14.2147Z" fill="#10B1E8"/>
<path d="M16.916 14.2147H16.3044V14.8479H16.916V14.2147Z" fill="#10B1E8"/>
<path d="M9.56985 7.74465C9.41895 7.74465 9.29188 7.61476 9.29188 7.46052C9.28394 6.04797 9.276 5.50406 9.276 5.17934V4.53801C9.276 3.60443 9.75251 3.04428 10.5784 3.00369C10.9914 2.98745 11.3726 3.01181 11.7459 3.03616C12.1589 3.06863 12.5798 3.10111 13.0483 3.06052C13.4057 3.03616 14.0093 2.82509 14.0649 2.2C14.1205 1.49373 14.1046 0.292251 14.1046 0.284133C14.0966 0.129889 14.2237 0 14.3746 0C14.5096 0.0162362 14.6526 0.121771 14.6605 0.276015C14.6605 0.324723 14.6843 1.51808 14.6208 2.24871C14.5493 3.12546 13.779 3.58007 13.088 3.62878C12.5798 3.66937 12.135 3.6369 11.7062 3.60443C11.3329 3.58007 10.9914 3.55572 10.6023 3.57196C10.2687 3.58819 9.83192 3.70184 9.83192 4.53801V5.17934C9.83192 5.50406 9.83987 6.04797 9.84781 7.46052C9.84781 7.61476 9.72868 7.74465 9.56985 7.74465Z" fill="#10B1E8"/>
<path d="M19.5129 22C19.1078 22 18.6948 21.9107 18.3057 21.7159C16.908 21.0339 16.3123 19.3048 16.9794 17.876L18.4328 14.7668C18.7584 14.0686 19.3302 13.5491 20.037 13.2974C20.7438 13.0458 21.5142 13.0863 22.1892 13.4192C22.8643 13.752 23.3805 14.3284 23.6267 15.0509C23.8808 15.7734 23.8332 16.5609 23.5076 17.2509L22.0542 20.3601C21.5698 21.3993 20.5612 22 19.5129 22ZM20.9662 13.7033C20.7121 13.7033 20.4579 13.7439 20.2117 13.8332C19.6399 14.0362 19.1872 14.4583 18.9252 15.0185L17.4718 18.1277C16.9318 19.2804 17.4083 20.6605 18.536 21.2125C19.6558 21.7565 21.0138 21.2775 21.5539 20.1247L23.0072 17.0155C23.2693 16.4554 23.3011 15.8303 23.1025 15.2458C22.904 14.6613 22.491 14.1985 21.951 13.9306C21.6333 13.7845 21.2997 13.7033 20.9662 13.7033Z" fill="#10B1E8"/>
<path d="M22.2051 14.0361C22.1257 14.0361 22.0383 13.9956 21.9828 13.9306C21.8875 13.8088 21.9113 13.6302 22.0304 13.5328C22.0939 13.4841 23.4996 12.3314 22.8643 10.5373C21.7683 7.43615 23.5155 6.41327 23.587 6.37268C23.722 6.29962 23.8888 6.34833 23.9682 6.48633C24.0397 6.62434 23.992 6.79482 23.865 6.86788C23.8094 6.90035 22.4672 7.72028 23.3964 10.3424C24.1667 12.5343 22.4037 13.9712 22.3798 13.9793C22.3243 14.0199 22.2607 14.0361 22.2051 14.0361Z" fill="#10B1E8"/>
<path d="M20.8948 16.496C20.855 16.496 20.8153 16.4878 20.7756 16.4716C20.6406 16.4067 20.5771 16.2362 20.6406 16.09L21.1489 14.9941C21.2124 14.848 21.3792 14.7912 21.5222 14.8561C21.6572 14.921 21.7207 15.0915 21.6572 15.2376L21.1489 16.3336C21.1012 16.4391 20.998 16.496 20.8948 16.496Z" fill="#10B1E8"/>
</g>
<defs>
<clipPath id="clip0">
<rect width="24" height="22" fill="white"/>
</clipPath>
</defs>
</svg>
