<svg width="25" height="22" viewBox="0 0 25 22" fill="none" xmlns="http://www.w3.org/2000/svg">
<g clip-path="url(#clip0)">
<path d="M6.66444 16.7417H1.47451C0.658114 16.7417 0 16.0833 0 15.275V1.475C0 0.658333 0.658114 0 1.47451 0H11.1629C11.9793 0 12.6375 0.658333 12.6375 1.475V12.025H12.0543V1.475C12.0543 0.983333 11.6544 0.583333 11.1629 0.583333H1.47451C0.983006 0.583333 0.583139 0.983333 0.583139 1.475V15.275C0.583139 15.7667 0.983006 16.1667 1.47451 16.1667H6.66444V16.7417Z" fill="#fff"/>
<path d="M6.33119 7.77495C5.48148 7.77495 4.79004 7.08328 4.79004 6.23328C4.79004 5.38328 5.48148 4.69995 6.33119 4.69995C7.18091 4.69995 7.87234 5.39162 7.87234 6.24162C7.87234 7.09162 7.18091 7.77495 6.33119 7.77495ZM6.33119 5.28328C5.80637 5.28328 5.37318 5.71662 5.37318 6.24162C5.37318 6.76662 5.80637 7.19162 6.33119 7.19162C6.85602 7.19162 7.28921 6.75828 7.28921 6.23328C7.28921 5.70828 6.86435 5.28328 6.33119 5.28328Z" fill="#fff"/>
<path d="M4.81568 10.5084C3.01628 9.86671 1.80835 8.15004 1.80835 6.24171C1.80835 3.74171 3.84101 1.70837 6.34017 1.70837C8.83934 1.70837 10.872 3.74171 10.872 6.24171C10.872 7.85837 9.99729 9.36671 8.59775 10.175L8.29785 9.66671C9.52244 8.96671 10.2805 7.65004 10.2805 6.24171C10.2805 4.06671 8.51445 2.29171 6.33184 2.29171C4.15757 2.29171 2.38316 4.05837 2.38316 6.24171C2.38316 7.90837 3.43281 9.40004 4.99895 9.95837L4.81568 10.5084Z" fill="#fff"/>
<path d="M3.71612 15.075C3.6578 15.075 3.60782 15.075 3.54951 15.0667C2.95804 15 2.44154 14.6167 2.23328 14.075C2.10832 13.7417 1.99169 13.075 2.66647 12.3C3.7661 11.05 5.29059 9.62503 6.10699 8.85837L6.43188 8.55837C6.94004 8.07503 7.40656 7.70003 7.89806 7.9917C8.48953 8.3417 8.11465 9.0167 7.93971 9.33337C7.71479 9.73337 5.5655 13.4584 4.94071 14.4C4.64914 14.8334 4.20762 15.075 3.71612 15.075ZM7.53151 8.47503C7.44821 8.47503 7.27327 8.55837 6.82342 8.98337L6.49852 9.2917C5.69046 10.05 4.1743 11.4667 3.09966 12.7C2.74977 13.1 2.63315 13.5167 2.76643 13.875C2.89139 14.2084 3.23295 14.4584 3.59949 14.5C3.79109 14.5167 4.16597 14.5 4.44088 14.0917C5.05734 13.1667 7.19829 9.45837 7.41489 9.0667C7.68979 8.5667 7.61482 8.52503 7.5815 8.50837C7.5815 8.48337 7.56484 8.47503 7.53151 8.47503Z" fill="#fff"/>
<path d="M9.70515 14.975H6.71448V13.4834C6.71448 12.6167 7.43924 11.9584 8.38892 11.9584H9.72181V12.5417H8.38892C7.74747 12.5417 7.29762 12.925 7.29762 13.4834V14.3917H9.70515V14.975Z" fill="#fff"/>
<path d="M21.0013 22L9.33019 21.9916L9.32186 21.0583H7.79736V16.3833H22.4675V21.0583H21.0013V22V22ZM9.91332 21.4083H20.4182V20.475H21.8843V16.9666H8.3805V20.475H9.90499L9.91332 21.4083Z" fill="#fff"/>
<path d="M11.3307 19.4833H10.7474V18.2417H9.91402V19.4833H9.33069V17.6583H11.3307V19.4833Z" fill="#fff"/>
<path d="M13.7211 19.4833H13.1377V18.2417H12.3044V19.4833H11.7211V17.6583H13.7211V19.4833Z" fill="#fff"/>
<path d="M16.112 19.4833H15.5286V18.2417H14.687V19.4833H14.1036V17.6583H16.112V19.4833Z" fill="#fff"/>
<path d="M18.5111 19.4833H17.9278V18.2417H17.0861V19.4833H16.5028V17.6583H18.5111V19.4833Z" fill="#fff"/>
<path d="M20.9187 19.4833H20.3354V18.2417H19.4937V19.4833H18.9187V17.6583H20.9187V19.4833Z" fill="#fff"/>
<path d="M10.464 20.775H10.214V21.525H10.464V20.775Z" fill="#fff"/>
<path d="M11.1547 20.775H10.9047V21.525H11.1547V20.775Z" fill="#fff"/>
<path d="M11.8461 20.775H11.5961V21.525H11.8461V20.775Z" fill="#fff"/>
<path d="M12.5292 20.775H12.2792V21.525H12.5292V20.775Z" fill="#fff"/>
<path d="M13.2206 20.775H12.9706V21.525H13.2206V20.775Z" fill="#fff"/>
<path d="M13.9121 20.775H13.6621V21.525H13.9121V20.775Z" fill="#fff"/>
<path d="M14.5952 20.775H14.3452V21.525H14.5952V20.775Z" fill="#fff"/>
<path d="M15.2866 20.775H15.0366V21.525H15.2866V20.775Z" fill="#fff"/>
<path d="M15.978 20.775H15.728V21.525H15.978V20.775Z" fill="#fff"/>
<path d="M16.6694 20.775H16.4194V21.525H16.6694V20.775Z" fill="#fff"/>
<path d="M17.3525 20.775H17.1025V21.525H17.3525V20.775Z" fill="#fff"/>
<path d="M18.0441 20.775H17.7941V21.525H18.0441V20.775Z" fill="#fff"/>
<path d="M18.7355 20.775H18.4855V21.525H18.7355V20.775Z" fill="#fff"/>
<path d="M19.4269 20.775H19.1769V21.525H19.4269V20.775Z" fill="#fff"/>
<path d="M20.11 20.775H19.86V21.525H20.11V20.775Z" fill="#fff"/>
<path d="M24.9999 17.375H23.2422V16.8H24.4168V13.2833H10.913V15.7583H10.3298V12.7H24.9999V17.375Z" fill="#fff"/>
<path d="M13.8632 15.8H13.2798V14.5583H12.4465V15.8H11.8632V13.975H13.8632V15.8Z" fill="#fff"/>
<path d="M16.2535 15.8H15.6702V14.5583H14.8369V15.8H14.2535V13.975H16.2535V15.8Z" fill="#fff"/>
<path d="M18.6361 15.8H18.0528V14.5583H17.2194V15.8H16.6361V13.975H18.6361V15.8Z" fill="#fff"/>
<path d="M21.0353 15.8H20.4519V14.5583H19.6186V15.8H19.0353V13.975H21.0353V15.8Z" fill="#fff"/>
<path d="M23.4511 15.8H22.8677V14.5583H22.0261V15.8H21.4427V13.975H23.4511V15.8Z" fill="#fff"/>
</g>
<defs>
<clipPath id="clip0">
<rect width="25" height="22" fill="white"/>
</clipPath>
</defs>
</svg>
