<svg width="22" height="22" viewBox="0 0 22 22" fill="none" xmlns="http://www.w3.org/2000/svg">
<g clip-path="url(#clip0)">
<path d="M0 1.04761H16.7619C17.4498 1.04761 18.1309 1.18309 18.7664 1.44633C19.402 1.70957 19.9794 2.09541 20.4658 2.58181C20.9522 3.06821 21.338 3.64566 21.6013 4.28117C21.8645 4.91669 22 5.59783 22 6.2857V22H5.2381C3.84887 22 2.51654 21.4481 1.5342 20.4658C0.551869 19.4835 0 18.1511 0 16.7619L0 1.04761Z" fill="#CA2032"/>
<path d="M0 0H16.7619C18.1511 0 19.4835 0.551869 20.4658 1.5342C21.4481 2.51654 22 3.84887 22 5.2381V20.9524H5.2381C3.84887 20.9524 2.51654 20.4005 1.5342 19.4182C0.551869 18.4358 0 17.1035 0 15.7143L0 0Z" fill="#F15F5F"/>
<path d="M6.56845 3.83431C7.00128 3.78714 7.4392 3.83487 7.85171 3.97419C8.26422 4.1135 8.64141 4.34104 8.95702 4.64097C9.49442 5.48872 9.73402 6.49137 9.63797 7.4905C9.73322 8.48957 9.49367 9.49196 8.95702 10.34C8.64222 10.6411 8.26513 10.8695 7.8524 11.0089C7.43967 11.1482 7.00136 11.1953 6.56845 11.1467C6.13714 11.1952 5.70045 11.148 5.28943 11.0086C4.8784 10.8692 4.50315 10.6409 4.19035 10.34C3.6537 9.49196 3.41416 8.48957 3.5094 7.4905C3.41097 6.48789 3.65067 5.48117 4.19035 4.6305C4.50489 4.33267 4.88066 4.10712 5.29141 3.9696C5.70217 3.83208 6.138 3.7859 6.56845 3.83431ZM6.56845 5.30097C6.39629 5.2805 6.22192 5.31134 6.06722 5.38962C5.91253 5.4679 5.7844 5.59013 5.69893 5.74097C5.50968 6.30726 5.4349 6.90552 5.47893 7.50097C5.43321 8.0999 5.50801 8.70192 5.69893 9.27145C5.78585 9.42035 5.91459 9.54044 6.06918 9.61681C6.22376 9.69317 6.39737 9.72243 6.56845 9.70097C6.74401 9.72342 6.92232 9.69485 7.08208 9.61868C7.24184 9.54252 7.3763 9.42197 7.4694 9.27145C7.66031 8.70192 7.73512 8.0999 7.6894 7.50097C7.73484 6.90205 7.66004 6.30009 7.4694 5.7305C7.37622 5.57445 7.23899 5.44942 7.07496 5.37114C6.91093 5.29285 6.72742 5.26479 6.5475 5.2905L6.56845 5.30097ZM8.13988 16.3743H6.44274L13.8285 4.06478H15.5046L8.13988 16.3743ZM15.4732 9.2505C15.8984 9.21106 16.3272 9.26362 16.7303 9.40462C17.1334 9.54562 17.5015 9.77175 17.8094 10.0676C18.3461 10.9157 18.5856 11.9181 18.4904 12.9172C18.5856 13.9195 18.3461 14.9252 17.8094 15.7772C17.4955 16.0802 17.1189 16.3104 16.7061 16.4516C16.2933 16.5928 15.8545 16.6416 15.4208 16.5943C14.9903 16.6421 14.5545 16.5935 14.1451 16.4522C13.7356 16.3109 13.3626 16.0803 13.0532 15.7772C12.5238 14.9225 12.2884 13.9181 12.3827 12.9172C12.2876 11.9195 12.5232 10.9182 13.0532 10.0676C13.3626 9.7645 13.7356 9.53393 14.1451 9.39261C14.5545 9.25129 14.9903 9.20275 15.4208 9.2505H15.4732ZM16.3532 11.1572C16.2636 11.0083 16.1328 10.8886 15.9767 10.8124C15.8205 10.7362 15.6457 10.7068 15.4732 10.7276C15.3019 10.707 15.1283 10.7355 14.9725 10.8097C14.8167 10.8838 14.6852 11.0007 14.5932 11.1467C14.4018 11.7124 14.3304 12.3118 14.3837 12.9067C14.3311 13.505 14.4024 14.1077 14.5932 14.6772C14.6829 14.826 14.8136 14.9457 14.9698 15.0219C15.1259 15.0981 15.3007 15.1276 15.4732 15.1067C15.6457 15.1276 15.8205 15.0981 15.9767 15.0219C16.1328 14.9457 16.2636 14.826 16.3532 14.6772C16.5441 14.1076 16.6189 13.5056 16.5732 12.9067C16.5996 12.3146 16.507 11.7233 16.3008 11.1676L16.3532 11.1572Z" fill="white"/>
</g>
<defs>
<clipPath id="clip0">
<rect width="22" height="22" fill="white"/>
</clipPath>
</defs>
</svg>
