<svg width="14" height="14" viewBox="0 0 14 14" fill="none" xmlns="http://www.w3.org/2000/svg">
<path fill-rule="evenodd" clip-rule="evenodd" d="M13 5.68801C13 5.84031 12.8768 5.96378 12.7249 5.96378C12.573 5.96378 12.4498 5.84031 12.4498 5.68801C12.4498 3.4035 10.6024 1.55153 8.32359 1.55153C8.17167 1.55153 8.04851 1.42807 8.04851 1.27577C8.04851 1.12346 8.17167 1 8.32359 1C10.9063 1 13 3.09889 13 5.68801ZM5.10657 6.37013C4.80907 6.07535 4.77863 5.60405 5.03573 5.27326L5.53385 4.63239C5.77123 4.32698 5.76557 3.89739 5.52023 3.59837C4.49868 2.35334 3.87864 1.62191 3.64547 1.38816C3.5732 1.31571 3.46681 1.2894 3.36921 1.31985C2.9571 1.44844 2.37426 1.89171 1.58535 2.65839C0.961135 3.26502 0.819817 4.21571 1.24048 4.97843C2.07861 6.49807 3.20688 7.96832 4.62445 9.38941C6.0391 10.8076 7.49728 11.9316 8.99926 12.7606C9.75859 13.1797 10.7036 13.0385 11.3081 12.4157C12.1165 11.5827 12.5601 10.9974 12.6537 10.6047C12.676 10.5115 12.6483 10.4134 12.5807 10.3456C12.3621 10.1265 11.6332 9.5057 10.3762 8.46705C10.078 8.22059 9.64903 8.21469 9.34413 8.45285L8.70524 8.9519C8.37528 9.20964 7.90515 9.17912 7.6111 8.88088C7.19607 8.45995 6.77986 8.04027 6.36248 7.62185C5.9451 7.20343 5.52647 6.78619 5.10657 6.37013ZM9.68225 8.88791C9.78388 8.80852 9.92686 8.81049 10.0263 8.89264C11.0773 9.76114 11.7606 10.339 12.0653 10.6164C11.9232 10.9069 11.5363 11.3896 10.9137 12.0311C10.482 12.476 9.80694 12.5768 9.26457 12.2774C7.80993 11.4746 6.39279 10.3822 5.01344 8.99942C3.63102 7.61356 2.53413 6.1842 1.72192 4.71157C1.42144 4.16677 1.52238 3.4877 1.96825 3.05439C2.58718 2.4529 3.06521 2.06969 3.38065 1.91013C3.66581 2.22395 4.24035 2.90674 5.0953 3.94873C5.17708 4.0484 5.17897 4.1916 5.09984 4.2934L4.60172 4.93428C4.17322 5.48558 4.22395 6.27109 4.71979 6.76239C5.13892 7.1777 5.5568 7.59418 5.97343 8.01184C6.39005 8.4295 6.8055 8.84842 7.21978 9.2686C7.70987 9.76567 8.49342 9.81652 9.04336 9.38696L9.68225 8.88791ZM11.0744 5.96379C11.2263 5.96379 11.3495 5.84032 11.3495 5.68802C11.3495 4.01271 9.99475 2.6546 8.32359 2.6546C8.17167 2.6546 8.04851 2.77807 8.04851 2.93037C8.04851 3.08267 8.17167 3.20613 8.32359 3.20613C9.6909 3.20613 10.7993 4.31731 10.7993 5.68802C10.7993 5.84032 10.9225 5.96379 11.0744 5.96379Z" fill="#344150"/>
<path d="M5.03573 5.27326L5.23312 5.42669V5.42668L5.03573 5.27326ZM5.10657 6.37013L4.93061 6.54772L4.93061 6.54772L5.10657 6.37013ZM5.53385 4.63239L5.33646 4.47897V4.47897L5.53385 4.63239ZM5.52023 3.59837L5.71351 3.4398L5.7135 3.43979L5.52023 3.59837ZM3.64547 1.38816L3.46848 1.56472L3.46848 1.56472L3.64547 1.38816ZM3.36921 1.31985L3.29474 1.0812V1.0812L3.36921 1.31985ZM1.58535 2.65839L1.75958 2.83768L1.58535 2.65839ZM1.24048 4.97843L1.02157 5.09917H1.02157L1.24048 4.97843ZM4.62445 9.38941L4.80144 9.21285H4.80144L4.62445 9.38941ZM8.99926 12.7606L8.87846 12.9795L8.99926 12.7606ZM11.3081 12.4157L11.1287 12.2416L11.3081 12.4157ZM12.6537 10.6047L12.4106 10.5467V10.5467L12.6537 10.6047ZM12.5807 10.3456L12.7577 10.1691H12.7577L12.5807 10.3456ZM10.3762 8.46705L10.5355 8.27433L10.3762 8.46705ZM9.34413 8.45285L9.49803 8.64987V8.64987L9.34413 8.45285ZM8.70524 8.9519L8.55135 8.75488L8.55135 8.75488L8.70524 8.9519ZM7.6111 8.88088L7.43307 9.05641L7.43307 9.05641L7.6111 8.88088ZM6.36248 7.62185L6.53948 7.44529L6.36248 7.62185ZM10.0263 8.89264L10.1855 8.69992L10.0263 8.89264ZM9.68225 8.88791L9.52835 8.69089H9.52835L9.68225 8.88791ZM12.0653 10.6164L12.2899 10.7262L12.3722 10.5578L12.2336 10.4315L12.0653 10.6164ZM10.9137 12.0311L10.7343 11.857L10.9137 12.0311ZM9.26457 12.2774L9.38537 12.0586L9.26457 12.2774ZM5.01344 8.99942L4.83644 9.17598L5.01344 8.99942ZM1.72192 4.71157L1.50301 4.8323L1.50301 4.8323L1.72192 4.71157ZM1.96825 3.05439L1.79402 2.87511L1.96825 3.05439ZM3.38065 1.91013L3.56567 1.742L3.43766 1.60112L3.2678 1.68704L3.38065 1.91013ZM5.0953 3.94873L5.28858 3.79016L5.28857 3.79015L5.0953 3.94873ZM5.09984 4.2934L4.90245 4.13998L4.90245 4.13998L5.09984 4.2934ZM4.60172 4.93428L4.79911 5.0877L4.79911 5.0877L4.60172 4.93428ZM4.71979 6.76239L4.89575 6.58481L4.71979 6.76239ZM5.97343 8.01184L5.79643 8.1884L5.97343 8.01184ZM7.21978 9.2686L7.04176 9.44412L7.04176 9.44412L7.21978 9.2686ZM9.04336 9.38696L8.88946 9.18994H8.88946L9.04336 9.38696ZM12.7249 6.21378C13.0155 6.21378 13.25 5.9778 13.25 5.68801H12.75C12.75 5.70283 12.7382 5.71378 12.7249 5.71378V6.21378ZM12.1998 5.68801C12.1998 5.9778 12.4343 6.21378 12.7249 6.21378V5.71378C12.7116 5.71378 12.6998 5.70283 12.6998 5.68801H12.1998ZM8.32359 1.80153C10.4638 1.80153 12.1998 3.54098 12.1998 5.68801H12.6998C12.6998 3.26601 10.7411 1.30153 8.32359 1.30153V1.80153ZM7.79851 1.27577C7.79851 1.56555 8.03301 1.80153 8.32359 1.80153V1.30153C8.31032 1.30153 8.29851 1.29058 8.29851 1.27577H7.79851ZM8.32359 0.75C8.03301 0.75 7.79851 0.985979 7.79851 1.27577H8.29851C8.29851 1.26095 8.31032 1.25 8.32359 1.25V0.75ZM13.25 5.68801C13.25 2.96141 11.0449 0.75 8.32359 0.75V1.25C10.7676 1.25 12.75 3.23638 12.75 5.68801H13.25ZM4.83834 5.11984C4.50366 5.55044 4.54321 6.16386 4.93061 6.54772L5.28254 6.19255C5.07493 5.98684 5.0536 5.65765 5.23312 5.42669L4.83834 5.11984ZM5.33646 4.47897L4.83834 5.11984L5.23312 5.42668L5.73124 4.78581L5.33646 4.47897ZM5.32696 3.75695C5.49822 3.96568 5.50218 4.26575 5.33646 4.47897L5.73124 4.78581C6.04027 4.38822 6.03291 3.8291 5.71351 3.4398L5.32696 3.75695ZM3.46848 1.56472C3.69086 1.78765 4.30145 2.50709 5.32697 3.75695L5.7135 3.43979C4.69591 2.19959 4.06642 1.45617 3.82247 1.21161L3.46848 1.56472ZM3.44368 1.5585C3.45231 1.55581 3.46184 1.55807 3.46848 1.56472L3.82247 1.21161C3.68455 1.07334 3.4813 1.02299 3.29474 1.0812L3.44368 1.5585ZM1.75958 2.83768C2.15008 2.45818 2.48469 2.16357 2.76894 1.94956C3.05621 1.73329 3.278 1.6102 3.44368 1.5585L3.29474 1.0812C3.04831 1.1581 2.77262 1.32093 2.46821 1.55011C2.1608 1.78156 1.80953 2.09192 1.41112 2.47911L1.75958 2.83768ZM1.45939 4.8577C1.09308 4.19353 1.21624 3.36571 1.75958 2.83768L1.41112 2.47911C0.706029 3.16433 0.546549 4.2379 1.02157 5.09917L1.45939 4.8577ZM4.80144 9.21285C3.39784 7.80576 2.28461 6.35392 1.45939 4.8577L1.02157 5.09917C1.87262 6.64222 3.01592 8.13088 4.44745 9.56596L4.80144 9.21285ZM9.12007 12.5417C7.64186 11.7258 6.2022 10.6171 4.80144 9.21285L4.44745 9.56596C5.87601 10.9981 7.3527 12.1374 8.87846 12.9795L9.12007 12.5417ZM11.1287 12.2416C10.6027 12.7836 9.78058 12.9063 9.12007 12.5417L8.87846 12.9795C9.73659 13.4531 10.8046 13.2935 11.4875 12.5898L11.1287 12.2416ZM12.4106 10.5467C12.3758 10.6923 12.2667 10.9035 12.0486 11.1955C11.8341 11.4828 11.5295 11.8286 11.1287 12.2416L11.4875 12.5898C11.8951 12.1698 12.2164 11.8065 12.4492 11.4947C12.6785 11.1877 12.838 10.9099 12.8969 10.6628L12.4106 10.5467ZM12.4037 10.5222C12.41 10.5285 12.4127 10.5378 12.4106 10.5467L12.8969 10.6628C12.9392 10.4853 12.8867 10.2983 12.7577 10.1691L12.4037 10.5222ZM10.217 8.65977C11.4791 9.70271 12.1959 10.3138 12.4037 10.5222L12.7577 10.1691C12.5283 9.93912 11.7872 9.30868 10.5355 8.27433L10.217 8.65977ZM9.49803 8.64987C9.71046 8.48393 10.0092 8.48803 10.217 8.65977L10.5355 8.27433C10.1468 7.95314 9.58761 7.94544 9.19024 8.25583L9.49803 8.64987ZM8.85914 9.14892L9.49803 8.64987L9.19024 8.25583L8.55135 8.75488L8.85914 9.14892ZM7.43307 9.05641C7.81622 9.445 8.42908 9.48485 8.85914 9.14892L8.55135 8.75488C8.32149 8.93443 7.99408 8.91325 7.78912 8.70536L7.43307 9.05641ZM6.18549 7.79841C6.60253 8.21648 7.01839 8.63581 7.43307 9.05641L7.78912 8.70536C7.37375 8.28408 6.9572 7.86405 6.53948 7.44529L6.18549 7.79841ZM4.93061 6.54772C5.35016 6.96344 5.76845 7.38033 6.18549 7.79841L6.53948 7.44529C6.12176 7.02653 5.70278 6.60895 5.28253 6.19255L4.93061 6.54772ZM10.1855 8.69992C9.99568 8.54304 9.72246 8.53927 9.52835 8.69089L9.83614 9.08493C9.84531 9.07777 9.85805 9.07793 9.86704 9.08536L10.1855 8.69992ZM12.2336 10.4315C11.9237 10.1494 11.2355 9.56757 10.1855 8.69992L9.86704 9.08536C10.9191 9.95472 11.5976 10.5287 11.897 10.8013L12.2336 10.4315ZM11.0931 12.2052C11.7145 11.565 12.1282 11.0568 12.2899 10.7262L11.8407 10.5066C11.7182 10.7571 11.3582 11.2142 10.7343 11.857L11.0931 12.2052ZM9.14377 12.4963C9.78495 12.8502 10.5829 12.7309 11.0931 12.2052L10.7343 11.857C10.381 12.221 9.82894 12.3034 9.38537 12.0586L9.14377 12.4963ZM4.83644 9.17598C6.22963 10.5726 7.66528 11.6803 9.14377 12.4963L9.38537 12.0586C7.95457 11.2689 6.55595 10.1918 5.19043 8.82286L4.83644 9.17598ZM1.50301 4.8323C2.32816 6.32841 3.44012 7.77618 4.83644 9.17598L5.19043 8.82286C3.82192 7.45095 2.74009 6.03999 1.94083 4.59083L1.50301 4.8323ZM1.79402 2.87511C1.26728 3.38701 1.14818 4.18895 1.50301 4.8323L1.94083 4.59083C1.69471 4.14458 1.77749 3.58839 2.14249 3.23368L1.79402 2.87511ZM3.2678 1.68704C2.91533 1.86534 2.41376 2.27283 1.79402 2.87511L2.14249 3.23368C2.7606 2.63298 3.21509 2.27404 3.4935 2.13321L3.2678 1.68704ZM5.28857 3.79015C4.43441 2.74912 3.85582 2.06132 3.56567 1.742L3.19562 2.07825C3.47579 2.38658 4.04629 3.06436 4.90204 4.10731L5.28857 3.79015ZM5.29723 4.44682C5.44801 4.25283 5.44443 3.98011 5.28858 3.79016L4.90203 4.1073C4.90973 4.11669 4.90993 4.13037 4.90245 4.13998L5.29723 4.44682ZM4.79911 5.0877L5.29723 4.44682L4.90245 4.13998L4.40433 4.78086L4.79911 5.0877ZM4.89575 6.58481C4.48981 6.18257 4.44819 5.53918 4.79911 5.0877L4.40433 4.78086C3.89825 5.43198 3.9581 6.3596 4.54383 6.93998L4.89575 6.58481ZM6.15042 7.83529C5.73346 7.41728 5.31523 7.00045 4.89575 6.58481L4.54383 6.93998C4.96262 7.35494 5.38015 7.77108 5.79643 8.1884L6.15042 7.83529ZM7.3978 9.09308C6.98318 8.67255 6.56739 8.25329 6.15042 7.83529L5.79643 8.1884C6.21271 8.60572 6.62782 9.02429 7.04176 9.44412L7.3978 9.09308ZM8.88946 9.18994C8.43963 9.54132 7.7988 9.49979 7.3978 9.09308L7.04176 9.44412C7.62093 10.0315 8.54722 10.0917 9.19725 9.58398L8.88946 9.18994ZM9.52835 8.69089L8.88946 9.18994L9.19725 9.58398L9.83614 9.08493L9.52835 8.69089ZM11.0995 5.68802C11.0995 5.70284 11.0877 5.71379 11.0744 5.71379V6.21379C11.365 6.21379 11.5995 5.97781 11.5995 5.68802H11.0995ZM8.32359 2.9046C9.85609 2.9046 11.0995 4.15019 11.0995 5.68802H11.5995C11.5995 3.87522 10.1334 2.4046 8.32359 2.4046V2.9046ZM8.29851 2.93037C8.29851 2.91555 8.31032 2.9046 8.32359 2.9046V2.4046C8.03301 2.4046 7.79851 2.64058 7.79851 2.93037H8.29851ZM8.32359 2.95613C8.31032 2.95613 8.29851 2.94518 8.29851 2.93037H7.79851C7.79851 3.22015 8.03301 3.45613 8.32359 3.45613V2.95613ZM11.0493 5.68802C11.0493 4.17983 9.82956 2.95613 8.32359 2.95613V3.45613C9.55224 3.45613 10.5493 4.4548 10.5493 5.68802H11.0493ZM11.0744 5.71379C11.0611 5.71379 11.0493 5.70283 11.0493 5.68802H10.5493C10.5493 5.97781 10.7838 6.21379 11.0744 6.21379V5.71379Z" fill="#344150"/>
</svg>
