<svg width="26" height="27" viewBox="0 0 26 27" fill="none" xmlns="http://www.w3.org/2000/svg">
<g clip-path="url(#clip0)">
<path d="M22.8 26.9H2.3C1 26.9 0 25.9 0 24.6V6.4C0 5.1 1 4 2.3 4H3V4.7H2.3C1.4 4.7 0.7 5.4 0.7 6.3V24.5C0.7 25.4 1.4 26.1 2.3 26.1H22.7C23.6 26.1 24.3 25.4 24.3 24.5V6.4C24.3 5.5 23.6 4.8 22.7 4.8H9.9V4H22.7C24 4 25 5 25 6.3V24.5C25.1 25.9 24 26.9 22.8 26.9Z" fill="#10B1E8"/>
<path d="M8.39995 23.2H4.49995C3.49995 23.2 2.69995 22.4 2.69995 21.4V1.8C2.69995 0.8 3.49995 0 4.49995 0H8.29995C9.29995 0 10.1 0.8 10.1 1.8V21.3C10.2 22.4 9.39995 23.2 8.39995 23.2ZM4.49995 0.7C3.89995 0.7 3.39995 1.2 3.39995 1.8V21.3C3.39995 21.9 3.89995 22.4 4.49995 22.4H8.29995C8.89995 22.4 9.39995 21.9 9.39995 21.3V1.8C9.39995 1.2 8.89995 0.7 8.29995 0.7H4.49995Z" fill="#10B1E8"/>
<path d="M21.1 13.3H12.9C12.2 13.3 11.6 12.7 11.6 12V8.39998C11.6 7.69998 12.2 7.09998 12.9 7.09998H21.1C21.8 7.09998 22.4 7.69998 22.4 8.39998V12C22.4 12.7 21.8 13.3 21.1 13.3ZM12.9 7.69998C12.5 7.69998 12.3 7.99998 12.3 8.29998V11.9C12.3 12.3 12.6 12.5 12.9 12.5H21.1C21.5 12.5 21.7 12.2 21.7 11.9V8.39998C21.7 7.99998 21.4 7.79998 21.1 7.79998H12.9V7.69998Z" fill="#10B1E8"/>
<path d="M14.7 17.3H12.3V14.9H14.7V17.3ZM13.1 16.6H14.1V15.6H13.1V16.6Z" fill="#10B1E8"/>
<path d="M18.2 17.3H15.8V14.9H18.2V17.3ZM16.6 16.6H17.6V15.6H16.6V16.6Z" fill="#10B1E8"/>
<path d="M21.7001 17.3H19.3V14.9H21.7001V17.3ZM20 16.6H21V15.6H20V16.6Z" fill="#10B1E8"/>
<path d="M14.7 20.2001H12.3V17.8H14.7V20.2001ZM13.1 19.5H14.1V18.5H13.1V19.5Z" fill="#10B1E8"/>
<path d="M18.2 20.2001H15.8V17.8H18.2V20.2001ZM16.6 19.5H17.6V18.5H16.6V19.5Z" fill="#10B1E8"/>
<path d="M21.7001 20.2001H19.3V17.8H21.7001V20.2001ZM20 19.5H21V18.5H20V19.5Z" fill="#10B1E8"/>
<path d="M14.7 23.1H12.3V20.7H14.7V23.1ZM13.1 22.4H14.1V21.4H13.1V22.4Z" fill="#10B1E8"/>
<path d="M18.2 23.1H15.8V20.7H18.2V23.1ZM16.6 22.4H17.6V21.4H16.6V22.4Z" fill="#10B1E8"/>
<path d="M21.7001 23.1H19.3V20.7H21.7001V23.1ZM20 22.4H21V21.4H20V22.4Z" fill="#10B1E8"/>
</g>
<defs>
<clipPath id="clip0">
<rect width="25.1" height="26.9" fill="white"/>
</clipPath>
</defs>
</svg>
