<svg width="25" height="22" viewBox="0 0 19 16" fill="none" xmlns="http://www.w3.org/2000/svg">
<path d="M10.2897 0.615745C8.92813 0.60757 7.58789 0.94657 6.40146 1.59925L6.11495 1.15147V1.76716L10.2897 8.28387L3.59371 12.1539L3.50366 12.2019C4.20233 13.3645 5.20153 14.3273 6.40115 14.9939C7.60076 15.6605 8.95865 16.0074 10.3388 15.9998C11.7189 15.9923 13.0727 15.6307 14.2646 14.9511C15.4566 14.2715 16.4447 13.2978 17.1301 12.1277C17.8154 10.9576 18.1739 9.63202 18.1696 8.28392C18.1653 6.93582 17.7984 5.6125 17.1056 4.44655C16.4128 3.28061 15.4185 2.31299 14.2222 1.64065C13.026 0.968311 11.6699 0.614872 10.2897 0.615745Z" fill="#F2C403"/>
<path d="M10.2897 1.61499e-06C8.81253 -0.000517266 7.36527 0.406958 6.11495 1.17541L10.2897 7.69211L3.50366 11.5861C4.20233 12.7487 5.20153 13.7116 6.40115 14.3781C7.60076 15.0447 8.95865 15.3916 10.3388 15.3841C11.7189 15.3766 13.0727 15.0149 14.2646 14.3353C15.4566 13.6557 16.4447 12.6821 17.1301 11.5119C17.8154 10.3418 18.1739 9.01628 18.1696 7.66818C18.1653 6.32008 17.7984 4.99676 17.1056 3.83081C16.4128 2.66486 15.4185 1.69724 14.2222 1.0249C13.026 0.352568 11.6699 -0.000871837 10.2897 1.61499e-06Z" fill="#FFDA00"/>
<path d="M7.57207 7.34036L3.68378 1.27942C1.95173 2.34163 0.711256 4.02096 0.225316 5.96142C-0.260625 7.90188 0.0461744 9.95092 1.08068 11.6742L7.86676 7.78813V7.19643L7.57207 7.34036Z" fill="#008B00"/>
<path d="M3.68378 0.663818C1.95173 1.72603 0.711256 3.40536 0.225316 5.34582C-0.260625 7.28628 0.0461744 9.33532 1.08068 11.0586L7.86676 7.19652L3.68378 0.663818Z" fill="#00B400"/>
<path d="M3.50366 11.5862V12.2019L4.1176 12.4577L3.50366 11.5862Z" fill="#F2C403"/>
</svg>
