<svg width="31" height="27" viewBox="0 0 31 27" fill="none" xmlns="http://www.w3.org/2000/svg">
<g clip-path="url(#clip0)">
<path d="M29 16.9H8.80005L8.70005 16.7C8.70005 16.6 8.00005 14.5 7.80005 10.9V10.5C7.80005 10.3 7.80005 10.2 7.80005 9.8H8.50005C8.50005 10.2 8.50005 10.3 8.50005 10.5V10.9C8.70005 13.7 9.10005 15.6 9.30005 16.3H28.5C28.7001 15.6 29.5 13.1 29.5 8.6C29.5 4.3 28.8 1.6 28.5 0.8H9.30005C9.10005 1.3 8.70005 2.9 8.50005 5.6C8.50005 5.7 8.50005 5.8 8.50005 6C8.50005 6.2 8.50005 6.4 8.50005 6.5H7.80005C7.80005 6.4 7.80005 6.2 7.90005 6C7.90005 5.9 7.90005 5.7 7.90005 5.7C8.00005 2.1 8.70005 0.3 8.70005 0.2L8.80005 0H29L29.1 0.2C29.1 0.3 30.2001 3.1 30.2001 8.4C30.2001 13.9 29.1 16.5 29.1 16.6L29 16.9Z" fill="#10B1E8"/>
<path d="M19.3 24.7001H3.79998C1.39998 24.7001 0.0999756 23.6 0.0999756 21.5001C0.0999756 20.8001 0.0999756 19.0001 0.0999756 17.2001C0.0999756 15.3001 0.0999756 13.5001 0.0999756 12.7001C0.0999756 12.5001 0.0999756 12.3001 0.0999756 12.1001C0.0999756 11.0001 0.0999755 10.3001 0.699976 9.40005C1.69998 7.90005 4.19998 8.10005 4.29998 8.10005L4.09998 8.90005C4.09998 8.90005 1.89998 8.70005 1.09998 9.90005C0.599976 10.6001 0.599976 11.2001 0.599976 12.2001C0.599976 12.4001 0.599976 12.6001 0.599976 12.8001C0.599976 13.5001 0.599976 15.4001 0.599976 17.2001C0.599976 19.0001 0.599976 20.8001 0.599976 21.5001C0.599976 22.6001 0.899976 24.0001 3.59998 24.0001H19.1V24.7001H19.3Z" fill="#10B1E8"/>
<path d="M19.6 26.5C19.3 26.5 19.1 26.4 19.1 26.3C18.9 26.1 18.9 25.7 18.9 25.6V23.2C18.9 22.8 19.2 22.4 19.9 22.4H27V26.6H19.6C19.6 26.5 19.6 26.5 19.6 26.5ZM19.8 23C19.5 23 19.5 23.1 19.5 23.1V25.5C19.5 25.7 19.5 25.7 19.5 25.7H26.3V23H19.8Z" fill="#10B1E8"/>
<path d="M9.39995 10.5H5.49995C4.39995 10.5 3.69995 10 3.69995 9.10005V7.70005C3.69995 6.80005 4.39995 6.30005 5.49995 6.30005H9.29995V10.5H9.39995ZM5.59995 7.00005C5.29995 7.00005 4.49995 7.10005 4.49995 7.70005V9.10005C4.49995 9.70005 5.19995 9.80005 5.59995 9.80005H8.69995V7.00005H5.59995Z" fill="#10B1E8"/>
<path d="M29.9 26H26.3V22.9H29.9V26ZM27 25.3H29.2001V23.6H27V25.3Z" fill="#10B1E8"/>
<path d="M29.2999 24.1H26.7V24.8H29.2999V24.1Z" fill="#10B1E8"/>
<path d="M14.1 8.7H11.8C11.6 8.7 11.4 8.5 11.4 8.3C11.4 8.1 11.6 8 11.8 8H14.1C14.3 8 14.5 8.2 14.5 8.4C14.5 8.6 14.3 8.7 14.1 8.7Z" fill="#10B1E8"/>
<path d="M14.3 11C13.4 11 12.5 10.5 12 9.79998C12 9.59998 12 9.29998 12.1 9.19998C12.3 9.09998 12.5 9.09998 12.6 9.29998C13 9.89998 13.6 10.3 14.3 10.3C15.4 10.3 16.3 9.39998 16.3 8.29998C16.3 7.19998 15.4 6.29998 14.3 6.29998C13.6 6.29998 13 6.69998 12.6 7.29998C12.5 7.49998 12.3 7.59998 12.1 7.49998C12 7.39998 11.9 7.19998 12 6.99998V6.89998C12.5 6.09998 13.4 5.59998 14.3 5.59998C15.8 5.59998 17 6.79998 17 8.29998C17 9.79998 15.8 11 14.3 11Z" fill="#10B1E8"/>
<path d="M27.5 7.10005C27.7209 7.10005 27.9 6.92096 27.9 6.70005C27.9 6.47913 27.7209 6.30005 27.5 6.30005C27.2791 6.30005 27.1 6.47913 27.1 6.70005C27.1 6.92096 27.2791 7.10005 27.5 7.10005Z" fill="#10B1E8"/>
<path d="M27.5 8.70002C27.7209 8.70002 27.9 8.52094 27.9 8.30002C27.9 8.07911 27.7209 7.90002 27.5 7.90002C27.2791 7.90002 27.1 8.07911 27.1 8.30002C27.1 8.52094 27.2791 8.70002 27.5 8.70002Z" fill="#10B1E8"/>
<path d="M27.5 10.5C27.7209 10.5 27.9 10.3209 27.9 10.1C27.9 9.87904 27.7209 9.69995 27.5 9.69995C27.2791 9.69995 27.1 9.87904 27.1 10.1C27.1 10.3209 27.2791 10.5 27.5 10.5Z" fill="#10B1E8"/>
<path d="M9.6 16.5L9 16.4C9 16.4 9.8 12.5 9.8 8.30002C9.8 4.20002 9 0.700024 9 0.600024L9.7 0.400024C9.7 0.400024 10.6 4.00002 10.6 8.30002C10.5 12.6 9.6 16.5 9.6 16.5Z" fill="#10B1E8"/>
</g>
<defs>
<clipPath id="clip0">
<rect width="30.2" height="26.5" fill="white"/>
</clipPath>
</defs>
</svg>
