<svg width="22" height="24" viewBox="0 0 22 24" fill="none" xmlns="http://www.w3.org/2000/svg">
<path d="M10.9978 24C10.8485 24 10.6991 23.9566 10.5718 23.8655L0.307014 16.6177C0.0478701 16.4354 -0.0619367 16.1056 0.0346933 15.8061C0.131323 15.5067 0.412429 15.3027 0.733065 15.3027H2.93359V0.720434C2.93359 0.325497 3.26301 0 3.6671 0H18.3329C18.737 0 19.0664 0.325497 19.0664 0.724774V15.3071H21.2669C21.5876 15.3071 21.8687 15.511 21.9653 15.8105C22.0619 16.1099 21.9521 16.4398 21.693 16.6221L11.4282 23.8698C11.2965 23.9566 11.1471 24 10.9978 24Z" fill="#10B1E8"/>
<g opacity="0.3">
<g opacity="0.3">
<path opacity="0.3" d="M21.2667 15.3071H19.0662V0.724774C19.0662 0.325497 18.7367 0 18.3326 0H10.9976V24C11.1469 24 11.2962 23.9566 11.4236 23.8655L21.6883 16.6177C21.9475 16.4354 22.0573 16.1056 21.9607 15.8061C21.8684 15.5067 21.5829 15.3071 21.2667 15.3071Z" fill="black"/>
</g>
</g>
<path d="M8.0682 10.7803C6.85594 10.7803 5.86768 9.80379 5.86768 8.60596C5.86768 7.40813 6.85594 6.43164 8.0682 6.43164C9.28047 6.43164 10.2687 7.40813 10.2687 8.60596C10.2687 9.80379 9.28047 10.7803 8.0682 10.7803ZM8.0682 7.88119C7.66411 7.88119 7.33469 8.20669 7.33469 8.60596C7.33469 9.00524 7.66411 9.33074 8.0682 9.33074C8.47229 9.33074 8.80171 9.00524 8.80171 8.60596C8.80171 8.20669 8.47229 7.88119 8.0682 7.88119Z" fill="white"/>
<path d="M13.932 16.5789C12.7197 16.5789 11.7314 15.6024 11.7314 14.4045C11.7314 13.2067 12.7197 12.2302 13.932 12.2302C15.1442 12.2302 16.1325 13.2067 16.1325 14.4045C16.1325 15.6024 15.1442 16.5789 13.932 16.5789ZM13.932 13.6798C13.5279 13.6798 13.1985 14.0053 13.1985 14.4045C13.1985 14.8038 13.5279 15.1293 13.932 15.1293C14.3361 15.1293 14.6655 14.8038 14.6655 14.4045C14.6655 14.0053 14.3361 13.6798 13.932 13.6798Z" fill="#D1E7F8"/>
<path d="M7.88793 15.3071C7.69906 15.3071 7.51459 15.2376 7.36964 15.0944C7.08414 14.8123 7.08414 14.3523 7.36964 14.0702L13.5935 7.92044C13.879 7.63834 14.3446 7.63834 14.6301 7.92044C14.9156 8.20253 14.9156 8.66257 14.6301 8.94467L8.40621 15.0944C8.26127 15.2333 8.0768 15.3071 7.88793 15.3071Z" fill="white"/>
<path d="M13.5936 7.92044L11.0022 10.481V12.5295L14.6302 8.94467C14.9157 8.66257 14.9157 8.20253 14.6302 7.92044C14.3447 7.63834 13.8791 7.63834 13.5936 7.92044Z" fill="#D1E7F8"/>
</svg>
