<svg width="28" height="22" viewBox="0 0 28 22" fill="none" xmlns="http://www.w3.org/2000/svg">
<g clip-path="url(#clip0)">
<path d="M26.1267 16.6077H20.7253V15.9658H26.1267C26.5302 15.9658 26.8604 15.6448 26.8604 15.2505V5.12628C26.8604 4.73194 26.5302 4.41098 26.1267 4.41098H1.37557C0.972072 4.41098 0.641934 4.73194 0.641934 5.12628V15.2413C0.641934 15.6357 0.972072 15.9566 1.37557 15.9566H7.15298V16.5986H1.37557C0.614423 16.5986 0 15.9841 0 15.2413V5.12628C0 4.3743 0.614423 3.76904 1.37557 3.76904H26.1267C26.8879 3.76904 27.5023 4.38347 27.5023 5.12628V15.2413C27.5023 15.9933 26.8879 16.6077 26.1267 16.6077Z" fill="#10B1E8"/>
<path d="M20.9362 3.90663H20.2943V0.641934H7.5748V3.88829H6.93286V0H20.9362V3.90663Z" fill="#10B1E8"/>
<path d="M20.9362 22.0001H6.93286V11.9584H20.9362V22.0001ZM7.5748 21.3581H20.2943V12.6095H7.5748V21.3581Z" fill="#10B1E8"/>
<path d="M16.2317 17.7908H9.14294V18.4327H16.2317V17.7908Z" fill="#10B1E8"/>
<path d="M18.7628 19.4139H9.18884V20.0559H18.7628V19.4139Z" fill="#10B1E8"/>
<path d="M23.6873 5.60319C23.6873 5.90582 23.4489 6.14425 23.1463 6.14425C22.8437 6.14425 22.6052 5.89665 22.6052 5.60319C22.6052 5.30057 22.8528 5.06213 23.1463 5.06213C23.4397 5.06213 23.6873 5.30057 23.6873 5.60319Z" fill="#10B1E8"/>
<path d="M25.6865 5.60319C25.6865 5.90582 25.4481 6.14425 25.1454 6.14425C24.8428 6.14425 24.6044 5.89665 24.6044 5.60319C24.6044 5.30057 24.852 5.06213 25.1454 5.06213C25.4389 5.06213 25.6865 5.30057 25.6865 5.60319Z" fill="#10B1E8"/>
</g>
<defs>
<clipPath id="clip0">
<rect width="27.5023" height="22" fill="white"/>
</clipPath>
</defs>
</svg>
