<svg width="61" height="20" viewBox="0 0 61 20" fill="none" xmlns="http://www.w3.org/2000/svg">
<g clip-path="url(#clip0)">
<path d="M60.2004 4.76256C61.0209 9.46531 48.2188 15.6236 31.603 18.5172C14.9896 21.4108 0.856493 19.9428 0.0372183 15.2376C-0.782057 10.5349 12.0238 4.37783 28.6371 1.48546C45.2517 -1.41065 59.3824 0.0585688 60.2004 4.76256Z" fill="#034EA2"/>
<path d="M44.5631 11.7426L44.4784 6.85315H46.0198V13.0164H43.8035L42.2646 7.9588H42.231L42.3169 13.0164H40.7842V6.85315H43.0976L44.5294 11.7426H44.5631Z" fill="white"/>
<path d="M16.536 7.43087L15.6831 13.0811H14.001L15.1552 6.85315H17.9255L19.076 13.0811H17.4001L16.5709 7.43087H16.536Z" fill="white"/>
<path d="M23.7987 11.6144L24.5681 6.85315H27.1081L27.2426 13.0811H25.6862L25.6452 7.48192H25.6128L24.5719 13.0811H22.9919L21.9497 7.48192H21.9161L21.8775 13.0811H20.3174L20.4556 6.85315H22.9968L23.7651 11.6144H23.7987Z" fill="white"/>
<path d="M11.3787 11.3242C11.4397 11.4749 11.421 11.6691 11.3924 11.7862C11.3401 11.9929 11.1994 12.2045 10.786 12.2045C10.3951 12.2045 10.1585 11.9804 10.1585 11.6393V11.0366H8.48757L8.48633 11.5185C8.48633 12.9068 9.57953 13.3264 10.7512 13.3264C11.878 13.3264 12.8056 12.9416 12.9525 11.9032C13.0285 11.3653 12.9712 11.013 12.9463 10.8797C12.6836 9.57613 10.3191 9.18641 10.1436 8.45803C10.1137 8.33352 10.1224 8.20029 10.1373 8.12932C10.1809 7.93135 10.3166 7.71222 10.7063 7.71222C11.0699 7.71222 11.2853 7.93758 11.2853 8.27749C11.2853 8.39204 11.2853 8.66222 11.2853 8.66222H12.838V8.22519C12.838 6.86804 11.6203 6.65637 10.7387 6.65637C9.63058 6.65637 8.72539 7.02243 8.55979 8.03594C8.51497 8.31609 8.50874 8.56511 8.57349 8.87763C8.84616 10.1489 11.0575 10.5174 11.3787 11.3242Z" fill="white"/>
<path d="M31.6301 11.3131C31.6911 11.4625 31.6711 11.6518 31.6438 11.7688C31.5927 11.9755 31.4533 12.1835 31.0424 12.1835C30.6577 12.1835 30.4223 11.9593 30.4223 11.6257L30.4211 11.028H28.7676L28.7651 11.5036C28.7651 12.8782 29.8484 13.2929 31.0075 13.2929C32.1219 13.2929 33.0407 12.9131 33.1864 11.8846C33.2624 11.3505 33.2088 11.0031 33.1814 10.8724C32.92 9.5812 30.5805 9.19521 30.4061 8.47305C30.3763 8.34854 30.385 8.21781 30.3999 8.15057C30.4447 7.95011 30.578 7.7372 30.9639 7.7372C31.325 7.7372 31.5354 7.95634 31.5354 8.295C31.5354 8.40831 31.5354 8.67601 31.5354 8.67601H33.0768V8.24271C33.0768 6.90049 31.8691 6.69006 30.9951 6.69006C29.8994 6.69006 29.0017 7.05114 28.8398 8.05843C28.795 8.33485 28.79 8.57889 28.8548 8.89016C29.1225 10.149 31.3126 10.515 31.6301 11.3131Z" fill="white"/>
<path d="M36.8609 12.1497C37.293 12.1497 37.4274 11.8509 37.4573 11.6977C37.4698 11.6305 37.4735 11.5408 37.4723 11.4599V6.85059H39.0473V11.318C39.0511 11.4325 39.0399 11.6678 39.0336 11.7264C38.9228 12.8893 38.0039 13.2665 36.8597 13.2665C35.7142 13.2665 34.794 12.8893 34.6845 11.7264C34.6795 11.6678 34.6683 11.4313 34.6708 11.318V6.85059H36.2446V11.4587C36.2446 11.5396 36.2471 11.6305 36.2595 11.6965C36.2944 11.8496 36.4251 12.1497 36.8609 12.1497Z" fill="white"/>
<path d="M49.8532 12.0839C50.3039 12.0839 50.462 11.7987 50.4907 11.6331C50.5019 11.5622 50.5056 11.475 50.5044 11.3966V10.4926H49.8657V9.58369H52.0744V11.2559C52.0731 11.3729 52.0707 11.4588 52.052 11.6667C51.9486 12.7998 50.965 13.2045 49.8619 13.2045C48.7563 13.2045 47.7752 12.7998 47.6694 11.6667C47.652 11.4588 47.6495 11.3729 47.647 11.2559L47.6482 8.63367C47.6482 8.52286 47.6619 8.32738 47.6744 8.22279C47.8126 7.05861 48.7563 6.68384 49.8619 6.68384C50.9663 6.68384 51.9337 7.05612 52.0482 8.22279C52.0682 8.42076 52.0619 8.63367 52.0619 8.63367V8.8416H50.4919V8.49297C50.4932 8.49422 50.4894 8.34481 50.472 8.2564C50.4459 8.1182 50.3263 7.80194 49.8507 7.80194C49.3963 7.80194 49.2643 8.10077 49.2307 8.2564C49.212 8.33858 49.2045 8.4494 49.2045 8.55025V11.399C49.2033 11.4775 49.2083 11.5646 49.2207 11.6356C49.2456 11.7987 49.4025 12.0839 49.8532 12.0839Z" fill="white"/>
</g>
<defs>
<clipPath id="clip0">
<rect width="60.2378" height="20" fill="white"/>
</clipPath>
</defs>
</svg>
