<svg width="16" height="13" viewBox="0 0 16 13" fill="none" xmlns="http://www.w3.org/2000/svg">
<path d="M6 0C5.44771 0 5 0.447715 5 1V2C5 2.55228 5.44772 3 6 3H15C15.5523 3 16 2.55228 16 2V1C16 0.447715 15.5523 0 15 0H6ZM5 12C5 12.5523 5.44772 13 6 13H15C15.5523 13 16 12.5523 16 12V11C16 10.4477 15.5523 10 15 10H6C5.44771 10 5 10.4477 5 11V12ZM5 7C5 7.55228 5.44772 8 6 8H15C15.5523 8 16 7.55228 16 7V6C16 5.44772 15.5523 5 15 5H6C5.44771 5 5 5.44772 5 6V7ZM0 2C0 2.55228 0.447715 3 1 3H2C2.55228 3 3 2.55228 3 2V1C3 0.447715 2.55228 0 2 0H1C0.447715 0 0 0.447715 0 1V2ZM0 12C0 12.5523 0.447715 13 1 13H2C2.55228 13 3 12.5523 3 12V11C3 10.4477 2.55228 10 2 10H1C0.447715 10 0 10.4477 0 11V12ZM0 7C0 7.55228 0.447715 8 1 8H2C2.55228 8 3 7.55228 3 7V6C3 5.44772 2.55228 5 2 5H1C0.447715 5 0 5.44772 0 6V7Z" fill="#10b1e8"/>
</svg>
