<svg width="25" height="27" viewBox="0 0 25 27" fill="none" xmlns="http://www.w3.org/2000/svg">
<g clip-path="url(#clip0)">
<path d="M23.1 27H11.8C11.6 27 11.4 26.8 11.4 26.7C11.4 26.6 11.6 26.4 11.8 26.4H23.1C23.7 26.4 24.2 25.9 24.2 25.3V1.8C24.2 1.2 23.7 0.7 23.1 0.7H17.1C16.8 0.7 16.4 0.8 16.1 1C15.9 1.2 14.5 2.5 13 3.9C12.6 4.3 12.2 4.6 11.8 5C11.3 5.5 10.7 6.1 10.7 6.9V13.9C10.7 14.1 10.5 14.3 10.3 14.3C10.1 14.3 10 14.1 10 13.9V6.9C10 5.8 10.7 5.1 11.3 4.5C11.7 4.1 12.1 3.8 12.5 3.4C14 1.9 15.4 0.7 15.7 0.5C16.1 0 16.8 0 17.1 0H23.1C24.1 0 24.9 0.8 24.9 1.8V25.2C24.9 26.2 24.1 27 23.1 27Z" fill="#10B1E8"/>
<path d="M17.3999 24.9C16.2999 24.9 15.3999 24 15.3999 22.9C15.3999 21.8 16.2999 20.9 17.3999 20.9C18.4999 20.9 19.3999 21.8 19.3999 22.9C19.3999 24 18.4999 24.9 17.3999 24.9ZM17.3999 21.6C16.6999 21.6 16.0999 22.2 16.0999 22.9C16.0999 23.6 16.6999 24.2 17.3999 24.2C18.0999 24.2 18.6999 23.6 18.6999 22.9C18.6999 22.2 18.0999 21.6 17.3999 21.6Z" fill="#10B1E8"/>
<path d="M12.6 5.60002C11.8 5.60002 11.2 5.40002 11.2 5.40002L11.4 4.70002C11.4 4.70002 13.3 5.30002 14.6 4.20002C16 3.00002 15.4 1.10002 15.4 1.10002L16.1 0.900024C16.1 1.00002 16.8 3.20002 15.1 4.80002C14.3 5.40002 13.4 5.60002 12.6 5.60002Z" fill="#10B1E8"/>
<path d="M7.59995 12.5C7.69995 12.5 7.69995 12.5 7.79995 12.6L10.8 23.9C10.8 24 10.8 24 10.8 24C10.8 24 10.8 24.1 10.7 24.1L2.89995 26.2L2.09995 23.3L2.59995 22.4L2.69995 22.1L2.59995 21.8L2.29995 20.5L2.09995 19.8L1.39995 20L1.09995 20.1L0.899951 19.5L1.39995 18.6L1.59995 18.3L1.49995 18L0.499951 14.4C0.499951 14.3 0.499951 14.2 0.599951 14.2L7.59995 12.5C7.59995 12.5 7.49995 12.5 7.59995 12.5ZM7.59995 11.8C7.49995 11.8 7.49995 11.8 7.39995 11.8L0.699951 13.6C0.199951 13.7 -4.88311e-05 14.2 0.0999512 14.7L1.09995 18.3L0.399951 19.5L0.699951 21L1.59995 20.7L1.99995 22L1.29995 23.2L2.29995 27.1L10.8 24.8C11.3 24.7 11.5 24.2 11.4 23.7L8.39995 12.4C8.29995 12 7.99995 11.8 7.59995 11.8Z" fill="#10B1E8"/>
<path d="M4.50014 22.3C4.70014 22.4 4.90014 22.4 5.20014 22.3C5.60014 22.2 5.70014 22 5.60014 21.7C5.50014 21.4 5.30014 21.3 4.90014 21.3C4.40014 21.3 4.10014 21.1 4.00014 20.7C3.90014 20.3 4.10014 19.9 4.70014 19.7C5.00014 19.6 5.20014 19.6 5.30014 19.7V20C5.20014 20 5.00014 20 4.70014 20C4.30014 20.1 4.30014 20.4 4.30014 20.5C4.40014 20.8 4.60014 20.8 5.00014 20.9C5.50014 21 5.80014 21.1 5.90014 21.5C6.00014 21.9 5.80014 22.4 5.20014 22.5C4.90014 22.6 4.60014 22.6 4.50014 22.5V22.3Z" fill="#10B1E8"/>
<path d="M4.80006 22.7C4.70006 22.7 4.60006 22.7 4.50006 22.7H4.40006V22.2H4.50006C4.70006 22.3 4.90006 22.3 5.10006 22.2C5.40006 22.1 5.50006 21.9 5.50006 21.7C5.50006 21.5 5.30006 21.4 4.90006 21.4C4.30006 21.4 4.00006 21.1 3.90006 20.8C3.80006 20.6 3.90006 20.3 4.00006 20.1C4.10006 19.9 4.40006 19.8 4.60006 19.7C4.90006 19.6 5.20006 19.6 5.30006 19.7H5.40006V20.2H5.30006C5.20006 20.2 5.00006 20.2 4.80006 20.2C4.70006 20.2 4.60006 20.3 4.50006 20.4C4.40006 20.5 4.50006 20.6 4.50006 20.6C4.50006 20.8 4.60006 20.9 5.10006 20.9C5.50006 20.9 5.90006 21.1 6.10006 21.6C6.20006 21.8 6.10006 22.1 6.00006 22.3C5.90006 22.5 5.60006 22.7 5.30006 22.8C5.10006 22.7 4.90006 22.7 4.80006 22.7ZM4.50006 22.5C4.60006 22.5 4.90006 22.5 5.10006 22.5C5.40006 22.4 5.60006 22.3 5.70006 22.1C5.80006 21.9 5.80006 21.8 5.80006 21.6C5.70006 21.2 5.50006 21.1 5.00006 21C4.60006 21 4.30006 20.9 4.20006 20.6C4.20006 20.5 4.20006 20.3 4.20006 20.2C4.30006 20.1 4.40006 20 4.60006 19.9C4.80006 19.9 5.00006 19.9 5.10006 19.9V19.8C5.00006 19.8 4.80006 19.8 4.60006 19.8C4.40006 19.9 4.20006 20 4.10006 20.1C4.00006 20.3 4.00006 20.4 4.00006 20.6C4.10006 20.9 4.30006 21.1 4.80006 21.1C5.20006 21.1 5.50006 21.2 5.50006 21.6C5.50006 22 5.40006 22.2 5.00006 22.3C4.80006 22.3 4.60006 22.4 4.40006 22.3L4.50006 22.5Z" fill="#10B1E8"/>
<path d="M5.8999 19.5C6.0999 19.4 6.2999 19.3 6.5999 19.2C7.0999 19.1 7.4999 19.1 7.7999 19.2C8.0999 19.4 8.2999 19.6 8.3999 20.1C8.4999 20.5 8.4999 20.9 8.2999 21.3C8.0999 21.6 7.6999 21.9 7.1999 22C6.9999 22.1 6.6999 22.1 6.5999 22.1L5.8999 19.5ZM6.8999 21.8C6.9999 21.8 7.0999 21.8 7.2999 21.7C7.9999 21.5 8.2999 21 8.0999 20.2C7.8999 19.6 7.4999 19.3 6.6999 19.5C6.4999 19.5 6.3999 19.6 6.2999 19.6L6.8999 21.8Z" fill="#10B1E8"/>
<path d="M6.49995 22.3L5.69995 19.5H5.79995C5.99995 19.4 6.29995 19.3 6.49995 19.2C6.99995 19.1 7.39995 19.1 7.79995 19.2C8.09995 19.4 8.39995 19.7 8.49995 20.1C8.59995 20.6 8.59995 21 8.39995 21.3C8.19995 21.6 7.79995 21.9 7.29995 22.1C6.99995 22.2 6.79995 22.2 6.49995 22.3ZM5.99995 19.6L6.69995 22C6.79995 22 6.99995 22 7.19995 21.9C7.69995 21.8 8.09995 21.5 8.19995 21.2C8.39995 20.9 8.39995 20.5 8.29995 20.1C8.19995 19.7 7.99995 19.4 7.69995 19.3C7.39995 19.2 7.09995 19.1 6.59995 19.3C6.39995 19.4 6.19995 19.5 5.99995 19.6ZM6.79995 21.9L6.19995 19.6H6.29995C6.39995 19.5 6.49995 19.5 6.69995 19.4C7.09995 19.3 7.39995 19.3 7.69995 19.5C7.99995 19.6 8.09995 19.9 8.19995 20.2C8.29995 20.6 8.29995 20.9 8.09995 21.2C7.89995 21.5 7.69995 21.7 7.29995 21.8C7.09995 21.9 6.99995 21.9 6.79995 21.9ZM6.39995 19.7L6.89995 21.7C6.99995 21.7 7.09995 21.7 7.19995 21.6C7.49995 21.5 7.79995 21.3 7.89995 21.1C7.99995 20.9 8.09995 20.6 7.99995 20.3C7.89995 20 7.79995 19.8 7.59995 19.7C7.39995 19.6 7.09995 19.6 6.79995 19.6C6.59995 19.6 6.49995 19.7 6.39995 19.7Z" fill="#10B1E8"/>
<path d="M2.29996 17.5001C2.09996 17.5001 1.99996 17.4001 1.99996 17.2001L1.29996 14.6001C1.19996 14.4001 1.39996 14.2001 1.49996 14.2001C1.69996 14.2001 1.89996 14.3001 1.89996 14.4001L2.59996 17.0001C2.69996 17.3001 2.59996 17.4001 2.29996 17.5001C2.29996 17.5001 2.39996 17.5001 2.29996 17.5001Z" fill="#10B1E8"/>
<path d="M3.60001 17.2C3.40001 17.2 3.30001 17.1 3.30001 16.9L2.60001 14.3C2.50001 14.1 2.70001 13.9 2.80001 13.9C3.00001 13.9 3.20001 14 3.20001 14.1L4.00001 16.7C4.00001 16.9 3.90001 17.1 3.60001 17.2C3.70001 17.2 3.70001 17.1 3.60001 17.2Z" fill="#10B1E8"/>
<path d="M4.90006 16.8C4.70006 16.8 4.60006 16.7 4.60006 16.5L3.90006 14C3.80006 13.8 4.00006 13.6 4.10006 13.6C4.30006 13.5 4.50006 13.7 4.50006 13.8L5.20006 16.4C5.30006 16.6 5.20006 16.8 4.90006 16.8C5.00006 16.8 5.00006 16.8 4.90006 16.8Z" fill="#10B1E8"/>
<path d="M6.29996 16.4C6.09996 16.4 5.99996 16.3 5.99996 16.1L5.29996 13.5C5.19996 13.3 5.39996 13.1 5.49996 13.1C5.69996 13 5.89996 13.2 5.89996 13.3L6.69996 16C6.69996 16.2 6.59996 16.4 6.29996 16.4C6.39996 16.4 6.39996 16.4 6.29996 16.4Z" fill="#10B1E8"/>
<path d="M7.69986 16.1001C7.49986 16.1001 7.39986 16.0001 7.39986 15.8001L6.69986 13.2001C6.59986 13.0001 6.79986 12.8001 6.89986 12.8001C7.09986 12.7001 7.29986 12.9001 7.29986 13.0001L7.99986 15.6001C8.09986 15.8001 7.99986 16.0001 7.69986 16.1001Z" fill="#10B1E8"/>
<path d="M3.29991 25.4C3.09991 25.4 2.99991 25.3 2.99991 25.1C2.89991 24.9 3.09991 24.7 3.19991 24.7L9.59991 23C9.79991 23 9.99991 23.1 9.99991 23.2C10.0999 23.4 9.89991 23.6 9.79991 23.6L3.29991 25.4C3.39991 25.4 3.39991 25.4 3.29991 25.4Z" fill="#10B1E8"/>
</g>
<defs>
<clipPath id="clip0">
<rect width="24.9" height="27" fill="white"/>
</clipPath>
</defs>
</svg>
