<svg width="16" height="14" viewBox="0 0 16 14" fill="none" xmlns="http://www.w3.org/2000/svg">
<g clip-path="url(#clip0)">
<path fill-rule="evenodd" clip-rule="evenodd" d="M15.4562 11.7029L13.1522 9.96569C13.7295 8.72237 13.9335 7.33618 13.7389 5.97766C13.512 4.42832 12.774 3.00097 11.6438 1.92544C10.5136 0.849911 9.05691 0.188787 7.50828 0.0485399C5.95965 -0.0917069 4.40929 0.297081 3.10672 1.15229C1.80415 2.00751 0.825169 3.27939 0.327554 4.76312C-0.170062 6.24684 -0.157362 7.85606 0.363491 9.33167C0.884344 10.8073 1.88307 12.0634 3.19891 12.8978C4.51475 13.7321 6.07103 14.0962 7.61727 13.9312C9.1635 13.7663 10.6097 13.0821 11.7229 11.9887L13.9842 13.6959C14.2512 13.9024 14.5865 13.9986 14.9216 13.9646C15.2566 13.9307 15.5661 13.7692 15.7869 13.5132C15.9668 13.2246 16.0327 12.8784 15.9714 12.5432C15.9102 12.2081 15.7263 11.9082 15.4562 11.7029ZM7.57352 11.6535C6.6563 11.791 5.71918 11.6514 4.88081 11.2522C4.04244 10.853 3.34049 10.2122 2.86388 9.41104C2.38727 8.60982 2.15749 7.68418 2.20346 6.75131C2.24944 5.81844 2.56917 4.92029 3.12221 4.17056C3.67526 3.42082 4.43674 2.85323 5.31024 2.53962C6.18373 2.22601 7.12993 2.18049 8.02912 2.40884C8.9283 2.63718 9.73995 3.12912 10.3614 3.82236C10.9829 4.5156 11.3862 5.37899 11.5203 6.3032C11.6109 6.91565 11.5806 7.54009 11.4312 8.14074C11.2818 8.74139 11.0162 9.30643 10.6496 9.80348C10.2829 10.3005 9.82244 10.7198 9.29461 11.0373C8.76678 11.3547 8.18186 11.5641 7.57352 11.6535Z" fill="#344150"/>
</g>
<defs>
<clipPath id="clip0">
<rect width="16" height="14" fill="white"/>
</clipPath>
</defs>
</svg>
