<svg width="22" height="25" viewBox="0 0 22 25" fill="none" xmlns="http://www.w3.org/2000/svg">
<g clip-path="url(#clip0)">
<path d="M19.6 0.7C20.3 0.7 20.9 1.3 20.9 2V22.7C20.9 23.4 20.3 24 19.6 24H7.69995C6.99995 24 6.39995 23.4 6.39995 22.7V5.1L10.8 0.7H19.6ZM19.6 0H10.5L5.69995 4.8V22.7C5.69995 23.8 6.59995 24.7 7.69995 24.7H19.6C20.7 24.7 21.6 23.8 21.6 22.7V2C21.6 0.9 20.7 0 19.6 0Z" fill="#10B1E8"/>
<path d="M4.8 24.7H2.3C1 24.7 0 23.7 0 22.5V4.9L4.9 0H8.3C8.5 0 8.7 0.2 8.7 0.4C8.7 0.6 8.6 0.7 8.4 0.7H5.2L0.7 5.2V22.5C0.7 23.4 1.4 24 2.3 24H4.8C5 24 5.2 24.2 5.2 24.3C5.2 24.4 5 24.7 4.8 24.7Z" fill="#10B1E8"/>
<path d="M15.7 20.8H11.5C10.3 20.8 9.19995 19.7 9.19995 18.3V12.1C9.19995 10.7 10.2 9.59998 11.5 9.59998H15.7C16.9 9.59998 18 10.7 18 12.1V18.3C18 19.7 17 20.8 15.7 20.8ZM11.5 10.3C10.6 10.3 9.89995 11.1 9.89995 12.1V18.3C9.89995 19.3 10.6 20.1 11.5 20.1H15.7C16.6 20.1 17.3 19.3 17.3 18.3V12.1C17.3 11.1 16.6 10.3 15.7 10.3H11.5Z" fill="#10B1E8"/>
<path d="M16 17.2H11.3V12.8H16V17.2ZM12 16.5H15.3V13.5H12V16.5Z" fill="#10B1E8"/>
<path d="M14.2 9.90002H13.5V13H14.2V9.90002Z" fill="#10B1E8"/>
<path d="M12.6 17.1H11.9V20.2H12.6V17.1Z" fill="#10B1E8"/>
<path d="M15.4 17.1H14.7V20.2H15.4V17.1Z" fill="#10B1E8"/>
<path d="M17.7 13.7H15.8V14.4H17.7V13.7Z" fill="#10B1E8"/>
<path d="M11.7 14.6H9.80005V15.3H11.7V14.6Z" fill="#10B1E8"/>
</g>
<defs>
<clipPath id="clip0">
<rect width="21.6" height="24.7" fill="white"/>
</clipPath>
</defs>
</svg>
