<svg width="30" height="21" viewBox="0 0 30 21" fill="none" xmlns="http://www.w3.org/2000/svg">
<g clip-path="url(#clip0)">
<path d="M14.9899 0.926017L18.8833 4.06418L20.0201 4.9902V3.50857V2.73689L21.2475 2.75747L21.2575 6.04998V6.37923L21.509 6.5953L25.2917 9.85693H23.4004H22.6962V10.5772V20.2901H7.002V10.4846V9.76433H6.29778H4.74848L14.9899 0.926017ZM14.9799 0L2.81689 10.4743H6.29778V21H23.4004V10.5669H27.2233L21.9718 6.03969L21.9618 2.03724L19.3259 2.00637V3.50857L14.9799 0Z" fill="#10B1E8"/>
<path d="M9.51706 10.5566L9.01404 10.0524C10.6036 8.36498 12.7364 7.43896 15.0301 7.43896C17.3038 7.43896 19.4366 8.35469 21.0261 10.0215L20.5231 10.5257C19.0744 9.0029 17.1227 8.1592 15.0402 8.1592C12.9275 8.16949 10.9758 9.02348 9.51706 10.5566Z" fill="#10B1E8"/>
<path d="M11.1871 12.4395L10.6639 11.9559C11.7806 10.7007 13.3702 9.99072 15.0201 9.99072C16.6599 9.99072 18.179 10.6595 19.3058 11.8839L18.7927 12.3778C17.8068 11.2974 16.4587 10.711 15.0201 10.711C13.5714 10.7007 12.173 11.3386 11.1871 12.4395Z" fill="#10B1E8"/>
<path d="M16.177 16.1024C16.177 16.7506 15.664 17.2857 15.0201 17.2857C14.3863 17.2857 13.8632 16.7609 13.8632 16.1024C13.8632 15.4542 14.3762 14.9192 15.0201 14.9192C15.664 14.9295 16.177 15.4542 16.177 16.1024Z" fill="#10B1E8"/>
<path d="M12.8069 14.2915L12.2535 13.8387C12.9276 12.9745 13.9437 12.4806 15.0201 12.4806C16.0765 12.4806 17.0725 12.9539 17.7465 13.7873L17.2032 14.2503C16.66 13.5815 15.8652 13.2008 15.0201 13.2008C14.1549 13.2008 13.3501 13.5918 12.8069 14.2915Z" fill="#10B1E8"/>
<path d="M1.84104 20.5267C0.643859 19.364 -0.0301858 17.7281 -4.6669e-06 16.0304C0.0301764 14.3738 0.734402 12.7893 1.93158 11.6781L2.40442 12.2131C1.33802 13.2009 0.734402 14.559 0.704221 16.0407C0.67404 17.5326 1.2676 18.9731 2.32394 19.9917L1.84104 20.5267Z" fill="#10B1E8"/>
<path d="M3.72239 18.9422C2.88738 18.2323 2.4246 17.1931 2.44472 16.0818C2.46484 15.0015 2.94774 13.9932 3.78275 13.3141L4.22541 13.88C3.56142 14.4253 3.16907 15.2279 3.15901 16.0921C3.13889 16.977 3.51112 17.8104 4.18516 18.3866L3.72239 18.9422Z" fill="#10B1E8"/>
<path d="M28.1288 20.5267L27.6459 20.0019C28.7022 18.9936 29.2857 17.6252 29.2958 16.1538C29.3058 14.6619 28.6921 13.2317 27.6257 12.2234L28.0986 11.6884C29.3159 12.8304 30.01 14.4664 30 16.1538C29.9899 17.8309 29.3259 19.3846 28.1288 20.5267Z" fill="#10B1E8"/>
<path d="M26.2676 18.9217L25.8249 18.3661C26.4789 17.8207 26.8611 17.0079 26.8611 16.1333C26.8611 15.2485 26.4789 14.4151 25.8048 13.8594L26.2475 13.3038C27.0925 14.0035 27.5654 15.0324 27.5654 16.1436C27.5553 17.224 27.0825 18.2323 26.2676 18.9217Z" fill="#10B1E8"/>
</g>
<defs>
<clipPath id="clip0">
<rect width="30" height="21" fill="white"/>
</clipPath>
</defs>
</svg>
