<svg width="20" height="20" viewBox="0 0 20 20" fill="none" xmlns="http://www.w3.org/2000/svg">
<path d="M14.3494 0.520446C14.7212 0.520446 14.9442 0.817844 14.9442 1.11524V18.8848C14.9442 19.1822 14.6468 19.4796 14.3494 19.4796H5.65052C5.27877 19.4796 5.05572 19.1822 5.05572 18.8848V1.11524C5.05572 0.817844 5.35312 0.520446 5.65052 0.520446H14.3494ZM14.3494 0H5.65052C5.05572 0 4.53528 0.520446 4.53528 1.11524V18.8848C4.53528 19.4796 5.05572 20 5.65052 20H14.3494C14.9442 20 15.4646 19.4796 15.4646 18.8848V1.11524C15.4646 0.520446 15.0185 0 14.3494 0Z" fill="#fff"/>
<path d="M4.9071 17.3977H15.1673" stroke="#fff" stroke-width="0.7" stroke-miterlimit="10"/>
<path d="M4.9071 2.37915H15.1673" stroke="#fff" stroke-width="0.7" stroke-miterlimit="10"/>
<path d="M8.99634 1.26392H11.0038" stroke="#fff" stroke-width="0.7" stroke-miterlimit="10" stroke-linecap="round"/>
<path d="M8.99634 18.6617H11.0038" stroke="#fff" stroke-width="0.7" stroke-miterlimit="10" stroke-linecap="round"/>
<path d="M14.052 1.48699C14.1752 1.48699 14.2751 1.38713 14.2751 1.26394C14.2751 1.14076 14.1752 1.04089 14.052 1.04089C13.9288 1.04089 13.829 1.14076 13.829 1.26394C13.829 1.38713 13.9288 1.48699 14.052 1.48699Z" fill="#fff"/>
</svg>
