<svg width="30" height="23" viewBox="0 0 30 23" fill="none" xmlns="http://www.w3.org/2000/svg">
<g clip-path="url(#clip0)">
<path d="M8.9 18.3C5.1 18.3 2 15.3 2 11.6C2 7.90002 5.1 4.90002 8.9 4.90002C12.7 4.90002 15.8 7.90002 15.8 11.6C15.8 15.3 12.7 18.3 8.9 18.3ZM8.9 5.60002C5.5 5.60002 2.7 8.30002 2.7 11.6C2.7 14.9 5.5 17.6 8.9 17.6C12.3 17.6 15.1 14.9 15.1 11.6C15.1 8.30002 12.4 5.60002 8.9 5.60002Z" fill="#10B1E8"/>
<path d="M8.9 20.3C4 20.3 0 16.4 0 11.6C0 6.80002 4 2.90002 8.9 2.90002C13.8 2.90002 17.8 6.80002 17.8 11.6C17.9 16.4 13.9 20.3 8.9 20.3ZM8.9 3.60002C4.4 3.60002 0.7 7.20003 0.7 11.6C0.7 16 4.4 19.6 8.9 19.6C13.4 19.6 17.1 16 17.1 11.6C17.1 7.20003 13.5 3.60002 8.9 3.60002Z" fill="#10B1E8"/>
<path d="M3.50005 5.49998L2.80005 5.29998L3.80005 0.0999756H13.9L15.1 5.29998L14.4 5.39998L13.4 0.799976H4.40005L3.50005 5.49998Z" fill="#10B1E8"/>
<path d="M14.1 22.9H3.90005L2.80005 17.8L3.50005 17.7L4.50005 22.2H13.5L14.4 17.6L15.1 17.8L14.1 22.9Z" fill="#10B1E8"/>
<path d="M7.30002 15.8L7.20002 13.9H6.90002C6.10002 13.9 5.40002 13.3 5.40002 12.5V9.9C5.40002 9.1 6.10002 8.5 6.90002 8.5H11.2C12 8.5 12.7 9.1 12.7 9.9V12.5C12.7 13.3 12 13.9 11.2 13.9H9.50002L7.30002 15.8ZM6.90002 9.2C6.50002 9.2 6.10002 9.5 6.10002 9.9V12.5C6.10002 12.9 6.40002 13.2 6.90002 13.2H7.90002V14.3L9.20002 13.2H11.2C11.6 13.2 12 12.9 12 12.5V9.9C12 9.5 11.7 9.2 11.2 9.2H6.90002Z" fill="#10B1E8"/>
<path d="M17 8.39998L16.7 7.79998L17.1 7.59998C17.2 7.59998 17.2 7.49998 17.2 7.49998L16.9 6.89998C16.9 6.89998 16.8 6.79998 16.7 6.89998L16.3 6.99998L16 6.39998L16.4 6.19998C16.8 5.99998 17.4 6.09998 17.6 6.49998L17.9 7.09998C18 7.29998 18 7.49998 18 7.69998C17.9 7.89998 17.8 8.09998 17.5 8.29998L17 8.39998Z" fill="#10B1E8"/>
<path d="M16.8 17.3C16.6 17.3 16.5 17.3 16.3 17.2L15.9 17L16.3 16.4L16.7 16.6C16.8 16.7 16.9 16.6 16.9 16.6L17.3 16C17.3 15.9 17.3 15.9 17.2 15.8L16.8 15.6L17.2 15L17.6 15.2C17.8 15.3 18 15.5 18 15.8C18 16 18 16.2 17.9 16.4L17.4 17C17.3 17.2 17 17.3 16.8 17.3Z" fill="#10B1E8"/>
<path d="M23.9 22.9C22.6 22.9 21.6 22 21.6 20.8V18.2C21.1 17.6 20.8 16.9 20.8 16.1V7.5C20.8 6.7 21.1 6 21.6 5.4V2.1C21.6 0.9 22.6 0 23.9 0C25.2 0 26.2001 0.9 26.2001 2.1V5.5C26.7001 6.1 26.9 6.7 26.9 7.5V16.2C26.9 16.9 26.6001 17.6 26.2001 18.2V20.9C26.2001 22 25.2 22.9 23.9 22.9ZM23.9 0.7C23 0.7 22.3 1.3 22.3 2.1V5.7L22.2001 5.8C21.8001 6.2 21.5 6.8 21.5 7.5V16.2C21.5 16.8 21.7001 17.4 22.2001 17.9L22.3 18V20.9C22.3 21.7 23 22.3 23.9 22.3C24.8 22.3 25.5 21.7 25.5 20.9V17.9L25.6 17.8C26.0001 17.4 26.2001 16.8 26.2001 16.2V7.5C26.2001 6.9 26.0001 6.4 25.6 5.9L25.5 5.8V2.1C25.5 1.3 24.8 0.7 23.9 0.7Z" fill="#10B1E8"/>
<path d="M23.9 17.7C22.8 17.7 21.9 16.8 21.9 15.7V7.59998C21.9 6.49998 22.8 5.59998 23.9 5.59998C25 5.59998 25.9 6.49998 25.9 7.59998V15.7C26 16.8 25.1 17.7 23.9 17.7ZM23.9 6.29998C23.2 6.29998 22.6 6.89998 22.6 7.59998V15.7C22.6 16.4 23.2 17 23.9 17C24.6 17 25.2 16.4 25.2 15.7V7.59998C25.3 6.89998 24.7 6.29998 23.9 6.29998Z" fill="#10B1E8"/>
<path d="M24.3001 11.5C24.3001 11.7 24.2001 11.8 24.0001 11.8C23.8001 11.8 23.7001 11.7 23.7001 11.5C23.7001 11.3 23.8001 11.2 24.0001 11.2C24.1001 11.2 24.3001 11.3 24.3001 11.5Z" fill="#10B1E8"/>
<path d="M24.3001 13.9C24.3001 14.1 24.2001 14.2 24.0001 14.2C23.8001 14.2 23.7001 14.1 23.7001 13.9C23.7001 13.7 23.8001 13.6 24.0001 13.6C24.1001 13.6 24.3001 13.7 24.3001 13.9Z" fill="#10B1E8"/>
<path d="M25.6 8.59998H22.4V9.29998H25.6V8.59998Z" fill="#10B1E8"/>
<path d="M29.4001 8.10004C29.2001 8.10004 29.0001 7.90004 29.1001 7.70004C29.1001 7.70004 29.1001 6.90004 28.8001 5.70004C28.4001 4.50004 27.8001 4.00004 27.8001 4.00004C27.6001 3.90004 27.6001 3.70004 27.7001 3.50004C27.8001 3.30004 28.0001 3.30004 28.2001 3.40004C28.2001 3.40004 29.0001 4.00004 29.4001 5.50004C29.8001 6.80004 29.8001 7.70004 29.8001 7.80004C29.8001 8.00004 29.6001 8.10004 29.4001 8.10004Z" fill="#10B1E8"/>
<path d="M28.4001 7.70001C28.4001 7.70001 28.3001 7.70001 28.4001 7.70001C28.2001 7.70001 28.0001 7.50001 28.1001 7.30001C28.1001 7.30001 28.1001 6.80001 27.9001 6.10001C27.6001 5.40001 27.3001 5.10001 27.3001 5.10001C27.0001 5.00001 27.0001 4.80001 27.1001 4.60001C27.2001 4.40001 27.4001 4.40001 27.6001 4.50001C27.7001 4.50001 28.1001 4.90001 28.5001 5.80001C28.8001 6.70001 28.7001 7.30001 28.7001 7.30001C28.7001 7.60001 28.5001 7.70001 28.4001 7.70001Z" fill="#10B1E8"/>
<path d="M27.5 7.60004C27.5 7.60004 27.4 7.60004 27.5 7.60004C27.3 7.60004 27.1 7.40004 27.2 7.20004C27.2 7.20004 27.2 6.90004 27.1 6.60004C27 6.30004 26.8 6.10004 26.8 6.10004C26.7 6.00004 26.6 5.80004 26.7 5.60004C26.8 5.50004 27 5.40004 27.2 5.50004C27.2 5.50004 27.5 5.80004 27.7 6.30004C27.9 6.80004 27.8 7.20004 27.8 7.20004C27.8 7.50004 27.6 7.60004 27.5 7.60004Z" fill="#10B1E8"/>
</g>
<defs>
<clipPath id="clip0">
<rect width="29.8" height="22.9" fill="white"/>
</clipPath>
</defs>
</svg>
