<svg width="36" height="46" viewBox="0 0 36 46" fill="none" xmlns="http://www.w3.org/2000/svg">
<path d="M25.6355 26.1917L21.9384 25.4404V22.7293C23.8543 21.6209 25.1986 19.7398 25.6269 17.5682C26.7121 17.3473 27.5926 16.5567 27.928 15.5014C28.2638 14.4465 28.0018 13.2924 27.2437 12.4853C27.7663 12.0533 28.0695 11.4113 28.0718 10.7333V8.43333C28.0665 3.77793 24.2938 0.00561524 19.6384 0H16.5718C11.9164 0.00561524 8.14405 3.77793 8.13843 8.43333V10.7333C8.14068 11.4113 8.44427 12.0533 8.96649 12.4853C8.21218 13.2935 7.95238 14.4461 8.2878 15.4999C8.62284 16.5533 9.50069 17.3443 10.5833 17.5682C11.0119 19.7398 12.3562 21.6209 14.2718 22.7293V25.4381L10.5751 26.1917C4.64875 27.5371 0.450051 32.8151 0.471764 38.8922V45.2333C0.471764 45.6567 0.815041 46 1.23843 46H34.9718C35.3952 46 35.7384 45.6567 35.7384 45.2333V38.8922C35.7605 32.8151 31.5618 27.5371 25.6355 26.1917ZM14.8546 26.8861L17.0318 28.5201L15.7216 30.2665L12.7661 27.311L14.8546 26.8861ZM21.3574 26.8861L23.4504 27.305L20.4878 30.2672L19.1784 28.5201L21.3574 26.8861ZM15.7751 32.6717L15.0822 44.4667H14.9213L12.3622 29.0742L15.7751 32.6717ZM16.7634 31.4333L18.1051 29.6447L19.4468 31.4333L18.1051 33.222L16.7634 31.4333ZM23.8484 29.0742L21.2893 44.4667H21.128L20.4429 32.6601L23.8484 29.0742ZM26.0885 15.65C25.9941 15.7425 25.8874 15.8219 25.7718 15.8862V13.2463C26.1847 13.4826 26.4636 13.8981 26.5257 14.3698C26.5878 14.8414 26.4261 15.315 26.0885 15.65ZM9.67176 8.43333C9.67626 4.62433 12.7628 1.53745 16.5718 1.53333H19.6384C23.4474 1.53745 26.5343 4.62433 26.5384 8.43333V10.7333C26.5384 11.1567 26.1952 11.5 25.7718 11.5V10.7333C25.7718 10.3099 25.4285 9.96667 25.0051 9.96667H24.2384C22.7811 9.9633 21.451 9.13599 20.803 7.83063C20.6896 7.52142 20.3916 7.31927 20.0626 7.32826C19.7335 7.33686 19.4468 7.55511 19.3502 7.86994C19.0848 8.64372 18.6475 9.34749 18.0714 9.92848C17.2606 10.7711 16.1948 11.3233 15.0384 11.5H10.4384C10.015 11.5 9.67176 11.1567 9.67176 10.7333V8.43333ZM9.67176 14.5667C9.67364 14.0212 9.96563 13.5181 10.4384 13.2463V15.887C9.96114 15.6197 9.66727 15.1136 9.67176 14.5667ZM11.9718 16.1V13.0333H15.0384C16.6036 12.8611 18.0591 12.1472 19.1533 11.0148C19.5572 10.6098 19.9087 10.1561 20.1996 9.66382C21.2201 10.8273 22.6912 11.4959 24.2384 11.5V16.1C24.2384 19.4875 21.4926 22.2333 18.1051 22.2333C14.718 22.2333 11.9718 19.4875 11.9718 16.1ZM18.1051 23.7667C18.8852 23.7667 19.6609 23.6476 20.4051 23.4133V25.6833L18.1051 27.4083L15.8051 25.6833V23.4133C16.5493 23.6476 17.325 23.7667 18.1051 23.7667ZM2.0051 38.8922C1.98788 33.6588 5.52398 29.0809 10.5919 27.7756L13.3673 44.4667H8.13843V37.5667C8.13843 37.1433 7.79515 36.8 7.37176 36.8C6.94838 36.8 6.6051 37.1433 6.6051 37.5667V44.4667H2.0051V38.8922ZM16.6186 44.4667L17.198 34.5681L17.4919 34.9601C17.6368 35.1529 17.864 35.2667 18.1051 35.2667C18.3466 35.2667 18.5738 35.1529 18.7187 34.9601L19.0174 34.5606L19.5924 44.4667H16.6186ZM34.2051 44.4667H29.6051V37.5667C29.6051 37.1433 29.2618 36.8 28.8384 36.8C28.415 36.8 28.0718 37.1433 28.0718 37.5667V44.4667H22.8432L25.6187 27.7763C30.6862 29.0817 34.2223 33.6592 34.2051 38.8922V44.4667Z" fill="#10B1E8"/>
</svg>
