<svg width="93" height="8" viewBox="0 0 93 8" fill="none" xmlns="http://www.w3.org/2000/svg">
<path d="M17.7929 8C17.9255 8 18.0527 7.94732 18.1464 7.85355L21.6464 4.35355C21.8417 4.15829 21.8417 3.84171 21.6464 3.64645L18.1464 0.146446C18.0527 0.052678 17.9255 0 17.7929 0H15.2071C14.7617 0 14.5386 0.538571 14.8536 0.853553L17.6464 3.64645C17.8417 3.84171 17.8417 4.15829 17.6464 4.35355L14.8536 7.14645C14.5386 7.46143 14.7617 8 15.2071 8H17.7929Z" fill="#10B1E8"/>
<path d="M3.79289 8C3.9255 8 4.05268 7.94732 4.14645 7.85355L7.64645 4.35355C7.84171 4.15829 7.84171 3.84171 7.64645 3.64645L4.14645 0.146446C4.05268 0.052678 3.9255 0 3.79289 0H1.20711C0.761654 0 0.538571 0.538571 0.853553 0.853553L3.64645 3.64645C3.84171 3.84171 3.84171 4.15829 3.64645 4.35355L0.853553 7.14645C0.53857 7.46143 0.761654 8 1.20711 8H3.79289Z" fill="#10B1E8"/>
<path d="M10.7929 8C10.9255 8 11.0527 7.94732 11.1464 7.85355L14.6464 4.35355C14.8417 4.15829 14.8417 3.84171 14.6464 3.64645L11.1464 0.146446C11.0527 0.052678 10.9255 0 10.7929 0H8.20711C7.76165 0 7.53857 0.538571 7.85355 0.853553L10.6464 3.64645C10.8417 3.84171 10.8417 4.15829 10.6464 4.35355L7.85355 7.14645C7.53857 7.46143 7.76165 8 8.20711 8H10.7929Z" fill="#10B1E8"/>
<path d="M24.7929 8C24.9255 8 25.0527 7.94732 25.1464 7.85355L28.6464 4.35355C28.8417 4.15829 28.8417 3.84171 28.6464 3.64645L25.1464 0.146446C25.0527 0.052678 24.9255 0 24.7929 0H22.2071C21.7617 0 21.5386 0.538571 21.8536 0.853553L24.6464 3.64645C24.8417 3.84171 24.8417 4.15829 24.6464 4.35355L21.8536 7.14645C21.5386 7.46143 21.7617 8 22.2071 8H24.7929Z" fill="#10B1E8"/>
<path d="M31.7929 8C31.9255 8 32.0527 7.94732 32.1464 7.85355L35.6464 4.35355C35.8417 4.15829 35.8417 3.84171 35.6464 3.64645L32.1464 0.146446C32.0527 0.052678 31.9255 0 31.7929 0H29.2071C28.7617 0 28.5386 0.538571 28.8536 0.853553L31.6464 3.64645C31.8417 3.84171 31.8417 4.15829 31.6464 4.35355L28.8536 7.14645C28.5386 7.46143 28.7617 8 29.2071 8H31.7929Z" fill="#10B1E8"/>
<path d="M38.7929 8C38.9255 8 39.0527 7.94732 39.1464 7.85355L42.6464 4.35355C42.8417 4.15829 42.8417 3.84171 42.6464 3.64645L39.1464 0.146446C39.0527 0.052678 38.9255 0 38.7929 0H36.2071C35.7617 0 35.5386 0.538571 35.8536 0.853553L38.6464 3.64645C38.8417 3.84171 38.8417 4.15829 38.6464 4.35355L35.8536 7.14645C35.5386 7.46143 35.7617 8 36.2071 8H38.7929Z" fill="#10B1E8"/>
<path d="M45.7929 8C45.9255 8 46.0527 7.94732 46.1464 7.85355L49.6464 4.35355C49.8417 4.15829 49.8417 3.84171 49.6464 3.64645L46.1464 0.146446C46.0527 0.052678 45.9255 0 45.7929 0H43.2071C42.7617 0 42.5386 0.538571 42.8536 0.853553L45.6464 3.64645C45.8417 3.84171 45.8417 4.15829 45.6464 4.35355L42.8536 7.14645C42.5386 7.46143 42.7617 8 43.2071 8H45.7929Z" fill="#10B1E8"/>
<path d="M52.7929 8C52.9255 8 53.0527 7.94732 53.1464 7.85355L56.6464 4.35355C56.8417 4.15829 56.8417 3.84171 56.6464 3.64645L53.1464 0.146446C53.0527 0.052678 52.9255 0 52.7929 0H50.2071C49.7617 0 49.5386 0.538571 49.8536 0.853553L52.6464 3.64645C52.8417 3.84171 52.8417 4.15829 52.6464 4.35355L49.8536 7.14645C49.5386 7.46143 49.7617 8 50.2071 8H52.7929Z" fill="#10B1E8"/>
<path d="M52.7929 8C52.9255 8 53.0527 7.94732 53.1464 7.85355L56.6464 4.35355C56.8417 4.15829 56.8417 3.84171 56.6464 3.64645L53.1464 0.146446C53.0527 0.052678 52.9255 0 52.7929 0H50.2071C49.7617 0 49.5386 0.538571 49.8536 0.853553L52.6464 3.64645C52.8417 3.84171 52.8417 4.15829 52.6464 4.35355L49.8536 7.14645C49.5386 7.46143 49.7617 8 50.2071 8H52.7929Z" fill="#10B1E8"/>
<path d="M59.7929 8C59.9255 8 60.0527 7.94732 60.1464 7.85355L63.6464 4.35355C63.8417 4.15829 63.8417 3.84171 63.6464 3.64645L60.1464 0.146446C60.0527 0.052678 59.9255 0 59.7929 0H57.2071C56.7617 0 56.5386 0.538571 56.8536 0.853553L59.6464 3.64645C59.8417 3.84171 59.8417 4.15829 59.6464 4.35355L56.8536 7.14645C56.5386 7.46143 56.7617 8 57.2071 8H59.7929Z" fill="#10B1E8"/>
<path d="M66.7929 8C66.9255 8 67.0527 7.94732 67.1464 7.85355L70.6464 4.35355C70.8417 4.15829 70.8417 3.84171 70.6464 3.64645L67.1464 0.146446C67.0527 0.052678 66.9255 0 66.7929 0H64.2071C63.7617 0 63.5386 0.538571 63.8536 0.853553L66.6464 3.64645C66.8417 3.84171 66.8417 4.15829 66.6464 4.35355L63.8536 7.14645C63.5386 7.46143 63.7617 8 64.2071 8H66.7929Z" fill="#10B1E8"/>
<path d="M88.7929 8C88.9255 8 89.0527 7.94732 89.1464 7.85355L92.6464 4.35355C92.8417 4.15829 92.8417 3.84171 92.6464 3.64645L89.1464 0.146446C89.0527 0.052678 88.9255 0 88.7929 0H86.2071C85.7617 0 85.5386 0.538571 85.8536 0.853553L88.6464 3.64645C88.8417 3.84171 88.8417 4.15829 88.6464 4.35355L85.8536 7.14645C85.5386 7.46143 85.7617 8 86.2071 8H88.7929Z" fill="#10B1E8"/>
<path d="M73.7929 8C73.9255 8 74.0527 7.94732 74.1464 7.85355L77.6464 4.35355C77.8417 4.15829 77.8417 3.84171 77.6464 3.64645L74.1464 0.146446C74.0527 0.052678 73.9255 0 73.7929 0H71.2071C70.7617 0 70.5386 0.538571 70.8536 0.853553L73.6464 3.64645C73.8417 3.84171 73.8417 4.15829 73.6464 4.35355L70.8536 7.14645C70.5386 7.46143 70.7617 8 71.2071 8H73.7929Z" fill="#10B1E8"/>
<path d="M80.7929 8C80.9255 8 81.0527 7.94732 81.1464 7.85355L84.6464 4.35355C84.8417 4.15829 84.8417 3.84171 84.6464 3.64645L81.1464 0.146446C81.0527 0.052678 80.9255 0 80.7929 0H78.2071C77.7617 0 77.5386 0.538571 77.8536 0.853553L80.6464 3.64645C80.8417 3.84171 80.8417 4.15829 80.6464 4.35355L77.8536 7.14645C77.5386 7.46143 77.7617 8 78.2071 8H80.7929Z" fill="#10B1E8"/>
</svg>
