<svg width="32" height="32" viewBox="0 0 32 32" fill="none" xmlns="http://www.w3.org/2000/svg">
<g clip-path="url(#clip0)">
<path d="M14.3999 19.7333H0.533203V21.8667H31.4665V19.7333H14.3999Z" fill="#DADADA"/>
<path d="M30.3999 6.39996H17.5999C17.0116 6.40179 16.535 6.87835 16.5332 7.46663V14.9333C16.535 15.5216 17.0116 15.9981 17.5999 16H22.9332V10.1333H25.0665V16H30.3999C30.9882 15.9981 31.4647 15.5216 31.4665 14.9333V7.46663C31.4647 6.87835 30.9882 6.40179 30.3999 6.39996Z" fill="#DADADA"/>
<path d="M9.06673 11.2V12.2667L8.00006 13.3333L6.9334 12.2667V11.2H3.7334V19.7333H12.2667V11.2H9.06673Z" fill="#DADADA"/>
<path d="M11.2001 3.51458C12.1704 3.08671 12.7977 2.12734 12.8001 1.06666V0.533325H4.80007C4.21178 0.535148 3.73522 1.01171 3.7334 1.59999V3.73333H10.1334C10.5001 3.73306 10.8628 3.65859 11.2001 3.51458Z" fill="#DADADA"/>
<path d="M30.4 16.5333C31.2836 16.5333 32 15.8169 32 14.9333V7.46667C32 6.58307 31.2836 5.86667 30.4 5.86667H17.6C16.7164 5.86667 16 6.58307 16 7.46667V14.9333C16 15.8169 16.7164 16.5333 17.6 16.5333H22.4V17.6H21.3333C20.4497 17.6 19.7333 18.3164 19.7333 19.2H14.9333V13.3333C14.9328 12.626 14.6523 11.9479 14.1531 11.4469C13.818 11.1112 13.3987 10.8716 12.9393 10.7536C12.7201 10.6943 12.4938 10.6651 12.2667 10.6667H9.6V9.54089C9.64375 9.53125 9.6901 9.52578 9.73177 9.51406C10.9109 9.21328 11.7354 8.15026 11.7333 6.93333V3.83307C12.7203 3.26068 13.3294 2.20755 13.3333 1.06667V0H4.8C3.91641 0 3.2 0.716406 3.2 1.6V4.26667H4.26667V6.93333C4.26328 8.14583 5.08177 9.20651 6.25547 9.51094C6.30287 9.52422 6.35208 9.53021 6.4 9.54037V10.6667H3.73333C3.51068 10.6656 3.28854 10.6943 3.0737 10.7526C1.89297 11.0523 1.06641 12.1151 1.06667 13.3333V19.2H0V22.4H1.06667V32H2.13333V22.4H29.8667V32H30.9333V22.4H32V19.2H28.2667C28.2667 18.3164 27.5503 17.6 26.6667 17.6H25.6V16.5333H30.4ZM17.6 15.4667C17.3055 15.4667 17.0667 15.2279 17.0667 14.9333V7.46667C17.0667 7.17214 17.3055 6.93333 17.6 6.93333H30.4C30.6945 6.93333 30.9333 7.17214 30.9333 7.46667V14.9333C30.9333 15.2279 30.6945 15.4667 30.4 15.4667H25.6V9.6H22.4V15.4667H17.6ZM13.3964 12.1984C13.6969 12.4997 13.8661 12.9078 13.8667 13.3333V19.2H12.8V11.8271C13.0242 11.9042 13.2281 12.031 13.3964 12.1984ZM8 12.5792L7.46667 12.0458V9.6H8.53333V12.0458L8 12.5792ZM4.26667 1.6C4.26667 1.30547 4.50547 1.06667 4.8 1.06667H12.2667C12.2646 1.91354 11.7648 2.68021 10.9909 3.02396C10.7201 3.1401 10.4281 3.2 10.1333 3.2H4.26667V1.6ZM5.33333 6.93333V4.26667C5.33333 4.26667 10.4534 4.25078 10.6133 4.22656C10.6315 4.22396 10.6495 4.22656 10.6667 4.2224V6.93333C10.6659 7.66667 10.1667 8.30547 9.45547 8.48385C9.3375 8.51745 6.6625 8.51745 6.53177 8.48047C5.82526 8.29974 5.33177 7.6625 5.33333 6.93333ZM6.4 12.4875L7.46667 13.5542V17.0667H8.53333V13.5542L9.6 12.4875V11.7333H11.7333V19.2H4.26667V11.7333H6.4V12.4875ZM2.13333 13.3333C2.1349 12.6565 2.56198 12.0539 3.2 11.8284V19.2H2.13333V13.3333ZM30.9333 20.2667V21.3333H1.06667V20.2667H30.9333ZM26.6667 18.6667C26.9612 18.6667 27.2 18.9055 27.2 19.2H20.8C20.8 18.9055 21.0388 18.6667 21.3333 18.6667H26.6667ZM24.5333 17.6H23.4667V10.6667H24.5333V17.6Z" fill="#B2B2B2"/>
<path d="M7.4668 17.6H8.53346V18.6667H7.4668V17.6Z" fill="#B2B2B2"/>
<path d="M16 30.9333H26.6667V32H16V30.9333Z" fill="#B2B2B2"/>
<path d="M27.7334 30.9333H28.8001V32H27.7334V30.9333Z" fill="#B2B2B2"/>
</g>
<defs>
<clipPath id="clip0">
<rect width="32" height="32" fill="white"/>
</clipPath>
</defs>
</svg>
