<svg width="33" height="32" viewBox="0 0 33 32" fill="none" xmlns="http://www.w3.org/2000/svg">
<path d="M20.8695 13.8667L8.06953 9.60004L3.26953 11.2L16.0695 15.4667L20.8695 13.8667Z" fill="#DADADA"/>
<path d="M28.8698 11.2L24.0698 12.8V17.2427L20.8698 18.3094V13.8667L16.0698 15.4667V31.4667L28.8698 27.2V11.2Z" fill="#DADADA"/>
<path d="M28.8695 11.2L16.0695 6.93335L11.2695 8.53335L24.0695 12.8L28.8695 11.2Z" fill="#DADADA"/>
<path d="M3.26953 11.2V27.2L16.0695 31.4667V15.4667L3.26953 11.2Z" fill="#DADADA"/>
<path d="M29.403 27.2V11.2C29.4022 11.1495 29.3944 11.0995 29.3796 11.0513C29.3754 11.0362 29.3689 11.0229 29.3634 11.0086C29.3509 10.975 29.3345 10.943 29.315 10.913C29.3069 10.9002 29.2991 10.8875 29.29 10.8752C29.2637 10.8414 29.2335 10.8107 29.1999 10.7841C29.1939 10.7797 29.1902 10.7739 29.1842 10.77H29.1816C29.179 10.77 29.1754 10.77 29.172 10.7664C29.1309 10.737 29.0858 10.7133 29.0382 10.6966L16.2382 6.42993C16.1288 6.39347 16.0105 6.39347 15.9012 6.42993L3.10117 10.6966C3.05352 10.7135 3.00846 10.737 2.96732 10.7664C2.96732 10.7664 2.96029 10.7664 2.95768 10.77C2.95247 10.7745 2.94753 10.7792 2.94284 10.7841C2.90898 10.8107 2.87852 10.8411 2.85195 10.8752C2.8431 10.8875 2.83503 10.9002 2.82695 10.913C2.80742 10.943 2.79128 10.975 2.77852 11.0086C2.77305 11.0229 2.7668 11.0362 2.76237 11.0508C2.74674 11.0989 2.73789 11.1492 2.73633 11.2V27.2C2.73633 27.4297 2.8832 27.6336 3.10117 27.7062L12.7827 30.9333H3.26966C2.97513 30.9333 2.73633 31.1721 2.73633 31.4666C2.73633 31.7612 2.97513 32 3.26966 32H28.8697C29.1642 32 29.403 31.7612 29.403 31.4666C29.403 31.1721 29.1642 30.9333 28.8697 30.9333H19.3566L29.0382 27.7062C29.2561 27.6336 29.403 27.4297 29.403 27.2ZM8.06966 10.1622L19.1827 13.8667L16.0697 14.9044L4.95612 11.2L8.06966 10.1622ZM21.3988 13.8458C21.396 13.8164 21.3908 13.7872 21.3827 13.7588C21.3816 13.7385 21.379 13.7182 21.3754 13.6982C21.3754 13.6911 21.3678 13.687 21.3658 13.6805C21.3634 13.6742 21.3566 13.656 21.3507 13.6437C21.3371 13.6187 21.3215 13.5948 21.3038 13.5724C21.2897 13.5482 21.2738 13.5252 21.2564 13.5034C21.2488 13.4953 21.2408 13.4875 21.2324 13.4799C21.2121 13.4633 21.1908 13.4484 21.1684 13.4351C21.1441 13.4161 21.1181 13.3992 21.091 13.3846C21.0798 13.3791 21.0681 13.3755 21.0564 13.3711C21.0447 13.3669 21.0452 13.3633 21.0382 13.3604L9.75612 9.59998L11.2697 9.09556L23.5363 13.1846V16.8581L21.403 17.5695V13.8667C21.403 13.8591 21.3993 13.8534 21.3988 13.8458ZM16.0697 7.49556L27.1832 11.2L24.0697 12.2377L12.9566 8.53332L16.0697 7.49556ZM3.80299 11.9403L15.5363 15.8513V30.7268L3.80299 26.8153V11.9403ZM16.603 30.7268V15.8513L20.3363 14.607V18.3094C20.3395 18.3385 20.3454 18.3674 20.354 18.3958C20.3548 18.4234 20.3582 18.4508 20.3639 18.4778C20.3639 18.4854 20.3715 18.4911 20.3741 18.4982C20.3832 18.5182 20.3936 18.5377 20.4051 18.5568C20.4238 18.595 20.4473 18.631 20.4749 18.6635C20.4897 18.6794 20.5056 18.6948 20.522 18.7094C20.5546 18.7375 20.5902 18.7614 20.6285 18.7807C20.6467 18.7898 20.6632 18.8 20.6819 18.8075C20.7418 18.8318 20.8056 18.8448 20.8702 18.8458C20.9275 18.8458 20.9845 18.8364 21.0387 18.8182L24.2387 17.7515C24.2457 17.7515 24.2504 17.7435 24.2569 17.7409C24.2921 17.7258 24.3254 17.7068 24.3561 17.6838C24.3832 17.6685 24.409 17.6505 24.4329 17.6305C24.4759 17.5786 24.5155 17.5239 24.5512 17.4667C24.572 17.4005 24.5882 17.3331 24.5993 17.2646C24.5993 17.257 24.6035 17.2513 24.6035 17.2437V13.1846L28.3369 11.9403V26.8153L16.603 30.7268Z" fill="#B2B2B2"/>
<path d="M16.0695 5.33333C16.364 5.33333 16.6028 5.09453 16.6028 4.8V0.533333C16.6028 0.238802 16.364 0 16.0695 0C15.7749 0 15.5361 0.238802 15.5361 0.533333V4.8C15.5361 5.09453 15.7749 5.33333 16.0695 5.33333Z" fill="#B2B2B2"/>
<path d="M21.403 6.93331C21.6975 6.93331 21.9363 6.69451 21.9363 6.39998V2.13331C21.9363 1.83878 21.6975 1.59998 21.403 1.59998C21.1084 1.59998 20.8696 1.83878 20.8696 2.13331V6.39998C20.8696 6.69451 21.1084 6.93331 21.403 6.93331Z" fill="#B2B2B2"/>
<path d="M26.7365 8.53335C27.031 8.53335 27.2698 8.29454 27.2698 8.00001V3.73335C27.2698 3.43881 27.031 3.20001 26.7365 3.20001C26.4419 3.20001 26.2031 3.43881 26.2031 3.73335V8.00001C26.2031 8.29454 26.4419 8.53335 26.7365 8.53335Z" fill="#B2B2B2"/>
<path d="M10.2033 6.93331C10.4978 6.93331 10.7366 6.69451 10.7366 6.39998V2.13331C10.7366 1.83878 10.4978 1.59998 10.2033 1.59998C9.90872 1.59998 9.66992 1.83878 9.66992 2.13331V6.39998C9.66992 6.69451 9.90872 6.93331 10.2033 6.93331Z" fill="#B2B2B2"/>
<path d="M4.86976 8.53335C5.16429 8.53335 5.40309 8.29454 5.40309 8.00001V3.73335C5.40309 3.43881 5.16429 3.20001 4.86976 3.20001C4.57523 3.20001 4.33643 3.43881 4.33643 3.73335V8.00001C4.33643 8.29454 4.57523 8.53335 4.86976 8.53335Z" fill="#B2B2B2"/>
</svg>
