<svg width="50" height="54" viewBox="0 0 50 54" fill="none" xmlns="http://www.w3.org/2000/svg">
<path d="M40.714 23.3929L41.8815 21.3708C42.7948 21.5405 43.7163 21.1182 44.1841 20.3158L45.2841 18.4105C46.3363 19.018 47.6819 18.6574 48.2894 17.6052C48.8969 16.5531 48.5363 15.2075 47.4842 14.6L24.6211 1.39999C23.5689 0.792517 22.2233 1.15307 21.6158 2.20524C21.0083 3.25741 21.3689 4.60303 22.4211 5.2105L21.3211 7.11576C20.8601 7.92213 20.9551 8.93128 21.5587 9.63744C21.5587 9.63744 20.0229 12.352 19.8634 12.7056C19.851 12.727 19.8389 12.7481 19.834 12.773C18.04 16.8407 18.6879 21.5715 21.5094 25.0069C16.6768 24.2035 11.8511 26.4753 9.39125 30.7122L8.22375 32.7343C7.31038 32.5646 6.38891 32.9869 5.92108 33.7893L4.82108 35.6946C3.76891 35.0871 2.42329 35.4477 1.81582 36.4999C1.20835 37.552 1.5689 38.8976 2.62107 39.5051L25.4841 52.7051C26.5363 53.3126 27.8819 52.952 28.4894 51.8999C29.0969 50.8477 28.7363 49.5021 27.6841 48.8946L28.7841 46.9893C29.2452 46.183 29.1501 45.1738 28.5465 44.4677L29.714 42.4455C31.2788 39.7538 31.6985 36.5475 30.8796 33.5438C30.4457 31.9148 29.666 30.3979 28.594 29.0971C33.427 29.902 38.2538 27.6304 40.714 23.3929ZM21.6614 12.3929L22.7614 10.4877L40.5438 20.7543L39.4438 22.6596C39.3903 22.7523 39.3286 22.837 39.2729 22.9277C38.0232 22.5134 36.7327 22.2343 35.4235 22.0949C33.0652 21.8762 30.7885 21.1195 28.7684 19.8833C26.6886 18.7519 24.8948 17.1602 23.5244 15.2291C22.8906 14.3782 22.1924 13.5773 21.4361 12.8334C21.5088 12.6852 21.5782 12.5371 21.6614 12.3929ZM22.886 2.93858C23.0885 2.58785 23.537 2.46767 23.8877 2.67016L46.7508 15.8702C47.1015 16.0727 47.2217 16.5212 47.0192 16.8719C46.8167 17.2226 46.3682 17.3428 46.0175 17.1403L23.1544 3.94033C22.8037 3.73784 22.6835 3.2893 22.886 2.93858ZM44.014 17.6772L42.914 19.5824C42.7115 19.9331 42.263 20.0533 41.9122 19.8508L22.8597 8.85084C22.5089 8.64835 22.3888 8.19981 22.5912 7.84909L23.6912 5.94383L44.014 17.6772ZM27.2192 51.1665C27.0167 51.5172 26.5682 51.6374 26.2175 51.4349L3.35441 38.2349C3.00368 38.0324 2.8835 37.5839 3.08599 37.2332C3.28848 36.8825 3.73702 36.7623 4.08774 36.9648L26.9508 50.1648C27.3015 50.3673 27.4217 50.8158 27.2192 51.1665ZM6.09125 36.4279L7.19125 34.5227C7.39374 34.1719 7.84227 34.0518 8.193 34.2543L27.2456 45.2543C27.5963 45.4567 27.7165 45.9053 27.514 46.256L26.414 48.1613L6.09125 36.4279ZM12.7368 35.1841L14.7598 34.3199C16.6702 33.5039 18.8534 33.6348 20.6526 34.6736C22.4518 35.7123 23.6568 37.5376 23.9053 39.6L24.1684 41.7841L12.7368 35.1841ZM27.3 27.2664C27.2746 27.2588 27.2482 27.2551 27.2217 27.2559C26.9128 27.1843 26.5932 27.3218 26.4327 27.5955L26.2129 27.9763C26.0558 28.2519 26.0965 28.5975 26.3133 28.8293C26.3258 28.8527 26.3424 28.8734 26.3618 28.8913C30.0026 32.1336 30.8715 37.4844 28.4438 41.7122L27.3438 43.6174L25.7561 42.7008L25.3613 39.4243C25.0576 36.9038 23.5849 34.673 21.3859 33.4034C19.187 32.1339 16.5187 31.9739 14.184 32.9711L11.1491 34.2674L9.56142 33.3508L10.6614 31.4455C13.1076 27.228 18.177 25.3045 22.8052 26.8387C23.1355 26.9492 23.4981 26.8117 23.6725 26.5096L23.8924 26.1288C24.0668 25.8268 24.0045 25.444 23.7438 25.2132C20.6764 22.4801 19.5283 18.1845 20.8225 14.2856C21.3705 14.8712 21.8858 15.4862 22.3659 16.1285C23.8531 18.2089 25.7911 19.9269 28.0351 21.1534C30.2208 22.4853 32.6798 23.3042 35.2275 23.5487C36.2914 23.6652 37.3426 23.8756 38.3695 24.1774C35.651 27.3619 31.2747 28.5833 27.3 27.2664Z" fill="#10B1E8"/>
</svg>
