<svg width="49" height="48" viewBox="0 0 49 48" fill="none" xmlns="http://www.w3.org/2000/svg">
<g clip-path="url(#clip0)">
<path d="M21.7048 29.6001H0.904785V32.8001H47.3048V29.6001H21.7048Z" fill="#8CD8F2"/>
<path d="M45.7048 9.6001H26.5048C25.6224 9.60283 24.9075 10.3177 24.9048 11.2001V22.4001C24.9075 23.2825 25.6224 23.9974 26.5048 24.0001H34.5048V15.2001H37.7048V24.0001H45.7048C46.5872 23.9974 47.3021 23.2825 47.3048 22.4001V11.2001C47.3021 10.3177 46.5872 9.60283 45.7048 9.6001Z" fill="#8CD8F2"/>
<path d="M13.7046 16.8V18.4L12.1046 20L10.5046 18.4V16.8H5.70459V29.6H18.5046V16.8H13.7046Z" fill="#8CD8F2"/>
<path d="M16.9046 5.27192C18.3601 4.63013 19.3011 3.19106 19.3046 1.60005V0.800049H7.30459C6.42217 0.802783 5.70732 1.51763 5.70459 2.40005V5.60005H15.3046C15.8546 5.59966 16.3987 5.48794 16.9046 5.27192Z" fill="#8CD8F2"/>
<path d="M45.705 24.8C47.0304 24.8 48.105 23.7254 48.105 22.4V11.2C48.105 9.87461 47.0304 8.8 45.705 8.8H26.505C25.1796 8.8 24.105 9.87461 24.105 11.2V22.4C24.105 23.7254 25.1796 24.8 26.505 24.8H33.705V26.4H32.105C30.7796 26.4 29.705 27.4746 29.705 28.8H22.505V20C22.5042 18.9391 22.0835 17.9219 21.3347 17.1703C20.8319 16.6668 20.203 16.3074 19.514 16.1305C19.1851 16.0414 18.8456 15.9977 18.505 16H14.505V14.3113C14.5706 14.2969 14.6401 14.2887 14.7026 14.2711C16.4714 13.8199 17.7081 12.2254 17.705 10.4V5.74961C19.1854 4.89102 20.0991 3.31133 20.105 1.6V0H7.30498C5.97959 0 4.90498 1.07461 4.90498 2.4V6.4H6.50498V10.4C6.4999 12.2188 7.72764 13.8098 9.48818 14.2664C9.55928 14.2863 9.63311 14.2953 9.70498 14.3105V16H5.70498C5.371 15.9984 5.03779 16.0414 4.71553 16.1289C2.94443 16.5785 1.70459 18.1727 1.70498 20V28.8H0.10498V33.6H1.70498V48H3.30498V33.6H44.905V48H46.505V33.6H48.105V28.8H42.505C42.505 27.4746 41.4304 26.4 40.105 26.4H38.505V24.8H45.705ZM26.505 23.2C26.0632 23.2 25.705 22.8418 25.705 22.4V11.2C25.705 10.7582 26.0632 10.4 26.505 10.4H45.705C46.1468 10.4 46.505 10.7582 46.505 11.2V22.4C46.505 22.8418 46.1468 23.2 45.705 23.2H38.505V14.4H33.705V23.2H26.505ZM20.1995 18.2977C20.6503 18.7496 20.9042 19.3617 20.905 20V28.8H19.305V17.7406C19.6413 17.8563 19.9472 18.0465 20.1995 18.2977ZM12.105 18.8687L11.305 18.0688V14.4H12.905V18.0688L12.105 18.8687ZM6.50498 2.4C6.50498 1.9582 6.86318 1.6 7.30498 1.6H18.505C18.5019 2.87031 17.7522 4.02031 16.5913 4.53594C16.1851 4.71016 15.7472 4.8 15.305 4.8H6.50498V2.4ZM8.10498 10.4V6.4C8.10498 6.4 15.7851 6.37617 16.0249 6.33984C16.0522 6.33594 16.0792 6.33984 16.105 6.33359V10.4C16.1038 11.5 15.355 12.4582 14.2882 12.7258C14.1112 12.7762 10.0987 12.7762 9.90264 12.7207C8.84287 12.4496 8.10264 11.4938 8.10498 10.4ZM9.70498 18.7313L11.305 20.3313V25.6H12.905V20.3313L14.505 18.7313V17.6H17.705V28.8H6.50498V17.6H9.70498V18.7313ZM3.30498 20C3.30732 18.9848 3.94795 18.0809 4.90498 17.7426V28.8H3.30498V20ZM46.505 30.4V32H1.70498V30.4H46.505ZM40.105 28C40.5468 28 40.905 28.3582 40.905 28.8H31.305C31.305 28.3582 31.6632 28 32.105 28H40.105ZM36.905 26.4H35.305V16H36.905V26.4Z" fill="#10B1E8"/>
<path d="M11.3052 26.4H12.9052V28H11.3052V26.4Z" fill="#10B1E8"/>
<path d="M24.105 46.4H40.105V48H24.105V46.4Z" fill="#10B1E8"/>
<path d="M41.7051 46.4H43.3051V48H41.7051V46.4Z" fill="#10B1E8"/>
</g>
<defs>
<clipPath id="clip0">
<rect width="48" height="48" fill="white" transform="translate(0.10498)"/>
</clipPath>
</defs>
</svg>
