<svg width="49" height="44" viewBox="0 0 49 44" fill="none" xmlns="http://www.w3.org/2000/svg">
<path d="M44.0073 37.7696C44.0194 37.7153 44.0241 37.6559 44.0339 37.6H47.305C47.7468 37.6 48.105 37.2418 48.105 36.8V30.4C48.105 29.9583 47.7468 29.6 47.305 29.6H46.505V22.4C46.5046 22.2422 46.4581 22.0875 46.3706 21.9559L39.9706 12.3559C39.8222 12.1336 39.5726 12 39.305 12H32.105V1.60005C32.105 1.15825 31.7468 0.800049 31.305 0.800049H0.90498C0.463184 0.800049 0.10498 1.15825 0.10498 1.60005C0.10498 2.04185 0.463184 2.40005 0.90498 2.40005H30.505V29.6H3.30498V17.6C3.30498 17.1583 2.94678 16.8 2.50498 16.8C2.06318 16.8 1.70498 17.1583 1.70498 17.6V29.6H0.90498C0.463184 29.6 0.10498 29.9583 0.10498 30.4V36.8C0.10498 37.2418 0.463184 37.6 0.90498 37.6H7.37529C7.38506 37.652 7.38975 37.709 7.40029 37.7602C7.85264 39.9969 9.81709 41.6059 12.0991 41.6086C14.3812 41.6114 16.3495 40.0071 16.8073 37.7711C16.8194 37.7168 16.8241 37.6575 16.8339 37.6016H34.5753C34.5851 37.6536 34.5897 37.7106 34.6003 37.7618C35.0526 39.9985 37.0171 41.6075 39.2991 41.6102C41.5812 41.6129 43.5495 40.0086 44.0073 37.7727V37.7696ZM32.105 13.6H38.8769L44.905 22.6399V24H34.505C34.0632 24 33.705 24.3582 33.705 24.8C33.705 25.2418 34.0632 25.6 34.505 25.6H44.905V29.6H32.105V13.6ZM1.70498 31.2H46.505V36H44.0386C44.0386 35.9817 44.028 35.9649 44.0241 35.9465C43.9804 35.7055 43.9187 35.4684 43.8386 35.2368C43.8241 35.1954 43.8081 35.1567 43.7929 35.1122C43.7077 34.8848 43.6058 34.6641 43.4874 34.452C43.4698 34.4215 43.4507 34.393 43.4331 34.3625C43.3058 34.145 43.1616 33.9375 43.0019 33.7426L42.9882 33.7274C42.8265 33.5348 42.6495 33.3559 42.4593 33.1911C42.4378 33.1719 42.4187 33.152 42.3972 33.1344C42.2101 32.9778 42.0112 32.8356 41.8026 32.709C41.7675 32.6872 41.7331 32.6657 41.6972 32.645C41.4878 32.5239 41.2698 32.4192 41.0448 32.3313L40.9257 32.2872C40.6913 32.2024 40.4507 32.1356 40.2058 32.0879C40.1737 32.0817 40.1417 32.0786 40.1097 32.0727C39.5772 31.9758 39.0312 31.9758 38.4987 32.0727C38.4667 32.0786 38.4347 32.0817 38.4026 32.0879C38.1577 32.1356 37.9171 32.2024 37.6827 32.2872L37.5636 32.3313C37.3386 32.4192 37.1206 32.5239 36.9112 32.645C36.8753 32.6657 36.8409 32.6872 36.8058 32.709C36.5972 32.8356 36.3983 32.9778 36.2112 33.1344C36.1897 33.152 36.1706 33.1719 36.1491 33.1911C35.9589 33.3559 35.7819 33.5348 35.6202 33.7274L35.6065 33.7426C35.4468 33.9375 35.3026 34.1454 35.1753 34.3633C35.1577 34.393 35.1386 34.4215 35.1218 34.452C35.0026 34.6637 34.9003 34.8844 34.8155 35.1122C34.8003 35.1536 34.7843 35.1922 34.7698 35.2368C34.6897 35.4684 34.6276 35.7055 34.5843 35.9465C34.5804 35.9649 34.5729 35.9817 34.5698 36H16.8386C16.8386 35.9817 16.828 35.9649 16.8241 35.9465C16.7804 35.7055 16.7187 35.4684 16.6386 35.2368C16.6241 35.1954 16.6081 35.1567 16.5929 35.1122C16.5077 34.8848 16.4058 34.6641 16.2874 34.452C16.2698 34.4215 16.2507 34.393 16.2331 34.3625C16.1058 34.145 15.9616 33.9375 15.8019 33.7426L15.7882 33.7274C15.6265 33.5348 15.4495 33.3559 15.2593 33.1911C15.2378 33.1719 15.2187 33.152 15.1972 33.1344C15.0101 32.9778 14.8112 32.8356 14.6026 32.709C14.5675 32.6872 14.5331 32.6657 14.4972 32.645C14.2878 32.5239 14.0698 32.4192 13.8448 32.3313L13.7257 32.2872C13.4913 32.2024 13.2507 32.1356 13.0058 32.0879C12.9737 32.0817 12.9417 32.0786 12.9097 32.0727C12.3772 31.9758 11.8312 31.9758 11.2987 32.0727C11.2667 32.0786 11.2347 32.0817 11.2026 32.0879C10.9577 32.1356 10.7171 32.2024 10.4827 32.2872L10.3636 32.3313C10.1386 32.4192 9.92061 32.5239 9.71123 32.645C9.67529 32.6657 9.64092 32.6872 9.60576 32.709C9.39717 32.8356 9.19834 32.9778 9.01123 33.1344C8.98975 33.152 8.97061 33.1719 8.94912 33.1911C8.75889 33.3559 8.58193 33.5348 8.42021 33.7274L8.40654 33.7426C8.24678 33.9375 8.10264 34.1454 7.97529 34.3633C7.95772 34.393 7.93857 34.4215 7.92178 34.452C7.80264 34.6637 7.70029 34.8844 7.61553 35.1122C7.60029 35.1536 7.58428 35.1922 7.56982 35.2368C7.48975 35.4684 7.42764 35.7055 7.38428 35.9465C7.38037 35.9649 7.37295 35.9817 7.36982 36H1.70498V31.2ZM15.2409 37.4399C14.9378 38.9336 13.6233 40.0063 12.0991 40.0036C10.5749 40.0008 9.26436 38.9235 8.9667 37.429C8.92373 37.2219 8.90342 37.0114 8.90498 36.8C8.90498 35.0329 10.3378 33.6 12.105 33.6C13.8722 33.6 15.305 35.0329 15.305 36.8C15.3065 37.0149 15.2851 37.2297 15.2409 37.4399ZM42.4409 37.4399C42.1378 38.9336 40.8233 40.0063 39.2991 40.0036C37.7749 40.0008 36.4644 38.9235 36.1667 37.429C36.1237 37.2219 36.1034 37.0114 36.105 36.8C36.105 35.0329 37.5378 33.6 39.305 33.6C41.0722 33.6 42.505 35.0329 42.505 36.8C42.5065 37.0149 42.4851 37.2297 42.4409 37.4399Z" fill="#10B1E8"/>
<path d="M12.1051 34.4C10.7797 34.4 9.70508 35.4746 9.70508 36.8C9.70508 38.1254 10.7797 39.2 12.1051 39.2C13.4305 39.2 14.5051 38.1254 14.5051 36.8C14.5051 35.4746 13.4305 34.4 12.1051 34.4ZM12.1051 37.6C11.6633 37.6 11.3051 37.2418 11.3051 36.8C11.3051 36.3582 11.6633 36 12.1051 36C12.5469 36 12.9051 36.3582 12.9051 36.8C12.9051 37.2418 12.5469 37.6 12.1051 37.6Z" fill="#10B1E8"/>
<path d="M39.3048 34.4C37.9794 34.4 36.9048 35.4746 36.9048 36.8C36.9048 38.1254 37.9794 39.2 39.3048 39.2C40.6302 39.2 41.7048 38.1254 41.7048 36.8C41.7048 35.4746 40.6302 34.4 39.3048 34.4ZM39.3048 37.6C38.863 37.6 38.5048 37.2418 38.5048 36.8C38.5048 36.3582 38.863 36 39.3048 36C39.7466 36 40.1048 36.3582 40.1048 36.8C40.1048 37.2418 39.7466 37.6 39.3048 37.6Z" fill="#10B1E8"/>
<path d="M34.5051 22.4001H41.7051C42.0047 22.3997 42.2789 22.2321 42.4156 21.9661C42.5527 21.6997 42.5293 21.379 42.3555 21.1352L38.3555 15.5352C38.2055 15.3251 37.9633 15.2005 37.7051 15.2001H34.5051C34.0633 15.2001 33.7051 15.5583 33.7051 16.0001V21.6001C33.7051 22.0419 34.0633 22.4001 34.5051 22.4001ZM35.3051 16.8001H37.293L40.1508 20.8001H35.3051V16.8001Z" fill="#10B1E8"/>
<path d="M0.90498 5.6H4.10498C4.54678 5.6 4.90498 5.2418 4.90498 4.8C4.90498 4.3582 4.54678 4 4.10498 4H0.90498C0.463184 4 0.10498 4.3582 0.10498 4.8C0.10498 5.2418 0.463184 5.6 0.90498 5.6Z" fill="#10B1E8"/>
<path d="M24.1051 5.6C24.5469 5.6 24.9051 5.2418 24.9051 4.8C24.9051 4.3582 24.5469 4 24.1051 4H6.50508C6.06328 4 5.70508 4.3582 5.70508 4.8C5.70508 5.2418 6.06328 5.6 6.50508 5.6H24.1051Z" fill="#10B1E8"/>
<path d="M0.90498 8.80007H20.105C20.5468 8.80007 20.905 8.44187 20.905 8.00007C20.905 7.55828 20.5468 7.20007 20.105 7.20007H0.90498C0.463184 7.20007 0.10498 7.55828 0.10498 8.00007C0.10498 8.44187 0.463184 8.80007 0.90498 8.80007Z" fill="#10B1E8"/>
<path d="M0.90498 12H13.705C14.1468 12 14.505 11.6418 14.505 11.2C14.505 10.7582 14.1468 10.4 13.705 10.4H0.90498C0.463184 10.4 0.10498 10.7582 0.10498 11.2C0.10498 11.6418 0.463184 12 0.90498 12Z" fill="#10B1E8"/>
<path d="M0.90498 15.2001H8.10498C8.54678 15.2001 8.90498 14.8419 8.90498 14.4001C8.90498 13.9583 8.54678 13.6001 8.10498 13.6001H0.90498C0.463184 13.6001 0.10498 13.9583 0.10498 14.4001C0.10498 14.8419 0.463184 15.2001 0.90498 15.2001Z" fill="#10B1E8"/>
<path d="M0.90498 41.6001C0.463184 41.6001 0.10498 41.9583 0.10498 42.4001C0.10498 42.8419 0.463184 43.2001 0.90498 43.2001H47.305C47.7468 43.2001 48.105 42.8419 48.105 42.4001C48.105 41.9583 47.7468 41.6001 47.305 41.6001H0.90498Z" fill="#10B1E8"/>
</svg>
