<svg width="32" height="32" viewBox="0 0 32 32" fill="none" xmlns="http://www.w3.org/2000/svg">
<g clip-path="url(#clip0)">
<path d="M11.2052 18.6666L11.2062 18.6731L14.3997 21.8666L15.9997 19.7333L13.8664 18.1333L11.1997 18.6666L11.2062 18.6731L11.2052 18.6666Z" fill="#DADADA"/>
<path d="M20.7937 18.6731L20.7948 18.6666L20.7937 18.6731L20.8 18.6666L18.1333 18.1333L16 19.7333L17.6 21.8666L20.7937 18.6731Z" fill="#DADADA"/>
<path d="M16.3522 7.28541C16.8157 6.82005 17.1662 6.25442 17.3761 5.63202C17.3709 5.63723 17.3761 5.63723 17.3761 5.63723C17.905 6.75468 19.0306 7.46718 20.2668 7.46666H20.8001V8.53333H21.3334C21.922 8.5315 22.3983 8.05494 22.4001 7.46666V5.86666C22.4001 2.92109 20.0123 0.533325 17.0668 0.533325H14.9334C11.9879 0.533325 9.6001 2.92109 9.6001 5.86666V7.46666C9.60192 8.05494 10.0785 8.5315 10.6668 8.53333H13.8668C14.8139 8.41484 15.6915 7.97421 16.3522 7.28541Z" fill="#DADADA"/>
<path d="M20.7686 11.7333H20.8001C21.6837 11.7333 22.4001 11.0169 22.4001 10.1333C22.4001 9.24973 21.6837 8.53333 20.8001 8.53333V11.2C20.7995 11.3781 20.7891 11.5562 20.7686 11.7333Z" fill="#DADADA"/>
<path d="M15.9999 24L14.9226 22.5638L14.3999 31.4667H17.5999L17.1098 22.5206L15.9999 24ZM14.9174 22.976L14.928 22.5706L14.9174 22.976Z" fill="#DADADA"/>
<path d="M21.1199 18.7404L20.7998 18.6667L20.7936 18.6732L18.6665 31.4667H27.7332V27.055C27.7332 23.0818 24.9912 19.6341 21.1199 18.7404Z" fill="#DADADA"/>
<path d="M11.1999 18.6667L10.8799 18.7404C7.00879 19.6341 4.2666 23.0818 4.2666 27.055V31.4667H13.3333L11.2064 18.6732L11.1999 18.6667Z" fill="#DADADA"/>
<path d="M9.6001 10.1333C9.6001 11.0169 10.3165 11.7333 11.2001 11.7333H11.2316C11.2113 11.5562 11.2006 11.3781 11.2001 11.2V8.53333C10.3165 8.53333 9.6001 9.24973 9.6001 10.1333Z" fill="#DADADA"/>
<path d="M14.9226 22.5638V22.5599V22.5638L15.9999 24L17.5999 21.8667L15.9999 19.7333L14.3999 21.8667L14.9226 22.5638Z" fill="#DADADA"/>
<path d="M21.2387 18.2203L18.6668 17.6977V15.8117C19.9996 15.0406 20.9348 13.732 21.2327 12.2214C21.9876 12.0677 22.6001 11.5177 22.8335 10.7836C23.0671 10.0497 22.8848 9.24688 22.3574 8.68542C22.721 8.3849 22.9319 7.93828 22.9335 7.46667V5.86667C22.9298 2.62813 20.3053 0.00390625 17.0668 0H14.9335C11.6949 0.00390625 9.0707 2.62813 9.06679 5.86667V7.46667C9.06835 7.93828 9.27955 8.3849 9.64283 8.68542C9.11809 9.24766 8.93736 10.0495 9.1707 10.7826C9.40377 11.5154 10.0144 12.0656 10.7676 12.2214C11.0657 13.732 12.0009 15.0406 13.3335 15.8117V17.6961L10.7618 18.2203C6.63919 19.1562 3.71835 22.8279 3.73346 27.0555V31.4667C3.73346 31.7612 3.97226 32 4.26679 32H27.7335C28.028 32 28.2668 31.7612 28.2668 31.4667V27.0555C28.2822 22.8279 25.3613 19.1562 21.2387 18.2203ZM13.7389 18.7034L15.2535 19.8401L14.3421 21.0549L12.2861 18.999L13.7389 18.7034ZM18.2626 18.7034L19.7186 18.9948L17.6577 21.0555L16.7467 19.8401L18.2626 18.7034ZM14.3793 22.7281L13.8973 30.9333H13.7853L12.0051 20.2255L14.3793 22.7281ZM15.0668 21.8667L16.0001 20.6224L16.9335 21.8667L16.0001 23.1109L15.0668 21.8667ZM19.9954 20.2255L18.2152 30.9333H18.103L17.6264 22.7201L19.9954 20.2255ZM21.5538 10.887C21.4881 10.9513 21.4139 11.0065 21.3335 11.0513V9.21484C21.6207 9.37917 21.8147 9.66823 21.8579 9.99636C21.9012 10.3245 21.7887 10.6539 21.5538 10.887ZM10.1335 5.86667C10.1366 3.21693 12.2837 1.06953 14.9335 1.06667H17.0668C19.7165 1.06953 21.8639 3.21693 21.8668 5.86667V7.46667C21.8668 7.7612 21.628 8 21.3335 8V7.46667C21.3335 7.17214 21.0947 6.93333 20.8001 6.93333H20.2668C19.253 6.93099 18.3277 6.35547 17.8769 5.4474C17.798 5.23229 17.5907 5.09167 17.3618 5.09792C17.1329 5.10391 16.9335 5.25573 16.8663 5.47474C16.6816 6.01302 16.3775 6.5026 15.9767 6.90677C15.4126 7.49297 14.6712 7.87708 13.8668 8H10.6668C10.3723 8 10.1335 7.7612 10.1335 7.46667V5.86667ZM10.1335 10.1333C10.1348 9.75391 10.3379 9.40391 10.6668 9.21484V11.0518C10.3348 10.8659 10.1303 10.5138 10.1335 10.1333ZM11.7335 11.2V9.06667H13.8668C14.9556 8.94688 15.9681 8.45026 16.7293 7.6625C17.0103 7.38073 17.2548 7.0651 17.4572 6.72266C18.1671 7.53203 19.1905 7.99714 20.2668 8V11.2C20.2668 13.5565 18.3566 15.4667 16.0001 15.4667C13.6439 15.4667 11.7335 13.5565 11.7335 11.2ZM16.0001 16.5333C16.5428 16.5333 17.0824 16.4505 17.6001 16.2875V17.8667L16.0001 19.0667L14.4001 17.8667V16.2875C14.9178 16.4505 15.4574 16.5333 16.0001 16.5333ZM4.80012 27.0555C4.78814 23.4148 7.24804 20.2302 10.7736 19.3221L12.7043 30.9333H9.06679V26.1333C9.06679 25.8388 8.82799 25.6 8.53346 25.6C8.23893 25.6 8.00012 25.8388 8.00012 26.1333V30.9333H4.80012V27.0555ZM14.966 30.9333L15.3691 24.0474L15.5736 24.3201C15.6743 24.4542 15.8324 24.5333 16.0001 24.5333C16.1681 24.5333 16.3262 24.4542 16.4269 24.3201L16.6348 24.0422L17.0348 30.9333H14.966ZM27.2001 30.9333H24.0001V26.1333C24.0001 25.8388 23.7613 25.6 23.4668 25.6C23.1723 25.6 22.9335 25.8388 22.9335 26.1333V30.9333H19.2962L21.2269 19.3227C24.7522 20.2307 27.2121 23.4151 27.2001 27.0555V30.9333Z" fill="#B2B2B2"/>
</g>
<defs>
<clipPath id="clip0">
<rect width="32" height="32" fill="white"/>
</clipPath>
</defs>
</svg>
