<svg width="41" height="48" viewBox="0 0 41 48" fill="none" xmlns="http://www.w3.org/2000/svg">
<path d="M40.105 40.8V16.8C40.1038 16.7242 40.0921 16.6492 40.0698 16.5769C40.0636 16.5543 40.0538 16.5344 40.0456 16.5129C40.0269 16.4625 40.0022 16.4144 39.9729 16.3695C39.9608 16.3504 39.9491 16.3312 39.9355 16.3129C39.896 16.2621 39.8507 16.216 39.8003 16.1761C39.7913 16.1695 39.7858 16.1609 39.7769 16.1551H39.7729C39.769 16.1551 39.7636 16.1551 39.7585 16.1496C39.6968 16.1054 39.6292 16.0699 39.5577 16.0449L20.3577 9.6449C20.1937 9.59021 20.0163 9.59021 19.8522 9.6449L0.652246 16.0449C0.580762 16.0703 0.513184 16.1054 0.451465 16.1496C0.451465 16.1496 0.440918 16.1496 0.437012 16.1551C0.429199 16.1617 0.421777 16.1687 0.414746 16.1761C0.363965 16.216 0.318262 16.2617 0.278418 16.3129C0.265137 16.3312 0.253027 16.3504 0.240918 16.3695C0.211621 16.4144 0.187402 16.4625 0.168262 16.5129C0.160059 16.5344 0.150684 16.5543 0.144043 16.5761C0.120605 16.6484 0.107324 16.7238 0.10498 16.8V40.8C0.10498 41.1445 0.325293 41.4504 0.652246 41.5594L15.1745 46.4H0.90498C0.463184 46.4 0.10498 46.7582 0.10498 47.2C0.10498 47.6418 0.463184 48 0.90498 48H39.305C39.7468 48 40.105 47.6418 40.105 47.2C40.105 46.7582 39.7468 46.4 39.305 46.4H25.0354L39.5577 41.5594C39.8847 41.4504 40.105 41.1445 40.105 40.8ZM8.10498 15.2433L24.7745 20.8L20.105 22.3566L3.43467 16.8L8.10498 15.2433ZM28.0987 20.7687C28.0944 20.7246 28.0866 20.6808 28.0745 20.6383C28.073 20.6078 28.069 20.5773 28.0636 20.5472C28.0636 20.5367 28.0522 20.5304 28.0491 20.5207C28.0456 20.5113 28.0354 20.484 28.0265 20.4656C28.0062 20.4281 27.9827 20.3922 27.9562 20.3586C27.9351 20.3222 27.9112 20.2879 27.8851 20.2551C27.8737 20.2429 27.8616 20.2312 27.8491 20.2199C27.8187 20.1949 27.7866 20.1726 27.753 20.1527C27.7167 20.1242 27.6776 20.0988 27.637 20.0769C27.6202 20.0687 27.6026 20.0633 27.5851 20.0566C27.5675 20.0504 27.5683 20.0449 27.5577 20.0406L10.6347 14.4L12.905 13.6433L31.305 19.7769V25.2871L28.105 26.3543V20.8C28.105 20.7886 28.0995 20.7801 28.0987 20.7687ZM20.105 11.2433L36.7753 16.8L32.105 18.3566L15.4354 12.8L20.105 11.2433ZM1.70498 17.9105L19.305 23.7769V46.0902L1.70498 40.223V17.9105ZM20.905 46.0902V23.7769L26.505 21.9105V27.464C26.5097 27.5078 26.5187 27.5511 26.5315 27.5937C26.5327 27.6351 26.5378 27.6761 26.5464 27.7168C26.5464 27.7281 26.5577 27.7367 26.5616 27.7472C26.5753 27.7773 26.5909 27.8066 26.6081 27.8351C26.6362 27.8926 26.6714 27.9465 26.7128 27.9953C26.7351 28.0191 26.7589 28.0422 26.7835 28.064C26.8323 28.1062 26.8858 28.1422 26.9433 28.1711C26.9706 28.1847 26.9952 28.2 27.0233 28.2113C27.1132 28.2476 27.2089 28.2672 27.3058 28.2687C27.3917 28.2687 27.4772 28.2547 27.5585 28.2273L32.3585 26.6273C32.369 26.6273 32.3761 26.6152 32.3858 26.6113C32.4386 26.5886 32.4886 26.5601 32.5347 26.5258C32.5753 26.5027 32.614 26.4758 32.6499 26.4457C32.7144 26.3679 32.7737 26.2859 32.8272 26.2C32.8585 26.1008 32.8827 25.9996 32.8995 25.8969C32.8995 25.8855 32.9058 25.8769 32.9058 25.8656V19.7769L38.5058 17.9105V40.223L20.905 46.0902Z" fill="#10B1E8"/>
<path d="M20.1052 8C20.547 8 20.9052 7.6418 20.9052 7.2V0.8C20.9052 0.358203 20.547 0 20.1052 0C19.6634 0 19.3052 0.358203 19.3052 0.8V7.2C19.3052 7.6418 19.6634 8 20.1052 8Z" fill="#10B1E8"/>
<path d="M28.1052 10.4C28.547 10.4 28.9052 10.0418 28.9052 9.60002V3.20002C28.9052 2.75823 28.547 2.40002 28.1052 2.40002C27.6634 2.40002 27.3052 2.75823 27.3052 3.20002V9.60002C27.3052 10.0418 27.6634 10.4 28.1052 10.4Z" fill="#10B1E8"/>
<path d="M36.1052 12.8C36.547 12.8 36.9052 12.4418 36.9052 12V5.60005C36.9052 5.15825 36.547 4.80005 36.1052 4.80005C35.6634 4.80005 35.3052 5.15825 35.3052 5.60005V12C35.3052 12.4418 35.6634 12.8 36.1052 12.8Z" fill="#10B1E8"/>
<path d="M11.3049 10.4C11.7467 10.4 12.1049 10.0418 12.1049 9.60002V3.20002C12.1049 2.75823 11.7467 2.40002 11.3049 2.40002C10.8631 2.40002 10.5049 2.75823 10.5049 3.20002V9.60002C10.5049 10.0418 10.8631 10.4 11.3049 10.4Z" fill="#10B1E8"/>
<path d="M3.30488 12.8C3.74668 12.8 4.10488 12.4418 4.10488 12V5.60005C4.10488 5.15825 3.74668 4.80005 3.30488 4.80005C2.86309 4.80005 2.50488 5.15825 2.50488 5.60005V12C2.50488 12.4418 2.86309 12.8 3.30488 12.8Z" fill="#10B1E8"/>
</svg>
