<svg width="49" height="48" viewBox="0 0 49 48" fill="none" xmlns="http://www.w3.org/2000/svg">
<g clip-path="url(#clip0)">
<path d="M13.7051 0.800049V47.2001H20.1051V36H28.1051V47.2001H34.5051V0.800049H13.7051ZM26.5051 5.60005H29.7051V8.80005H26.5051V5.60005ZM26.5051 12H29.7051V15.2H26.5051V12ZM26.5051 18.4H29.7051V21.6H26.5051V18.4ZM26.5051 24.8H29.7051V28H26.5051V24.8ZM18.5051 5.60005H21.7051V8.80005H18.5051V5.60005ZM18.5051 12H21.7051V15.2H18.5051V12ZM18.5051 18.4H21.7051V21.6H18.5051V18.4ZM18.5051 24.8H21.7051V28H18.5051V24.8Z" fill="#8CD8F2"/>
<path d="M34.5049 13.6V47.2H38.1369C37.8467 46.4332 37.7002 45.6199 37.7049 44.8C37.7049 42.1519 39.1369 40 40.9049 40C42.6729 40 44.1049 42.1519 44.1049 44.8C44.1096 45.6199 43.9631 46.4332 43.6729 47.2H47.3049V13.6H34.5049ZM42.5049 34.4H39.3049V31.2H42.5049V34.4ZM42.5049 28H39.3049V24.8H42.5049V28ZM42.5049 21.6H39.3049V18.4H42.5049V21.6Z" fill="#8CD8F2"/>
<path d="M0.904785 13.6V46.4H13.7048V13.6H0.904785ZM5.70479 42.4C3.9376 42.4 2.50479 39.8929 2.50479 36.8C2.50479 33.707 3.9376 31.2 5.70479 31.2C7.47197 31.2 8.90479 33.707 8.90479 36.8C8.90479 39.8929 7.47197 42.4 5.70479 42.4ZM8.90479 28H5.70479V24.8H8.90479V28ZM8.90479 21.6H5.70479V18.4H8.90479V21.6Z" fill="#8CD8F2"/>
<path d="M35.305 12.8V0H12.905V12.8H0.10498V32H1.70498V14.4H12.905V46.4H6.50498V43.0762C8.35225 42.4984 9.70498 39.9496 9.70498 36.8C9.70498 33.2113 7.94482 30.4 5.70498 30.4C3.46514 30.4 1.70498 33.2113 1.70498 36.8C1.70498 39.9496 3.05771 42.4984 4.90498 43.0762V46.4H0.10498V48H48.105V12.8H35.305ZM3.30498 36.8C3.30498 33.9711 4.56982 32 5.70498 32C6.84014 32 8.10498 33.9711 8.10498 36.8C8.10498 39.6289 6.84014 41.6 5.70498 41.6C4.56982 41.6 3.30498 39.6289 3.30498 36.8ZM20.905 46.4V36.8H27.305V46.4H20.905ZM33.705 46.4H28.905V35.2H19.305V46.4H14.505V1.6H33.705V46.4ZM38.505 44.8C38.505 42.632 39.6042 40.8 40.905 40.8C42.2058 40.8 43.305 42.632 43.305 44.8C43.3058 45.3402 43.2347 45.8785 43.0937 46.4H38.7163C38.5753 45.8785 38.5042 45.3402 38.505 44.8ZM46.505 46.4H44.7323C44.8452 45.8742 44.903 45.3379 44.905 44.8C44.905 41.6602 43.1448 39.2 40.905 39.2C38.6651 39.2 36.905 41.6602 36.905 44.8C36.9069 45.3379 36.9647 45.8742 37.0776 46.4H35.305V14.4H46.505V46.4Z" fill="#10B1E8"/>
<path d="M16.105 32H32.105V33.6H16.105V32Z" fill="#10B1E8"/>
<path d="M22.5051 4.80005H17.7051V9.60005H22.5051V4.80005ZM20.9051 8.00005H19.3051V6.40005H20.9051V8.00005Z" fill="#10B1E8"/>
<path d="M30.5051 4.80005H25.7051V9.60005H30.5051V4.80005ZM28.9051 8.00005H27.3051V6.40005H28.9051V8.00005Z" fill="#10B1E8"/>
<path d="M22.5051 11.2H17.7051V16H22.5051V11.2ZM20.9051 14.4H19.3051V12.8H20.9051V14.4Z" fill="#10B1E8"/>
<path d="M30.5051 11.2H25.7051V16H30.5051V11.2ZM28.9051 14.4H27.3051V12.8H28.9051V14.4Z" fill="#10B1E8"/>
<path d="M22.5051 17.6H17.7051V22.4H22.5051V17.6ZM20.9051 20.8H19.3051V19.2H20.9051V20.8Z" fill="#10B1E8"/>
<path d="M30.5051 17.6H25.7051V22.4H30.5051V17.6ZM28.9051 20.8H27.3051V19.2H28.9051V20.8Z" fill="#10B1E8"/>
<path d="M22.5051 24H17.7051V28.8H22.5051V24ZM20.9051 27.2H19.3051V25.6H20.9051V27.2Z" fill="#10B1E8"/>
<path d="M9.70479 17.6H4.90479V22.4H9.70479V17.6ZM8.10479 20.8H6.50479V19.2H8.10479V20.8Z" fill="#10B1E8"/>
<path d="M4.90479 28.8H9.70479V24H4.90479V28.8ZM6.50479 25.6H8.10479V27.2H6.50479V25.6Z" fill="#10B1E8"/>
<path d="M30.5051 24H25.7051V28.8H30.5051V24ZM28.9051 27.2H27.3051V25.6H28.9051V27.2Z" fill="#10B1E8"/>
<path d="M43.3049 17.6H38.5049V22.4H43.3049V17.6ZM41.7049 20.8H40.1049V19.2H41.7049V20.8Z" fill="#10B1E8"/>
<path d="M43.3049 24H38.5049V28.8H43.3049V24ZM41.7049 27.2H40.1049V25.6H41.7049V27.2Z" fill="#10B1E8"/>
<path d="M43.3049 30.4H38.5049V35.2H43.3049V30.4ZM41.7049 33.6H40.1049V32H41.7049V33.6Z" fill="#10B1E8"/>
</g>
<defs>
<clipPath id="clip0">
<rect width="48" height="48" fill="white" transform="translate(0.10498)"/>
</clipPath>
</defs>
</svg>
