<svg width="32" height="32" viewBox="0 0 32 32" fill="none" xmlns="http://www.w3.org/2000/svg">
<path d="M26.133 23.2C24.6604 23.2 23.4664 24.394 23.4664 25.8667C23.4651 26.0458 23.483 26.2248 23.5198 26.4C23.7721 27.643 24.8648 28.536 26.133 28.536C27.4013 28.536 28.494 27.643 28.7463 26.4C28.783 26.2248 28.801 26.0458 28.7997 25.8667C28.7997 24.394 27.6057 23.2 26.133 23.2ZM26.133 26.9333C25.544 26.9333 25.0664 26.4557 25.0664 25.8667C25.0664 25.2776 25.544 24.8 26.133 24.8C26.7221 24.8 27.1997 25.2776 27.1997 25.8667C27.1997 26.4557 26.7221 26.9333 26.133 26.9333Z" fill="#DADADA"/>
<path d="M8.00023 23.2C6.52757 23.2 5.33356 24.394 5.33356 25.8667C5.33226 26.0458 5.35023 26.2248 5.38695 26.4C5.63929 27.643 6.732 28.536 8.00023 28.536C9.26846 28.536 10.3612 27.643 10.6135 26.4C10.6502 26.2248 10.6682 26.0458 10.6669 25.8667C10.6669 24.394 9.47288 23.2 8.00023 23.2ZM8.00023 26.9333C7.41117 26.9333 6.93356 26.4557 6.93356 25.8667C6.93356 25.2776 7.41117 24.8 8.00023 24.8C8.58929 24.8 9.0669 25.2776 9.0669 25.8667C9.0669 26.4557 8.58929 26.9333 8.00023 26.9333Z" fill="#DADADA"/>
<path d="M26.1336 9.8667H20.8003V21.6H30.4003V16.2667L26.1336 9.8667ZM22.9336 12H25.067L27.7336 15.7334H22.9336V12Z" fill="#DADADA"/>
<path d="M20.7999 21.6H0.533203V25.8667H5.3332C5.3332 24.394 6.52721 23.2 7.99987 23.2C9.47253 23.2 10.6665 24.394 10.6665 25.8667H23.4665C23.4665 24.394 24.6605 23.2 26.1332 23.2C27.6059 23.2 28.7999 24.394 28.7999 25.8667H31.4665V21.6H20.7999Z" fill="#DADADA"/>
<path d="M9.06644 25.8667C9.06644 26.4557 8.58884 26.9333 7.99977 26.9333C7.41071 26.9333 6.93311 26.4557 6.93311 25.8667C6.93311 25.2776 7.41071 24.8 7.99977 24.8C8.58884 24.8 9.06644 25.2776 9.06644 25.8667Z" fill="#DADADA"/>
<path d="M27.2002 25.8667C27.2002 26.4557 26.7226 26.9333 26.1336 26.9333C25.5445 26.9333 25.0669 26.4557 25.0669 25.8667C25.0669 25.2776 25.5445 24.8 26.1336 24.8C26.7226 24.8 27.2002 25.2776 27.2002 25.8667Z" fill="#DADADA"/>
<path d="M29.2682 26.513C29.2763 26.4768 29.2794 26.4372 29.2859 26.4H31.4667C31.7612 26.4 32 26.1612 32 25.8666V21.6C32 21.3054 31.7612 21.0666 31.4667 21.0666H30.9333V16.2666C30.9331 16.1614 30.9021 16.0583 30.8438 15.9705L26.5771 9.57054C26.4781 9.42237 26.3117 9.3333 26.1333 9.3333H21.3333V2.39997C21.3333 2.10544 21.0945 1.86664 20.8 1.86664H0.533333C0.238802 1.86664 0 2.10544 0 2.39997C0 2.6945 0.238802 2.9333 0.533333 2.9333H20.2667V21.0666H2.13333V13.0666C2.13333 12.7721 1.89453 12.5333 1.6 12.5333C1.30547 12.5333 1.06667 12.7721 1.06667 13.0666V21.0666H0.533333C0.238802 21.0666 0 21.3054 0 21.6V25.8666C0 26.1612 0.238802 26.4 0.533333 26.4H4.84688C4.85339 26.4346 4.85651 26.4726 4.86354 26.5067C5.1651 27.9979 6.47474 29.0705 7.99609 29.0724C9.51745 29.0742 10.8297 28.0047 11.1349 26.514C11.143 26.4778 11.1461 26.4383 11.1526 26.401H22.9802C22.9867 26.4356 22.9898 26.4737 22.9969 26.5078C23.2984 27.9989 24.6081 29.0716 26.1294 29.0734C27.6508 29.0752 28.963 28.0057 29.2682 26.5151V26.513ZM21.3333 10.4H25.8479L29.8667 16.4265V17.3333H22.9333C22.6388 17.3333 22.4 17.5721 22.4 17.8666C22.4 18.1612 22.6388 18.4 22.9333 18.4H29.8667V21.0666H21.3333V10.4ZM1.06667 22.1333H30.9333V25.3333H29.2891C29.2891 25.3211 29.282 25.3099 29.2794 25.2976C29.2503 25.1369 29.2091 24.9789 29.1557 24.8244C29.1461 24.7968 29.1354 24.7711 29.1253 24.7414C29.0685 24.5898 29.0005 24.4427 28.9216 24.3013C28.9099 24.281 28.8971 24.2619 28.8854 24.2416C28.8005 24.0966 28.7044 23.9583 28.5979 23.8284L28.5888 23.8182C28.481 23.6898 28.363 23.5705 28.2362 23.4606C28.2219 23.4479 28.2091 23.4346 28.1948 23.4229C28.0701 23.3185 27.9375 23.2237 27.7984 23.1393C27.775 23.1247 27.7521 23.1104 27.7281 23.0966C27.5885 23.0159 27.4432 22.9461 27.2932 22.8875L27.2138 22.858C27.0576 22.8015 26.8971 22.757 26.7339 22.7252C26.7125 22.7211 26.6911 22.719 26.6698 22.7151C26.3148 22.6505 25.9508 22.6505 25.5958 22.7151C25.5745 22.719 25.5531 22.7211 25.5318 22.7252C25.3685 22.757 25.2081 22.8015 25.0518 22.858L24.9724 22.8875C24.8224 22.9461 24.6771 23.0159 24.5375 23.0966C24.5135 23.1104 24.4906 23.1247 24.4672 23.1393C24.3281 23.2237 24.1956 23.3185 24.0708 23.4229C24.0565 23.4346 24.0438 23.4479 24.0294 23.4606C23.9026 23.5705 23.7846 23.6898 23.6768 23.8182L23.6677 23.8284C23.5612 23.9583 23.4651 24.0968 23.3802 24.2422C23.3685 24.2619 23.3557 24.281 23.3445 24.3013C23.2651 24.4424 23.1969 24.5896 23.1404 24.7414C23.1302 24.769 23.1195 24.7948 23.1099 24.8244C23.0565 24.9789 23.0151 25.1369 22.9862 25.2976C22.9836 25.3099 22.9786 25.3211 22.9766 25.3333H11.1557C11.1557 25.3211 11.1487 25.3099 11.1461 25.2976C11.1169 25.1369 11.0758 24.9789 11.0224 24.8244C11.0128 24.7968 11.0021 24.7711 10.9919 24.7414C10.9352 24.5898 10.8672 24.4427 10.7883 24.3013C10.7766 24.281 10.7638 24.2619 10.7521 24.2416C10.6672 24.0966 10.5711 23.9583 10.4646 23.8284L10.4555 23.8182C10.3477 23.6898 10.2297 23.5705 10.1029 23.4606C10.0885 23.4479 10.0758 23.4346 10.0615 23.4229C9.93672 23.3185 9.80417 23.2237 9.6651 23.1393C9.64167 23.1247 9.61875 23.1104 9.59479 23.0966C9.45521 23.0159 9.3099 22.9461 9.1599 22.8875L9.08047 22.858C8.92422 22.8015 8.7638 22.757 8.60052 22.7252C8.57917 22.7211 8.55781 22.719 8.53646 22.7151C8.18151 22.6505 7.81745 22.6505 7.4625 22.7151C7.44115 22.719 7.41979 22.7211 7.39844 22.7252C7.23516 22.757 7.07474 22.8015 6.91849 22.858L6.83906 22.8875C6.68906 22.9461 6.54375 23.0159 6.40417 23.0966C6.38021 23.1104 6.35729 23.1247 6.33385 23.1393C6.19479 23.2237 6.06224 23.3185 5.9375 23.4229C5.92318 23.4346 5.91042 23.4479 5.89609 23.4606C5.76927 23.5705 5.6513 23.6898 5.54349 23.8182L5.53438 23.8284C5.42787 23.9583 5.33177 24.0968 5.24688 24.2422C5.23516 24.2619 5.2224 24.281 5.2112 24.3013C5.13177 24.4424 5.06354 24.5896 5.00703 24.7414C4.99688 24.769 4.9862 24.7948 4.97656 24.8244C4.92318 24.9789 4.88177 25.1369 4.85286 25.2976C4.85026 25.3099 4.84531 25.3211 4.84323 25.3333H1.06667V22.1333ZM10.0906 26.2932C9.88854 27.289 9.01224 28.0041 7.99609 28.0023C6.97995 28.0005 6.10625 27.2823 5.90781 26.2859C5.87917 26.1479 5.86563 26.0075 5.86667 25.8666C5.86667 24.6885 6.82188 23.7333 8 23.7333C9.17813 23.7333 10.1333 24.6885 10.1333 25.8666C10.1344 26.0099 10.1201 26.1531 10.0906 26.2932ZM28.224 26.2932C28.0219 27.289 27.1456 28.0041 26.1294 28.0023C25.1133 28.0005 24.2396 27.2823 24.0411 26.2859C24.0125 26.1479 23.999 26.0075 24 25.8666C24 24.6885 24.9552 23.7333 26.1333 23.7333C27.3115 23.7333 28.2667 24.6885 28.2667 25.8666C28.2677 26.0099 28.2534 26.1531 28.224 26.2932Z" fill="#B2B2B2"/>
<path d="M7.9999 24.2667C7.11631 24.2667 6.3999 24.9831 6.3999 25.8667C6.3999 26.7503 7.11631 27.4667 7.9999 27.4667C8.8835 27.4667 9.5999 26.7503 9.5999 25.8667C9.5999 24.9831 8.8835 24.2667 7.9999 24.2667ZM7.9999 26.4C7.70537 26.4 7.46657 26.1612 7.46657 25.8667C7.46657 25.5721 7.70537 25.3333 7.9999 25.3333C8.29443 25.3333 8.53324 25.5721 8.53324 25.8667C8.53324 26.1612 8.29443 26.4 7.9999 26.4Z" fill="#B2B2B2"/>
<path d="M26.1332 24.2667C25.2496 24.2667 24.5332 24.9831 24.5332 25.8667C24.5332 26.7503 25.2496 27.4667 26.1332 27.4667C27.0168 27.4667 27.7332 26.7503 27.7332 25.8667C27.7332 24.9831 27.0168 24.2667 26.1332 24.2667ZM26.1332 26.4C25.8387 26.4 25.5999 26.1612 25.5999 25.8667C25.5999 25.5721 25.8387 25.3333 26.1332 25.3333C26.4277 25.3333 26.6665 25.5721 26.6665 25.8667C26.6665 26.1612 26.4277 26.4 26.1332 26.4Z" fill="#B2B2B2"/>
<path d="M22.9332 16.2666H27.7332C27.933 16.2664 28.1158 16.1546 28.2069 15.9773C28.2983 15.7997 28.2827 15.5859 28.1668 15.4234L25.5002 11.6901C25.4002 11.5499 25.2387 11.4669 25.0666 11.4666H22.9332C22.6387 11.4666 22.3999 11.7054 22.3999 11.9999V15.7333C22.3999 16.0278 22.6387 16.2666 22.9332 16.2666ZM23.4666 12.5333H24.7918L26.697 15.1999H23.4666V12.5333Z" fill="#B2B2B2"/>
<path d="M0.533333 5.06667H2.66667C2.9612 5.06667 3.2 4.82786 3.2 4.53333C3.2 4.2388 2.9612 4 2.66667 4H0.533333C0.238802 4 0 4.2388 0 4.53333C0 4.82786 0.238802 5.06667 0.533333 5.06667Z" fill="#B2B2B2"/>
<path d="M16.0001 5.06667C16.2946 5.06667 16.5334 4.82786 16.5334 4.53333C16.5334 4.2388 16.2946 4 16.0001 4H4.26673C3.9722 4 3.7334 4.2388 3.7334 4.53333C3.7334 4.82786 3.9722 5.06667 4.26673 5.06667H16.0001Z" fill="#B2B2B2"/>
<path d="M0.533333 7.19997H13.3333C13.6279 7.19997 13.8667 6.96117 13.8667 6.66663C13.8667 6.3721 13.6279 6.1333 13.3333 6.1333H0.533333C0.238802 6.1333 0 6.3721 0 6.66663C0 6.96117 0.238802 7.19997 0.533333 7.19997Z" fill="#B2B2B2"/>
<path d="M0.533333 9.33333H9.06667C9.3612 9.33333 9.6 9.09453 9.6 8.8C9.6 8.50546 9.3612 8.26666 9.06667 8.26666H0.533333C0.238802 8.26666 0 8.50546 0 8.8C0 9.09453 0.238802 9.33333 0.533333 9.33333Z" fill="#B2B2B2"/>
<path d="M0.533333 11.4666H5.33333C5.62786 11.4666 5.86667 11.2278 5.86667 10.9333C5.86667 10.6388 5.62786 10.4 5.33333 10.4H0.533333C0.238802 10.4 0 10.6388 0 10.9333C0 11.2278 0.238802 11.4666 0.533333 11.4666Z" fill="#B2B2B2"/>
<path d="M0.533333 29.0667C0.238802 29.0667 0 29.3055 0 29.6C0 29.8945 0.238802 30.1333 0.533333 30.1333H31.4667C31.7612 30.1333 32 29.8945 32 29.6C32 29.3055 31.7612 29.0667 31.4667 29.0667H0.533333Z" fill="#B2B2B2"/>
</svg>
