<svg width="32" height="32" viewBox="0 0 32 32" fill="none" xmlns="http://www.w3.org/2000/svg">
<path d="M9.06641 0.533325V31.4667H13.3331V24H18.6664V31.4667H22.9331V0.533325H9.06641ZM17.5997 3.73333H19.7331V5.86666H17.5997V3.73333ZM17.5997 7.99999H19.7331V10.1333H17.5997V7.99999ZM17.5997 12.2667H19.7331V14.4H17.5997V12.2667ZM17.5997 16.5333H19.7331V18.6667H17.5997V16.5333ZM12.2664 3.73333H14.3997V5.86666H12.2664V3.73333ZM12.2664 7.99999H14.3997V10.1333H12.2664V7.99999ZM12.2664 12.2667H14.3997V14.4H12.2664V12.2667ZM12.2664 16.5333H14.3997V18.6667H12.2664V16.5333Z" fill="#DADADA"/>
<path d="M22.9336 9.06665V31.4666H25.3549C25.1615 30.9555 25.0638 30.4133 25.0669 29.8666C25.0669 28.1013 26.0216 26.6666 27.2003 26.6666C28.3789 26.6666 29.3336 28.1013 29.3336 29.8666C29.3367 30.4133 29.2391 30.9555 29.0456 31.4666H31.4669V9.06665H22.9336ZM28.2669 22.9333H26.1336V20.8H28.2669V22.9333ZM28.2669 18.6666H26.1336V16.5333H28.2669V18.6666ZM28.2669 14.4H26.1336V12.2667H28.2669V14.4Z" fill="#DADADA"/>
<path d="M0.533203 9.06665V30.9333H9.06654V9.06665H0.533203ZM3.7332 28.2666C2.55508 28.2666 1.59987 26.5953 1.59987 24.5333C1.59987 22.4713 2.55508 20.8 3.7332 20.8C4.91133 20.8 5.86654 22.4713 5.86654 24.5333C5.86654 26.5953 4.91133 28.2666 3.7332 28.2666ZM5.86654 18.6666H3.7332V16.5333H5.86654V18.6666ZM5.86654 14.4H3.7332V12.2666H5.86654V14.4Z" fill="#DADADA"/>
<path d="M23.4667 8.53333V0H8.53333V8.53333H0V21.3333H1.06667V9.6H8.53333V30.9333H4.26667V28.7174C5.49818 28.3323 6.4 26.6331 6.4 24.5333C6.4 22.1409 5.22656 20.2667 3.73333 20.2667C2.2401 20.2667 1.06667 22.1409 1.06667 24.5333C1.06667 26.6331 1.96849 28.3323 3.2 28.7174V30.9333H0V32H32V8.53333H23.4667ZM2.13333 24.5333C2.13333 22.6474 2.97656 21.3333 3.73333 21.3333C4.4901 21.3333 5.33333 22.6474 5.33333 24.5333C5.33333 26.4193 4.4901 27.7333 3.73333 27.7333C2.97656 27.7333 2.13333 26.4193 2.13333 24.5333ZM13.8667 30.9333V24.5333H18.1333V30.9333H13.8667ZM22.4 30.9333H19.2V23.4667H12.8V30.9333H9.6V1.06667H22.4V30.9333ZM25.6 29.8667C25.6 28.4214 26.3328 27.2 27.2 27.2C28.0672 27.2 28.8 28.4214 28.8 29.8667C28.8005 30.2268 28.7531 30.5857 28.6591 30.9333H25.7409C25.6469 30.5857 25.5995 30.2268 25.6 29.8667ZM30.9333 30.9333H29.7516C29.8268 30.5828 29.8654 30.2253 29.8667 29.8667C29.8667 27.7734 28.6932 26.1333 27.2 26.1333C25.7068 26.1333 24.5333 27.7734 24.5333 29.8667C24.5346 30.2253 24.5732 30.5828 24.6484 30.9333H23.4667V9.6H30.9333V30.9333Z" fill="#B2B2B2"/>
<path d="M10.6665 21.3333H21.3332V22.4H10.6665V21.3333Z" fill="#B2B2B2"/>
<path d="M14.9334 3.20001H11.7334V6.40001H14.9334V3.20001ZM13.8667 5.33335H12.8001V4.26668H13.8667V5.33335Z" fill="#B2B2B2"/>
<path d="M20.2664 3.20001H17.0664V6.40001H20.2664V3.20001ZM19.1997 5.33335H18.1331V4.26668H19.1997V5.33335Z" fill="#B2B2B2"/>
<path d="M14.9334 7.46667H11.7334V10.6667H14.9334V7.46667ZM13.8667 9.60001H12.8001V8.53334H13.8667V9.60001Z" fill="#B2B2B2"/>
<path d="M20.2664 7.46667H17.0664V10.6667H20.2664V7.46667ZM19.1997 9.60001H18.1331V8.53334H19.1997V9.60001Z" fill="#B2B2B2"/>
<path d="M14.9334 11.7333H11.7334V14.9333H14.9334V11.7333ZM13.8667 13.8667H12.8001V12.8H13.8667V13.8667Z" fill="#B2B2B2"/>
<path d="M20.2664 11.7333H17.0664V14.9333H20.2664V11.7333ZM19.1997 13.8667H18.1331V12.8H19.1997V13.8667Z" fill="#B2B2B2"/>
<path d="M14.9334 16H11.7334V19.2H14.9334V16ZM13.8667 18.1333H12.8001V17.0667H13.8667V18.1333Z" fill="#B2B2B2"/>
<path d="M6.4002 11.7333H3.2002V14.9333H6.4002V11.7333ZM5.33353 13.8667H4.26686V12.8H5.33353V13.8667Z" fill="#B2B2B2"/>
<path d="M3.2002 19.2H6.4002V16H3.2002V19.2ZM4.26686 17.0667H5.33353V18.1333H4.26686V17.0667Z" fill="#B2B2B2"/>
<path d="M20.2664 16H17.0664V19.2H20.2664V16ZM19.1997 18.1333H18.1331V17.0667H19.1997V18.1333Z" fill="#B2B2B2"/>
<path d="M28.8001 11.7333H25.6001V14.9333H28.8001V11.7333ZM27.7334 13.8667H26.6668V12.8H27.7334V13.8667Z" fill="#B2B2B2"/>
<path d="M28.8001 16H25.6001V19.2H28.8001V16ZM27.7334 18.1333H26.6668V17.0667H27.7334V18.1333Z" fill="#B2B2B2"/>
<path d="M28.8001 20.2667H25.6001V23.4667H28.8001V20.2667ZM27.7334 22.4H26.6668V21.3333H27.7334V22.4Z" fill="#B2B2B2"/>
</svg>
