<svg width="30" height="20" viewBox="0 0 30 20" fill="none" xmlns="http://www.w3.org/2000/svg">
<g clip-path="url(#clip0)">
<path d="M30 17.0874H0V0H30V17.0874ZM0.7 16.4078H29.3V0.679612H0.7V16.4078Z" fill="#10B1E8"/>
<path d="M2.90002 12.4272C2.80002 12.4272 2.70002 12.4272 2.60002 12.3301C2.50002 12.136 2.50002 11.9418 2.60002 11.8447L14.2 2.6214C14.3 2.52431 14.6 2.52431 14.7 2.6214C14.8 2.71849 14.8 3.00975 14.7 3.10684L3.20002 12.3301C3.10002 12.4272 3.00002 12.4272 2.90002 12.4272Z" fill="#10B1E8"/>
<path d="M3.19995 7.47576C3.09995 7.47576 2.99995 7.47576 2.89995 7.37867C2.79995 7.28158 2.79995 6.99032 2.89995 6.89324L8.79995 2.33013C8.99995 2.23304 9.19995 2.23304 9.39995 2.42722C9.59995 2.62139 9.49995 2.81557 9.29995 2.91265L3.39995 7.47576C3.29995 7.47576 3.19995 7.47576 3.19995 7.47576Z" fill="#10B1E8"/>
<path d="M23.1 19.3204H6.90002V20H23.1V19.3204Z" fill="#10B1E8"/>
<path d="M20.9 17.767H20.2V19.6116H20.9V17.767Z" fill="#10B1E8"/>
<path d="M9.7 17.6699H9V19.5146H9.7V17.6699Z" fill="#10B1E8"/>
</g>
<defs>
<clipPath id="clip0">
<rect width="30" height="20" fill="white"/>
</clipPath>
</defs>
</svg>
