<svg width="96" height="20" viewBox="0 0 96 20" fill="none" xmlns="http://www.w3.org/2000/svg">
<path fill-rule="evenodd" clip-rule="evenodd" d="M9.27521 19.3664L7.98996 16.6606L9.27521 13.9547L15.5661 0.763916H18.1366L10.5604 16.6606L9.27521 19.3664ZM23.8187 19.3664V0.831555H26.1863V19.3664H23.8187ZM34.3036 19.3664V5.3638L36.6712 9.28722V19.3664H34.3036ZM45.3973 19.3664L42.4209 14.3606L41.271 12.3989L39.9181 10.1666L34.3713 0.831555H37.077L42.5562 10.1666L45.7355 15.5106V0.831555H48.1031V19.3664H45.3973ZM76.649 19.3664L84.2251 3.53737L85.5104 0.831555L86.7956 3.53737L85.5104 6.24318L79.2195 19.3664H76.649ZM91.8013 19.3664L90.1102 15.7812H83.6163L84.6987 13.5489H89.0955L86.9309 8.88134L88.2161 6.17553L94.5071 19.2987H91.8013V19.3664ZM60.9555 18.6899C59.8055 18.2164 58.7909 17.5399 57.8438 16.6606C56.9645 15.7812 56.2204 14.7665 55.7469 13.6842C55.2734 12.5342 55.0704 11.3842 55.0028 10.1666C55.0028 8.949 55.2734 7.73138 55.7469 6.58141C56.2204 5.43144 56.8968 4.48441 57.8438 3.60502C58.7909 2.72563 59.8055 2.04917 60.9555 1.57566C62.1054 1.10214 63.323 0.899205 64.6083 0.899205H70.4257V3.19914H64.6083C63.5936 3.19914 62.7142 3.40208 61.8349 3.7403C60.9555 4.07853 60.2114 4.61969 59.535 5.2285C58.9262 5.83731 58.385 6.64906 57.9791 7.46081C57.5733 8.27255 57.438 9.21958 57.3703 10.1666C57.3703 11.1137 57.5733 12.0607 57.9791 12.8724C58.385 13.7518 58.8585 14.4959 59.535 15.1047C60.2114 15.7135 60.9555 16.2547 61.8349 16.5929C62.7142 16.9311 63.6613 17.1341 64.6083 17.1341H70.358H68.0581V13.6165H70.358V19.434H64.6083C63.323 19.3664 62.1054 19.0958 60.9555 18.6899ZM6.70472 13.9547L0.481445 0.763916H3.05192L8.05761 11.2489L6.70472 13.9547ZM62.7819 11.2489V8.94899H70.4257V11.2489H62.7819Z" fill="black"/>
</svg>
