<svg width="20" height="20" viewBox="0 0 20 20" fill="none" xmlns="http://www.w3.org/2000/svg">
<g clip-path="url(#clip0)">
<path d="M0.200684 15.9198C0.200684 15.3846 0.200684 13.5117 0.200684 13.5117C0.200684 11.8395 1.60537 10.4348 3.3445 10.4348H16.6555C18.3947 10.4348 19.7993 11.8395 19.7993 13.5117C19.7993 13.5117 19.7993 15.3846 19.7993 15.786C19.7993 16.388 19.5318 16.7224 18.796 16.7224C18.0602 16.7224 1.20403 16.7224 0.86958 16.7224C0.535132 16.6555 0.200684 16.4549 0.200684 15.9198Z" stroke="#fff" stroke-width="0.7" stroke-miterlimit="10"/>
<path d="M4.74915 16.6555V16.7893V17.2575C4.74915 17.7258 4.4147 18.0602 4.01336 18.0602H2.20734C1.80601 18.0602 1.47156 17.7258 1.47156 17.2575V16.7893V16.7224" stroke="#fff" stroke-width="0.7" stroke-miterlimit="10"/>
<path d="M18.5284 16.6555V16.7893V17.2575C18.5284 17.7258 18.194 18.0602 17.7927 18.0602H15.9197C15.5184 18.0602 15.184 17.7258 15.184 17.2575V16.7893V16.7224" stroke="#fff" stroke-width="0.7" stroke-miterlimit="10"/>
<path d="M7.35783 13.1772C7.42472 13.1772 7.42472 13.1772 7.35783 13.1772V13.913H6.55515V13.1772H7.35783ZM7.35783 12.8428H6.55515C6.35448 12.8428 6.2207 12.9766 6.2207 13.1772V13.913C6.2207 14.1137 6.35448 14.2475 6.55515 14.2475H7.35783C7.5585 14.2475 7.69228 14.1137 7.69228 13.913V13.1772C7.75917 13.0434 7.5585 12.8428 7.35783 12.8428Z" fill="#fff"/>
<path d="M10.7023 13.1772V13.913H9.89963V13.1772H10.7023ZM10.7023 12.8428H9.89963C9.69896 12.8428 9.56519 12.9766 9.56519 13.1772V13.913C9.56519 14.1137 9.69896 14.2475 9.89963 14.2475H10.7023C10.903 14.2475 11.0368 14.1137 11.0368 13.913V13.1772C11.0368 13.0434 10.903 12.8428 10.7023 12.8428Z" fill="#fff"/>
<path d="M13.9799 13.1772C14.0468 13.1772 14.0468 13.1772 13.9799 13.1772V13.913H13.1772V13.1772H13.9799ZM13.9799 12.8428H13.1772C12.9766 12.8428 12.8428 12.9766 12.8428 13.1772V13.913C12.8428 14.1137 12.9766 14.2475 13.1772 14.2475H13.9799C14.1806 14.2475 14.3143 14.1137 14.3143 13.913V13.1772C14.3812 13.0434 14.1806 12.8428 13.9799 12.8428Z" fill="#fff"/>
<path d="M2.67561 10.6355L1.07025 2.80937C1.00337 2.47493 1.27092 2.14048 1.60537 2.07359C1.93982 2.0067 2.34116 2.20737 2.40805 2.60871L4.0134 10.3679" stroke="#fff" stroke-width="0.7" stroke-miterlimit="10" stroke-linejoin="round"/>
<path d="M17.2575 10.6355L18.8628 2.87626C18.9297 2.54182 18.729 2.14048 18.3277 2.07359C17.9933 2.0067 17.5919 2.20737 17.525 2.60871L15.9197 10.3679" stroke="#fff" stroke-width="0.7" stroke-miterlimit="10" stroke-linejoin="round"/>
</g>
<defs>
<clipPath id="clip0">
<rect width="20" height="20" fill="white"/>
</clipPath>
</defs>
</svg>
