<svg xmlns="http://www.w3.org/2000/svg" viewBox="0 0 44 49"><defs><style>.cls-1{fill:#d5e2f5;}.cls-2{fill:#fff;}.cls-3{fill:#2173fb;}</style></defs><title>Asset 1UP-Button</title><g id="Layer_2" data-name="Layer 2"><g id="Layer_1-2" data-name="Layer 1"><path class="cls-1" d="M44,49H0V15A10,10,0,0,1,10,5H34A10,10,0,0,1,44,15Z"/><path class="cls-2" d="M1,43V10a9,9,0,0,1,9-9H34a9,9,0,0,1,9,9V43Z"/><path class="cls-3" d="M34,2a8,8,0,0,1,8,8V42H2V10a8,8,0,0,1,8-8H34m0-2H10A10,10,0,0,0,0,10V44H44V10A10,10,0,0,0,34,0Z"/><rect class="cls-3" y="39" width="44" height="5"/><rect class="cls-3" x="9.76" y="18.91" width="16" height="4" rx="1" ry="1" transform="translate(-9.59 18.68) rotate(-45)"/><rect class="cls-3" x="24.24" y="12.91" width="4" height="16" rx="1" ry="1" transform="translate(-7.1 24.68) rotate(-45)"/></g></g></svg>