<svg xmlns="http://www.w3.org/2000/svg" width="30" height="27" viewBox="0 0 30 27">
  <metadata><?xpacket begin="﻿" id="W5M0MpCehiHzreSzNTczkc9d"?>
<x:xmpmeta xmlns:x="adobe:ns:meta/" x:xmptk="Adobe XMP Core 5.6-c138 79.159824, 2016/09/14-01:09:01        ">
   <rdf:RDF xmlns:rdf="http://www.w3.org/1999/02/22-rdf-syntax-ns#">
      <rdf:Description rdf:about=""/>
   </rdf:RDF>
</x:xmpmeta>
                                                                                                    
                                                                                                    
                                                                                                    
                                                                                                    
                                                                                                    
                                                                                                    
                                                                                                    
                                                                                                    
                                                                                                    
                                                                                                    
                                                                                                    
                                                                                                    
                                                                                                    
                                                                                                    
                                                                                                    
                                                                                                    
                                                                                                    
                                                                                                    
                                                                                                    
                                                                                                    
                           
<?xpacket end="w"?></metadata>
<defs>
    <style>
      .cls-1 {
        fill: #10b1e8;
        fill-rule: evenodd;
      }
    </style>
  </defs>
  <path id="_accessory" data-name="	accessory" class="cls-1" d="M1084.39,1119.81h-13.95a0.469,0.469,0,0,1-.47-0.47v-10.87a0.469,0.469,0,0,1,.47-0.47h13.95a0.469,0.469,0,0,1,.47.47v10.87A0.469,0.469,0,0,1,1084.39,1119.81Zm-13.47-.94h13v-9.93h-13v9.93Zm-0.48-.96h-6.97a0.469,0.469,0,0,1-.47-0.47v-7.07a0.469,0.469,0,0,1,.47-0.47h6.97a0.478,0.478,0,0,1,.48.47v7.07A0.478,0.478,0,0,1,1070.44,1117.91Zm-6.5-.94h6.03v-6.13h-6.03v6.13Zm3.55-1.33h-1.17a0.47,0.47,0,0,1,0-.94h1.17A0.47,0.47,0,0,1,1067.49,1115.64Zm0-2.53h-1.17a0.47,0.47,0,0,1,0-.94h1.17A0.47,0.47,0,1,1,1067.49,1113.11Zm16.9,21.9h-20.92a0.478,0.478,0,0,1-.47-0.48v-10.86a0.469,0.469,0,0,1,.47-0.47h20.92a0.469,0.469,0,0,1,.47.47v10.86A0.478,0.478,0,0,1,1084.39,1135.01Zm-20.45-.95h19.98v-9.92h-19.98v9.92Zm17.34-2.27H1078a0.469,0.469,0,0,1-.47-0.47v-4.44a0.469,0.469,0,0,1,.47-0.47h3.28a0.469,0.469,0,0,1,.47.47v4.44A0.469,0.469,0,0,1,1081.28,1131.79Zm-2.81-.94h2.34v-3.49h-2.34v3.49Zm-2.9.94h-3.28a0.469,0.469,0,0,1-.47-0.47v-4.44a0.469,0.469,0,0,1,.47-0.47h3.28a0.469,0.469,0,0,1,.47.47v4.44A0.469,0.469,0,0,1,1075.57,1131.79Zm-2.81-.94h2.34v-3.49h-2.34v3.49Zm-2.89.94h-3.29a0.469,0.469,0,0,1-.47-0.47v-4.44a0.469,0.469,0,0,1,.47-0.47h3.29a0.469,0.469,0,0,1,.47.47v4.44A0.469,0.469,0,0,1,1069.87,1131.79Zm-2.81-.94h2.33v-3.49h-2.33v3.49Zm21.82-1.28h-4.49a0.47,0.47,0,0,1,0-.94h4.49a3.18,3.18,0,0,0,3.18-3.17v-7.91a3.18,3.18,0,0,0-3.18-3.17h-4.49a0.47,0.47,0,0,1,0-.94h4.49a4.118,4.118,0,0,1,4.12,4.11v7.91A4.118,4.118,0,0,1,1088.88,1129.57Z" transform="translate(-1063 -1108)"/>
</svg>
