<svg xmlns="http://www.w3.org/2000/svg" viewBox="0 0 41 21"><defs><style>.cls-1{fill:#af0476;}.cls-2{fill:#cc3b8d;}.cls-3{fill:#fff;}</style></defs><title>Ресурс 1</title><g id="Шар_2" data-name="Шар 2"><g id="Слой_1" data-name="Слой 1"><path class="cls-1" d="M0,1H36a5,5,0,0,1,5,5V21a0,0,0,0,1,0,0H5a5,5,0,0,1-5-5V1A0,0,0,0,1,0,1Z"/><path class="cls-2" d="M0,0H36a5,5,0,0,1,5,5V20a0,0,0,0,1,0,0H5a5,5,0,0,1-5-5V0A0,0,0,0,1,0,0Z"/><path class="cls-3" d="M8.09,11.88h-3l-.7,2.29H3.24L5.61,6.87A.38.38,0,0,1,6,6.58H7.14a.36.36,0,0,1,.4.3l2.39,7.29H8.79Zm-.29-1L6.91,8l-.09-.31-.09-.31h-.3L6.25,8l-.89,2.88Z"/><path class="cls-3" d="M13.71,10.18v0a1.74,1.74,0,0,1,.41.09l.34.13a1,1,0,0,1,.3.23L15,11a1.94,1.94,0,0,1,.24.37l.21.41a5.14,5.14,0,0,1,.21.52l.2.56.23.65.25.7H15.21q-.67-1.9-.87-2.32a2,2,0,0,0-1.07-1.11,1.77,1.77,0,0,0-.54-.08H12a5,5,0,0,1,.08.78v2.73h-1.1V6.58H12V8.91a5.61,5.61,0,0,1-.08.86h.76a1.42,1.42,0,0,0,.65-.15,1.59,1.59,0,0,0,.51-.41,3.22,3.22,0,0,0,.41-.65,9,9,0,0,0,.36-.85q.17-.45.36-1l0-.11h1.11a23.09,23.09,0,0,1-.88,2.33A2.11,2.11,0,0,1,14,10.14Z"/><path class="cls-3" d="M24,13.28v2.55h-.75l-.1-1.66H17.6V6.58h1.1v6.7h3.23V6.58H23v6.7Z"/><path class="cls-3" d="M31,14.17H30V8.81a5,5,0,0,1,.07-.9H30a7.3,7.3,0,0,1-.4.86l-3.19,5.4H25.25V6.58h1.06v5.3a6.77,6.77,0,0,1-.07.94h.05a6.64,6.64,0,0,1,.43-.86l3.17-5.38H31Z"/><path class="cls-3" d="M34.15,10.77v-.06a1.51,1.51,0,0,1-1.09-.6,2.43,2.43,0,0,1-.33-1.41A2.21,2.21,0,0,1,33.28,7a2.77,2.77,0,0,1,1.88-.51q1.72,0,2.64.1v7.59H36.7v-3H35.17a.92.92,0,0,0-1,.76l-.64,2.28H32.41l.67-2.32A1.42,1.42,0,0,1,34.15,10.77Zm2.55-.58V7.43H35.18a1.54,1.54,0,0,0-1.06.28,1.5,1.5,0,0,0-.3,1.06,1.6,1.6,0,0,0,.3,1.08,1.35,1.35,0,0,0,1,.34Z"/></g></g></svg>