<?xml version="1.0" encoding="utf-8"?>
<!-- Generator: Adobe Illustrator 21.1.0, SVG Export Plug-In . SVG Version: 6.00 Build 0)  -->
<svg version="1.1" id="Слой_1" xmlns="http://www.w3.org/2000/svg" xmlns:xlink="http://www.w3.org/1999/xlink" x="0px" y="0px"
	 viewBox="0 0 50 21" style="enable-background:new 0 0 50 21;" xml:space="preserve">
<style type="text/css">
	.st0{fill:#8E0202;}
	.st1{fill:#D50000;}
	.st2{fill:#004D40;}
	.st3{fill:#2E7D32;}
	.st4{fill:#104BA6;}
	.st5{fill:#1973FF;}
	.st6{fill:#FFFFFF;}
	.st7{fill:#FFFFFF;stroke:#FFFFFF;stroke-width:0.5;stroke-miterlimit:10;}
	.st8{fill:#4A148C;}
	.st9{fill:#7B1FA2;}
	.st10{fill:#9B2105;}
	.st11{fill:#E64A19;}
</style>
<path class="st0" d="M-14.1-7.3h-35c-2.8,0-5-2.3-5-5v-15h35c2.8,0,5,2.3,5,5V-7.3z"/>
<path class="st1" d="M-14.1-8.3h-35c-2.8,0-5-2.3-5-5v-15h35c2.8,0,5,2.3,5,5V-8.3z"/>
<path class="st2" d="M50-7.3H5c-2.8,0-5-2.3-5-5v-15h45c2.8,0,5,2.3,5,5V-7.3z"/>
<path class="st3" d="M50-8.3H5c-2.8,0-5-2.3-5-5v-15h45c2.8,0,5,2.3,5,5V-8.3z"/>
<path class="st4" d="M-69.3-7.3h-16c-2.8,0-5-2.3-5-5v-15h16c2.8,0,5,2.3,5,5V-7.3z"/>
<path class="st5" d="M-69.3-8.3h-16c-2.8,0-5-2.3-5-5v-15h16c2.8,0,5,2.3,5,5V-8.3z"/>
<g>
	<path class="st6" d="M-80.9-22h2.2c0.1,0,0.3-0.1,0.4-0.2c0.1-0.1,0.2-0.2,0.2-0.4v-1.6c0-0.1-0.1-0.3-0.2-0.4
		c-0.1-0.1-0.2-0.2-0.4-0.2h-2.2c-0.1,0-0.3,0.1-0.4,0.2c-0.1,0.1-0.2,0.2-0.2,0.4v1.6c0,0.1,0.1,0.3,0.2,0.4
		C-81.1-22-81-22-80.9-22L-80.9-22z M-80.9-22"/>
	<path class="st6" d="M-77.2-14.7c-0.1-0.1-0.2-0.2-0.4-0.2h-0.5v-4.9c0-0.1-0.1-0.3-0.2-0.4c-0.1-0.1-0.2-0.2-0.4-0.2h-3.3
		c-0.1,0-0.3,0.1-0.4,0.2c-0.1,0.1-0.2,0.2-0.2,0.4v1.1c0,0.1,0.1,0.3,0.2,0.4c0.1,0.1,0.2,0.2,0.4,0.2h0.5v3.3h-0.5
		c-0.1,0-0.3,0.1-0.4,0.2c-0.1,0.1-0.2,0.2-0.2,0.4v1.1c0,0.1,0.1,0.3,0.2,0.4c0.1,0.1,0.2,0.2,0.4,0.2h4.4c0.1,0,0.3-0.1,0.4-0.2
		c0.1-0.1,0.2-0.2,0.2-0.4v-1.1C-77-14.4-77.1-14.6-77.2-14.7L-77.2-14.7z M-77.2-14.7"/>
</g>
<image style="overflow:visible;" width="156" height="24" xlink:href="DC4FCF36.jpg"  transform="matrix(0.9999 0 0 0.9999 -261.4062 -31.2485)">
</image>
<text transform="matrix(1 0 0 1 -48.1425 -14.0835)" class="st6" style="font-family:'Exo2-Bold'; font-size:12px;">sale</text>
<g>
	<path class="st7" d="M10.9-25.3l-6.1,3.5v7l6.1,3.5l6.1-3.5v-7L10.9-25.3z M15.7-21.5l-2,1.2l-4.8-2.8l2-1.2L15.7-21.5z M10.9-18.7
		L6-21.5l2-1.2l4.8,2.8L10.9-18.7z M5.6-20.8l4.8,2.8v5.6l-4.8-2.8V-20.8z M11.3-12.4V-18l4.8-2.8v5.6L11.3-12.4z"/>
	<path class="st7" d="M25-25.3l-6.1,3.5v7l6.1,3.5l6.1-3.5v-7L25-25.3z M29.8-21.5l-2,1.2L23-23.1l2-1.2L29.8-21.5z M25-18.7
		l-4.8-2.8l2-1.2l4.8,2.8L25-18.7z M19.8-20.8l4.8,2.8v5.6l-4.8-2.8V-20.8z M25.4-12.4V-18l4.8-2.8v5.6L25.4-12.4z"/>
	<path class="st7" d="M39.1-25.3l-6.1,3.5v7l6.1,3.5l6.1-3.5v-7L39.1-25.3z M44-21.5l-2,1.2l-4.8-2.8l2-1.2L44-21.5z M39.1-18.7
		l-4.8-2.8l2-1.2l4.8,2.8L39.1-18.7z M33.9-20.8l4.8,2.8v5.6l-4.8-2.8V-20.8z M39.5-12.4V-18l4.8-2.8v5.6L39.5-12.4z"/>
</g>
<path class="st8" d="M50,21H5c-2.8,0-5-2.3-5-5V1h45c2.8,0,5,2.3,5,5V21z"/>
<path class="st9" d="M50,20H5c-2.8,0-5-2.3-5-5V0l45,0c2.8,0,5,2.3,5,5V20z"/>
<g>
	<path class="st7" d="M10.9,3L4.8,6.5v7l6.1,3.5l6.1-3.5v-7L10.9,3z M15.7,6.7l-2,1.2L8.9,5.1l2-1.2L15.7,6.7z M10.9,9.5L6,6.7
		l2-1.2l4.8,2.8L10.9,9.5z M5.6,7.4l4.8,2.8v5.6L5.6,13V7.4z M11.3,15.8v-5.6l4.8-2.8V13L11.3,15.8z"/>
	<path class="st7" d="M25,3l-6.1,3.5v7L25,17l6.1-3.5v-7L25,3z M29.8,6.7l-2,1.2L23,5.1l2-1.2L29.8,6.7z M25,9.5l-4.8-2.8l2-1.2
		L27,8.4L25,9.5z M19.8,7.4l4.8,2.8v5.6L19.8,13V7.4z M25.4,15.8v-5.6l4.8-2.8V13L25.4,15.8z"/>
	<path class="st7" d="M39.1,3l-6.1,3.5v7l6.1,3.5l6.1-3.5v-7L39.1,3z M44,6.7l-2,1.2l-4.8-2.8l2-1.2L44,6.7z M39.1,9.5l-4.8-2.8
		l2-1.2l4.8,2.8L39.1,9.5z M33.9,7.4l4.8,2.8v5.6L33.9,13V7.4z M39.5,15.8v-5.6l4.8-2.8V13L39.5,15.8z"/>
</g>
<path class="st10" d="M50,50.3H5c-2.8,0-5-2.3-5-5v-15h45c2.8,0,5,2.3,5,5V50.3z"/>
<path class="st11" d="M50,49.3H5c-2.8,0-5-2.3-5-5v-15h45c2.8,0,5,2.3,5,5V49.3z"/>
<g>
	<path class="st7" d="M10.9,32.3l-6.1,3.5v7l6.1,3.5l6.1-3.5v-7L10.9,32.3z M15.7,36l-2,1.2l-4.8-2.8l2-1.2L15.7,36z M10.9,38.8
		L6,36l2-1.2l4.8,2.8L10.9,38.8z M5.6,36.7l4.8,2.8v5.6l-4.8-2.8V36.7z M11.3,45.1v-5.6l4.8-2.8v5.6L11.3,45.1z"/>
	<path class="st7" d="M25,32.3l-6.1,3.5v7l6.1,3.5l6.1-3.5v-7L25,32.3z M29.8,36l-2,1.2L23,34.4l2-1.2L29.8,36z M25,38.8L20.2,36
		l2-1.2l4.8,2.8L25,38.8z M19.8,36.7l4.8,2.8v5.6l-4.8-2.8V36.7z M25.4,45.1v-5.6l4.8-2.8v5.6L25.4,45.1z"/>
	<path class="st7" d="M39.1,32.3l-6.1,3.5v7l6.1,3.5l6.1-3.5v-7L39.1,32.3z M44,36l-2,1.2l-4.8-2.8l2-1.2L44,36z M39.1,38.8L34.3,36
		l2-1.2l4.8,2.8L39.1,38.8z M33.9,36.7l4.8,2.8v5.6l-4.8-2.8V36.7z M39.5,45.1v-5.6l4.8-2.8v5.6L39.5,45.1z"/>
</g>
</svg>
