<?xml version="1.0" encoding="utf-8"?>
<!-- Generator: Adobe Illustrator 21.1.0, SVG Export Plug-In . SVG Version: 6.00 Build 0)  -->
<svg version="1.1" id="Слой_1" xmlns="http://www.w3.org/2000/svg" xmlns:xlink="http://www.w3.org/1999/xlink" x="0px" y="0px"
	 viewBox="0 0 50 21" style="enable-background:new 0 0 50 21;" xml:space="preserve">
<style type="text/css">
	.st0{fill:#8E0202;}
	.st1{fill:#D50000;}
	.st2{fill:#004D40;}
	.st3{fill:#2E7D32;}
	.st4{fill:#104BA6;}
	.st5{fill:#1973FF;}
	.st6{fill:#FFFFFF;}
	.st7{fill:#FFFFFF;stroke:#FFFFFF;stroke-width:0.5;stroke-miterlimit:10;}
	.st8{fill:#4A148C;}
	.st9{fill:#7B1FA2;}
	.st10{fill:#9B2105;}
	.st11{fill:#E64A19;}
</style>
<path class="st0" d="M-14.1,21h-35c-2.8,0-5-2.3-5-5V1h35c2.8,0,5,2.3,5,5V21z"/>
<path class="st1" d="M-14.1,20h-35c-2.8,0-5-2.3-5-5V0l35,0c2.8,0,5,2.3,5,5V20z"/>
<path class="st2" d="M50,21H5c-2.8,0-5-2.3-5-5V1h45c2.8,0,5,2.3,5,5V21z"/>
<path class="st3" d="M50,20H5c-2.8,0-5-2.3-5-5V0l45,0c2.8,0,5,2.3,5,5V20z"/>
<path class="st4" d="M-69.3,21h-16c-2.8,0-5-2.3-5-5V1h16c2.8,0,5,2.3,5,5V21z"/>
<path class="st5" d="M-69.3,20h-16c-2.8,0-5-2.3-5-5V0l16,0c2.8,0,5,2.3,5,5V20z"/>
<g>
	<path class="st6" d="M-80.9,6.3h2.2c0.1,0,0.3-0.1,0.4-0.2c0.1-0.1,0.2-0.2,0.2-0.4V4.1c0-0.1-0.1-0.3-0.2-0.4
		c-0.1-0.1-0.2-0.2-0.4-0.2h-2.2c-0.1,0-0.3,0.1-0.4,0.2c-0.1,0.1-0.2,0.2-0.2,0.4v1.6c0,0.1,0.1,0.3,0.2,0.4
		C-81.1,6.2-81,6.3-80.9,6.3L-80.9,6.3z M-80.9,6.3"/>
	<path class="st6" d="M-77.2,13.6c-0.1-0.1-0.2-0.2-0.4-0.2h-0.5V8.5c0-0.1-0.1-0.3-0.2-0.4c-0.1-0.1-0.2-0.2-0.4-0.2h-3.3
		c-0.1,0-0.3,0.1-0.4,0.2c-0.1,0.1-0.2,0.2-0.2,0.4v1.1c0,0.1,0.1,0.3,0.2,0.4c0.1,0.1,0.2,0.2,0.4,0.2h0.5v3.3h-0.5
		c-0.1,0-0.3,0.1-0.4,0.2c-0.1,0.1-0.2,0.2-0.2,0.4V15c0,0.1,0.1,0.3,0.2,0.4c0.1,0.1,0.2,0.2,0.4,0.2h4.4c0.1,0,0.3-0.1,0.4-0.2
		c0.1-0.1,0.2-0.2,0.2-0.4V14C-77,13.8-77.1,13.7-77.2,13.6L-77.2,13.6z M-77.2,13.6"/>
</g>
<image style="overflow:visible;" width="156" height="24" xlink:href="1BD304B1.jpg"  transform="matrix(0.9999 0 0 0.9999 -261.4062 -2.9985)">
</image>
<text transform="matrix(1 0 0 1 -48.1425 14.1665)" class="st6" style="font-family:'Exo2-Bold'; font-size:12px;">sale</text>
<g>
	<path class="st7" d="M10.9,3L4.8,6.5v7l6.1,3.5l6.1-3.5v-7L10.9,3z M15.7,6.7l-2,1.2L8.9,5.1l2-1.2L15.7,6.7z M10.9,9.5L6,6.7
		l2-1.2l4.8,2.8L10.9,9.5z M5.6,7.4l4.8,2.8v5.6L5.6,13V7.4z M11.3,15.8v-5.6l4.8-2.8V13L11.3,15.8z"/>
	<path class="st7" d="M25,3l-6.1,3.5v7L25,17l6.1-3.5v-7L25,3z M29.8,6.7l-2,1.2L23,5.1l2-1.2L29.8,6.7z M25,9.5l-4.8-2.8l2-1.2
		L27,8.4L25,9.5z M19.8,7.4l4.8,2.8v5.6L19.8,13V7.4z M25.4,15.8v-5.6l4.8-2.8V13L25.4,15.8z"/>
	<path class="st7" d="M39.1,3l-6.1,3.5v7l6.1,3.5l6.1-3.5v-7L39.1,3z M44,6.7l-2,1.2l-4.8-2.8l2-1.2L44,6.7z M39.1,9.5l-4.8-2.8
		l2-1.2l4.8,2.8L39.1,9.5z M33.9,7.4l4.8,2.8v5.6L33.9,13V7.4z M39.5,15.8v-5.6l4.8-2.8V13L39.5,15.8z"/>
</g>
<path class="st8" d="M50,49.3H5c-2.8,0-5-2.3-5-5v-15h45c2.8,0,5,2.3,5,5V49.3z"/>
<path class="st9" d="M50,48.3H5c-2.8,0-5-2.3-5-5v-15h45c2.8,0,5,2.3,5,5V48.3z"/>
<g>
	<path class="st7" d="M10.9,31.3l-6.1,3.5v7l6.1,3.5l6.1-3.5v-7L10.9,31.3z M15.7,35l-2,1.2l-4.8-2.8l2-1.2L15.7,35z M10.9,37.8
		L6,35l2-1.2l4.8,2.8L10.9,37.8z M5.6,35.7l4.8,2.8v5.6l-4.8-2.8V35.7z M11.3,44.1v-5.6l4.8-2.8v5.6L11.3,44.1z"/>
	<path class="st7" d="M25,31.3l-6.1,3.5v7l6.1,3.5l6.1-3.5v-7L25,31.3z M29.8,35l-2,1.2L23,33.4l2-1.2L29.8,35z M25,37.8L20.2,35
		l2-1.2l4.8,2.8L25,37.8z M19.8,35.7l4.8,2.8v5.6l-4.8-2.8V35.7z M25.4,44.1v-5.6l4.8-2.8v5.6L25.4,44.1z"/>
	<path class="st7" d="M39.1,31.3l-6.1,3.5v7l6.1,3.5l6.1-3.5v-7L39.1,31.3z M44,35l-2,1.2l-4.8-2.8l2-1.2L44,35z M39.1,37.8L34.3,35
		l2-1.2l4.8,2.8L39.1,37.8z M33.9,35.7l4.8,2.8v5.6l-4.8-2.8V35.7z M39.5,44.1v-5.6l4.8-2.8v5.6L39.5,44.1z"/>
</g>
<path class="st10" d="M50,78.5H5c-2.8,0-5-2.3-5-5v-15h45c2.8,0,5,2.3,5,5V78.5z"/>
<path class="st11" d="M50,77.5H5c-2.8,0-5-2.3-5-5v-15h45c2.8,0,5,2.3,5,5V77.5z"/>
<g>
	<path class="st7" d="M10.9,60.5L4.8,64v7l6.1,3.5l6.1-3.5v-7L10.9,60.5z M15.7,64.2l-2,1.2l-4.8-2.8l2-1.2L15.7,64.2z M10.9,67
		L6,64.2l2-1.2l4.8,2.8L10.9,67z M5.6,64.9l4.8,2.8v5.6l-4.8-2.8V64.9z M11.3,73.3v-5.6l4.8-2.8v5.6L11.3,73.3z"/>
	<path class="st7" d="M25,60.5L18.9,64v7l6.1,3.5l6.1-3.5v-7L25,60.5z M29.8,64.2l-2,1.2L23,62.6l2-1.2L29.8,64.2z M25,67l-4.8-2.8
		l2-1.2l4.8,2.8L25,67z M19.8,64.9l4.8,2.8v5.6l-4.8-2.8V64.9z M25.4,73.3v-5.6l4.8-2.8v5.6L25.4,73.3z"/>
	<path class="st7" d="M39.1,60.5L33.1,64v7l6.1,3.5l6.1-3.5v-7L39.1,60.5z M44,64.2l-2,1.2l-4.8-2.8l2-1.2L44,64.2z M39.1,67
		l-4.8-2.8l2-1.2l4.8,2.8L39.1,67z M33.9,64.9l4.8,2.8v5.6l-4.8-2.8V64.9z M39.5,73.3v-5.6l4.8-2.8v5.6L39.5,73.3z"/>
</g>
</svg>
