<?xml version="1.0" encoding="utf-8"?>
<!-- Generator: Adobe Illustrator 21.1.0, SVG Export Plug-In . SVG Version: 6.00 Build 0)  -->
<svg version="1.1" id="Layer_1" xmlns="http://www.w3.org/2000/svg" xmlns:xlink="http://www.w3.org/1999/xlink" x="0px" y="0px"
	 viewBox="-16.3 151.5 406 491.5" style="enable-background:new -16.3 151.5 406 491.5;" xml:space="preserve">
<style type="text/css">
	.st0{fill:#64798A;}
	.st1{fill:#F6C358;}
	.st2{fill:#FCD462;}
	.st3{fill:#44C4A1;}
	.st4{fill:#31978C;}
	.st5{fill:#3A556A;}
	.st6{fill:#EBF0F3;}
</style>
<path class="st0" d="M104.5,457c0,0,0.3,0.3,0.4,0.4c4.1-2.9,7.3-5.9,9.8-8.7c5.5-6.2,8.4-14.2,8.4-22.5v-5.1
	C99.4,391,84.1,344.8,84.1,292.5c0,0,2-34.8,38.2-38.2h32.9c8.3,0,16.6-1.1,24.6-3.4c8.5-2.4,18.6-6.5,26.4-13l61.4,20.5
	c0,0,19.1,13,21.8,34.1c0,52.3-15.4,98.6-39.2,128.8v5c0,8.3,2.9,16.3,8.4,22.5c2.5,2.8,5.8,5.8,9.8,8.7c0.1-0.1,0.4-0.4,0.4-0.4
	l2.9,3.5l35.6,19.2h2.3v-257c0-3.3-0.5-6.6-1.6-9.7c-9-25.7-30.7-28.8-30.7-28.8c2.8-14.4-1.6-22.6-6.8-27.2
	c-4.1-3.7-9.6-5.6-15.1-5.6h-93.8c-53.9,0-98,44.1-98,98v230.3h2.3l35.6-19.2L104.5,457z"/>
<path class="st1" d="M258.8,448.7c-5.5-6.2-8.4-14.2-8.4-22.5v-5c-0.8,1-1.5,2.1-2.3,3.1C231,444.8,209.8,457,186.8,457
	c-23,0-44.2-12.3-61.4-32.8c-0.8-1-1.5-2.1-2.3-3.1v5.1c0,8.3-2.9,16.3-8.4,22.5c-2.5,2.8-5.8,5.8-9.8,8.7c0.4,0.4,1.2,1.3,2.6,3
	c4.2,5.1,12.7,16.2,22.9,33.4c17.5,6.8,36.5,10.6,56.4,10.6c19.9,0,38.9-3.8,56.4-10.6c10.2-17.3,18.7-28.3,22.9-33.4
	c1.4-1.7,2.2-2.6,2.6-3C264.5,454.6,261.3,451.6,258.8,448.7z"/>
<path class="st2" d="M186.8,457c23,0,44.2-12.3,61.3-32.7c0.8-1,1.5-2.1,2.3-3.1c23.8-30.1,39.2-76.4,39.2-128.8
	c-2.7-21.2-21.8-34.1-21.8-34.1l-61.4-20.5c-7.8,6.5-18,10.5-26.4,13c-8,2.3-16.3,3.4-24.6,3.4h-32.9c-36.2,3.4-38.2,38.2-38.2,38.2
	c0,52.3,15.4,98.5,39.1,128.7c0.8,1,1.5,2.1,2.3,3.1C142.6,444.7,163.8,457,186.8,457z"/>
<path class="st3" d="M144,519.1c14.9,29.8,31,70.7,42.7,123.8c11.8-53.2,27.9-94.2,42.8-124.1c-13.7,3.5-28,5.5-42.8,5.5
	C172,524.5,157.7,522.6,144,519.1z"/>
<path class="st4" d="M130.4,493.9c4.3,7.3,8.9,15.7,13.6,25.2c13.7,3.4,28,5.3,42.7,5.3c14.8,0,29.1-2,42.8-5.5
	c4.7-9.4,9.3-17.8,13.5-25c-17.5,6.8-36.5,10.6-56.4,10.6C166.9,504.5,147.9,500.7,130.4,493.9z"/>
<path class="st5" d="M109.8,552.3c-5.7-6.8-0.8-17.1,8.1-16.9l6.5,0.2l-38.9-41.8c-3.5-3.8-3.7-9.6-0.3-13.6l16.5-19.6l-35.6,19.2
	l-47,25.4c0,0-35.3,22.1-35.3,56.7V643h203c0,0,0,0,0,0L109.8,552.3z"/>
<path class="st6" d="M144,519.1c-4.7-9.5-9.3-17.9-13.6-25.2c-10.2-17.3-18.7-28.3-22.9-33.4c-1.4-1.7-2.2-2.6-2.6-3
	c-0.1-0.1-0.4-0.4-0.4-0.4l-2.9,3.5l-16.5,19.6c-3.3,4-3.2,9.8,0.3,13.6l38.9,41.8l-6.5-0.2c-8.9-0.2-13.8,10.1-8.1,16.9l77,90.7
	l0,0C175,589.9,158.9,549,144,519.1z"/>
<path class="st5" d="M354.4,505.1l-47-25.4l-35.6-19.2l16.5,19.6c3.3,4,3.2,9.8-0.3,13.6l-38.9,41.8l6.5-0.2
	c8.9-0.2,13.8,10.1,8.1,16.9l-77,90.7h0h203v-81.2C389.8,527.2,354.4,505.1,354.4,505.1z"/>
<path class="st6" d="M255.7,535.4l-6.5,0.2l38.9-41.8c3.5-3.8,3.7-9.6,0.3-13.6l-16.5-19.6L269,457c0,0-0.3,0.3-0.4,0.4
	c-0.4,0.4-1.2,1.3-2.6,3c-4.2,5.1-12.7,16.2-22.9,33.4c-4.3,7.2-8.8,15.5-13.5,25c-14.9,29.9-31.1,70.8-42.8,124.1l0,0c0,0,0,0,0,0
	l77-90.7C269.5,545.5,264.5,535.2,255.7,535.4z"/>
</svg>
