<svg xmlns="http://www.w3.org/2000/svg" viewBox="0 0 222.31 28.81"><defs><style>.cls-1{fill:#e20589;}.cls-2{fill:#fff;}.cls-3{fill:#1973ff;}</style></defs><title>Asset 1Logo</title><g id="Layer_2" data-name="Layer 2"><g id="Слой_1" data-name="Слой 1"><path class="cls-1" d="M178.92,0h39.52a3.86,3.86,0,0,1,3.87,3.85s0,0,0,0v8.21A3.87,3.87,0,0,1,218.44,16h-4.72c-2.29-.07-3.76,1.1-3.75,3.35v5.55a3.86,3.86,0,0,1-3.87,3.85H178.92Z"/><path class="cls-2" d="M217,12a1.38,1.38,0,0,0,.71-.18,1,1,0,0,0,.46-.45A1.38,1.38,0,0,0,218,9.7a1.25,1.25,0,0,0-.94-.37,1.41,1.41,0,0,0-.71.18,1.32,1.32,0,0,0-.46.45,1.51,1.51,0,0,0-.16.7,1.45,1.45,0,0,0,.16.68,1.2,1.2,0,0,0,.46.45A1.3,1.3,0,0,0,217,12Z"/><path class="cls-2" d="M183.95,8.06a4.07,4.07,0,0,0,.31,1.56,3.43,3.43,0,0,0,.82,1.28,3.59,3.59,0,0,0,1.35.89,4.72,4.72,0,0,0,1.83.33,5.07,5.07,0,0,0,1.26-.15,4.46,4.46,0,0,0,1.13-.43,4,4,0,0,0,.94-.68l-1-1.78a4.81,4.81,0,0,1-.64.43,2.86,2.86,0,0,1-.71.34,2.45,2.45,0,0,1-.77.15,2,2,0,0,1-.85-.18,1.65,1.65,0,0,1-.59-.45,1.73,1.73,0,0,1-.37-.61,2,2,0,0,1,.1-1.58,1.5,1.5,0,0,1,.59-.67,1.87,1.87,0,0,1,1-.27,2.53,2.53,0,0,1,1,.21,2.69,2.69,0,0,1,.82.54l1.1-1.74a3,3,0,0,0-.91-.65,3.72,3.72,0,0,0-1.06-.37,4.77,4.77,0,0,0-1.12-.13,4.61,4.61,0,0,0-1.83.34,4,4,0,0,0-1.35.89,3.48,3.48,0,0,0-.82,1.28A4.12,4.12,0,0,0,183.95,8.06Z"/><path class="cls-2" d="M192.07,8.09a3.93,3.93,0,0,0,.34,1.64,3.8,3.8,0,0,0,.94,1.28,4.6,4.6,0,0,0,1.4.79,4.92,4.92,0,0,0,1.71.28,4.83,4.83,0,0,0,1.7-.28,4.27,4.27,0,0,0,1.4-.79,3.8,3.8,0,0,0,.94-1.28,3.93,3.93,0,0,0,.34-1.64,4,4,0,0,0-.34-1.65,3.53,3.53,0,0,0-.94-1.28,4.26,4.26,0,0,0-1.4-.83,5.32,5.32,0,0,0-3.42,0,4.19,4.19,0,0,0-1.38.83,3.74,3.74,0,0,0-1,1.28A4.3,4.3,0,0,0,192,8.09m2.63,0a2.16,2.16,0,0,1,.24-1,1.65,1.65,0,0,1,.64-.64,1.62,1.62,0,0,1,.88-.24,1.49,1.49,0,0,1,.85.24,1.51,1.51,0,0,1,.65.64,2.16,2.16,0,0,1,.25,1,2.06,2.06,0,0,1-.25,1,1.48,1.48,0,0,1-.65.62,1.61,1.61,0,0,1-.85.24,1.76,1.76,0,0,1-.88-.24,1.61,1.61,0,0,1-.64-.62,2.06,2.06,0,0,1-.2-1Z"/><path class="cls-2" d="M202.16,11.93h2.57V8.62a5,5,0,0,1,.07-.8,3.1,3.1,0,0,1,.22-.71,1.19,1.19,0,0,1,.48-.54,1.15,1.15,0,0,1,.73-.21.49.49,0,0,1,.48.27,1.71,1.71,0,0,1,.12.68v4.58h2.59V8.62a5.11,5.11,0,0,1,.06-.83,2.81,2.81,0,0,1,.25-.73,1.39,1.39,0,0,1,.43-.44,1.25,1.25,0,0,1,.71-.19.51.51,0,0,1,.49.27,1.74,1.74,0,0,1,.1.68V12h2.59V7a3.68,3.68,0,0,0-.33-1.68,2.1,2.1,0,0,0-.89-.91,2.92,2.92,0,0,0-1.26-.28,2.62,2.62,0,0,0-1.09.21,3.1,3.1,0,0,0-.85.46,2.64,2.64,0,0,0-.55.62h0a2.07,2.07,0,0,0-.88-1,2.51,2.51,0,0,0-1.28-.33,2.08,2.08,0,0,0-.83.15,1.7,1.7,0,0,0-.65.33A2.19,2.19,0,0,0,205,5a2.48,2.48,0,0,0-.33.42h0a.48.48,0,0,1,0-.13v-1h-2.47Z"/><path class="cls-2" d="M184.31,20.91a4.45,4.45,0,0,0,.49,2.16,2.93,2.93,0,0,0,1.25,1.16,4.47,4.47,0,0,0,1.77.3,3.76,3.76,0,0,0,1.28-.19,3.67,3.67,0,0,0,1.06-.58,2.5,2.5,0,0,0,.74-.88h0V23a1.83,1.83,0,0,0,0,.42v.85h3.17V14.62h-3.29v4.3a3.68,3.68,0,0,1-.24,1.32,2.16,2.16,0,0,1-.7,1,1.93,1.93,0,0,1-1.16.37,1,1,0,0,1-.79-.31,1.44,1.44,0,0,1-.27-1V14.62H184.3Z"/><path class="cls-2" d="M195.61,21.62a2.85,2.85,0,0,0,.42,1.5,2.93,2.93,0,0,0,1.13,1,3.93,3.93,0,0,0,3.82-.27,2.88,2.88,0,0,0,.77-.76h.06a1,1,0,0,0,0,.18,3,3,0,0,0,0,.42v.58h3v-6a4,4,0,0,0-.54-2.11,3.49,3.49,0,0,0-1.5-1.35,5.5,5.5,0,0,0-2.36-.48,8.3,8.3,0,0,0-1.61.18,8,8,0,0,0-1.46.48,5,5,0,0,0-1.1.61L197.39,18a9.56,9.56,0,0,1,1.29-.65,4.19,4.19,0,0,1,1.43-.27,3.31,3.31,0,0,1,.68.09,1.12,1.12,0,0,1,.51.36,1,1,0,0,1,.21.64v.16h-.35a10.34,10.34,0,0,0-1.5.1,7.45,7.45,0,0,0-1.52.33,4.58,4.58,0,0,0-1.28.59,2.73,2.73,0,0,0-.91.94,2.52,2.52,0,0,0-.36,1.35m3.27-.31a.82.82,0,0,1,.21-.55,1.48,1.48,0,0,1,.58-.36,4.36,4.36,0,0,1,.73-.18,7.69,7.69,0,0,1,.8,0h.3v.25a1.55,1.55,0,0,1-.22.79,1.93,1.93,0,0,1-.59.65,1.6,1.6,0,0,1-.86.27,1,1,0,0,1-.71-.25.81.81,0,0,1-.22-.63Z"/><path class="cls-3" d="M118.49,28.81V.09H127V28.81h-8.46m14.07,0V.06h13.86l14.8,21.75V.06h8.48V28.77H155.84L141,7V28.77h-8.46M0,28.77V0H24.6a16.4,16.4,0,0,1,4.31.49,5.32,5.32,0,0,1,3,2.29A9.76,9.76,0,0,1,33.1,8.12a8,8,0,0,1-.8,3.76,4.63,4.63,0,0,1-2,2.11c2.53,1.16,3.81,3.44,3.81,6.78a10.54,10.54,0,0,1-.95,4.69A5.17,5.17,0,0,1,30.45,28a12.75,12.75,0,0,1-4.91.77H0m39.25,0V0H63.88A15,15,0,0,1,67.7.4a5.79,5.79,0,0,1,2.54,1.34A6,6,0,0,1,71.76,4.3a15.74,15.74,0,0,1,.58,4.08,13.4,13.4,0,0,1-.86,5.44,5.5,5.5,0,0,1-2.95,2.68,12.85,12.85,0,0,1,2.36,1.34A3.33,3.33,0,0,1,72,19.45a9.18,9.18,0,0,1,.34,2.89v6.44H63.87V23.62a3.23,3.23,0,0,0-.67-2,2.51,2.51,0,0,0-2.13-.89H47.72v8.06H39.25m34.85,0L87.73,0h14.55L115.9,28.77H106l-2.6-4.8H86.61L84,28.77H74.1M24.93,21.23a2,2,0,0,0,.65-1.61,2.43,2.43,0,0,0-.59-1.9,3.09,3.09,0,0,0-1.83-.47H8.46V21.8h14.7a2.67,2.67,0,0,0,1.8-.58m75.31-4.69-4.58-10H94.36l-4.6,10h10.47m-37-3.91a3.27,3.27,0,0,0,.62-2.25,3.33,3.33,0,0,0-.62-2.28,2.5,2.5,0,0,0-2-.65H47.72v5.83H61.3a2.52,2.52,0,0,0,2-.65M25.58,8.89c0-1.29-.7-1.95-2.11-1.95h-15v3.87h15C24.89,10.81,25.58,10.17,25.58,8.89Z"/></g></g></svg>