<?xml version="1.0" encoding="utf-8"?>
<!-- Generator: Adobe Illustrator 21.1.0, SVG Export Plug-In . SVG Version: 6.00 Build 0)  -->
<svg version="1.1" id="Слой_1" xmlns="http://www.w3.org/2000/svg" xmlns:xlink="http://www.w3.org/1999/xlink" x="0px" y="0px"
	 viewBox="0 0 169.8 28.8" style="enable-background:new 0 0 169.8 28.8;" xml:space="preserve">
<style type="text/css">
	.st0{fill:#FFFFFF;}
	.st1{fill:#1973FF;}
</style>
<title>Asset 1Logo</title>
<g id="Layer_2">
	<g id="Слой_1_1_">
		<path class="st0" d="M217,12c0.2,0,0.5-0.1,0.7-0.2c0.2-0.1,0.4-0.3,0.5-0.4c0.3-0.5,0.3-1.2-0.2-1.7c-0.2-0.3-0.6-0.4-0.9-0.4
			c-0.2,0-0.5,0.1-0.7,0.2c-0.2,0.1-0.3,0.3-0.5,0.4c-0.1,0.2-0.2,0.5-0.2,0.7c0,0.2,0.1,0.5,0.2,0.7c0.1,0.2,0.3,0.3,0.5,0.4
			C216.5,11.9,216.8,12,217,12z"/>
		<path class="st0" d="M183.9,8.1c0,0.5,0.1,1.1,0.3,1.6c0.2,0.5,0.5,0.9,0.8,1.3c0.4,0.4,0.8,0.7,1.4,0.9c0.6,0.2,1.2,0.3,1.8,0.3
			c0.4,0,0.8,0,1.3-0.1c0.4-0.1,0.8-0.2,1.1-0.4c0.3-0.2,0.7-0.4,0.9-0.7l-1-1.8c-0.2,0.2-0.4,0.3-0.6,0.4c-0.2,0.1-0.5,0.3-0.7,0.3
			c-0.2,0.1-0.5,0.1-0.8,0.1c-0.3,0-0.6-0.1-0.9-0.2c-0.2-0.1-0.4-0.3-0.6-0.4c-0.2-0.2-0.3-0.4-0.4-0.6c-0.2-0.5-0.1-1.1,0.1-1.6
			c0.1-0.3,0.3-0.5,0.6-0.7c0.3-0.2,0.6-0.3,1-0.3c0.3,0,0.7,0.1,1,0.2c0.3,0.1,0.6,0.3,0.8,0.5l1.1-1.7c-0.3-0.3-0.6-0.5-0.9-0.7
			c-0.3-0.2-0.7-0.3-1.1-0.4c-0.4-0.1-0.7-0.1-1.1-0.1c-0.6,0-1.2,0.1-1.8,0.3c-0.5,0.2-1,0.5-1.4,0.9c-0.4,0.4-0.6,0.8-0.8,1.3
			C184,7.1,183.9,7.6,183.9,8.1z"/>
		<path class="st0" d="M192.1,8.1c0,0.6,0.1,1.1,0.3,1.6c0.2,0.5,0.5,0.9,0.9,1.3c0.4,0.3,0.9,0.6,1.4,0.8c0.5,0.2,1.1,0.3,1.7,0.3
			c0.6,0,1.2-0.1,1.7-0.3c0.5-0.2,1-0.4,1.4-0.8c0.4-0.4,0.7-0.8,0.9-1.3c0.2-0.5,0.3-1.1,0.3-1.6c0-0.6-0.1-1.1-0.3-1.7
			c-0.2-0.5-0.5-0.9-0.9-1.3c-0.4-0.4-0.9-0.6-1.4-0.8c-1.1-0.4-2.3-0.4-3.4,0c-0.5,0.2-1,0.5-1.4,0.8c-0.4,0.3-0.8,0.8-1,1.3
			C192.1,7,192,7.5,192.1,8.1 M194.6,8.1c0-0.3,0.1-0.7,0.2-1c0.1-0.3,0.4-0.5,0.6-0.6c0.3-0.2,0.6-0.2,0.9-0.2
			c0.3,0,0.6,0.1,0.9,0.2c0.3,0.1,0.5,0.4,0.6,0.6c0.2,0.3,0.2,0.7,0.3,1c0,0.3-0.1,0.7-0.3,1c-0.1,0.3-0.4,0.5-0.6,0.6
			c-0.3,0.2-0.5,0.2-0.9,0.2c-0.3,0-0.6-0.1-0.9-0.2c-0.3-0.1-0.5-0.4-0.6-0.6C194.7,8.8,194.7,8.4,194.6,8.1L194.6,8.1z"/>
		<path class="st0" d="M202.2,11.9h2.6V8.6c0-0.3,0-0.5,0.1-0.8c0-0.2,0.1-0.5,0.2-0.7c0.1-0.2,0.3-0.4,0.5-0.5
			c0.2-0.2,0.5-0.2,0.7-0.2c0.2,0,0.4,0.1,0.5,0.3c0.1,0.2,0.1,0.4,0.1,0.7v4.6h2.6V8.6c0-0.3,0-0.6,0.1-0.8c0-0.3,0.1-0.5,0.3-0.7
			c0.1-0.2,0.3-0.3,0.4-0.4c0.2-0.1,0.5-0.2,0.7-0.2c0.2,0,0.4,0.1,0.5,0.3c0.1,0.2,0.1,0.4,0.1,0.7V12h2.6V7c0-0.6-0.1-1.2-0.3-1.7
			c-0.2-0.4-0.5-0.7-0.9-0.9c-0.4-0.2-0.8-0.3-1.3-0.3c-0.4,0-0.7,0.1-1.1,0.2c-0.3,0.1-0.6,0.3-0.9,0.5c-0.2,0.2-0.4,0.4-0.6,0.6
			l0,0c-0.2-0.4-0.5-0.8-0.9-1c-0.4-0.2-0.8-0.3-1.3-0.3c-0.3,0-0.6,0-0.8,0.2c-0.2,0.1-0.5,0.2-0.6,0.3c-0.2,0.1-0.3,0.3-0.4,0.4
			c-0.1,0.1-0.2,0.3-0.3,0.4l0,0c0,0,0-0.1,0-0.1v-1h-2.5L202.2,11.9z"/>
		<path class="st0" d="M184.3,20.9c0,0.7,0.1,1.5,0.5,2.2c0.3,0.5,0.7,0.9,1.3,1.2c0.6,0.2,1.2,0.3,1.8,0.3c0.4,0,0.9-0.1,1.3-0.2
			c0.4-0.1,0.7-0.3,1.1-0.6c0.3-0.2,0.6-0.5,0.7-0.9l0,0V23c0,0.1,0,0.3,0,0.4v0.9h3.2v-9.7h-3.3v4.3c0,0.5-0.1,0.9-0.2,1.3
			c-0.1,0.4-0.4,0.7-0.7,1c-0.3,0.2-0.7,0.4-1.2,0.4c-0.3,0-0.6-0.1-0.8-0.3c-0.2-0.3-0.3-0.6-0.3-1v-5.7h-3.3L184.3,20.9z"/>
		<path class="st0" d="M195.6,21.6c0,0.5,0.1,1,0.4,1.5c0.3,0.4,0.7,0.8,1.1,1c1.2,0.6,2.7,0.5,3.8-0.3c0.3-0.2,0.6-0.5,0.8-0.8h0.1
			c0,0.1,0,0.1,0,0.2c0,0.1,0,0.3,0,0.4v0.6h3v-6c0-0.7-0.2-1.5-0.5-2.1c-0.4-0.6-0.9-1.1-1.5-1.4c-0.7-0.3-1.5-0.5-2.4-0.5
			c-0.5,0-1.1,0.1-1.6,0.2c-0.5,0.1-1,0.3-1.5,0.5c-0.4,0.2-0.8,0.4-1.1,0.6l1.1,2.4c0.4-0.2,0.8-0.5,1.3-0.6
			c0.5-0.2,0.9-0.3,1.4-0.3c0.2,0,0.5,0,0.7,0.1c0.2,0.1,0.4,0.2,0.5,0.4c0.1,0.2,0.2,0.4,0.2,0.6v0.2h-0.4c-0.5,0-1,0-1.5,0.1
			c-0.5,0.1-1,0.2-1.5,0.3c-0.5,0.1-0.9,0.3-1.3,0.6c-0.4,0.2-0.7,0.6-0.9,0.9C195.7,20.7,195.6,21.2,195.6,21.6 M198.9,21.3
			c0-0.2,0.1-0.4,0.2-0.5c0.2-0.2,0.4-0.3,0.6-0.4c0.2-0.1,0.5-0.1,0.7-0.2c0.3,0,0.5,0,0.8,0h0.3v0.3c0,0.3-0.1,0.6-0.2,0.8
			c-0.1,0.3-0.3,0.5-0.6,0.6c-0.3,0.2-0.6,0.3-0.9,0.3c-0.3,0-0.5-0.1-0.7-0.3C198.9,21.8,198.9,21.6,198.9,21.3L198.9,21.3z"/>
		<path class="st1" d="M118.5,28.8V0.1h8.5v28.7H118.5 M132.6,28.8V0.1h13.9l14.8,21.8V0.1h8.5v28.7h-13.9L141,7v21.8L132.6,28.8
			 M0,28.8V0h24.6c1.5,0,2.9,0.1,4.3,0.5c1.2,0.4,2.3,1.2,3,2.3c0.9,1.6,1.3,3.5,1.2,5.3c0,1.3-0.2,2.6-0.8,3.8
			c-0.4,0.9-1.1,1.6-2,2.1c2.5,1.2,3.8,3.4,3.8,6.8c0,1.6-0.3,3.2-1,4.7c-0.6,1.2-1.5,2.1-2.7,2.5c-1.6,0.6-3.2,0.8-4.9,0.8H0
			 M39.3,28.8V0h24.6c1.3,0,2.6,0.1,3.8,0.4c0.9,0.2,1.8,0.7,2.5,1.3c0.7,0.7,1.2,1.6,1.5,2.6c0.4,1.3,0.6,2.7,0.6,4.1
			c0.1,1.9-0.2,3.7-0.9,5.4c-0.6,1.2-1.7,2.2-2.9,2.7c0.8,0.4,1.6,0.8,2.4,1.3c0.5,0.4,0.9,1,1.1,1.6c0.3,0.9,0.4,1.9,0.3,2.9v6.4
			h-8.5v-5.2c0-0.7-0.2-1.4-0.7-2c-0.5-0.6-1.3-1-2.1-0.9H47.7v8.1L39.3,28.8 M74.1,28.8L87.7,0h14.6l13.6,28.8H106l-2.6-4.8H86.6
			L84,28.8L74.1,28.8 M24.9,21.2c0.5-0.4,0.7-1,0.6-1.6c0.1-0.7-0.1-1.4-0.6-1.9c-0.5-0.3-1.2-0.5-1.8-0.5H8.5v4.5h14.7
			C23.8,21.8,24.5,21.6,24.9,21.2 M100.3,16.5l-4.6-10h-1.3l-4.6,10H100.3 M63.2,12.6c0.5-0.6,0.7-1.4,0.6-2.3
			c0.1-0.8-0.1-1.6-0.6-2.3c-0.5-0.5-1.3-0.7-2-0.7H47.7v5.8h13.6C62,13.4,62.8,13.1,63.2,12.6 M25.6,8.9c0-1.3-0.7-1.9-2.1-1.9h-15
			v3.9h15C24.9,10.8,25.6,10.2,25.6,8.9z"/>
	</g>
</g>
</svg>
