<svg xmlns="http://www.w3.org/2000/svg" viewBox="0 0 610.46 131.36"><defs><style>.cls-1{fill:#00b1eb;}.cls-2{fill:#344151;}</style></defs><title>Ресурс 7</title><g id="Слой_2" data-name="Слой 2"><g id="Слой_1-2" data-name="Слой 1"><path class="cls-1" d="M431.86,50.67C419.94,50.67,414,44.75,414,33s5.93-17.67,17.85-17.67S449.72,21.24,449.72,33,443.79,50.67,431.86,50.67Zm0-29.16c-6.28,0-9.45,3.83-9.45,11.49s3.17,11.49,9.45,11.49,9.45-3.83,9.45-11.49S438.14,21.5,431.86,21.5Z"/><path class="cls-1" d="M489.82,49.73h-8.18V27.42c.07-5.78-3.88-8.06-15-3.49v25.8h-8.18V16.26h7.9v2.08c4.8-2,8.75-3,11.78-3,7.76,0,11.64,3.9,11.64,11.76Z"/><path class="cls-1" d="M508.11,0V49.73h-8.18V0Z"/><path class="cls-1" d="M526.34,9.41h-8.18V0h8.18Zm0,40.32h-8.18V16.26h8.18Z"/><path class="cls-1" d="M567.72,49.73h-8.18V27.42c.07-5.78-3.88-8.06-15-3.49v25.8h-8.18V16.26h7.9v2.08c4.8-2,8.75-3,11.78-3,7.76,0,11.64,3.9,11.64,11.76Z"/><path class="cls-1" d="M608.56,42.6,610,48.79a62,62,0,0,1-14.89,1.88c-12.91,0-18.7-5.64-18.7-17.67,0-11.76,5.86-17.67,17.57-17.67,6.14,0,10.37,1.55,12.84,4.64s3.67,7.39,3.67,13v2.08H584.85c.49,6.25,3.1,9.41,11.22,9.41A44.51,44.51,0,0,0,608.56,42.6ZM585,29.1h17.15c-.35-4.57-2.4-7.59-8.25-7.59C588.66,21.5,585.7,24.06,585,29.1Z"/><path class="cls-2" d="M75.86,53.48C71,48.62,64.31,46.25,55.37,46.25c-12.5,0-28.77,2.4-31.67,2.84V15.74H0V122.36l.17.12a40.87,40.87,0,0,0,9.93,4.46c6.13,2,16.53,4.43,31.25,4.43s25.92-3.67,33.12-10.91S85.32,102,85.24,86.57C85.29,70.69,82.22,59.87,75.86,53.48ZM61.79,88.13h0c.06,9.14-.8,16.13-5.17,20.54C53,112.3,47.18,114,38.27,114c-9.59,0-13.71-2-14.57-2.43V65.17h23c5.76,0,9.28,1,11.43,3.12C61.29,71.47,61.84,77.46,61.79,88.13Z"/><path class="cls-2" d="M211.43,46.25c-19.11,0-39.76,3.95-40,4l-.32.06V65.17h36.47c3.82,0,6.45.78,8.06,2.4,2.17,2.18,2.15,5.6,2.13,8.9v4c-2.31-.17-13.75-1-23.71-1-24,0-33.83,7-33.83,24,0,19.47,9.48,27.78,31.71,27.78A160.08,160.08,0,0,0,239.56,124l.26-.09V77C239.82,61.81,236.44,46.25,211.43,46.25Zm6.38,65.22c-2.12.38-14.48,2.53-24.71,2.53-8.45,0-10.05-3.73-10.05-10.62,0-6.39,2.8-8,13.63-8h21.13Z"/><path class="cls-2" d="M356.77,46.25c-25.75,0-53.35,5.34-53.62,5.4l-.31.06v76.17h22.78V65.17h24.27c5.26,0,8.6.9,10.51,2.83s2.42,5.28,2.37,9.48v50.4h22.78V76.68C385.54,55.35,376.94,46.25,356.77,46.25Z"/><rect class="cls-2" x="259.94" y="48.51" width="22.78" height="79.37"/><polygon class="cls-2" points="259.76 15.74 259.76 37.87 282.72 37.87 282.72 37.69 282.89 37.69 282.89 15.74 259.76 15.74"/><path class="cls-2" d="M152.92,46.25c-20.52,0-50.83,5.31-51.13,5.37l-.32.06v76.21h22.77V65.17h29.08V46.25Z"/></g></g></svg>