<svg xmlns="http://www.w3.org/2000/svg" viewBox="0 0 138.9 27.44"><defs><style>.cls-1{fill:rgba(16,177,232,.5);fill-rule:evenodd;}</style></defs><title>Asset 2MenuLogos</title><g id="Layer_2" data-name="Layer 2"><g id="Layer_1-2" data-name="Layer 1"><path class="cls-1" d="M13.08,27.44l-1.93-4,1.93-4L22.39,0h3.8L14.95,23.49Zm21.44,0V0H38V27.44Zm15.59,0V6.74l3.46,5.79V27.44Zm16.33,0L62,20l-1.68-2.91-2-3.31L50.11,0h4l8.14,13.78L67,21.72V0h3.46V27.44Zm46.28,0L124,4l1.87-4,1.93,4-1.93,4-9.31,19.45Zm22.39,0-2.51-5.27h-9.64l1.59-3.34H131L127.75,12l1.9-4,9.25,19.42Zm-45.6-1a14.45,14.45,0,0,1-4.57-3A13.25,13.25,0,0,1,81.87,19a13.76,13.76,0,0,1-1.07-5.24,14,14,0,0,1,1.07-5.27A13.56,13.56,0,0,1,84.93,4a14.37,14.37,0,0,1,4.57-3,14.53,14.53,0,0,1,5.39-1h8.57V3.4H94.89a10.39,10.39,0,0,0-4.13.83,10.72,10.72,0,0,0-3.37,2.21,10.93,10.93,0,0,0-2.27,3.31,10.24,10.24,0,0,0-.86,4,10.23,10.23,0,0,0,.86,4A10.41,10.41,0,0,0,87.38,21a11.41,11.41,0,0,0,3.37,2.24,11.58,11.58,0,0,0,4.13.83h8.51l-3.43,0V18.84h3.43v8.61H94.89A14.5,14.5,0,0,1,89.5,26.43Zm-80.25-7L0,0H3.8L11.15,15.5Zm82.88-4V12.07h11.33v3.37Z"/></g></g></svg>