<svg xmlns="http://www.w3.org/2000/svg" viewBox="0 0 237.45 49.01"><defs><style>.cls-1{fill:#7f9ac4;}</style></defs><title>Asset 4MenuLogos</title><g id="Layer_2" data-name="Layer 2"><g id="Layer_1-2" data-name="Layer 1"><g id="layer1"><g id="g23944"><g id="g13605"><path id="path13607" class="cls-1" d="M99.52,10.51a15.47,15.47,0,0,0-12.14,6h0V11.14H77.15V48.38H87.38V27.19c0-3.81,3-7.87,8.43-7.87,4.23,0,8.61,2.94,8.61,7.87V48.38h10.23V25.29c0-8.57-6.13-14.78-15.12-14.78"/></g><g id="g13609"><path id="path13611" class="cls-1" d="M187.33,11.14l-9.24,25.37-9.24-25.37H157.15l15.32,37.23h11.21L199,11.14Z"/></g><g id="g13613"><path id="path13615" class="cls-1" d="M46.62,22.36a9.51,9.51,0,0,1,7.87-3.71,8.56,8.56,0,0,1,7.93,5.21L44.55,31.27a12,12,0,0,1,2.07-8.91M66.27,36.93c-4.3,3.18-6.76,3.94-10.69,3.94a11.33,11.33,0,0,1-8.25-3L73.48,27A20.18,20.18,0,0,0,69,16.61c-3.43-4-8.52-6.1-14.71-6.1-11.24,0-19.72,8.3-19.72,19.25C34.58,41,43.08,49,55.43,49c6.92,0,14-3.28,17.31-7.11Z"/></g><g id="g13617"><path id="path13619" class="cls-1" d="M33.61,39H10.37V0H0V48.38H33.61Z"/></g><g id="g13621"><path id="path13623" class="cls-1" d="M217.37,19.27c-5.71,0-9.86,4.33-9.86,10.48,0,5.88,4.39,10.48,10,10.48s9.86-4.45,9.86-10.48c0-5.88-4.39-10.48-10-10.48m0,29.73c-11.18,0-19.95-8.33-19.95-19.25s8.82-19.25,20.08-19.25,19.94,8.33,19.94,19.25S228.63,49,217.37,49"/></g><g id="g13625"><path id="path13627" class="cls-1" d="M138.64,19.27c-5.71,0-9.86,4.33-9.86,10.48,0,5.88,4.39,10.48,10,10.48s9.86-4.45,9.86-10.48c0-5.88-4.39-10.48-10-10.48m0,29.73c-11.18,0-19.94-8.33-19.94-19.25s8.82-19.25,20.08-19.25,19.94,8.33,19.94,19.25S149.9,49,138.64,49"/></g></g></g></g></g></svg>