<svg xmlns="http://www.w3.org/2000/svg" viewBox="0 0 95.17 121.67"><defs><style>.cls-1{fill:rgba(16,177,232,.5);}</style></defs><title>Asset 6MenuLogos</title><g id="Layer_2" data-name="Layer 2"><g id="Layer_1-2" data-name="Layer 1"><path class="cls-1" d="M79.48,64.7c-.13-15.37,12.1-22.85,12.66-23.2A26.87,26.87,0,0,0,70.7,29.45c-9-1-17.76,5.61-22.36,5.61S36.58,29.55,29,29.71c-9.81.16-19,6.07-24,15.25-10.39,18.71-2.64,46.2,7.31,61.33,5,7.4,10.8,15.67,18.41,15.38,7.45-.32,10.23-4.95,19.23-4.95s11.52,4.95,19.29,4.76c8-.14,13-7.44,17.84-14.92a62.38,62.38,0,0,0,8.16-17.28A26.59,26.59,0,0,1,79.48,64.7Z"/><path class="cls-1" d="M64.81,19.5c4-5.22,6.75-12.3,6-19.5C65,.27,57.74,4.17,53.57,9.28c-3.69,4.49-7,11.85-6.14,18.78C53.94,28.55,60.63,24.63,64.81,19.5Z"/></g></g></svg>