<svg xmlns="http://www.w3.org/2000/svg" viewBox="0 0 200.78 66.66"><defs><style>.cls-1{fill:rgba(16,177,232,.5);}</style></defs><title>Asset 5MenuLogos</title><g id="Layer_2" data-name="Layer 2"><g id="Layer_1-2" data-name="Layer 1"><path class="cls-1" d="M200.65,15.87C197.92.19,150.82-4.7,95.45,4.94,72.19,9,51.19,15,34.84,21.69c2.51.06,4.37.63,5.51,1.76a4.91,4.91,0,0,1,1.33,3.62v1.55H36.25V27.25a1.72,1.72,0,0,0-1.9-1.85,1.68,1.68,0,0,0-1.85,1.37,2.62,2.62,0,0,0,0,1.08c.58,2.38,8.64,3.85,9.52,8.23a10.45,10.45,0,0,1,0,3.5c-.5,3.53-3.61,4.9-7.56,4.9-5.52,0-7.76-2.61-7.76-6.22v-1.7h5.82v2.12a1.83,1.83,0,0,0,2,1.85,1.78,1.78,0,0,0,2-1.37,2.69,2.69,0,0,0,0-1.53c-1.08-2.7-8.61-4-9.53-8.33A7.32,7.32,0,0,1,27,26.43a5.55,5.55,0,0,1,.48-1.51C9.33,33.4-1.28,42.73.12,50.79,2.86,66.47,50,71.36,105.33,61.71c24.34-4.24,46.22-10.58,62.88-17.69-.24,0-.47,0-.72,0-3.79,0-7.17-1.42-7.53-5.29-.06-.71-.07-1-.08-1.4v-8.9c0-.38,0-1.06.09-1.41.45-3.74,3.41-5.29,7.51-5.29,3.17,0,7.07.91,7.5,5.29a12.82,12.82,0,0,1,0,1.33h0v.84h-5.49V28h0a5.1,5.1,0,0,0-.07-.79,1.85,1.85,0,0,0-2-1.48,1.89,1.89,0,0,0-2,1.48,4.72,4.72,0,0,0-.08,1v9.68a4.39,4.39,0,0,0,0,.79,2.21,2.21,0,0,0,4.18,0,4.57,4.57,0,0,0,.05-.79v-3h-2.16V31.62h7.63v5.74a13.57,13.57,0,0,1-.07,1.4,5.4,5.4,0,0,1-.91,2.61C191.75,33,202,23.81,200.65,15.87ZM57.07,43.65,54.29,24.78h-.1L51.34,43.65H45.48l3.94-21.32H59l3.91,21.32Zm28.16,0L85.1,25.14H85L81.56,43.65H76.06L72.64,25.14h-.1l-.12,18.51H67l.47-21.32H76.2l2.55,15.84h.12l2.56-15.84h8.75l.47,21.32Zm25.64-4.13c-.59,4.13-4.63,4.85-7.49,4.85-4.75,0-7.68-2-7.68-6.16V36.53h5.75v2.1a1.81,1.81,0,0,0,2,1.84,1.76,1.76,0,0,0,2-1.36,2.7,2.7,0,0,0,0-1.51c-1.06-2.65-8.53-4-9.44-8.25a7.18,7.18,0,0,1-.05-2.85c.63-3.9,4.37-4.71,7.39-4.71,2.69,0,4.65.59,5.83,1.76a4.86,4.86,0,0,1,1.32,3.58v1.54h-5.38V27.31a1.71,1.71,0,0,0-1.88-1.83,1.67,1.67,0,0,0-1.85,1.36,2.6,2.6,0,0,0,0,1.07c.58,2.36,8.57,3.81,9.44,8.15A10.42,10.42,0,0,1,110.87,39.52Zm19.92-1.94c0,.4,0,1.2-.05,1.4-.33,3.51-2.84,5.3-7.45,5.3s-7.14-1.79-7.46-5.3c0-.2-.06-1-.05-1.4V22.33h5.5V38.07a4,4,0,0,0,0,.79,2,2,0,0,0,3.94,0,5.15,5.15,0,0,0,0-.8V22.33h5.48Zm23.71,5.85h-7.66L141.7,26.55h-.09l.29,16.89h-5.34V22.34h8l4.75,16.22h.11l-.28-16.22h5.37Z"/></g></g></svg>