<svg xmlns="http://www.w3.org/2000/svg" width="27.96" height="20" viewBox="0 0 27.96 20">
  <defs>
    <style>
      .cls-1 {
        fill: #10b1e8;
        fill-rule: evenodd;
      }
    </style>
  </defs>
  <path id="Фигура_1441" data-name="Фигура 1441" class="cls-1" d="M2472.24,581.67V568.33a3.325,3.325,0,0,1,3.31-3.33h12.72a0.7,0.7,0,0,1,0,1.4h-12.72a1.917,1.917,0,0,0-1.91,1.93v13.34a1.917,1.917,0,0,0,1.91,1.93h13.26a1.925,1.925,0,0,0,1.92-1.93h0V568.78l-0.49.49a0.7,0.7,0,0,1-.99-1l2.2-2.21,2.17,2.2a0.7,0.7,0,1,1-.99,1h0l-0.52-.52v12.93a3.317,3.317,0,0,1-3.3,3.33h-13.26A3.325,3.325,0,0,1,2472.24,581.67Zm-2.19,1.91V582a2.269,2.269,0,0,0-.07-0.58,1.674,1.674,0,0,0-.22-0.48,1.106,1.106,0,0,0-.38-0.33,1.162,1.162,0,0,0-.51-0.13,1.129,1.129,0,0,0-.41.08,0.952,0.952,0,0,0-.57.64h-0.02a0.944,0.944,0,0,0-.37-0.39,1.035,1.035,0,0,0-.52-0.14,0.989,0.989,0,0,0-.59.17,1.084,1.084,0,0,0-.37.48,1.975,1.975,0,0,0-.14.68v1.57Zm-2.47-.8h-1.04V582a0.667,0.667,0,0,1,.07-0.31,0.445,0.445,0,0,1,.18-0.19,0.537,0.537,0,0,1,.27-0.06,0.558,0.558,0,0,1,.26.06,0.452,0.452,0,0,1,.19.19,0.529,0.529,0,0,1,.07.3v0.79Zm1.81,0h-1.19v-0.86a0.674,0.674,0,0,1,.08-0.34,0.556,0.556,0,0,1,.21-0.22,0.621,0.621,0,0,1,.31-0.07,0.6,0.6,0,0,1,.31.07,0.485,0.485,0,0,1,.21.22,0.709,0.709,0,0,1,.08.35Zm0.66-3.06v-0.8h-1.55v-0.77l1.56-.87v-0.9l-1.55.9-0.17.1h-0.05a1.074,1.074,0,0,0-.26-0.4,1.134,1.134,0,0,0-.4-0.25,1.287,1.287,0,0,0-.47-0.09,1.337,1.337,0,0,0-.51.09,1.091,1.091,0,0,0-.41.27,1.205,1.205,0,0,0-.25.39c-0.02.065-.04,0.132-0.06,0.2v2.08Zm-2.18-.8h-1.33v-0.58a1.405,1.405,0,0,1,0-.29,0.636,0.636,0,0,1,.05-0.19,0.5,0.5,0,0,1,.22-0.26,0.719,0.719,0,0,1,.35-0.08,0.644,0.644,0,0,1,.48.19,0.709,0.709,0,0,1,.23.49v0.72Zm2.18-2.63v-0.82l-1.07-.37v-1.54l1.08-.38v-0.81l-4.18,1.54v0.84Zm-1.68-1.38-1.11-.4-0.2-.06-0.18-.05h-0.03l0.21-.06,0.2-.06,1.11-.52v1.15Zm-2.49-3.87h4.17v0.8h-4.17v-0.8Zm4.17-1.04v-0.8h-2.97l0.16-.09,0.2-.11,0.2-.13,2.41-1.64v-0.79h-4.17v0.79h3.05l-0.06.01-0.16.09-0.21.12-0.21.13-2.41,1.65V570h4.17Zm7.15,10.9a2.356,2.356,0,0,1-.99-1.07,3.867,3.867,0,0,1-.31-1.61v-1.78h0v-6.65a0.715,0.715,0,1,1,1.43,0v6.65h0v1.82a2.079,2.079,0,0,0,.37,1.28,1.422,1.422,0,0,0,1.16.46,1.449,1.449,0,0,0,1.17-.46,1.836,1.836,0,0,0,.32-1.16v-8.59a0.69,0.69,0,0,1,1.38,0V570h0v8.27h0a4,4,0,0,1-.31,1.49,2.335,2.335,0,0,1-1,1.07A3.837,3.837,0,0,1,2477.2,580.9Zm5.99-.47V569.89a0.752,0.752,0,0,1,.78-0.89h2.06a3.483,3.483,0,0,1,1.66.36,2.17,2.17,0,0,1,.99,1,3.68,3.68,0,0,1,.26,1.64v1.45a2.942,2.942,0,0,1-.73,2.18,3.142,3.142,0,0,1-2.29.74h-1.28v3.77h0v0.28a0.724,0.724,0,0,1-1.44,0Zm3.97-5.64a1.674,1.674,0,0,0,.4-1.25v-1.61a1.833,1.833,0,0,0-.35-1.24,1.419,1.419,0,0,0-1.14-.42h-1.39v4.89h1.28a1.636,1.636,0,0,0,1.16-.37h0.04Z" transform="translate(-2465.88 -565)"/>
</svg>
