<svg xmlns="http://www.w3.org/2000/svg" viewBox="0 0 264.15 52"><defs><style>.cls-1{fill:#126eab;}.cls-1,.cls-2,.cls-3{fill-rule:evenodd;}.cls-2{fill:#e20589;}.cls-3{fill:#fff;}</style></defs><title>brain_logo</title><g id="Слой_2" data-name="Слой 2"><g id="Layer_1" data-name="Layer 1"><path class="cls-1" d="M24.91,35.09,0,29.76V24.16L24.9,29.47l6.46-5.83v5.62l-6.44,5.83m-1.34-1.64v-2.9L1.34,25.79v2.9l22.24,4.76M24.9,23.26,0,18V12.33l24.9,5.31,6.46-5.86v5.61L24.9,23.26m-1.34-1.64V18.71L1.34,14v2.89l22.22,4.76M24.9,11.44,0,6.13V.51L24.9,5.82,31.35,0V5.62l-6.44,5.82h0M23.58,9.8V6.9L1.34,2.16V5Z"/><path class="cls-2" d="M220.76,2.42h39.52a3.86,3.86,0,0,1,3.87,3.87V14.5a3.87,3.87,0,0,1-3.87,3.85h-4.72c-2.29-.07-3.76,1.1-3.75,3.35v5.55a3.86,3.86,0,0,1-3.88,3.85H220.76Z"/><path class="cls-3" d="M258.87,14.35a1.38,1.38,0,0,0,.71-.18,1,1,0,0,0,.46-.45,1.38,1.38,0,0,0-.21-1.64,1.25,1.25,0,0,0-.94-.37,1.41,1.41,0,0,0-.71.18,1.32,1.32,0,0,0-.46.45,1.51,1.51,0,0,0-.16.7,1.45,1.45,0,0,0,.16.68,1.2,1.2,0,0,0,.46.45A1.3,1.3,0,0,0,258.87,14.35Z"/><path class="cls-3" d="M225.79,10.44A4.07,4.07,0,0,0,226.1,12a3.43,3.43,0,0,0,.82,1.28,3.59,3.59,0,0,0,1.35.89,4.72,4.72,0,0,0,1.83.33,5.07,5.07,0,0,0,1.26-.15,4.46,4.46,0,0,0,1.13-.43,4,4,0,0,0,.94-.68l-1-1.78a4.81,4.81,0,0,1-.64.43,2.86,2.86,0,0,1-.71.34,2.45,2.45,0,0,1-.77.15,2,2,0,0,1-.85-.18,1.65,1.65,0,0,1-.59-.45,1.73,1.73,0,0,1-.37-.61,1.95,1.95,0,0,1,.1-1.58,1.5,1.5,0,0,1,.59-.67,1.87,1.87,0,0,1,1-.27,2.53,2.53,0,0,1,1,.21,2.69,2.69,0,0,1,.82.54l1.1-1.74a3,3,0,0,0-.91-.65,3.72,3.72,0,0,0-1.06-.37,4.77,4.77,0,0,0-1.12-.13,4.61,4.61,0,0,0-1.83.34,4,4,0,0,0-1.35.89,3.48,3.48,0,0,0-.82,1.28A4.12,4.12,0,0,0,225.79,10.44Z"/><path class="cls-3" d="M233.91,10.47a3.93,3.93,0,0,0,.34,1.64,3.8,3.8,0,0,0,.94,1.28,4.6,4.6,0,0,0,1.4.79,4.92,4.92,0,0,0,1.71.28,4.83,4.83,0,0,0,1.7-.28,4.27,4.27,0,0,0,1.4-.79,3.8,3.8,0,0,0,.94-1.28,3.93,3.93,0,0,0,.34-1.64,4,4,0,0,0-.34-1.65,3.53,3.53,0,0,0-.94-1.28,4.26,4.26,0,0,0-1.4-.83,5.32,5.32,0,0,0-3.42,0,4.19,4.19,0,0,0-1.38.83,3.74,3.74,0,0,0-1,1.28,4.3,4.3,0,0,0-.33,1.65m2.63,0a2.16,2.16,0,0,1,.24-1,1.65,1.65,0,0,1,.64-.64,1.62,1.62,0,0,1,.88-.24,1.49,1.49,0,0,1,.85.24,1.51,1.51,0,0,1,.65.64,2.16,2.16,0,0,1,.25,1,2.06,2.06,0,0,1-.25,1,1.48,1.48,0,0,1-.65.62,1.61,1.61,0,0,1-.85.24,1.76,1.76,0,0,1-.88-.24,1.61,1.61,0,0,1-.64-.62A2.06,2.06,0,0,1,236.54,10.47Z"/><path class="cls-3" d="M244,14.31h2.57V11a5,5,0,0,1,.07-.8,3.1,3.1,0,0,1,.22-.71,1.19,1.19,0,0,1,.48-.54,1.15,1.15,0,0,1,.73-.21.49.49,0,0,1,.48.27,1.71,1.71,0,0,1,.12.68v4.58h2.59V11a5.11,5.11,0,0,1,.06-.83,2.81,2.81,0,0,1,.25-.73A1.39,1.39,0,0,1,252,9a1.25,1.25,0,0,1,.71-.19.51.51,0,0,1,.49.27,1.74,1.74,0,0,1,.1.68v4.58h2.59v-5a3.68,3.68,0,0,0-.33-1.68,2.1,2.1,0,0,0-.89-.91,2.92,2.92,0,0,0-1.26-.28,2.62,2.62,0,0,0-1.09.21,3.1,3.1,0,0,0-.85.46,2.64,2.64,0,0,0-.55.62h0a2.07,2.07,0,0,0-.88-1,2.51,2.51,0,0,0-1.28-.33,2.08,2.08,0,0,0-.83.15,1.7,1.7,0,0,0-.65.33,2.19,2.19,0,0,0-.48.43,2.48,2.48,0,0,0-.33.42h0a.48.48,0,0,1,0-.13c0-.1,0-.19,0-.33V6.6H244Z"/><path class="cls-3" d="M226.15,23.29a4.45,4.45,0,0,0,.49,2.16,2.93,2.93,0,0,0,1.25,1.16,4.47,4.47,0,0,0,1.77.3,3.76,3.76,0,0,0,1.28-.19,3.67,3.67,0,0,0,1.06-.58,2.5,2.5,0,0,0,.74-.88h0v.16a1.83,1.83,0,0,0,0,.42v.85h3.17V17h-3.29V21.3a3.68,3.68,0,0,1-.24,1.32,2.16,2.16,0,0,1-.7,1,1.93,1.93,0,0,1-1.16.37,1,1,0,0,1-.79-.31,1.44,1.44,0,0,1-.27-1V17h-3.32Z"/><path class="cls-3" d="M237.45,24a2.85,2.85,0,0,0,.42,1.5A2.93,2.93,0,0,0,239,26.54a3.93,3.93,0,0,0,3.82-.27,2.88,2.88,0,0,0,.77-.76h.06a1,1,0,0,0,0,.18,3,3,0,0,0,0,.42v.58h3V20.73a4,4,0,0,0-.54-2.11,3.49,3.49,0,0,0-1.5-1.35,5.5,5.5,0,0,0-2.36-.48,8.3,8.3,0,0,0-1.61.18,8,8,0,0,0-1.46.48,5,5,0,0,0-1.1.61l1.15,2.28a9.56,9.56,0,0,1,1.29-.65,4.19,4.19,0,0,1,1.43-.27,3.31,3.31,0,0,1,.68.09,1.12,1.12,0,0,1,.51.36,1,1,0,0,1,.21.64v.16H243a10.34,10.34,0,0,0-1.5.1,7.45,7.45,0,0,0-1.52.33,4.58,4.58,0,0,0-1.28.59,2.73,2.73,0,0,0-.91.94,2.52,2.52,0,0,0-.36,1.35m3.27-.31a.82.82,0,0,1,.21-.55,1.48,1.48,0,0,1,.58-.36,4.36,4.36,0,0,1,.73-.18,7.69,7.69,0,0,1,.8,0h.3v.25a1.55,1.55,0,0,1-.22.79,1.93,1.93,0,0,1-.59.65,1.6,1.6,0,0,1-.86.27,1,1,0,0,1-.71-.25A.81.81,0,0,1,240.72,23.66Z"/><path class="cls-1" d="M160.33,31.19V2.47h8.46V31.19h-8.46m14.07,0V2.44h13.86l14.8,21.75V2.44h8.48V31.15H197.68L182.86,9.37V31.15H174.4m-132.56,0V2.38h24.6a16.4,16.4,0,0,1,4.31.49,5.32,5.32,0,0,1,3,2.29,9.76,9.76,0,0,1,1.19,5.34,8,8,0,0,1-.8,3.76,4.63,4.63,0,0,1-2,2.11c2.53,1.16,3.81,3.44,3.81,6.78A10.54,10.54,0,0,1,75,27.84a5.17,5.17,0,0,1-2.71,2.53,12.75,12.75,0,0,1-4.91.77H41.84m39.25,0V2.38h24.63a15,15,0,0,1,3.82.4,5.79,5.79,0,0,1,2.54,1.34,6,6,0,0,1,1.52,2.56,15.74,15.74,0,0,1,.58,4.08,13.4,13.4,0,0,1-.86,5.44,5.5,5.5,0,0,1-2.95,2.68,12.85,12.85,0,0,1,2.36,1.34,3.33,3.33,0,0,1,1.1,1.61,9.18,9.18,0,0,1,.34,2.89v6.44h-8.46V26a3.23,3.23,0,0,0-.67-2,2.51,2.51,0,0,0-2.13-.89H89.56v8.06H81.09m34.85,0L129.57,2.41h14.55l13.62,28.74h-9.89l-2.6-4.8H128.45l-2.6,4.8h-9.91M66.77,23.61A2,2,0,0,0,67.42,22a2.43,2.43,0,0,0-.59-1.9A3.09,3.09,0,0,0,65,19.63H50.3v4.55H65a2.67,2.67,0,0,0,1.8-.58m75.31-4.69-4.58-10H136.2l-4.6,10h10.47M105.1,15a3.27,3.27,0,0,0,.62-2.25,3.33,3.33,0,0,0-.62-2.28,2.5,2.5,0,0,0-2-.65H89.56v5.83h13.58a2.52,2.52,0,0,0,2-.65M67.42,11.27c0-1.29-.7-1.95-2.11-1.95h-15v3.87h15C66.73,13.19,67.42,12.55,67.42,11.27Z"/><path class="cls-1" d="M1.13,48.76h1l.39-5c0-.12,0-.25,0-.39v-.45c0-.15,0-.27,0-.37v-.15h0a.51.51,0,0,0,.07.16c0,.12.1.25.18.42a3.85,3.85,0,0,0,.25.57l2.16,4.33h1l2.16-4.34c.12-.21.21-.4.3-.58s.1-.3.15-.4.06-.13.06-.15h0a.87.87,0,0,0,0,.15v.82a3.24,3.24,0,0,0,0,.39l.39,5h1L9.65,41H8.57L6.2,45.78c-.07.16-.15.34-.22.49a4.32,4.32,0,0,1-.18.42,1,1,0,0,0-.07.18h0s0-.06-.07-.18a2.9,2.9,0,0,1-.18-.42c-.07-.18-.15-.33-.22-.49L2.89,41H1.77Z"/><path class="cls-1" d="M14.34,46.66a2.16,2.16,0,0,0,.24,1,2,2,0,0,0,.58.7,2.54,2.54,0,0,0,.85.43A3.54,3.54,0,0,0,17,49a2.71,2.71,0,0,0,1.16-.25,2.86,2.86,0,0,0,1.47-1.5h0a.88.88,0,0,1,0,.19c0,.1,0,.25,0,.48v.89h1v-5a3,3,0,0,0-.74-2.22,3,3,0,0,0-2.16-.77,8.23,8.23,0,0,0-1,.1,6,6,0,0,0-1,.31,3.15,3.15,0,0,0-.76.48l.48.79a4.15,4.15,0,0,1,1.06-.54,3.79,3.79,0,0,1,1.16-.19,2.57,2.57,0,0,1,1,.18,1.57,1.57,0,0,1,.68.64,2.41,2.41,0,0,1,.24,1.19V44h-.45c-.25,0-.54,0-.86,0a8.57,8.57,0,0,0-1,.1,5.24,5.24,0,0,0-1.06.27,2.87,2.87,0,0,0-.89.48,2.12,2.12,0,0,0-.65.74,2.23,2.23,0,0,0-.25,1.07m1.07-.07a1.31,1.31,0,0,1,.27-.85,1.62,1.62,0,0,1,.68-.52,3.07,3.07,0,0,1,.91-.28,7.66,7.66,0,0,1,1-.1c.33,0,.61,0,.85,0h.45v.37a4,4,0,0,1-.13,1,4.27,4.27,0,0,1-.48.94,2.76,2.76,0,0,1-.76.68,2.21,2.21,0,0,1-1,.27,2.39,2.39,0,0,1-1-.22,1.63,1.63,0,0,1-.58-.57A1.5,1.5,0,0,1,15.41,46.59Z"/><polygon class="cls-1" points="25.54 48.76 26.58 48.76 26.58 41.9 30.18 41.9 30.18 40.99 25.54 40.99 25.54 48.76"/><path class="cls-1" d="M33.6,46.66a2.16,2.16,0,0,0,.24,1,2,2,0,0,0,.58.7,2.54,2.54,0,0,0,.85.43,3.56,3.56,0,0,0,1,.15,2.69,2.69,0,0,0,1.15-.25,2.92,2.92,0,0,0,.89-.62,2.82,2.82,0,0,0,.58-.88h0a1.73,1.73,0,0,1,0,.19,3.29,3.29,0,0,0,0,.48v.89h1v-5a3,3,0,0,0-.76-2.22,3,3,0,0,0-2.16-.77,8,8,0,0,0-1,.1,6.48,6.48,0,0,0-1,.31,3.15,3.15,0,0,0-.76.48l.48.79a4.41,4.41,0,0,1,1.06-.54,3.87,3.87,0,0,1,1.16-.19,2.64,2.64,0,0,1,1,.18,1.46,1.46,0,0,1,.67.64,2.39,2.39,0,0,1,.27,1.19V44h-.48c-.25,0-.54,0-.86,0a8.57,8.57,0,0,0-1,.1,5.36,5.36,0,0,0-1,.27,2.78,2.78,0,0,0-.91.48,1.94,1.94,0,0,0-.64.74,2.08,2.08,0,0,0-.27,1.07m1.07-.07a1.24,1.24,0,0,1,.28-.85,1.57,1.57,0,0,1,.67-.52,3.22,3.22,0,0,1,.91-.28,7.6,7.6,0,0,1,1-.1c.31,0,.59,0,.85,0h.46v.37a3.5,3.5,0,0,1-.16,1,3.71,3.71,0,0,1-.48.94,2.56,2.56,0,0,1-.76.68,2.16,2.16,0,0,1-1,.27,2.39,2.39,0,0,1-1-.22,1.58,1.58,0,0,1-.57-.57A1.36,1.36,0,0,1,34.67,46.59Z"/><path class="cls-1" d="M44,47.82a3.22,3.22,0,0,0,.68.54,4.13,4.13,0,0,0,.89.43,3.84,3.84,0,0,0,1.13.16,4.35,4.35,0,0,0,1.09-.15,3,3,0,0,0,.91-.45,2.19,2.19,0,0,0,.67-.76,2.48,2.48,0,0,0,.22-1,2.2,2.2,0,0,0-.19-.91,1.89,1.89,0,0,0-.52-.62,2.08,2.08,0,0,0-.76-.34v0a1.94,1.94,0,0,0,.61-.36,1.81,1.81,0,0,0,.42-.58,2.19,2.19,0,0,0-.18-2A2.13,2.13,0,0,0,48.1,41a3.39,3.39,0,0,0-1.32-.22,3.74,3.74,0,0,0-1,.12,4.36,4.36,0,0,0-.85.3,2.89,2.89,0,0,0-.62.43l.46.74a2.73,2.73,0,0,1,.85-.51,2.65,2.65,0,0,1,1-.21,2.4,2.4,0,0,1,.85.15,1.23,1.23,0,0,1,.57.45,1.24,1.24,0,0,1,.21.73,1.33,1.33,0,0,1-.21.74,1.62,1.62,0,0,1-.62.43,2.71,2.71,0,0,1-.91.13h-.82v.85h.94a2.3,2.3,0,0,1,1.41.34,1.22,1.22,0,0,1,.48,1,1.34,1.34,0,0,1-.27.85,1.73,1.73,0,0,1-.7.51,2.5,2.5,0,0,1-.89.15,2.72,2.72,0,0,1-1-.16,4.52,4.52,0,0,1-.71-.4,4,4,0,0,1-.43-.39Z"/><path class="cls-1" d="M54.1,48.76h1l3.84-5.12c.09-.15.22-.3.33-.48l.31-.42a1.25,1.25,0,0,0,.15-.22h0a1.68,1.68,0,0,1,0,.21,3.77,3.77,0,0,0,0,.43c0,.16,0,.33,0,.48v5.12h1V41h-1l-3.82,5.1c-.1.15-.22.3-.34.48l-.31.45-.16.24h0a1.09,1.09,0,0,0,0-.22c0-.12,0-.27,0-.43V41h-1Z"/><polygon class="cls-1" points="65.76 48.76 66.81 48.76 66.81 45.25 71.35 45.25 71.35 48.76 72.41 48.76 72.41 40.99 71.35 40.99 71.35 44.31 66.81 44.31 66.81 40.99 65.76 40.99 65.76 48.76"/><path class="cls-1" d="M82.45,51.85H83.5V48.09a2.41,2.41,0,0,0,0-.51,1.53,1.53,0,0,1,0-.19h0a2.82,2.82,0,0,0,.65.85,2.75,2.75,0,0,0,.88.52,2.88,2.88,0,0,0,1,.19,3.18,3.18,0,0,0,1.78-.52A3.43,3.43,0,0,0,89.08,47a5.14,5.14,0,0,0,.45-2.17,5,5,0,0,0-.4-2.11,3.11,3.11,0,0,0-3-1.95A3.4,3.4,0,0,0,85,41a2.8,2.8,0,0,0-.94.54,3,3,0,0,0-.64.88h0a.78.78,0,0,1,0-.19c0-.1,0-.25,0-.4V41h-1V51.85m1-6.95a4.87,4.87,0,0,1,.19-1.43,3.1,3.1,0,0,1,.57-1,2.64,2.64,0,0,1,.82-.55,2.5,2.5,0,0,1,.94-.18,2.25,2.25,0,0,1,1.29.39,2.45,2.45,0,0,1,.86,1.09,3.93,3.93,0,0,1,.33,1.65,4.25,4.25,0,0,1-.36,1.7,2.6,2.6,0,0,1-.91,1,2.25,2.25,0,0,1-1.26.37,2.32,2.32,0,0,1-1.07-.25,2.46,2.46,0,0,1-.76-.71,3.17,3.17,0,0,1-.48-1A3.81,3.81,0,0,1,83.47,44.91Z"/><path class="cls-1" d="M93.54,44.85a4.14,4.14,0,0,0,.31,1.62,4,4,0,0,0,.88,1.29,3.9,3.9,0,0,0,1.31.88,4.25,4.25,0,0,0,3.2,0,4,4,0,0,0,1.32-.88,4.23,4.23,0,0,0,.88-1.29,4.43,4.43,0,0,0,.31-1.62,4.15,4.15,0,0,0-7-2.89,3.92,3.92,0,0,0-1.19,2.89m1.07,0a3.32,3.32,0,0,1,.25-1.23,3.11,3.11,0,0,1,.64-1,2.72,2.72,0,0,1,1-.65,3,3,0,0,1,1.16-.22,3.14,3.14,0,0,1,1.19.22,3,3,0,0,1,1,.65,3.11,3.11,0,0,1,.64,1,3,3,0,0,1,.24,1.23,3.12,3.12,0,0,1-.24,1.25,3,3,0,0,1-.64,1,2.79,2.79,0,0,1-1,.65,2.88,2.88,0,0,1-1.19.24,2.79,2.79,0,0,1-1.16-.24,2.54,2.54,0,0,1-1-.65,3,3,0,0,1-.64-1A3.4,3.4,0,0,1,94.61,44.85Z"/><path class="cls-1" d="M105.44,47.82a3.64,3.64,0,0,0,.68.54,4.26,4.26,0,0,0,.91.43,3.81,3.81,0,0,0,1.12.16,4.35,4.35,0,0,0,1.09-.15,3.12,3.12,0,0,0,.92-.45,2.18,2.18,0,0,0,.88-1.78,2.2,2.2,0,0,0-.18-.91,1.83,1.83,0,0,0-1.28-1v0a1.87,1.87,0,0,0,.59-.36,2.11,2.11,0,0,0,.43-.58,2.08,2.08,0,0,0,.15-.83,2,2,0,0,0-.33-1.18,2.13,2.13,0,0,0-.91-.68,3.19,3.19,0,0,0-1.29-.22,4.22,4.22,0,0,0-1.87.42,3,3,0,0,0-.64.43l.46.74a3,3,0,0,1,.86-.51,2.58,2.58,0,0,1,1-.21,2.4,2.4,0,0,1,.85.15,1.56,1.56,0,0,1,.58.45,1.36,1.36,0,0,1,.19.73,1.33,1.33,0,0,1-.22.74,1.4,1.4,0,0,1-.59.43,2.81,2.81,0,0,1-.92.13h-.8v.85h.92a2.41,2.41,0,0,1,1.43.34,1.22,1.22,0,0,1,.48,1,1.44,1.44,0,0,1-.27.85,2,2,0,0,1-.7.51,2.64,2.64,0,0,1-.91.15,2.52,2.52,0,0,1-.94-.16,3.34,3.34,0,0,1-.7-.4,3.46,3.46,0,0,1-.46-.39Z"/><path class="cls-1" d="M115,50.71l-.42.83.19.13a2.39,2.39,0,0,0,.49.19,1.51,1.51,0,0,0,.7.13,2.2,2.2,0,0,0,1.35-.43,2.74,2.74,0,0,0,.88-1.19L122,41h-1.13l-2.25,5.65c-.06.15-.09.28-.13.4s-.07.22-.09.3,0,.13,0,.13h0a.35.35,0,0,0,0-.13,2,2,0,0,0-.09-.3c0-.12-.1-.25-.15-.4L115.78,41h-1.16l3.23,7.69-.46,1.1a2.78,2.78,0,0,1-.37.65,1.8,1.8,0,0,1-.49.46,1.25,1.25,0,0,1-.62.15,1.09,1.09,0,0,1-.45-.09,1.34,1.34,0,0,1-.36-.16A.67.67,0,0,1,115,50.71Z"/><path class="cls-1" d="M125.89,48.76h1l.37-5a3.24,3.24,0,0,0,0-.39v-.82a.86.86,0,0,1,0-.15h0s0,.06.06.16a3.22,3.22,0,0,0,.19.42c.07.19.16.39.25.57L130,47.86h1l2.17-4.34q.16-.31.27-.58a3.27,3.27,0,0,0,.16-.4.52.52,0,0,0,.06-.15h0v.52a4.33,4.33,0,0,0,0,.45,3.49,3.49,0,0,1,0,.39l.39,5h1L134.4,41h-1.1L131,45.78c-.07.16-.16.34-.22.49l-.18.42q-.07.18-.09.18h0a1,1,0,0,1-.06-.18,2.7,2.7,0,0,1-.21-.42c-.07-.18-.15-.33-.21-.49L127.62,41H126.5Z"/><polygon class="cls-1" points="139.77 48.76 140.83 48.76 140.83 45.25 145.37 45.25 145.37 48.76 146.42 48.76 146.42 40.99 145.37 40.99 145.37 44.31 140.83 44.31 140.83 40.99 139.77 40.99 139.77 48.76"/><path class="cls-1" d="M151.43,48.76h1l3.84-5.12.33-.48.31-.42c.09-.12.13-.21.15-.22h0a1.68,1.68,0,0,1,0,.21c0,.12,0,.27,0,.43s0,.33,0,.48v5.12h1V41h-1l-3.84,5.1-.33.48-.31.45a2.53,2.53,0,0,1-.16.24h0V47c0-.12,0-.27,0-.43s0-.34,0-.51V41h-1Z"/><path class="cls-1" d="M162.14,48.76h1.22l1.9-2.92c.06-.1.13-.21.18-.3s.09-.12.09-.13h0a1.18,1.18,0,0,0,.07.15c.06.07.12.18.19.28l1.87,2.92H169l-2.74-4,2.5-3.72h-1.23l-1.65,2.6c-.07.1-.13.21-.19.28a.9.9,0,0,1-.07.16h0l-.09-.16-.18-.28L163.6,41h-1.25l2.51,3.72Z"/><polygon class="cls-1" points="178.04 48.76 179.1 48.76 179.1 41.91 183.5 41.91 183.5 48.76 184.54 48.76 184.54 40.99 178.04 40.99 178.04 48.76"/><path class="cls-1" d="M189.05,44.85a4.14,4.14,0,0,0,.31,1.62,4.11,4.11,0,0,0,2.19,2.17,4.05,4.05,0,0,0,1.59.31,4.18,4.18,0,0,0,1.61-.31,4.05,4.05,0,0,0,1.31-.88,3.76,3.76,0,0,0,.88-1.29,3.9,3.9,0,0,0,.33-1.62,4,4,0,0,0-1.2-2.89,4.2,4.2,0,0,0-2.92-1.16,4.33,4.33,0,0,0-1.59.31,4.14,4.14,0,0,0-1.31.85,3.85,3.85,0,0,0-.88,1.28,4.07,4.07,0,0,0-.31,1.61m1.07,0a3.65,3.65,0,0,1,.24-1.23,3.39,3.39,0,0,1,.64-1,3,3,0,0,1,1-.65,3.06,3.06,0,0,1,1.18-.22,3.14,3.14,0,0,1,1.19.22,3,3,0,0,1,1,.65,3.43,3.43,0,0,1,.65,1,3,3,0,0,1,.24,1.23,3.12,3.12,0,0,1-.24,1.25,3.31,3.31,0,0,1-.65,1,2.73,2.73,0,0,1-1,.65,2.88,2.88,0,0,1-1.19.24,2.81,2.81,0,0,1-1.18-.24,2.79,2.79,0,0,1-1-.65,3.27,3.27,0,0,1-.64-1A3.73,3.73,0,0,1,190.12,44.85Z"/><polygon class="cls-1" points="201.74 48.76 202.78 48.76 202.78 45.22 204.04 45.22 206.62 48.76 207.93 48.76 204.89 44.71 204.89 44.67 207.6 40.99 206.36 40.99 204.04 44.28 202.78 44.28 202.78 40.99 201.74 40.99 201.74 48.76"/><path class="cls-1" d="M211.36,50.71l-.42.83.18.13a3.12,3.12,0,0,0,.48.19,1.64,1.64,0,0,0,.73.13,2.18,2.18,0,0,0,1.34-.43,2.9,2.9,0,0,0,.89-1.19L218.38,41h-1.13L215,46.65q-.07.22-.13.4a2,2,0,0,0-.09.3,1,1,0,0,1,0,.13h0l0-.13a2.23,2.23,0,0,1-.1-.3c0-.12-.1-.25-.15-.4L212.15,41H211l3.24,7.69-.48,1.1a3.4,3.4,0,0,1-.36.65,2.41,2.41,0,0,1-.51.46,1.29,1.29,0,0,1-.62.15,1.14,1.14,0,0,1-.45-.09,1.6,1.6,0,0,1-.36-.16A.34.34,0,0,1,211.36,50.71Z"/><polygon class="cls-1" points="222.55 48.76 223.59 48.76 223.59 41.91 228.02 41.91 228.02 48.76 229.06 48.76 229.06 40.99 222.55 40.99 222.55 48.76"/><path class="cls-1" d="M233.55,44.85a4.14,4.14,0,0,0,.31,1.62A4.15,4.15,0,0,0,236,48.64a4.18,4.18,0,0,0,1.61.31,4.25,4.25,0,0,0,1.62-.31,3.64,3.64,0,0,0,1.28-.88,3.6,3.6,0,0,0,.89-1.29,4.15,4.15,0,0,0,.33-1.62,4.08,4.08,0,0,0-.33-1.61,3.68,3.68,0,0,0-.89-1.28,4,4,0,0,0-1.28-.85,4.56,4.56,0,0,0-1.62-.31,4.47,4.47,0,0,0-1.61.31,4.43,4.43,0,0,0-1.29.85,3.92,3.92,0,0,0-1.19,2.89m1.09,0a3.31,3.31,0,0,1,.22-1.23,2.91,2.91,0,0,1,.65-1,3,3,0,0,1,1-.65,3.25,3.25,0,0,1,2.36,0,3,3,0,0,1,1,.65,3.15,3.15,0,0,1,.65,1,3.31,3.31,0,0,1,.22,1.23,3.39,3.39,0,0,1-.22,1.25,3.05,3.05,0,0,1-.65,1,2.79,2.79,0,0,1-1,.65,3.06,3.06,0,0,1-2.36,0,2.73,2.73,0,0,1-1-.65,2.83,2.83,0,0,1-.65-1A3.39,3.39,0,0,1,234.64,44.85Z"/><polygon class="cls-1" points="246.24 48.76 247.28 48.76 247.28 45.22 248.53 45.22 251.12 48.76 252.41 48.76 249.4 44.71 249.4 44.67 252.1 40.99 250.87 40.99 248.53 44.28 247.28 44.28 247.28 40.99 246.24 40.99 246.24 48.76"/></g></g></svg>