<svg xmlns="http://www.w3.org/2000/svg" viewBox="0 0 28.12 20"><defs><style>.cls-1,.cls-2{fill:#126eab;}.cls-1{fill-rule:evenodd;}</style></defs><title>Ресурс 1</title><g id="Шар_2" data-name="Шар 2"><g id="Слой_1" data-name="Слой 1"><g id="_Група_" data-name="&lt;Група&gt;"><path id="_Контур_" data-name="&lt;Контур&gt;" class="cls-1" d="M6.4,16.67V3.33A3.33,3.33,0,0,1,9.73,0H22.52a.7.7,0,1,1,0,1.4H9.73A1.93,1.93,0,0,0,7.8,3.33V16.67A1.93,1.93,0,0,0,9.73,18.6H23.07A1.93,1.93,0,0,0,25,16.67V3.78l-.49.49a.7.7,0,1,1-1-1l2.21-2.21,2.19,2.2a.7.7,0,1,1-1,1l-.52-.52V16.67A3.33,3.33,0,0,1,23.07,20H9.73A3.33,3.33,0,0,1,6.4,16.67Z"/><g id="_Група_2" data-name="&lt;Група&gt;"><g id="_Група_3" data-name="&lt;Група&gt;"><path id="_Складений_контур_" data-name="&lt;Складений контур&gt;" class="cls-1" d="M4.19,18.58V17a2.32,2.32,0,0,0-.07-.58,1.54,1.54,0,0,0-.22-.48,1.08,1.08,0,0,0-.38-.33A1.2,1.2,0,0,0,3,15.48a1.14,1.14,0,0,0-.41.08.94.94,0,0,0-.57.64H2a1,1,0,0,0-.37-.39,1.06,1.06,0,0,0-.53-.14,1,1,0,0,0-.59.17,1.06,1.06,0,0,0-.37.48A1.82,1.82,0,0,0,0,17v1.57Zm-2.48-.8H.66V17a.67.67,0,0,1,.07-.31.46.46,0,0,1,.18-.19.56.56,0,0,1,.27-.06.6.6,0,0,1,.27.06.47.47,0,0,1,.19.19.58.58,0,0,1,.07.3Zm1.82,0H2.33v-.86a.71.71,0,0,1,.08-.34.54.54,0,0,1,.21-.22.65.65,0,0,1,.31-.07.66.66,0,0,1,.32.07.52.52,0,0,1,.21.22.73.73,0,0,1,.08.35Z"/><path id="_Складений_контур_2" data-name="&lt;Складений контур&gt;" class="cls-1" d="M4.19,14.72v-.8H2.63v-.77l1.57-.87v-.9l-1.56.9-.17.1-.05,0h0a1.06,1.06,0,0,0-.26-.4,1.2,1.2,0,0,0-.4-.25,1.34,1.34,0,0,0-.48-.09,1.37,1.37,0,0,0-.51.09A1.08,1.08,0,0,0,.36,12a1.19,1.19,0,0,0-.25.39,1.3,1.3,0,0,0-.06.2,2,2,0,0,0,0,.26c0,.1,0,.22,0,.37v1.45ZM2,13.92H.66v-.58a1.81,1.81,0,0,1,0-.29.73.73,0,0,1,.05-.19.5.5,0,0,1,.22-.26.71.71,0,0,1,.35-.08.66.66,0,0,1,.49.19A.72.72,0,0,1,2,13.2Z"/><path id="_Складений_контур_3" data-name="&lt;Складений контур&gt;" class="cls-1" d="M4.19,11.29v-.82L3.12,10.1V8.56l1.08-.38V7.37L0,8.91v.84ZM2.5,9.91l-1.12-.4-.2-.06L1,9.4l-.17,0H.73l.07,0,.17,0,.21-.06.2-.06L2.5,8.76Z"/><rect id="_Контур_2" data-name="&lt;Контур&gt;" class="cls-2" y="6.04" width="4.19" height="0.8"/><path id="_Контур_3" data-name="&lt;Контур&gt;" class="cls-1" d="M4.19,5v-.8H1.13l.07,0,.16-.09L1.57,4l.2-.13L4.19,2.23V1.44H0v.79H3.07L3,2.24l-.16.09-.21.12-.21.13L0,4.23V5Z"/></g></g><path id="_Контур_4" data-name="&lt;Контур&gt;" class="cls-1" d="M11.39,15.9a2.32,2.32,0,0,1-1-1.07,3.84,3.84,0,0,1-.31-1.61V11.44h0V4.79a.72.72,0,0,1,1.44,0v6.65a.23.23,0,0,1,0,0v1.82a2,2,0,0,0,.37,1.28,1.43,1.43,0,0,0,1.17.46,1.45,1.45,0,0,0,1.17-.46,1.86,1.86,0,0,0,.33-1.16.9.9,0,0,1,0-.11V4.79a.69.69,0,1,1,1.38,0V5h0v8.27a.21.21,0,0,1,0,0,3.76,3.76,0,0,1-.31,1.49,2.34,2.34,0,0,1-1,1.07,3.29,3.29,0,0,1-1.66.39A3.25,3.25,0,0,1,11.39,15.9Z"/><path id="_Складений_контур_4" data-name="&lt;Складений контур&gt;" class="cls-1" d="M17.41,15.43V4.89A.76.76,0,0,1,18.2,4h2.07a3.5,3.5,0,0,1,1.67.36,2.18,2.18,0,0,1,1,1A3.7,3.7,0,0,1,23.2,7V8.45a2.92,2.92,0,0,1-.74,2.18,3.16,3.16,0,0,1-2.3.74H18.87v3.77h0v.28a.73.73,0,0,1-1.45,0Zm4-5.64a1.66,1.66,0,0,0,.4-1.25V6.93a1.83,1.83,0,0,0-.35-1.24,1.43,1.43,0,0,0-1.15-.42h-1.4v4.89h1.29A1.67,1.67,0,0,0,21.37,9.79Z"/></g></g></g></svg>