<svg xmlns="http://www.w3.org/2000/svg" viewBox="0 0 106.57 13.81"><defs><style>.cls-1{fill:#e20589;}.cls-1,.cls-2,.cls-3{fill-rule:evenodd;}.cls-2{fill:#fff;}.cls-3{fill:#126eab;}</style></defs><title>brain_logo_header_blog</title><g id="Слой_2" data-name="Слой 2"><g id="Layer_1" data-name="Layer 1"><path class="cls-1" d="M85.77,0h18.95a1.85,1.85,0,0,1,1.85,1.85V5.81a1.85,1.85,0,0,1-1.85,1.85h-2.26a1.53,1.53,0,0,0-1.8,1.6v2.66a1.85,1.85,0,0,1-1.86,1.85h-13Z"/><path class="cls-2" d="M104,5.74a.66.66,0,0,0,.34-.09.49.49,0,0,0,.22-.21.66.66,0,0,0-.1-.78.6.6,0,0,0-.45-.18.68.68,0,0,0-.34.09.63.63,0,0,0-.22.21.73.73,0,0,0-.08.34.7.7,0,0,0,.08.33.58.58,0,0,0,.22.21A.63.63,0,0,0,104,5.74Z"/><path class="cls-2" d="M88.18,3.86a2,2,0,0,0,.15.73,1.64,1.64,0,0,0,.39.61,1.72,1.72,0,0,0,.65.43,2.26,2.26,0,0,0,.88.16,2.43,2.43,0,0,0,.61-.07,2.14,2.14,0,0,0,.54-.21,1.92,1.92,0,0,0,.45-.33l-.46-.86a2.31,2.31,0,0,1-.31.21,1.37,1.37,0,0,1-.34.16,1.18,1.18,0,0,1-.37.07A.94.94,0,0,1,90,4.68a.79.79,0,0,1-.29-.21.83.83,0,0,1-.18-.29.93.93,0,0,1,0-.76.72.72,0,0,1,.29-.32.89.89,0,0,1,.5-.13,1.21,1.21,0,0,1,.47.1,1.29,1.29,0,0,1,.39.26l.53-.83a1.44,1.44,0,0,0-.43-.31A1.78,1.78,0,0,0,90.79,2a2.28,2.28,0,0,0-.53-.06,2.21,2.21,0,0,0-.88.16,1.91,1.91,0,0,0-.65.43,1.67,1.67,0,0,0-.39.61A2,2,0,0,0,88.18,3.86Z"/><path class="cls-2" d="M92.08,3.88a1.88,1.88,0,0,0,.16.78,1.82,1.82,0,0,0,.45.61,2.21,2.21,0,0,0,.67.38,2.36,2.36,0,0,0,.82.14A2.32,2.32,0,0,0,95,5.65a2,2,0,0,0,.67-.38,1.82,1.82,0,0,0,.45-.61,1.88,1.88,0,0,0,.16-.78,1.94,1.94,0,0,0-.16-.79,1.69,1.69,0,0,0-.45-.61,2,2,0,0,0-.67-.4,2.55,2.55,0,0,0-1.64,0,2,2,0,0,0-.66.4,1.79,1.79,0,0,0-.46.61,2.06,2.06,0,0,0-.16.79m1.26,0a1,1,0,0,1,.11-.48.79.79,0,0,1,.31-.31A.78.78,0,0,1,94.18,3a.71.71,0,0,1,.41.11.72.72,0,0,1,.31.31,1,1,0,0,1,.12.48,1,1,0,0,1-.12.48.71.71,0,0,1-.31.3.77.77,0,0,1-.41.11.84.84,0,0,1-.42-.11.77.77,0,0,1-.31-.3A1,1,0,0,1,93.34,3.88Z"/><path class="cls-2" d="M96.91,5.72h1.23V4.15a2.42,2.42,0,0,1,0-.39,1.48,1.48,0,0,1,.11-.34.57.57,0,0,1,.23-.26.55.55,0,0,1,.35-.1.24.24,0,0,1,.23.13.82.82,0,0,1,.06.33v2.2h1.24V4.15a2.45,2.45,0,0,1,0-.4,1.35,1.35,0,0,1,.12-.35.67.67,0,0,1,.22-.24.6.6,0,0,1,.34-.09.25.25,0,0,1,.24.13.83.83,0,0,1,0,.33v2.2h1.24V3.32a1.76,1.76,0,0,0-.16-.81,1,1,0,0,0-.43-.43,1.4,1.4,0,0,0-.61-.14,1.26,1.26,0,0,0-.52.1,1.48,1.48,0,0,0-.41.22,1.26,1.26,0,0,0-.26.3h0a1,1,0,0,0-.42-.46,1.2,1.2,0,0,0-.61-.16,1,1,0,0,0-.4.07.81.81,0,0,0-.31.16,1.05,1.05,0,0,0-.23.21,1.19,1.19,0,0,0-.16.2h0a.23.23,0,0,1,0-.06s0-.09,0-.16V2H96.91Z"/><path class="cls-2" d="M88.36,10a2.13,2.13,0,0,0,.24,1,1.41,1.41,0,0,0,.6.56,2.14,2.14,0,0,0,.85.14,1.8,1.8,0,0,0,.61-.09,1.76,1.76,0,0,0,.51-.28,1.2,1.2,0,0,0,.36-.42h0V11a.88.88,0,0,0,0,.2v.41H93V7H91.46v2a1.77,1.77,0,0,1-.11.63,1,1,0,0,1-.34.47.93.93,0,0,1-.56.18.5.5,0,0,1-.38-.15.69.69,0,0,1-.13-.46V7H88.36Z"/><path class="cls-2" d="M93.78,10.35a1.37,1.37,0,0,0,.2.72,1.41,1.41,0,0,0,.53.51,1.89,1.89,0,0,0,1.83-.13,1.38,1.38,0,0,0,.37-.36h0a.48.48,0,0,0,0,.09,1.43,1.43,0,0,0,0,.2v.28h1.45V8.8a1.91,1.91,0,0,0-.26-1,1.67,1.67,0,0,0-.72-.65,2.64,2.64,0,0,0-1.13-.23,4,4,0,0,0-.77.09,3.82,3.82,0,0,0-.7.23,2.4,2.4,0,0,0-.53.29l.55,1.09a4.58,4.58,0,0,1,.62-.31,2,2,0,0,1,.68-.13,1.59,1.59,0,0,1,.33,0,.54.54,0,0,1,.24.17.49.49,0,0,1,.1.31v.08h-.14a5,5,0,0,0-.72,0A3.57,3.57,0,0,0,95,9a2.2,2.2,0,0,0-.61.29,1.31,1.31,0,0,0-.43.45,1.21,1.21,0,0,0-.17.65m1.57-.15a.39.39,0,0,1,.1-.26.71.71,0,0,1,.28-.17,2.09,2.09,0,0,1,.35-.09l.39,0h.14v.12a.74.74,0,0,1-.11.38.92.92,0,0,1-.29.31.77.77,0,0,1-.41.13.46.46,0,0,1-.34-.12A.39.39,0,0,1,95.34,10.2Z"/><path class="cls-3" d="M56.8,13.81V0h4.06V13.81H56.8m6.75,0V0h6.65l7.1,10.43V0h4.06V13.79H74.71L67.61,3.35V13.79H63.55M0,13.79V0H11.79a7.86,7.86,0,0,1,2.07.24,2.55,2.55,0,0,1,1.42,1.1,4.68,4.68,0,0,1,.57,2.56,3.84,3.84,0,0,1-.39,1.8,2.22,2.22,0,0,1-1,1A3.24,3.24,0,0,1,16.33,10a5.05,5.05,0,0,1-.41,2.25,2.48,2.48,0,0,1-1.3,1.21,6.11,6.11,0,0,1-2.35.37H0m18.82,0V0H30.63a7.19,7.19,0,0,1,1.83.19,2.78,2.78,0,0,1,1.22.64,2.88,2.88,0,0,1,.73,1.23,7.55,7.55,0,0,1,.28,2,6.42,6.42,0,0,1-.41,2.61,2.64,2.64,0,0,1-1.41,1.28A6.16,6.16,0,0,1,34,8.55a1.6,1.6,0,0,1,.53.77,4.4,4.4,0,0,1,.16,1.38v3.09H30.63V11.32a1.55,1.55,0,0,0-.32-1,1.2,1.2,0,0,0-1-.43H22.88v3.86H18.82m16.71,0L42.06,0h7l6.53,13.78H50.82l-1.25-2.3H41.52l-1.25,2.3H35.52M12,10.18a.94.94,0,0,0,.31-.76A1.17,1.17,0,0,0,12,8.5a1.48,1.48,0,0,0-.89-.23h-7v2.18h7a1.28,1.28,0,0,0,.86-.28m36.1-2.25-2.2-4.81h-.62L43,7.93h5M30.33,6A1.57,1.57,0,0,0,30.63,5a1.6,1.6,0,0,0-.3-1.09,1.2,1.2,0,0,0-.94-.31H22.88v2.8h6.51A1.21,1.21,0,0,0,30.33,6M12.26,4.26c0-.62-.34-.93-1-.93H4.06V5.18h7.19C11.93,5.18,12.26,4.88,12.26,4.26Z"/></g></g></svg>