<svg xmlns="http://www.w3.org/2000/svg" width="16.281" height="14.5" viewBox="0 0 16.281 14.5">
  <metadata><?xpacket begin="﻿" id="W5M0MpCehiHzreSzNTczkc9d"?>
<x:xmpmeta xmlns:x="adobe:ns:meta/" x:xmptk="Adobe XMP Core 5.6-c138 79.159824, 2016/09/14-01:09:01        ">
   <rdf:RDF xmlns:rdf="http://www.w3.org/1999/02/22-rdf-syntax-ns#">
      <rdf:Description rdf:about=""/>
   </rdf:RDF>
</x:xmpmeta>
                                                                                                    
                                                                                                    
                                                                                                    
                                                                                                    
                                                                                                    
                                                                                                    
                                                                                                    
                                                                                                    
                                                                                                    
                                                                                                    
                                                                                                    
                                                                                                    
                                                                                                    
                                                                                                    
                                                                                                    
                                                                                                    
                                                                                                    
                                                                                                    
                                                                                                    
                                                                                                    
                           
<?xpacket end="w"?></metadata>
<defs>
    <style>
      .cls-1 {
        fill: none;
        stroke: #999;
        stroke-linecap: round;
        stroke-linejoin: round;
        stroke-width: 1px;
        fill-rule: evenodd;
      }
    </style>
  </defs>
  <path id="Shape_13_copy_2" data-name="Shape 13 copy 2" class="cls-1" d="M413.909,4599.7H403.317a2.349,2.349,0,0,0-2.354,2.34v5.87a2.351,2.351,0,0,0,2.354,2.35h1.367l1.029,2.57a0.589,0.589,0,0,0,1.093,0l1.029-2.57h6.074a2.352,2.352,0,0,0,2.355-2.35v-5.87A2.35,2.35,0,0,0,413.909,4599.7Zm1.178,8.21a1.18,1.18,0,0,1-1.178,1.18h-6.473a0.579,0.579,0,0,0-.546.37l-0.631,1.57-0.63-1.57a0.58,0.58,0,0,0-.547-0.37h-1.765a1.18,1.18,0,0,1-1.177-1.18v-5.87a1.178,1.178,0,0,1,1.177-1.17h10.592a1.178,1.178,0,0,1,1.178,1.17v5.87Z" transform="translate(-400.469 -4599.19)"/>
</svg>
