<svg xmlns="http://www.w3.org/2000/svg" width="15" height="18" viewBox="0 0 15 18">
  <metadata><?xpacket begin="﻿" id="W5M0MpCehiHzreSzNTczkc9d"?>
<x:xmpmeta xmlns:x="adobe:ns:meta/" x:xmptk="Adobe XMP Core 5.6-c138 79.159824, 2016/09/14-01:09:01        ">
   <rdf:RDF xmlns:rdf="http://www.w3.org/1999/02/22-rdf-syntax-ns#">
      <rdf:Description rdf:about=""/>
   </rdf:RDF>
</x:xmpmeta>
                                                                                                    
                                                                                                    
                                                                                                    
                                                                                                    
                                                                                                    
                                                                                                    
                                                                                                    
                                                                                                    
                                                                                                    
                                                                                                    
                                                                                                    
                                                                                                    
                                                                                                    
                                                                                                    
                                                                                                    
                                                                                                    
                                                                                                    
                                                                                                    
                                                                                                    
                                                                                                    
                           
<?xpacket end="w"?></metadata>
<defs>
    <style>
      .cls-1 {
        fill: #555;
        fill-rule: evenodd;
      }
    </style>
  </defs>
  <path id="calendar" class="cls-1" d="M1000.45,872.661h-0.14v-0.969a0.662,0.662,0,0,0-.654-0.692,0.669,0.669,0,0,0-.658.692v0.969h-5v-0.969a0.658,0.658,0,1,0-1.315,0v0.969h-0.132A3.668,3.668,0,0,0,989,876.4v8.862A3.668,3.668,0,0,0,992.551,889h7.9a3.671,3.671,0,0,0,3.55-3.738V876.4A3.671,3.671,0,0,0,1000.45,872.661Zm-7.9,1.385h0.132v0.969a0.658,0.658,0,1,0,1.315,0v-0.969h5v0.969a0.67,0.67,0,0,0,.658.692,0.663,0.663,0,0,0,.654-0.692v-0.969h0.14a2.294,2.294,0,0,1,2.23,2.353v1.247H990.315V876.4A2.294,2.294,0,0,1,992.551,874.046Zm7.9,13.569h-7.9a2.3,2.3,0,0,1-2.236-2.354V879.03h12.365v6.231A2.3,2.3,0,0,1,1000.45,887.615Z" transform="translate(-989 -871)"/>
</svg>
