<svg xmlns="http://www.w3.org/2000/svg" width="39" height="32" viewBox="0 0 39 32">
  <defs>
    <style>
      .cls-1 {
        fill: #10b1e8;
        fill-rule: evenodd;
      }
    </style>
  </defs>
  <path id="Shape_1_копия_2" data-name="Shape 1 копия 2" class="cls-1" d="M1605.11,244.232h-23.57a1.856,1.856,0,0,1-1.82-1.468l-3.61-16.817-3.39-.249a1.855,1.855,0,1,1,.28-3.7l4.78,0.352a1.859,1.859,0,0,1,1.69,1.462l3.59,16.711h20.55l2.69-12.424a1.872,1.872,0,0,1,2.22-1.422,1.85,1.85,0,0,1,1.43,2.2l-3.01,13.886A1.873,1.873,0,0,1,1605.11,244.232Zm-19.49,2.377a3.695,3.695,0,1,1-3.72,3.694A3.7,3.7,0,0,1,1585.62,246.609Zm15.71,0a3.695,3.695,0,1,1-3.72,3.694A3.7,3.7,0,0,1,1601.33,246.609Zm0.68-14.209h-17.36a1.854,1.854,0,1,1,0-3.708h17.36A1.854,1.854,0,1,1,1602.01,232.4Zm-1.24,5.86h-14.88a1.854,1.854,0,1,1,0-3.708h14.88A1.854,1.854,0,1,1,1600.77,238.26Z" transform="translate(-1571 -222)"/>
</svg>
