<svg xmlns="http://www.w3.org/2000/svg" viewBox="0 0 4.38 3.59"><defs><style>.cls-1{fill:#3b404a;}</style></defs><title>Ресурс 1</title><g id="Шар_2" data-name="Шар 2"><g id="Слой_1" data-name="Слой 1"><g id="_Група_" data-name="&lt;Група&gt;"><path class="cls-1" d="M4.21.53A.21.21,0,0,0,4,.69l-.3,1.39H1.35L1,.2A.21.21,0,0,0,.76,0L.23,0a.21.21,0,1,0,0,.42l.38,0L1,2.33a.21.21,0,0,0,.21.16H3.83A.21.21,0,0,0,4,2.33L4.37.77A.21.21,0,0,0,4.21.53ZM1.64,2.76a.41.41,0,1,0,.42.41A.42.42,0,0,0,1.64,2.76Zm1.76,0a.41.41,0,1,0,.42.41A.42.42,0,0,0,3.4,2.76ZM1.53,1.17H3.48a.21.21,0,1,0,0-.42H1.53a.21.21,0,1,0,0,.42Zm.14.24a.21.21,0,1,0,0,.42H3.34a.21.21,0,1,0,0-.42Z"/></g></g></g></svg>