<?xml version="1.0" encoding="utf-8"?>
<!-- Generator: Adobe Illustrator 21.0.2, SVG Export Plug-In . SVG Version: 6.00 Build 0)  -->
<svg version="1.1" id="Layer_9" xmlns="http://www.w3.org/2000/svg" xmlns:xlink="http://www.w3.org/1999/xlink" x="0px" y="0px"
	 viewBox="0 0 28.1 26.5" style="enable-background:new 0 0 28.1 26.5;" xml:space="preserve">
<style type="text/css">
	.st0{fill:#FFFFFF;stroke:#1973FF;stroke-width:2;stroke-miterlimit:10;}
	.st1{fill:#FFFFFF;}
	.st2{fill:#1973FF;}
	.st3{fill:#FFFFFF;stroke:#1973FF;stroke-width:3;stroke-miterlimit:10;}
</style>
<path class="st0" d="M26.2,1H4.7C4.2,1,3.9,1.4,3.9,1.8v5H20c0.4,0,0.8,0.4,0.8,0.8v11.8h2.4l3.9,3.9V1.8C27,1.4,26.7,1,26.2,1
	L26.2,1z M26.2,1"/>
<g>
	<polygon class="st1" points="1,6.8 20.7,6.8 20.7,21.7 3.5,21.7 1,24.1 	"/>
	<path class="st2" d="M19.7,7.8v12.9H3.9H3l-0.6,0.6L2,21.7V7.8H19.7 M20.9,5.8H0.8C0.4,5.8,0,6.1,0,6.6v20l3.9-3.9h17.1
		c0.4,0,0.8-0.4,0.8-0.8V6.6C21.7,6.1,21.4,5.8,20.9,5.8L20.9,5.8z"/>
</g>
<path class="st3" d="M0.8,5.8"/>
<path class="st2" d="M5.8,14.5c0,0.8-0.6,1.4-1.5,1.4c-0.8,0-1.4-0.6-1.4-1.4c0-0.8,0.6-1.4,1.4-1.4C5.2,13,5.8,13.7,5.8,14.5
	L5.8,14.5z M5.8,14.5"/>
<path class="st2" d="M12.1,14.5c0,0.8-0.6,1.4-1.4,1.4c-0.8,0-1.5-0.6-1.5-1.4c0-0.8,0.6-1.4,1.5-1.4C11.4,13,12.1,13.7,12.1,14.5
	L12.1,14.5z M12.1,14.5"/>
<path class="st2" d="M18.4,14.5c0,0.8-0.6,1.4-1.4,1.4c-0.8,0-1.4-0.6-1.4-1.4c0-0.8,0.6-1.4,1.4-1.4C17.7,13,18.4,13.7,18.4,14.5
	L18.4,14.5z M18.4,14.5"/>
</svg>
