<svg xmlns="http://www.w3.org/2000/svg" width="24" height="17.906" viewBox="0 0 24 17.906">
  <defs>
    <style>
      .cls-1 {
        fill: #10b1e8;
        fill-rule: evenodd;
      }
    </style>
  </defs>
  <path id="Shape_3_копия_2" data-name="Shape 3 копия 2" class="cls-1" d="M1478.65,230.589c-0.04,0-5.32,0-5.32-.04V229.7c0.03-.94-2.68-0.94-2.65,0v0.851c0,0.04-5,0-5.32.04l-5.35,12.43c1.12,2.61,2.9,3.895,5.27,3.895s4.15-1.285,5.24-3.857l-3.79-10.364h10.63l-3.86,10.364c1.08,2.572,2.86,3.857,5.23,3.857s4.15-1.285,5.27-3.895Zm-10.43,12.468c-0.04,0-5.92,0-5.88-.038,0.08-.079,2.86-7.288,2.86-7.288,0.16-.467.28-0.467,0.44,0Zm13.41-.195h-5.8a65.044,65.044,0,0,1,2.54-7.208c0.16-.39.28-0.39,0.44,0C1481.59,242.667,1481.63,242.822,1481.63,242.862Z" transform="translate(-1460 -229)"/>
</svg>
