<svg xmlns="http://www.w3.org/2000/svg" width="28" height="28" viewBox="0 0 28 28">
  <metadata><?xpacket begin="﻿" id="W5M0MpCehiHzreSzNTczkc9d"?>
<x:xmpmeta xmlns:x="adobe:ns:meta/" x:xmptk="Adobe XMP Core 5.6-c138 79.159824, 2016/09/14-01:09:01        ">
   <rdf:RDF xmlns:rdf="http://www.w3.org/1999/02/22-rdf-syntax-ns#">
      <rdf:Description rdf:about=""/>
   </rdf:RDF>
</x:xmpmeta>
                                                                                                    
                                                                                                    
                                                                                                    
                                                                                                    
                                                                                                    
                                                                                                    
                                                                                                    
                                                                                                    
                                                                                                    
                                                                                                    
                                                                                                    
                                                                                                    
                                                                                                    
                                                                                                    
                                                                                                    
                                                                                                    
                                                                                                    
                                                                                                    
                                                                                                    
                                                                                                    
                           
<?xpacket end="w"?></metadata>
<defs>
    <style>
      .cls-1 {
        fill: #1973ff;
        fill-rule: evenodd;
      }
    </style>
  </defs>
  <path id="cooler" class="cls-1" d="M829.558,1108H802.437a0.442,0.442,0,0,0-.441.44v27.11a0.436,0.436,0,0,0,.441.44h27.121a0.436,0.436,0,0,0,.441-0.44v-27.11A0.443,0.443,0,0,0,829.558,1108Zm-0.44,27.11H802.877v-26.23h26.241v26.23ZM816,1132.02A10.02,10.02,0,1,0,805.976,1122,10.036,10.036,0,0,0,816,1132.02Zm-6.907-16a10.606,10.606,0,0,0,5.794,5.99,9.763,9.763,0,0,1-8.02-.3A9.125,9.125,0,0,1,809.09,1116.02Zm12.68-1.1a10.614,10.614,0,0,0-5.922,5.66,9.756,9.756,0,0,1,.422-7.71A9.1,9.1,0,0,1,821.77,1114.92Zm1.184,12.99a10.626,10.626,0,0,0-5.8-5.97,9.733,9.733,0,0,1,7.973.33A9.073,9.073,0,0,1,822.954,1127.91Zm-12.883,1.03a10.618,10.618,0,0,0,5.973-5.79,9.754,9.754,0,0,1-.338,7.98A9.087,9.087,0,0,1,810.071,1128.94Zm6.763-6.18a9.73,9.73,0,0,1,5.44,5.87,9.091,9.091,0,0,1-5.579,2.47A10.611,10.611,0,0,0,816.834,1122.76Zm-1.7-1.59a9.766,9.766,0,0,1-5.361-5.86,9.191,9.191,0,0,1,5.512-2.42A10.633,10.633,0,0,0,815.134,1121.17Zm-3.918,2.44a10.514,10.514,0,0,0,4.01-.79,9.708,9.708,0,0,1-5.871,5.44,9.071,9.071,0,0,1-2.469-5.57A10.534,10.534,0,0,0,811.216,1123.61Zm13.891-2.33a10.6,10.6,0,0,0-8.583-.03,9.77,9.77,0,0,1,5.984-5.66A9.1,9.1,0,0,1,825.107,1121.28Z" transform="translate(-802 -1108)"/>
</svg>
