<?xml version="1.0" encoding="utf-8"?>
<!-- Generator: Adobe Illustrator 21.1.0, SVG Export Plug-In . SVG Version: 6.00 Build 0)  -->
<svg version="1.1" id="Layer_1" xmlns="http://www.w3.org/2000/svg" xmlns:xlink="http://www.w3.org/1999/xlink" x="0px" y="0px"
	 viewBox="7.2 0 26.9 26.9" style="enable-background:new 7.2 0 26.9 26.9;" xml:space="preserve">
<style type="text/css">
	.st0{fill:#1973FF;}
	.st1{fill:none;stroke:#1973FF;stroke-width:0.7;stroke-miterlimit:10;}
	.st2{fill:none;stroke:#1973FF;stroke-width:0.7;stroke-linecap:round;stroke-miterlimit:10;}
</style>
<g>
	<path class="st0" d="M26.5,0.7c0.5,0,0.8,0.4,0.8,0.8v23.9c0,0.4-0.4,0.8-0.8,0.8H14.8c-0.5,0-0.8-0.4-0.8-0.8V1.5
		c0-0.4,0.4-0.8,0.8-0.8H26.5 M26.5,0H14.8c-0.8,0-1.5,0.7-1.5,1.5v23.9c0,0.8,0.7,1.5,1.5,1.5h11.7c0.8,0,1.5-0.7,1.5-1.5V1.5
		C28,0.7,27.4,0,26.5,0L26.5,0z"/>
</g>
<line class="st1" x1="13.8" y1="23.4" x2="27.6" y2="23.4"/>
<line class="st1" x1="13.8" y1="3.2" x2="27.6" y2="3.2"/>
<line class="st2" x1="19.3" y1="1.7" x2="22" y2="1.7"/>
<line class="st2" x1="19.3" y1="25.1" x2="22" y2="25.1"/>
<circle class="st0" cx="26.1" cy="1.7" r="0.3"/>
</svg>
