<?xml version="1.0" encoding="utf-8"?>
<!-- Generator: Adobe Illustrator 21.1.0, SVG Export Plug-In . SVG Version: 6.00 Build 0)  -->
<svg version="1.1" id="Layer_1" xmlns="http://www.w3.org/2000/svg" xmlns:xlink="http://www.w3.org/1999/xlink" x="0px" y="0px"
	 viewBox="1.4 -0.1 27.2 27.2" style="enable-background:new 1.4 -0.1 27.2 27.2;" xml:space="preserve">
<style type="text/css">
	.st0{fill:none;stroke:#10b1e8;stroke-width:0.7;stroke-miterlimit:10;}
	.st1{fill:none;stroke:#10b1e8;stroke-width:0.5;stroke-miterlimit:10;}
	.st2{fill:#10b1e8;}
</style>
<path class="st0" d="M24.6,16.3c0,0.7-0.6,1.2-1.2,1.2H6.8c-0.7,0-1.3-0.5-1.3-1.2l0-2.4l1-12c0.1-1.1,0.7-1.7,2-1.7h13
	c1.2,0,1.9,0.5,2.1,1.5L24.6,14V16.3z"/>
<path class="st0" d="M24.4,16.9l0.2,1.7v2.3c0,0.7-0.6,1.2-1.2,1.2H6.8c-0.7,0-1.3-0.5-1.3-1.2l0-2.4l0.2-1.7"/>
<path class="st0" d="M24.4,21.5l0.2,1.7v2.3c0,0.7-0.6,1.2-1.2,1.2H6.8c-0.7,0-1.3-0.5-1.3-1.2l0-2.4l0.2-1.8"/>
<line class="st1" x1="5.5" y1="13.9" x2="24.4" y2="13.9"/>
<line class="st1" x1="5.5" y1="18.6" x2="24.4" y2="18.6"/>
<line class="st1" x1="5.5" y1="23.2" x2="24.4" y2="23.2"/>
<circle class="st2" cx="7.8" cy="15.7" r="0.8"/>
<circle class="st2" cx="9.9" cy="15.7" r="0.8"/>
<circle class="st2" cx="7.8" cy="20.2" r="0.8"/>
<circle class="st2" cx="9.9" cy="20.2" r="0.8"/>
<circle class="st2" cx="7.8" cy="24.9" r="0.8"/>
<circle class="st2" cx="9.9" cy="24.9" r="0.8"/>
</svg>
