<?xml version="1.0" encoding="utf-8"?>
<!-- Generator: Adobe Illustrator 21.1.0, SVG Export Plug-In . SVG Version: 6.00 Build 0)  -->
<svg version="1.1" id="Слой_1" xmlns="http://www.w3.org/2000/svg" xmlns:xlink="http://www.w3.org/1999/xlink" x="0px" y="0px"
	 viewBox="0 0 19 19" style="enable-background:new 0 0 19 19;" xml:space="preserve">
<style type="text/css">
	.st0{fill:none;stroke:#1973FF;stroke-width:0.7;stroke-miterlimit:10;}
	.st1{fill:none;stroke:#1973FF;stroke-width:0.7;stroke-linecap:round;stroke-linejoin:round;}
</style>
<title>Lamp</title>
<g id="Layer_2">
	<g id="Layer_1-2">
		<path class="st0" d="M15.4,6.2c0-3.2-2.6-5.8-5.8-5.8c-0.1,0-0.1,0-0.2,0c-3.2,0.1-5.7,2.8-5.6,6C3.8,7.7,4.3,9,5.2,10
			c0.6,0.7,1.1,1.5,1.4,2.4c-0.2,0.1-0.3,0.3-0.2,0.5c0.1,0.2,0.2,0.3,0.4,0.3l0,0c0.1,0.4,0.1,0.7,0.1,1.1v1c0,1.3,0.9,2.5,2.3,2.7
			v0.3c0,0.2,0.2,0.4,0.4,0.4c0.2,0,0.4-0.2,0.4-0.4V18c1.3-0.2,2.2-1.3,2.2-2.6v-1c0-0.4,0-0.8,0.1-1.1l0,0c0.2,0,0.4-0.2,0.4-0.4
			c0-0.2-0.1-0.3-0.3-0.4c0.3-0.9,0.7-1.7,1.4-2.4C14.8,9,15.3,7.6,15.4,6.2z"/>
		<path class="st1" d="M6.7,5.5c0,0.7,0.5,1.2,1.2,1.2c0.3,0,0.6-0.1,0.8-0.3c0.4,0.4,1.1,0.4,1.6,0c0.5,0.4,1.3,0.4,1.7-0.1
			c0.2-0.2,0.3-0.5,0.3-0.8"/>
		<line class="st0" x1="6.6" y1="12.5" x2="12.4" y2="12.5"/>
		<line class="st0" x1="6.6" y1="13.2" x2="12.4" y2="13.2"/>
		<line class="st0" x1="7.1" y1="14.5" x2="12" y2="14.5"/>
		<line class="st0" x1="9.2" y1="18" x2="9.9" y2="18"/>
		<path class="st0" d="M9.4,10.2h0.2c0.5,0,0.9,0.4,0.9,0.9v1.4l0,0h-2l0,0v-1.4C8.4,10.6,8.8,10.2,9.4,10.2
			C9.3,10.2,9.3,10.2,9.4,10.2z"/>
		<line class="st1" x1="10" y1="10.3" x2="11.3" y2="8"/>
		<line class="st1" x1="9.1" y1="10.2" x2="7.8" y2="8"/>
	</g>
</g>
</svg>
