<?xml version="1.0" encoding="utf-8"?>
<!-- Generator: Adobe Illustrator 21.1.0, SVG Export Plug-In . SVG Version: 6.00 Build 0)  -->
<svg version="1.1" id="Layer_1" xmlns="http://www.w3.org/2000/svg" xmlns:xlink="http://www.w3.org/1999/xlink" x="0px" y="0px"
	 viewBox="-0.1 -1.3 29.9 29.9" style="enable-background:new -0.1 -1.3 29.9 29.9;" xml:space="preserve">
<style type="text/css">
	.st0{display:none;}
	.st1{fill:none;stroke:#10b1e8;stroke-width:0.7;stroke-miterlimit:10;}
	.st2{fill:#10b1e8;}
	.st3{fill:none;stroke:#10b1e8;stroke-width:0.5;stroke-miterlimit:10;}
</style>
<path id="_accessory" class="st0" d="M21.4,11.8h-14c-0.3,0-0.5-0.2-0.5-0.5c0,0,0,0,0,0V0.5C7,0.2,7.2,0,7.4,0c0,0,0,0,0,0h14
	c0.3,0,0.5,0.2,0.5,0.5v0v10.9C21.9,11.6,21.7,11.8,21.4,11.8C21.4,11.8,21.4,11.8,21.4,11.8z M7.9,10.9h13V0.9h-13V10.9z M7.4,9.9
	h-7C0.2,9.9,0,9.7,0,9.4c0,0,0,0,0,0V2.4c0-0.3,0.2-0.5,0.5-0.5h0h7c0.3,0,0.5,0.2,0.5,0.5v7.1C7.9,9.7,7.7,9.9,7.4,9.9L7.4,9.9z
	 M0.9,9h6V2.8h-6V9z M4.5,7.6H3.3c-0.3,0-0.5-0.2-0.5-0.5c0-0.3,0.2-0.5,0.5-0.5h1.2c0.2,0.1,0.4,0.4,0.3,0.6
	C4.7,7.5,4.6,7.6,4.5,7.6L4.5,7.6z M4.5,5.1H3.3c-0.3,0-0.5-0.2-0.5-0.5c0-0.3,0.2-0.5,0.5-0.5h1.2C4.7,4.2,5,4.4,5,4.6
	C5,4.9,4.7,5.1,4.5,5.1L4.5,5.1z M21.4,27H0.5C0.2,27,0,26.8,0,26.5V15.7c0-0.3,0.2-0.5,0.5-0.5h0h20.9c0.3,0,0.5,0.2,0.5,0.5
	c0,0,0,0,0,0v10.9C21.9,26.8,21.7,27,21.4,27L21.4,27z M0.9,26.1h20v-9.9h-20V26.1z M18.3,23.8H15c-0.3,0-0.5-0.2-0.5-0.5v0v-4.4
	c0-0.3,0.2-0.5,0.5-0.5c0,0,0,0,0,0h3.3c0.3,0,0.5,0.2,0.5,0.5c0,0,0,0,0,0v4.4C18.8,23.6,18.5,23.8,18.3,23.8L18.3,23.8L18.3,23.8z
	 M15.5,22.9h2.3v-3.5h-2.3V22.9z M12.6,23.8H9.3c-0.3,0-0.5-0.2-0.5-0.5v0v-4.4c0-0.3,0.2-0.5,0.5-0.5c0,0,0,0,0,0h3.3
	c0.3,0,0.5,0.2,0.5,0.5c0,0,0,0,0,0v4.4C13,23.6,12.8,23.8,12.6,23.8C12.6,23.8,12.6,23.8,12.6,23.8L12.6,23.8z M9.8,22.9h2.3v-3.5
	H9.8V22.9z M6.9,23.8H3.6c-0.3,0-0.5-0.2-0.5-0.5v0v-4.4c0-0.3,0.2-0.5,0.5-0.5c0,0,0,0,0,0h3.3c0.3,0,0.5,0.2,0.5,0.5c0,0,0,0,0,0
	v4.4C7.3,23.6,7.1,23.8,6.9,23.8C6.9,23.8,6.9,23.8,6.9,23.8L6.9,23.8z M4.1,22.9h2.3v-3.5H4.1V22.9z M25.9,21.6h-4.5
	c-0.3,0-0.5-0.2-0.5-0.5c0-0.3,0.2-0.5,0.5-0.5h4.5c1.8,0,3.2-1.4,3.2-3.2V9.6c0-1.8-1.4-3.2-3.2-3.2h-4.5c-0.3,0-0.5-0.2-0.5-0.5
	c0-0.3,0.2-0.5,0.5-0.5h4.5c2.3,0,4.1,1.8,4.1,4.1v7.9C30,19.7,28.2,21.6,25.9,21.6L25.9,21.6z"/>
<image style="display:none;overflow:visible;" width="152" height="128" xlink:href="7DA3A897.jpg"  transform="matrix(0.2648 0 0 0.2648 -5.8125 -4.5557)">
</image>
<path class="st1" d="M4.6,3.6c0.3,0,20.4,0,20.6,0c0.4,0,1.6,0.2,1.6,2c0,1.8,0,14.3,0,14.3h-24c0,0,0-13.2,0-14.5S3.7,3.6,4.6,3.6z
	"/>
<g>
	<path class="st2" d="M26.7,20.4c0.8,0.9,2,2.3,2.3,2.6c0.1,0.1,0.1,0.2,0.1,0.2c0,0-0.2,0.1-0.5,0.1H1.1c-0.3,0-0.4-0.1-0.5-0.1
		c0,0,0,0,0,0c0,0,0-0.2,0.2-0.4c0.5-0.6,1.7-2,2.2-2.5H26.7 M27,19.7H2.6c0,0-1.8,2-2.4,2.8C-0.4,23.2-0.1,24,1.1,24
		c0.5,0,27,0,27.5,0c1.4,0,1.3-1,1-1.4C29.2,22.1,27,19.7,27,19.7L27,19.7z"/>
</g>
<rect x="11.1" y="22.3" class="st2" width="7.8" height="1.5"/>
<rect x="4.3" y="5.1" class="st3" width="21" height="13.3"/>
</svg>
