<?xml version="1.0" encoding="utf-8"?>
<!-- Generator: Adobe Illustrator 21.1.0, SVG Export Plug-In . SVG Version: 6.00 Build 0)  -->
<svg version="1.1" xmlns="http://www.w3.org/2000/svg" xmlns:xlink="http://www.w3.org/1999/xlink" x="0px" y="0px"
	 viewBox="1 -0.8 28.7 28.7" style="enable-background:new 1 -0.8 28.7 28.7;" xml:space="preserve">
<style type="text/css">
	.st0{fill:none;stroke:#1973FF;stroke-width:0.7;stroke-miterlimit:10;}
</style>
<g id="Layer_1">
	<path class="st0" d="M6.6,19.1c0,0,20.7-10.4,21-10.6s1.1-0.9,0.7-2C28,5.4,28,5.4,28,5.4"/>
	<path class="st0" d="M5,13c0.5,0.5,1,1.4,1.4,2.4c0.7,1.9,0.8,3.6,0.1,3.8c-0.7,0.3-1.8-1.1-2.5-2.9c-0.5-1.4-0.7-2.7-0.5-3.4"/>
	<path class="st0" d="M23.7,0.8c0,0,1-0.4,1.7-0.3C26,0.5,27,1.1,27.7,1.9c0.6,0.6,1.2,1.5,1.5,2c0.1,0.2,0.2,0.4,0,0.6
		c-0.3,0.4-1,0.7-1,0.7l-16.8,8.3c0,0-0.9-0.7-3-0.7c-1,0-4.6,0-5.6-0.1c-1-0.1-1.3-1-0.7-1.5C2.6,11,23.7,0.8,23.7,0.8z"/>
	<line class="st0" x1="28.3" y1="12.2" x2="28.3" y2="27"/>
	<path class="st0" d="M28.2,15.1c0,0-0.3,0-1.2,0c-1.3,0-1.5,0.8-1.5,2.1c0,1.3,0,3.9,0,4.9s0.2,1.9,1.4,1.9c0.7,0,1.3,0,1.3,0"/>
	<line class="st0" x1="17.2" y1="14" x2="17.2" y2="17.7"/>
	<line class="st0" x1="18.8" y1="19.4" x2="25.4" y2="19.4"/>
	<circle class="st0" cx="17.3" cy="19.3" r="1.5"/>
</g>
<g id="Layer_2">
</g>
</svg>
