<?xml version="1.0" encoding="utf-8"?>
<!-- Generator: Adobe Illustrator 21.1.0, SVG Export Plug-In . SVG Version: 6.00 Build 0)  -->
<svg version="1.1" id="Layer_1" xmlns="http://www.w3.org/2000/svg" xmlns:xlink="http://www.w3.org/1999/xlink" x="0px" y="0px"
	 viewBox="0 0 30.1 30.1" style="enable-background:new 0 0 30.1 30.1;" xml:space="preserve">
<style type="text/css">
	.st0{fill:none;stroke:#10b1e8;stroke-width:0.7;stroke-linecap:round;stroke-linejoin:round;stroke-miterlimit:10;}
	.st1{fill:#10b1e8;}
</style>
<path class="st0" d="M0.4,21.4V11H17c0,0,1.5-2.3,4.8-2.3c3.2,0,4.6,2.3,4.6,2.3h3.3v10.5h-3.3v-2.7c0,0-1.2,2.7-4.8,2.7
	c-3.5,0-4.7-2.7-4.7-2.7H3.4l0,2.7L0.4,21.4z"/>
<g>
	<path class="st1" d="M21.7,11.5c2,0,3.5,1.6,3.5,3.6s-1.6,3.6-3.5,3.6s-3.5-1.6-3.5-3.6S19.7,11.5,21.7,11.5 M21.7,10.8
		c-2.3,0-4.3,1.9-4.3,4.3s1.9,4.3,4.3,4.3s4.3-1.9,4.3-4.3S24,10.8,21.7,10.8L21.7,10.8z"/>
</g>
<line class="st0" x1="3.9" y1="13.5" x2="14" y2="13.5"/>
<line class="st0" x1="4" y1="16.5" x2="14.1" y2="16.5"/>
</svg>
