<?xml version="1.0" encoding="utf-8"?>
<!-- Generator: Adobe Illustrator 21.1.0, SVG Export Plug-In . SVG Version: 6.00 Build 0)  -->
<svg version="1.1" id="Layer_1" xmlns="http://www.w3.org/2000/svg" xmlns:xlink="http://www.w3.org/1999/xlink" x="0px" y="0px"
	 viewBox="-1.5 -3 33 33" style="enable-background:new -1.5 -3 33 33;" xml:space="preserve">
<style type="text/css">
	.st0{fill:none;stroke:#1973FF;stroke-width:0.7;stroke-miterlimit:10;}
	.st1{fill:none;stroke:#1973FF;stroke-width:0.7;stroke-linecap:round;stroke-miterlimit:10;}
</style>
<path class="st0" d="M9.8,26.5C9,26.1,7.6,23.9,6,21.2c-1.7-2.8-3-4.6-3.5-6.4C1.9,13,2.1,12,3,11c0.9-1,2-1.1,3.7-1.4
	c1.7-0.2,3.3-0.9,4.1-2.3c0.7-1.4,0.7-2.5,1-3.9c0.2-1.4,0.8-2.2,2-2.8c1.2-0.6,2.8-0.2,4.1,0.5c1.3,0.7,5.5,3.2,7,4.2
	c1.5,1,3.4,2.1,3.6,3.3c0.2,1.2-0.8,1.8-2,2c-0.8,0.2-3.5,0.3-4.8,0.5c-1.3,0.1-3.4,0.6-4.7,1.5c-1.3,0.9-2.7,2.4-3.2,3.8
	c-0.5,1.4-0.9,2.9-0.9,4.5c-0.1,1.6-0.3,3.8-0.8,4.6C11.6,26.5,10.7,26.9,9.8,26.5z"/>
<path class="st1" d="M2.7,1.6c0,0,1.1-0.8,2.5-1c1.3-0.1,2.2,0.3,2.7,0.9c0.7,0.8,0.8,1.5,0.7,3.2C8.4,7.5,9.8,8.3,9.8,8.3"/>
<circle class="st0" cx="14.4" cy="4.1" r="1"/>
<circle class="st0" cx="18.1" cy="4.1" r="1"/>
<circle class="st0" cx="18.2" cy="7.9" r="1"/>
<circle class="st0" cx="14.4" cy="7.9" r="1"/>
<line class="st1" x1="5.7" y1="16.6" x2="9.1" y2="13.2"/>
<line class="st1" x1="9.1" y1="16.6" x2="5.7" y2="13.2"/>
</svg>
