<?xml version="1.0" encoding="utf-8"?>
<!-- Generator: Adobe Illustrator 21.1.0, SVG Export Plug-In . SVG Version: 6.00 Build 0)  -->
<svg version="1.1" id="Слой_1" xmlns="http://www.w3.org/2000/svg" xmlns:xlink="http://www.w3.org/1999/xlink" x="0px" y="0px"
	 viewBox="0 0 28 28" style="enable-background:new 0 0 28 28;" xml:space="preserve">
<style type="text/css">
	.st0{fill:none;stroke:#1973FF;stroke-width:0.7;stroke-linecap:round;stroke-miterlimit:10;}
</style>
<title>Brain-Pro</title>
<g id="Layer_2">
	<g id="Layer_1-2">
		<path class="st0" d="M24,3.3h-2.8V2.9c0-0.7-0.5-1.2-1.2-1.2c-0.7,0-1.2,0.5-1.2,1.2c0,0,0,0,0,0v0.4H9.2V2.9
			c0-0.7-0.5-1.2-1.2-1.2S6.8,2.2,6.8,2.9v0.4H4c-1.1,0-2,0.9-2,2v18.4c0,1.1,0.9,2,2,2h20c1.1,0,2-0.9,2-2V5.3
			C26,4.2,25.1,3.3,24,3.3z"/>
		<path class="st0" d="M23.6,20.5l-2.4-0.4c-0.1,0-0.3,0-0.4,0.1l-0.3,0.3h-5.4v-0.8c0-0.2-0.2-0.4-0.4-0.4h-1.7
			c-0.1,0-0.2,0-0.3,0.1l-0.5,0.5l-0.6-0.5c-0.1-0.1-0.2-0.1-0.3-0.1H4.4c-0.2,0-0.4,0.2-0.4,0.4v4c0,0.2,0.2,0.4,0.4,0.4h7.3
			c0.1,0,0.2,0,0.3-0.1l0.5-0.5L13,24c0.1,0.1,0.2,0.1,0.3,0.1h1.6c0.2,0,0.4-0.2,0.4-0.4v-0.8h5.4l0.3,0.3c0.1,0.1,0.2,0.1,0.3,0.1
			h0.1l2.4-0.4c0.2,0,0.3-0.2,0.3-0.4v-1.6C24,20.7,23.9,20.5,23.6,20.5C23.7,20.5,23.7,20.5,23.6,20.5z"/>
		<path class="st0" d="M5.2,16.8h11.4l2.3,2.3c0.1,0.1,0.2,0.1,0.3,0.1h2.4c0.1,0,0.2-0.1,0.3-0.1l1.6-2c0.1-0.2,0.1-0.4-0.1-0.6
			c-0.1-0.1-0.2-0.1-0.2-0.1h-2.6l-0.9-1.2l0.9-1.2h2.6c0.2,0,0.4-0.2,0.4-0.4c0-0.1,0-0.2-0.1-0.2l-1.6-2c-0.1-0.1-0.2-0.1-0.3-0.1
			h-2.4c-0.1,0-0.2,0-0.3,0.1l-2.3,2.2H5.2c-0.9,0-1.6,0.7-1.6,1.6S4.3,16.8,5.2,16.8C5.2,16.8,5.2,16.8,5.2,16.8z"/>
		<line class="st0" x1="25.8" y1="9" x2="2.1" y2="9"/>
		<path class="st0" d="M8,1.7L8,1.7c0.6,0,1.2,0.5,1.2,1.2V6c0,0.6-0.5,1.2-1.2,1.2h0C7.3,7.1,6.8,6.6,6.8,6V2.8
			C6.8,2.2,7.3,1.7,8,1.7z"/>
		<path class="st0" d="M20,1.7L20,1.7c0.6,0,1.2,0.5,1.2,1.2V6c0,0.6-0.5,1.2-1.2,1.2l0,0c-0.6,0-1.2-0.5-1.2-1.2V2.8
			C18.8,2.2,19.3,1.7,20,1.7z"/>
		<line class="st0" x1="15.2" y1="22.8" x2="15.2" y2="20.4"/>
		<line class="st0" x1="5.2" y1="21.8" x2="10.7" y2="21.8"/>
		<line class="st0" x1="12.4" y1="19.9" x2="12.4" y2="23.4"/>
	</g>
</g>
</svg>
