<?xml version="1.0" encoding="utf-8"?>
<!-- Generator: Adobe Illustrator 21.1.0, SVG Export Plug-In . SVG Version: 6.00 Build 0)  -->
<svg version="1.1" id="Layer_1" xmlns="http://www.w3.org/2000/svg" xmlns:xlink="http://www.w3.org/1999/xlink" x="0px" y="0px"
	 viewBox="0.1 -1.5 29.9 29.9" style="enable-background:new 0.1 -1.5 29.9 29.9;" xml:space="preserve">
<style type="text/css">
	.st0{fill:none;stroke:#10b1e8;stroke-width:0.7;stroke-miterlimit:10;}
	.st1{fill:#10b1e8;}
	.st2{fill:none;stroke:#10b1e8;stroke-width:0.7;stroke-linejoin:round;stroke-miterlimit:10;}
</style>
<path class="st0" d="M0.4,22.3c0-0.8,0-3.6,0-3.6c0-2.5,2.1-4.6,4.7-4.6H25c2.6,0,4.7,2.1,4.7,4.6c0,0,0,2.8,0,3.4
	c0,0.9-0.4,1.4-1.5,1.4c-1.1,0-26.3,0-26.8,0C0.9,23.4,0.4,23.1,0.4,22.3z"/>
<path class="st0" d="M7.2,23.4v0.2v0.7c0,0.7-0.5,1.2-1.1,1.2H3.4c-0.6,0-1.1-0.5-1.1-1.2v-0.7v-0.1"/>
<path class="st0" d="M27.8,23.4v0.2v0.7c0,0.7-0.5,1.2-1.1,1.2h-2.8c-0.6,0-1.1-0.5-1.1-1.2v-0.7v-0.1"/>
<g>
	<path class="st1" d="M11.1,18.2C11.2,18.2,11.2,18.2,11.1,18.2l0,1.1c0,0,0,0,0,0H9.9c0,0,0,0,0,0v-1.1c0,0,0,0,0,0H11.1
		 M11.1,17.7H9.9c-0.3,0-0.5,0.2-0.5,0.5v1.1c0,0.3,0.2,0.5,0.5,0.5h1.2c0.3,0,0.5-0.2,0.5-0.5v-1.1C11.7,18,11.4,17.7,11.1,17.7
		L11.1,17.7z"/>
</g>
<g>
	<path class="st1" d="M16.1,18.2C16.1,18.2,16.1,18.2,16.1,18.2l0,1.1c0,0,0,0,0,0h-1.2c0,0,0,0,0,0v-1.1c0,0,0,0,0,0H16.1
		 M16.1,17.7h-1.2c-0.3,0-0.5,0.2-0.5,0.5v1.1c0,0.3,0.2,0.5,0.5,0.5h1.2c0.3,0,0.5-0.2,0.5-0.5v-1.1C16.6,18,16.4,17.7,16.1,17.7
		L16.1,17.7z"/>
</g>
<g>
	<path class="st1" d="M21,18.2C21.1,18.2,21.1,18.2,21,18.2l0,1.1c0,0,0,0,0,0h-1.2c0,0,0,0,0,0v-1.1c0,0,0,0,0,0H21 M21,17.7h-1.2
		c-0.3,0-0.5,0.2-0.5,0.5v1.1c0,0.3,0.2,0.5,0.5,0.5H21c0.3,0,0.5-0.2,0.5-0.5v-1.1C21.6,18,21.3,17.7,21,17.7L21,17.7z"/>
</g>
<path class="st2" d="M4.1,14.4L1.7,2.7C1.6,2.2,2,1.7,2.5,1.6l0,0c0.5-0.1,1.1,0.2,1.2,0.8L6.1,14"/>
<path class="st2" d="M25.9,14.4l2.4-11.6c0.1-0.5-0.2-1.1-0.8-1.2l0,0c-0.5-0.1-1.1,0.2-1.2,0.8L23.9,14"/>
</svg>
