<?xml version="1.0" encoding="utf-8"?>
<!-- Generator: Adobe Illustrator 21.1.0, SVG Export Plug-In . SVG Version: 6.00 Build 0)  -->
<svg version="1.1" id="Layer_1" xmlns="http://www.w3.org/2000/svg" xmlns:xlink="http://www.w3.org/1999/xlink" x="0px" y="0px"
	 viewBox="0 0 20 20" style="enable-background:new 0 0 20 20;" xml:space="preserve">
<style type="text/css">
	.st0{fill:none;stroke:#1973FF;stroke-width:0.5;stroke-linecap:round;stroke-linejoin:round;stroke-miterlimit:10;}
</style>
<title>Hairdrayer</title>
<g id="Layer_2">
	<g id="Layer_1-2">
		<path class="st0" d="M18.9,5.4c0-2.8-2.3-5.1-5.1-5c-0.2,0-0.4,0-0.7,0L1.3,2C1.2,2,1,2.2,1,2.3v6.2c0,0.2,0.1,0.3,0.3,0.4
			l6.9,0.9l-1,2.5c-0.1,0.2,0,0.4,0.2,0.4h0.1h0.9l-1.9,5c-0.3,0.7,0.1,1.5,0.8,1.7c0.2,0.1,0.3,0.1,0.5,0.1h2.9
			c0.5,0,0.9-0.3,1.2-0.7L18,8.2C18.5,7.5,18.8,6.5,18.9,5.4L18.9,5.4z"/>
		<path class="st0" d="M18.9,5.6c0,2.7-2.2,4.9-5,4.9c-0.2,0-0.4,0-0.7,0L1.8,8.9"/>
		<path d="M11.4,19.2"/>
		<path class="st0" d="M13.9,8.3c1.8,0,3.3-1.4,3.3-3.2S15.8,1.8,14,1.8S10.7,3.2,10.7,5l0,0C10.7,6.8,12.2,8.2,13.9,8.3L13.9,8.3z"
			/>
		<path d="M13.9,2"/>
		<path class="st0" d="M13.9,6.6c0.8,0,1.5-0.7,1.5-1.5s-0.7-1.6-1.5-1.6S12.4,4.2,12.4,5S13.1,6.5,13.9,6.6L13.9,6.6z"/>
		<path class="st0" d="M13.9,3.9"/>
		<path class="st0" d="M11.8,11.5c-0.9,0-1.6,0.7-1.6,1.6c0,0.9,0.7,1.6,1.6,1.6s1.6-0.7,1.6-1.6C13.3,12.2,12.6,11.5,11.8,11.5z"/>
		<path d="M11.8,14.2"/>
		<line class="st0" x1="2.7" y1="1.9" x2="2.7" y2="9"/>
		<line class="st0" x1="9.6" y1="9.9" x2="8.2" y2="13.4"/>
	</g>
</g>
</svg>
