<?xml version="1.0" encoding="utf-8"?>
<!-- Generator: Adobe Illustrator 21.1.0, SVG Export Plug-In . SVG Version: 6.00 Build 0)  -->
<svg version="1.1" id="Layer_1" xmlns="http://www.w3.org/2000/svg" xmlns:xlink="http://www.w3.org/1999/xlink" x="0px" y="0px"
	 viewBox="0 0 29.8 29.8" style="enable-background:new 0 0 29.8 29.8;" xml:space="preserve">
<style type="text/css">
	.st0{fill:none;stroke:#10b1e8;stroke-width:0.7;stroke-miterlimit:10;}
	.st1{fill:none;stroke:#10b1e8;stroke-width:0.5;stroke-linecap:round;stroke-miterlimit:10;}
	.st2{fill:#10b1e8;}
	.st3{fill:none;stroke:#10b1e8;stroke-width:0.7;stroke-linecap:round;stroke-miterlimit:10;}
</style>
<path class="st0" d="M29.5,24.4c0,0.9-0.7,1.7-1.7,1.7H2c-0.9,0-1.7-0.7-1.7-1.7V8.3c0-0.9,0.7-1.7,1.7-1.7c0,0,7.2,0,7.5,0
	c0.3,0,0.5-0.1,0.7-0.4c0.5-0.7,1.4-2,1.6-2.3c0.4-0.5,0.9-0.5,0.9-0.5l4,0c0,0,0.5-0.1,1,0.5C18,4.4,19,5.7,19.4,6.3
	c0.1,0.2,0.4,0.3,0.7,0.3s7.7,0,7.7,0c0.9,0,1.7,0.7,1.7,1.7L29.5,24.4L29.5,24.4z"/>
<circle class="st0" cx="14.8" cy="16.2" r="7.4"/>
<circle class="st0" cx="14.8" cy="16.2" r="5.7"/>
<path class="st1" d="M12.6,17.7c-0.3-0.4-0.5-1-0.5-1.5c0-1.5,1.2-2.7,2.7-2.7c0.6,0,1.1,0.2,1.5,0.5"/>
<circle class="st2" cx="23.6" cy="10.2" r="1.2"/>
<line class="st3" x1="3.1" y1="5.2" x2="7.2" y2="5.2"/>
</svg>
