<?xml version="1.0" encoding="utf-8"?>
<!-- Generator: Adobe Illustrator 21.1.0, SVG Export Plug-In . SVG Version: 6.00 Build 0)  -->
<svg version="1.1" id="Layer_1" xmlns="http://www.w3.org/2000/svg" xmlns:xlink="http://www.w3.org/1999/xlink" x="0px" y="0px"
	 viewBox="0 0 30 30" style="enable-background:new 0 0 30 30;" xml:space="preserve">
<style type="text/css">
	.st0{fill:#10b1e8;}
	.st1{fill:none;stroke:#10b1e8;stroke-width:0.7;stroke-miterlimit:10;}
	.st2{fill:none;stroke:#10b1e8;stroke-miterlimit:10;}
	.st3{fill:none;stroke:#10b1e8;stroke-width:0.7;stroke-linecap:round;stroke-miterlimit:10;}
</style>
<g>
	<path class="st0" d="M18.7,7.2c0.2,0,0.4,0.2,0.4,0.5v11.6c0,0.3-0.2,0.5-0.4,0.5H1.1c-0.2,0-0.4-0.2-0.4-0.5V7.8
		c0-0.3,0.2-0.5,0.4-0.5H18.7 M18.7,6.5H1.1C0.5,6.5,0,7.1,0,7.8v11.6c0,0.7,0.5,1.2,1.1,1.2h17.6c0.6,0,1.1-0.5,1.1-1.2V7.8
		C19.8,7.1,19.3,6.5,18.7,6.5L18.7,6.5z"/>
</g>
<line class="st1" x1="0.3" y1="18.7" x2="19.4" y2="18.7"/>
<line class="st2" x1="23" y1="8.6" x2="28.7" y2="8.6"/>
<line class="st2" x1="23" y1="10.3" x2="28.7" y2="10.3"/>
<line class="st3" x1="5.7" y1="23.5" x2="14" y2="23.5"/>
<line class="st3" x1="7.8" y1="23.4" x2="8.7" y2="20.4"/>
<line class="st3" x1="12.1" y1="23.4" x2="11.2" y2="20.5"/>
<path class="st1" d="M29.7,22.5c0,0.5-0.4,0.9-0.9,0.9h-5.9c-0.5,0-0.9-0.4-0.9-0.9V7.8c0-0.5,0.4-0.9,0.9-0.9h5.9
	c0.5,0,0.9,0.4,0.9,0.9V22.5z"/>
<circle class="st0" cx="25.8" cy="20" r="0.7"/>
</svg>
