<?xml version="1.0" encoding="utf-8"?>
<!-- Generator: Adobe Illustrator 21.1.0, SVG Export Plug-In . SVG Version: 6.00 Build 0)  -->
<svg version="1.1" id="Слой_1" xmlns="http://www.w3.org/2000/svg" xmlns:xlink="http://www.w3.org/1999/xlink" x="0px" y="0px"
	 viewBox="0 0 17.5 17.5" style="enable-background:new 0 0 17.5 17.5;" xml:space="preserve">
<style type="text/css">
	.st0{fill:#10b1e8;}
	.st1{fill:none;stroke:#10b1e8;stroke-width:0.7;stroke-linecap:round;stroke-miterlimit:10;}
	.st2{fill:none;stroke:#10b1e8;stroke-width:0.7;stroke-miterlimit:10;}
	.st3{fill:none;stroke:#10b1e8;stroke-width:0.5;stroke-miterlimit:10;}
</style>
<title>Auto-Navigation</title>
<g id="Layer_2">
	<g id="Layer_1-2">
		<path class="st0" d="M13.1,11v5.8H4.4V11H13.1 M13.8,10.3H3.7v7.2h10.1L13.8,10.3L13.8,10.3z"/>
		<path class="st0" d="M11.9,11.9v3.8H5.6v-3.8H11.9 M12.4,11.4H5v4.8h7.4L12.4,11.4L12.4,11.4z"/>
		<path class="st1" d="M5.6,2.3c0,0,0.5-1.7,1.9-1.7h2.4c1,0,1.8,1.8,1.8,1.8"/>
		<path class="st2" d="M12.3,5.8v1c0,0.8-0.7,1.4-1.4,1.4c0,0,0,0,0,0H6.6c-0.8,0-1.4-0.6-1.4-1.4c0,0,0,0,0,0v-1"/>
		<path class="st2" d="M11.3,1.6c0,0,4.6,0.9,5.2,1c0.4,0.1,0.7,0.4,0.6,0.8c0,0.3,0.1,0.9-0.5,1.1S12,5.8,11.8,6s-0.6,0.8-0.9,1
			c-1.3,0.1-2.7,0.2-4,0.1c-0.5,0-0.6-0.6-1-0.9S1.4,4.8,1,4.7C0.6,4.5,0.4,4.2,0.3,3.8c0-0.5,0-0.9,0.5-1.1s5.2-1,5.2-1"/>
		<circle class="st3" cx="8.7" cy="3.9" r="1.1"/>
		<circle class="st2" cx="8.7" cy="3.9" r="2"/>
		<path class="st2" d="M10.6,8.1c-0.2,1.1-1.3,1.8-2.4,1.5C7.5,9.5,6.9,8.9,6.7,8.1"/>
		<line class="st2" x1="7.7" y1="9.5" x2="7.7" y2="10.5"/>
		<line class="st2" x1="9.6" y1="9.5" x2="9.6" y2="10.5"/>
	</g>
</g>
</svg>
