<?xml version="1.0" encoding="utf-8"?>
<!-- Generator: Adobe Illustrator 21.1.0, SVG Export Plug-In . SVG Version: 6.00 Build 0)  -->
<svg version="1.1" xmlns="http://www.w3.org/2000/svg" xmlns:xlink="http://www.w3.org/1999/xlink" x="0px" y="0px"
	 viewBox="0 -1.5 30 30" style="enable-background:new 0 -1.5 30 30;" xml:space="preserve">
<style type="text/css">
	.st0{fill:none;stroke:#1973FF;stroke-width:0.7;stroke-miterlimit:10;}
	.st1{fill:none;stroke:#1973FF;stroke-width:0.3;stroke-miterlimit:10;}
</style>
<g id="Layer_1">
	<g>
		<path class="st0" d="M8,21.9H1.8c-0.8,0-1.4-0.6-1.4-1.4V3.9c0-0.8,0.6-1.4,1.4-1.4h11.6c0.8,0,1.4,0.6,1.4,1.4v12.7"/>
		<circle class="st0" cx="7.6" cy="9.6" r="1.5"/>
		<path class="st0" d="M5.9,14.4c-2-0.7-3.4-2.6-3.4-4.8c0-2.8,2.3-5.1,5.1-5.1c2.8,0,5.1,2.3,5.1,5.1c0,1.9-1,3.5-2.6,4.4"/>
		<path class="st0" d="M9.3,13.2c-0.2,0.4-2.8,4.9-3.6,6.1c-1.1,1.7-3.9-0.1-2.2-2.1C5,15.4,7.2,13.3,8,12.6c0.7-0.7,1-0.8,1.3-0.6
			C9.7,12.2,9.6,12.6,9.3,13.2z"/>
		<path class="st0" d="M11.7,19.7c-0.8,0-3.2,0-3.2,0s0-0.8,0-1.4c0-0.9,0.7-1.5,1.7-1.5c0.4,0,1.1,0,1.6,0"/>
	</g>
	<g>
		<polygon class="st0" points="26.7,27 24.9,27 24.9,28.2 11.6,28.2 11.6,27 9.7,27 9.7,22.1 26.7,22.1 		"/>
		<polyline class="st0" points="11.6,25.5 11.6,23.7 13.3,23.7 13.3,25.5 		"/>
		<polyline class="st0" points="14.5,25.5 14.5,23.7 16.2,23.7 16.2,25.5 		"/>
		<polyline class="st0" points="17.3,25.5 17.3,23.7 19,23.7 19,25.5 		"/>
		<polyline class="st0" points="20.2,25.5 20.2,23.7 21.9,23.7 21.9,25.5 		"/>
		<polyline class="st0" points="23.1,25.5 23.1,23.7 24.8,23.7 24.8,25.5 		"/>
		<line class="st1" x1="12.4" y1="27" x2="12.4" y2="27.9"/>
		<line class="st1" x1="13.3" y1="27" x2="13.3" y2="27.9"/>
		<line class="st1" x1="14.1" y1="27" x2="14.1" y2="27.9"/>
		<line class="st1" x1="14.9" y1="27" x2="14.9" y2="27.9"/>
		<line class="st1" x1="15.8" y1="27" x2="15.8" y2="27.9"/>
		<line class="st1" x1="16.6" y1="27" x2="16.6" y2="27.9"/>
		<line class="st1" x1="17.4" y1="27" x2="17.4" y2="27.9"/>
		<line class="st1" x1="18.2" y1="27" x2="18.2" y2="27.9"/>
		<line class="st1" x1="19.1" y1="27" x2="19.1" y2="27.9"/>
		<line class="st1" x1="19.9" y1="27" x2="19.9" y2="27.9"/>
		<line class="st1" x1="20.7" y1="27" x2="20.7" y2="27.9"/>
		<line class="st1" x1="21.5" y1="27" x2="21.5" y2="27.9"/>
		<line class="st1" x1="22.4" y1="27" x2="22.4" y2="27.9"/>
		<line class="st1" x1="23.2" y1="27" x2="23.2" y2="27.9"/>
		<line class="st1" x1="24" y1="27" x2="24" y2="27.9"/>
	</g>
	<g>
		<polyline class="st0" points="12.8,21 12.8,17.7 29.7,17.7 29.7,22.6 27.9,22.6 		"/>
		<polyline class="st0" points="14.6,21.1 14.6,19.2 16.3,19.2 16.3,21.1 		"/>
		<polyline class="st0" points="17.5,21.1 17.5,19.2 19.2,19.2 19.2,21.1 		"/>
		<polyline class="st0" points="20.4,21.1 20.4,19.2 22.1,19.2 22.1,21.1 		"/>
		<polyline class="st0" points="23.2,21.1 23.2,19.2 24.9,19.2 24.9,21.1 		"/>
		<polyline class="st0" points="26.1,21.1 26.1,19.2 27.8,19.2 27.8,21.1 		"/>
	</g>
</g>
<g id="Layer_2">
</g>
<g id="Layer_3">
</g>
</svg>
