<?xml version="1.0" encoding="utf-8"?>
<!-- Generator: Adobe Illustrator 21.1.0, SVG Export Plug-In . SVG Version: 6.00 Build 0)  -->
<svg version="1.1" id="Слой_1" xmlns="http://www.w3.org/2000/svg" xmlns:xlink="http://www.w3.org/1999/xlink" x="0px" y="0px"
	 viewBox="0 0 20 20" style="enable-background:new 0 0 20 20;" xml:space="preserve">
<style type="text/css">
	.st0{fill:#1973FF;}
	.st1{fill:none;stroke:#1973FF;stroke-width:0.7;stroke-linecap:round;stroke-linejoin:round;}
</style>
<title>Mixer</title>
<g id="Layer_2">
	<g id="Capa_1">
		<path class="st0" d="M14.2,1.2c0.9,0,1.6,0.7,1.6,1.6V6c0,0.1-0.1,0.3-0.3,0.3l0,0H6.5c-0.6,0-1,0.4-1,1v9.1c0,1.3,1,2.3,2.3,2.3
			h0h10v0.5H0.7v-0.5H1c0.9,0,1.7-0.7,1.7-1.7l0,0V7c0-0.4-0.3-0.7-0.7-0.7H1.3C1.2,6.3,1,6.2,1,6.1c0,0,0,0,0,0V1.5
			c0-0.1,0.1-0.3,0.2-0.3c0,0,0,0,0.1,0H14.2 M14.2,0.5H1.3c-0.6,0-1,0.4-1,1V6c0,0.6,0.4,1,1,1h0.6v10c0,0.6-0.4,1-1,1H0.7
			C0.3,18,0,18.3,0,18.7v0.6C0,19.7,0.3,20,0.7,20h17.1c0.4,0,0.6-0.3,0.6-0.6v-0.6c0-0.4-0.3-0.6-0.6-0.6h-10
			c-0.9,0-1.6-0.7-1.6-1.6V7.3C6.2,7.2,6.3,7,6.5,7c0,0,0,0,0,0h9.1c0.6,0,1-0.4,1-1V2.8C16.6,1.6,15.6,0.5,14.2,0.5
			C14.3,0.5,14.3,0.5,14.2,0.5z"/>
		<path class="st0" d="M17.8,3.2c0.1,0,0.3,0.1,0.3,0.3c0,0,0,0,0,0v1.9c0,0.1-0.1,0.3-0.3,0.3l0,0h-1.2V3.2H17.8 M17.8,2.5h-1.6
			c-0.2,0-0.3,0.1-0.3,0.3V6c0,0.2,0.1,0.3,0.3,0.3h1.6c0.6,0,1-0.4,1-1V3.5C18.8,2.9,18.4,2.5,17.8,2.5L17.8,2.5z"/>
		<path class="st0" d="M18.1,11.3v4.2c0,1.4-1.1,2.5-2.5,2.5H10c-1.4,0-2.5-1.1-2.5-2.5v-4.2L18.1,11.3 M18.5,10.6H7.1
			c-0.2,0-0.3,0.1-0.3,0.3v4.6c0,1.8,1.4,3.2,3.2,3.2c0,0,0,0,0,0h5.6c1.8,0,3.2-1.4,3.2-3.2v0v-4.6C18.8,10.7,18.7,10.6,18.5,10.6
			L18.5,10.6z"/>
		<path class="st0" d="M14.2,7.1v0.6c0,0.1-0.1,0.3-0.3,0.3l0,0H12c-0.1,0-0.3-0.1-0.3-0.3v0V7.1H14.2 M14.6,6.4h-3.3
			c-0.2,0-0.3,0.1-0.3,0.3v1c0,0.6,0.4,1,1,1H14c0.6,0,1-0.4,1-1v-1C15,6.5,14.8,6.4,14.6,6.4L14.6,6.4z"/>
		<path class="st0" d="M4.2,2.5L4.2,2.5c0.9,0,1.6,0.7,1.6,1.6c0,0.9-0.7,1.6-1.6,1.6C3.4,5.7,2.6,5,2.6,4.1c0,0,0,0,0,0
			C2.7,3.2,3.4,2.5,4.2,2.5 M4.2,1.8c-1.3,0-2.3,1-2.3,2.3c0,1.3,1,2.3,2.3,2.3c1.3,0,2.3-1,2.3-2.3c0,0,0,0,0,0
			C6.5,2.9,5.5,1.8,4.2,1.8L4.2,1.8z"/>
		<line class="st1" x1="2.9" y1="5.4" x2="5.5" y2="2.8"/>
		<line class="st1" x1="2.3" y1="9" x2="5.7" y2="9"/>
		<line class="st1" x1="13" y1="8.3" x2="13" y2="10.8"/>
		<line class="st1" x1="9.6" y1="12.2" x2="12" y2="12.2"/>
		<line class="st1" x1="8.4" y1="12.2" x2="8.4" y2="12.2"/>
	</g>
</g>
</svg>
