<svg xmlns="http://www.w3.org/2000/svg" width="14.62" height="18" viewBox="0 0 14.62 18">
  <metadata><?xpacket begin="﻿" id="W5M0MpCehiHzreSzNTczkc9d"?>
<x:xmpmeta xmlns:x="adobe:ns:meta/" x:xmptk="Adobe XMP Core 5.6-c138 79.159824, 2016/09/14-01:09:01        ">
   <rdf:RDF xmlns:rdf="http://www.w3.org/1999/02/22-rdf-syntax-ns#">
      <rdf:Description rdf:about=""/>
   </rdf:RDF>
</x:xmpmeta>
                                                                                                    
                                                                                                    
                                                                                                    
                                                                                                    
                                                                                                    
                                                                                                    
                                                                                                    
                                                                                                    
                                                                                                    
                                                                                                    
                                                                                                    
                                                                                                    
                                                                                                    
                                                                                                    
                                                                                                    
                                                                                                    
                                                                                                    
                                                                                                    
                                                                                                    
                                                                                                    
                           
<?xpacket end="w"?></metadata>
<defs>
    <style>
      .cls-1 {
        fill: #333;
        fill-rule: evenodd;
      }
    </style>
  </defs>
  <path id="Фигура_919" data-name="Фигура 919" class="cls-1" d="M1524.63,538.241a3.676,3.676,0,0,1,3.47,3.221l0.01,0.058,0.01,0.058h0a0.468,0.468,0,0,1-.09.332,0.23,0.23,0,0,1-.15.088h-10.25a0.208,0.208,0,0,1-.15-0.084,0.431,0.431,0,0,1-.09-0.358,3.693,3.693,0,0,1,3.51-3.316h3.73m0-2h-3.73a5.664,5.664,0,0,0-5.44,5,2.319,2.319,0,0,0,2.17,2.753h10.25a2.328,2.328,0,0,0,2.16-2.8l-0.02-.087a5.637,5.637,0,0,0-5.39-4.876h0ZM1522.75,528a2.011,2.011,0,0,1,1.61.83,2.131,2.131,0,0,1-.18,2.744v0.008a1.991,1.991,0,0,1-1.42.621,2.02,2.02,0,0,1-1.5-.693,2.137,2.137,0,0,1-.15-2.631,2.017,2.017,0,0,1,1.64-.879m0-2a3.948,3.948,0,0,0-3.21,1.685,4.186,4.186,0,0,0,.3,5.2l0.02,0.021a3.87,3.87,0,0,0,5.7.087l0.04-.043a4.14,4.14,0,0,0,.3-5.352,3.963,3.963,0,0,0-3.15-1.6h0Z" transform="translate(-1515.44 -526)"/>
</svg>
