<svg xmlns="http://www.w3.org/2000/svg" width="28.97" height="33.969" viewBox="0 0 28.97 33.969">
  <defs>
    <style>
      .cls-1 {
        fill: #1972fd;
        fill-rule: evenodd;
      }
    </style>
  </defs>
  <path id="Фигура_50" data-name="Фигура 50" class="cls-1" d="M3079.62,760.592h-26.64v-1.617h26.64v1.617Zm-7.27-17.96h0a0.81,0.81,0,0,1-.81-0.81l0.01-4.3a5.057,5.057,0,0,0-1.18-3.523,5.514,5.514,0,0,0-4.22-1.481,4.991,4.991,0,0,0-3.8,1.379,5.677,5.677,0,0,0-1.31,3.83v4.095a0.81,0.81,0,0,1-1.62,0v-4.046a7.287,7.287,0,0,1,1.75-4.988,6.524,6.524,0,0,1,4.98-1.887,7.024,7.024,0,0,1,5.42,2.014,6.644,6.644,0,0,1,1.6,4.674l-0.01,4.233A0.807,0.807,0,0,1,3072.35,742.632Zm-4.28,7.811c1.48,0.128,1.99,1.048,1.99,2.607,0,2.011-.94,2.549-3.22,2.549-1.77,0-2.71-.014-3.89-0.113v-9.773a33.731,33.731,0,0,1,3.45-.114c2.48,0,3.36.538,3.36,2.55,0,1.4-.48,2.124-1.69,2.238v0.056Zm-1.6-.666c1.19,0,1.57-.283,1.57-1.4,0-1.092-.42-1.346-1.73-1.346h-1.63v2.747h1.79Zm0.08,4.392c1.31,0,1.72-.27,1.72-1.445,0-1.3-.43-1.643-1.79-1.658h-1.8v3.088Zm13.41,10.711h-27.33a0.8,0.8,0,0,1-.8-0.869l2.02-25.281a0.806,0.806,0,0,1,.81-0.749h23.28a0.8,0.8,0,0,1,.8.749l2.03,25.281a0.81,0.81,0,0,1-.22.61A0.79,0.79,0,0,1,3079.96,764.88Zm-26.45-1.618h25.58l-1.91-23.663h-21.77Z" transform="translate(-3051.81 -730.906)"/>
</svg>
