<svg xmlns="http://www.w3.org/2000/svg" width="37" height="23.031" viewBox="0 0 37 23.031">
  <defs>
    <style>
      .cls-1 {
        fill: #10b1e8;
        fill-rule: evenodd;
      }
    </style>
  </defs>
  <path id="Фигура_34" data-name="Фигура 34" class="cls-1" d="M3287.12,737.942h-23.49a0.883,0.883,0,0,0-.89.873v2.964h-6.71a0.88,0.88,0,0,0-.87.711l-1.12,5.907-2.46.895a0.871,0.871,0,0,0-.58.819v7.073a0.874,0.874,0,0,0,.88.872h2.75a3.821,3.821,0,0,0,7.42,0h14.31a3.821,3.821,0,0,0,7.42,0h3.34a0.88,0.88,0,0,0,.88-0.872V738.815A0.88,0.88,0,0,0,3287.12,737.942Zm-28.78,21.277a2.036,2.036,0,1,1,2.06-2.035A2.054,2.054,0,0,1,3258.34,759.219Zm21.73,0a2.036,2.036,0,1,1,2.06-2.035A2.054,2.054,0,0,1,3280.07,759.219Zm6.17-2.908h-2.46a3.822,3.822,0,0,0-7.42,0h-14.31a3.822,3.822,0,0,0-7.42,0h-1.87V750.72l2.36-.857a0.875,0.875,0,0,0,.56-0.657l1.08-5.683h5.98v13.49a0.885,0.885,0,0,0,1.77,0V739.686h21.73v16.625Z" transform="translate(-3251 -737.938)"/>
</svg>
