<svg xmlns="http://www.w3.org/2000/svg" width="38" height="33.219" viewBox="0 0 38 33.219">
  <defs>
    <style>
      .cls-1 {
        fill: #999;
        fill-rule: evenodd;
      }
    </style>
  </defs>
  <path id="Фигура_1208" data-name="Фигура 1208" class="cls-1" d="M3466.51,755.262a5.95,5.95,0,0,0-2.9,7.908,6.024,6.024,0,0,0,7.97,2.878,5.933,5.933,0,0,0,2.9-7.908A6.024,6.024,0,0,0,3466.51,755.262Zm4.23,8.988a4.025,4.025,0,0,1-5.32-1.918,3.962,3.962,0,0,1,1.94-5.273,4.01,4.01,0,0,1,5.31,1.919A3.965,3.965,0,0,1,3470.74,764.25Zm-8.33-22.411,4.31,9.17,0.87,1.853a8.03,8.03,0,0,1,7.62,2.752l1.86-.864,9.24-4.276-7.6-16.18Zm21.25,7.675-8.01,3.706a10.084,10.084,0,0,0-6.85-2.475l-3.73-7.947,12.67-5.868Zm-6.53,9.585L3488,754.07l-0.84-1.8-10.87,5.03Zm-13.27-4.8,1.81-.839-9.11-19.385-6.35-.659-0.21,1.972,5.23,0.543Zm14.53-12.971-3.99-1.44-0.68,1.864,3.98,1.439Z" transform="translate(-3450 -733.406)"/>
</svg>
