<svg xmlns="http://www.w3.org/2000/svg" width="45.97" height="31.031" viewBox="0 0 45.97 31.031">
  <defs>
    <style>
      .cls-1 {
        fill: #1972fd;
        fill-rule: evenodd;
      }
    </style>
  </defs>
  <path id="Фигура_1444" data-name="Фигура 1444" class="cls-1" d="M2382.59,626.869a10.043,10.043,0,0,0-9.97,8.325h-13.14a0.877,0.877,0,0,0-.89.861v2.924h-6.79a0.876,0.876,0,0,0-.87.7l-1.13,5.825-2.5.882a0.861,0.861,0,0,0-.58.808v6.975a0.876,0.876,0,0,0,.89.86h2.78a3.886,3.886,0,0,0,7.5,0h14.46a3.879,3.879,0,0,0,7.49,0h3.38a0.876,0.876,0,0,0,.89-0.86v-7.7A9.842,9.842,0,0,0,2382.59,626.869Zm-28.45,29.308a2.008,2.008,0,1,1,2.07-2.007A2.045,2.045,0,0,1,2354.14,656.177Zm0-5.733a3.833,3.833,0,0,0-3.75,2.866h-1.89v-5.515l2.38-.844a0.861,0.861,0,0,0,.57-0.648l1.09-5.605h6.05V653.31h-0.7A3.842,3.842,0,0,0,2354.14,650.444Zm21.96,5.733a2.008,2.008,0,1,1,2.07-2.007A2.045,2.045,0,0,1,2376.1,656.177Zm6.23-2.867h-2.49a3.88,3.88,0,0,0-7.49,0h-11.98v-16.4h12.13a9.98,9.98,0,0,0,9.83,9.665v6.731Zm1.78-8.834a8.247,8.247,0,0,1-1.52.144c-0.09,0-.17-0.01-0.26-0.013a7.989,7.989,0,0,1-7.81-7.693c0-.061-0.01-0.121-0.01-0.183a7.108,7.108,0,0,1,.16-1.537A8.064,8.064,0,1,1,2384.11,644.476Zm1.92-3.012-4.45-3.254V631.8h2.02v5.424l3.64,2.662Z" transform="translate(-2346.72 -626.875)"/>
</svg>
