<?xml version="1.0" encoding="utf-8"?>
<!-- Generator: Adobe Illustrator 21.1.0, SVG Export Plug-In . SVG Version: 6.00 Build 0)  -->
<svg version="1.1" id="Слой_1" xmlns="http://www.w3.org/2000/svg" xmlns:xlink="http://www.w3.org/1999/xlink" x="0px" y="0px"
	 viewBox="0 0 19 18" style="enable-background:new 0 0 19 18;" xml:space="preserve">
<style type="text/css">
	.st0{fill:#344150;}
</style>
<path id="Фигура_1_копия_4" class="st0" d="M0.7,5.7h0.7c0.4,0,0.7-0.3,0.7-0.7V2.1h3c0.4,0,0.7-0.3,0.7-0.7c0,0,0,0,0,0
	V0.7C5.8,0.3,5.5,0,5.1,0c0,0,0,0,0,0H0.7C0.3,0,0,0.3,0,0.7v4.2C0,5.3,0.3,5.7,0.7,5.7z M18.3,0H14c-0.4,0-0.7,0.3-0.7,0.7
	c0,0,0,0,0,0v0.7c0,0.4,0.3,0.7,0.7,0.7c0,0,0,0,0,0h2.9v2.8c0,0.4,0.3,0.7,0.7,0.7c0,0,0,0,0,0h0.7C18.7,5.7,19,5.3,19,5
	c0,0,0,0,0,0V0.7C19,0.3,18.7,0,18.3,0C18.3,0,18.3,0,18.3,0z M5.1,15.9h-3v-2.8c0-0.4-0.3-0.7-0.7-0.7H0.7c-0.4,0-0.7,0.3-0.7,0.7
	v4.2C0,17.7,0.3,18,0.7,18h4.4c0.4,0,0.7-0.3,0.7-0.7c0,0,0,0,0,0v-0.7C5.8,16.2,5.5,15.9,5.1,15.9C5.1,15.9,5.1,15.9,5.1,15.9
	L5.1,15.9z M18.3,12.3h-0.7c-0.4,0-0.7,0.3-0.7,0.7c0,0,0,0,0,0v2.8H14c-0.4,0-0.7,0.3-0.7,0.7c0,0,0,0,0,0v0.7
	c0,0.4,0.3,0.7,0.7,0.7c0,0,0,0,0,0h4.3c0.4,0,0.7-0.3,0.7-0.7c0,0,0,0,0,0v-4.2C19,12.7,18.7,12.3,18.3,12.3
	C18.3,12.3,18.3,12.3,18.3,12.3L18.3,12.3z M9.8,4.6H9.4C9,4.6,8.6,4.9,8.6,5.3v1.9c0,0.4,0.3,0.7,0.7,0.7h0.5
	c0.4,0,0.7-0.3,0.7-0.7c0,0,0,0,0,0V5.3C10.5,4.9,10.2,4.6,9.8,4.6C9.8,4.6,9.8,4.6,9.8,4.6L9.8,4.6z M9.8,9.9H9.4
	c-0.4,0-0.7,0.3-0.7,0.7v1.9c0,0.4,0.3,0.7,0.7,0.7h0.5c0.4,0,0.7-0.3,0.7-0.7c0,0,0,0,0,0v-1.9C10.5,10.3,10.2,9.9,9.8,9.9
	C9.8,9.9,9.8,9.9,9.8,9.9L9.8,9.9z M13.8,9.3V8.8c0-0.4-0.3-0.7-0.7-0.7c0,0,0,0,0,0h-1.6c-0.4,0-0.7,0.3-0.7,0.7c0,0,0,0,0,0v0.5
	c0,0.4,0.3,0.7,0.7,0.7c0,0,0,0,0,0h1.6C13.5,10,13.8,9.7,13.8,9.3C13.8,9.3,13.8,9.3,13.8,9.3L13.8,9.3z M7.7,8.1H6.1
	c-0.4,0-0.7,0.3-0.7,0.7v0.5c0,0.4,0.3,0.7,0.7,0.7h1.6c0.4,0,0.7-0.3,0.7-0.7c0,0,0,0,0,0V8.8C8.4,8.4,8.1,8.1,7.7,8.1
	C7.7,8.1,7.7,8.1,7.7,8.1L7.7,8.1z"/>
</svg>
