<svg xmlns="http://www.w3.org/2000/svg" width="19" height="18" viewBox="0 0 19 18">
  <defs>
    <style>
      .cls-1 {
        fill: #333;
        fill-rule: evenodd;
      }
    </style>
  </defs>
  <path id="Фигура_1_копия_4" data-name="Фигура 1 копия 4" class="cls-1" d="M1324.71,163.661h0.71a0.723,0.723,0,0,0,.72-0.717v-2.818h2.97a0.716,0.716,0,0,0,.72-0.715v-0.7a0.717,0.717,0,0,0-.72-0.716h-4.4a0.723,0.723,0,0,0-.72.716v4.231A0.723,0.723,0,0,0,1324.71,163.661ZM1342.28,158h-4.29a0.717,0.717,0,0,0-.72.716v0.7a0.716,0.716,0,0,0,.72.715h2.87v2.818a0.717,0.717,0,0,0,.72.717h0.7a0.717,0.717,0,0,0,.72-0.717v-4.231A0.717,0.717,0,0,0,1342.28,158Zm-13.17,15.873h-2.97v-2.817a0.723,0.723,0,0,0-.72-0.716h-0.71a0.723,0.723,0,0,0-.72.716v4.232a0.723,0.723,0,0,0,.72.715h4.4a0.717,0.717,0,0,0,.72-0.715v-0.7A0.718,0.718,0,0,0,1329.11,173.87Zm13.17-3.533h-0.7a0.717,0.717,0,0,0-.72.716v2.817h-2.87a0.718,0.718,0,0,0-.72.717v0.7a0.717,0.717,0,0,0,.72.715h4.29a0.717,0.717,0,0,0,.72-0.715v-4.232A0.717,0.717,0,0,0,1342.28,170.337Zm-8.47-7.742h-0.46a0.725,0.725,0,0,0-.73.716v1.859a0.726,0.726,0,0,0,.73.717h0.46a0.717,0.717,0,0,0,.72-0.717v-1.859A0.716,0.716,0,0,0,1333.81,162.6Zm0,5.345h-0.46a0.725,0.725,0,0,0-.73.716v1.859a0.726,0.726,0,0,0,.73.717h0.46a0.717,0.717,0,0,0,.72-0.717v-1.859A0.716,0.716,0,0,0,1333.81,167.94Zm3.99-.678V166.8a0.717,0.717,0,0,0-.72-0.717h-1.63a0.717,0.717,0,0,0-.72.717v0.465a0.717,0.717,0,0,0,.72.717h1.63A0.717,0.717,0,0,0,1337.8,167.262Zm-6.09-1.182h-1.64a0.723,0.723,0,0,0-.72.717v0.465a0.723,0.723,0,0,0,.72.717h1.64a0.717,0.717,0,0,0,.72-0.717V166.8A0.717,0.717,0,0,0,1331.71,166.08Z" transform="translate(-1324 -158)"/>
</svg>
