<svg xmlns="http://www.w3.org/2000/svg" viewBox="0 0 22.2 20"><defs><style>.cls-1{fill:#f2c403;}.cls-2{fill:#ffda00;}.cls-3{fill:#008b00;}.cls-4{fill:#00b400;}</style></defs><title>Ресурс 1</title><g id="Шар_2" data-name="Шар 2"><g id="Слой_1" data-name="Слой 1"><path class="cls-1" d="M12.58.77A9.56,9.56,0,0,0,7.83,2l-.35-.56v.77l5.1,8.15L4.4,15.2l-.11.06A9.62,9.62,0,1,0,12.58.77Z"/><path class="cls-2" d="M12.58,0a9.57,9.57,0,0,0-5.1,1.47l5.1,8.15L4.29,14.49A9.62,9.62,0,1,0,12.58,0Z"/><path class="cls-3" d="M9.26,9.18,4.51,1.6a9.61,9.61,0,0,0-3.18,13L9.62,9.74V9Z"/><path class="cls-4" d="M4.51.83a9.61,9.61,0,0,0-3.18,13L9.62,9Z"/><polygon class="cls-1" points="4.29 14.49 4.29 15.26 5.04 15.58 4.29 14.49"/></g></g></svg>