<svg xmlns="http://www.w3.org/2000/svg" width="30" height="16" viewBox="0 0 30 16">
  <metadata><?xpacket begin="﻿" id="W5M0MpCehiHzreSzNTczkc9d"?>
<x:xmpmeta xmlns:x="adobe:ns:meta/" x:xmptk="Adobe XMP Core 5.6-c138 79.159824, 2016/09/14-01:09:01        ">
   <rdf:RDF xmlns:rdf="http://www.w3.org/1999/02/22-rdf-syntax-ns#">
      <rdf:Description rdf:about=""/>
   </rdf:RDF>
</x:xmpmeta>
                                                                                                    
                                                                                                    
                                                                                                    
                                                                                                    
                                                                                                    
                                                                                                    
                                                                                                    
                                                                                                    
                                                                                                    
                                                                                                    
                                                                                                    
                                                                                                    
                                                                                                    
                                                                                                    
                                                                                                    
                                                                                                    
                                                                                                    
                                                                                                    
                                                                                                    
                                                                                                    
                           
<?xpacket end="w"?></metadata>
<defs>
    <style>
      .cls-1 {
        fill: #10b1e8;
        fill-rule: evenodd;
      }
    </style>
  </defs>
  <path id="DWD_and_other" data-name="DWD and other" class="cls-1" d="M1092.57,1260h-29.15a0.425,0.425,0,0,0-.42.43v15.13a0.434,0.434,0,0,0,.42.44h29.15a0.427,0.427,0,0,0,.42-0.44v-15.13A0.418,0.418,0,0,0,1092.57,1260Zm-0.42,15.13h-28.31v-14.27h28.31v14.27Zm-25.72-7.24h23.13a0.418,0.418,0,0,0,.42-0.43v-3.55a1.856,1.856,0,0,0-.98-0.91h-22a1.876,1.876,0,0,0-.99.91v3.55A0.425,0.425,0,0,0,1066.43,1267.89ZM1067,1264h22l0.14,3.03h-22.29Zm22.94,6.04h-3.95a0.425,0.425,0,0,0-.42.43v1.78a0.431,0.431,0,0,0,.42.43h3.95a0.431,0.431,0,0,0,.42-0.43v-1.78A0.425,0.425,0,0,0,1089.94,1270.04Zm-0.42,1.77h-3.11v-0.91h3.11v0.91Zm-22.32,1.1a1.636,1.636,0,1,0-1.59-1.63A1.609,1.609,0,0,0,1067.2,1272.91Zm0-2.4a0.77,0.77,0,1,1-.75.77A0.76,0.76,0,0,1,1067.2,1270.51Z" transform="translate(-1063 -1260)"/>
</svg>
