<svg xmlns="http://www.w3.org/2000/svg" width="44" height="40" viewBox="0 0 44 40">
  <metadata><?xpacket begin="﻿" id="W5M0MpCehiHzreSzNTczkc9d"?>
<x:xmpmeta xmlns:x="adobe:ns:meta/" x:xmptk="Adobe XMP Core 5.6-c138 79.159824, 2016/09/14-01:09:01        ">
   <rdf:RDF xmlns:rdf="http://www.w3.org/1999/02/22-rdf-syntax-ns#">
      <rdf:Description rdf:about=""/>
   </rdf:RDF>
</x:xmpmeta>
                                                                                                    
                                                                                                    
                                                                                                    
                                                                                                    
                                                                                                    
                                                                                                    
                                                                                                    
                                                                                                    
                                                                                                    
                                                                                                    
                                                                                                    
                                                                                                    
                                                                                                    
                                                                                                    
                                                                                                    
                                                                                                    
                                                                                                    
                                                                                                    
                                                                                                    
                                                                                                    
                           
<?xpacket end="w"?></metadata>
<defs>
    <style>
      .cls-1 {
        fill: #118ce0;
        stroke: #118ce0;
        stroke-width: 1px;
        fill-rule: evenodd;
      }
    </style>
  </defs>
  <path id="Shape_1_copy" data-name="Shape 1 copy" class="cls-1" d="M1010.47,2827.24a0.712,0.712,0,0,0-.04-0.21,1.092,1.092,0,0,0-.44-0.6l-6.15-4.15v-4.45a1.084,1.084,0,0,0-1.1-1.07h-7.084l-6.025-4.07a1.144,1.144,0,0,0-1.255,0l-6.063,4.07h-7.051a1.086,1.086,0,0,0-1.1,1.07v4.4l-6.185,4.15a1.051,1.051,0,0,0-.474.86,0.136,0.136,0,0,0,0,.02l0.033,23.17a1.053,1.053,0,0,0,.323.76,1.117,1.117,0,0,0,.778.31h0l40.765-.05a1.091,1.091,0,0,0,1.1-1.07Zm-6.63-2.36,3.52,2.38-3.52,2.37v-4.75ZM989,2814.87l2.8,1.89h-5.611Zm-12.638,4.03h25.277v12.22l-8.489,5.73-3.46-2.61s-0.01-.01-0.015-0.01a1.133,1.133,0,0,0-1.335.01l-3.485,2.62-8.493-5.69V2818.9Zm-2.2,5.93v4.86l-3.624-2.43Zm-4.456,4.47,13.325,8.94-13.3,10.01Zm2.151,20.06,17.16-12.92,17.094,12.87Zm23.118-11.14,13.3-8.97,0.02,19Zm1.481-15.05h-14.91a1.07,1.07,0,1,0,0,2.14h14.91A1.07,1.07,0,1,0,996.455,2823.17Zm0,5.56h-14.91a1.07,1.07,0,1,0,0,2.14h14.91A1.07,1.07,0,1,0,996.455,2828.73Z" transform="translate(-967 -2812)"/>
</svg>
