<?xml version="1.0" encoding="utf-8"?>
<!-- Generator: Adobe Illustrator 21.1.0, SVG Export Plug-In . SVG Version: 6.00 Build 0)  -->
<svg version="1.1" id="Слой_1" xmlns="http://www.w3.org/2000/svg" xmlns:xlink="http://www.w3.org/1999/xlink" x="0px" y="0px"
	 viewBox="0 0 20.9 18" style="enable-background:new 0 0 20.9 18;" xml:space="preserve">
<style type="text/css">
	.st0{fill:#344150;}
</style>
<path id="Фигура_930" class="st0" d="M0.1,8.9c1.1-1,2.2-2.1,3.3-3.1V8h5.8v2H3.4v2.2C2.3,11.1,1.1,10.1,0,9l0,0
	C-0.1,9,0,8.9,0.1,8.9z M11.8,0C8.6,0,5.7,1.6,4,4.3h2.7C8,2.9,9.8,2.1,11.8,2.1c3.8-0.1,7,3,7.1,6.8c0.1,3.8-3,7-6.8,7.1
	c-0.1,0-0.2,0-0.3,0c-1.9,0-3.8-0.8-5.2-2.2H4c1.7,2.7,4.6,4.3,7.8,4.3c5,0,9-4,9-9C20.8,4,16.7,0,11.8,0L11.8,0z"/>
</svg>
