<svg xmlns="http://www.w3.org/2000/svg" width="19" height="12" viewBox="0 0 19 12">
  <metadata><?xpacket begin="﻿" id="W5M0MpCehiHzreSzNTczkc9d"?>
<x:xmpmeta xmlns:x="adobe:ns:meta/" x:xmptk="Adobe XMP Core 5.6-c138 79.159824, 2016/09/14-01:09:01        ">
   <rdf:RDF xmlns:rdf="http://www.w3.org/1999/02/22-rdf-syntax-ns#">
      <rdf:Description rdf:about=""/>
   </rdf:RDF>
</x:xmpmeta>
                                                                                                    
                                                                                                    
                                                                                                    
                                                                                                    
                                                                                                    
                                                                                                    
                                                                                                    
                                                                                                    
                                                                                                    
                                                                                                    
                                                                                                    
                                                                                                    
                                                                                                    
                                                                                                    
                                                                                                    
                                                                                                    
                                                                                                    
                                                                                                    
                                                                                                    
                                                                                                    
                           
<?xpacket end="w"?></metadata>
<defs>
    <style>
      .cls-1 {
        fill: #555;
        fill-rule: evenodd;
      }
    </style>
  </defs>
  <path id="eye" class="cls-1" d="M1113.91,880.8a10.542,10.542,0,0,0-18.82,0L1095,881l0.09,0.205a10.543,10.543,0,0,0,18.82,0L1114,881Zm-17.68.205a8.51,8.51,0,0,1,4.77-4.268,5.268,5.268,0,0,0,0,8.536A8.514,8.514,0,0,1,1096.23,881Zm8.27,4.339a4.343,4.343,0,1,1,4.54-4.339A4.45,4.45,0,0,1,1104.5,885.339Zm3.5-.071a5.282,5.282,0,0,0,0-8.536A4.294,4.294,0,1,1,1108,885.268Zm-3.5-6.823a2.558,2.558,0,1,0,2.67,2.555A2.611,2.611,0,0,0,1104.5,878.445Z" transform="translate(-1095 -875)"/>
</svg>
