<svg id="instagram" xmlns="http://www.w3.org/2000/svg" width="40" height="40" viewBox="0 0 40 40">
  <metadata><?xpacket begin="﻿" id="W5M0MpCehiHzreSzNTczkc9d"?>
<x:xmpmeta xmlns:x="adobe:ns:meta/" x:xmptk="Adobe XMP Core 5.6-c142 79.160924, 2017/07/13-01:06:39        ">
   <rdf:RDF xmlns:rdf="http://www.w3.org/1999/02/22-rdf-syntax-ns#">
      <rdf:Description rdf:about=""/>
   </rdf:RDF>
</x:xmpmeta>
                                                                                                    
                                                                                                    
                                                                                                    
                                                                                                    
                                                                                                    
                                                                                                    
                                                                                                    
                                                                                                    
                                                                                                    
                                                                                                    
                                                                                                    
                                                                                                    
                                                                                                    
                                                                                                    
                                                                                                    
                                                                                                    
                                                                                                    
                                                                                                    
                                                                                                    
                                                                                                    
                           
<?xpacket end="w"?></metadata>
<defs>
    <style>
      .cls-1 {
        fill: #fff;
        opacity: 0.5;
      }

      .cls-2 {
        fill: #344151;
        fill-rule: evenodd;
      }
    </style>
  </defs>
  <circle id="Ellipse_1_copy_2" data-name="Ellipse 1 copy 2" class="cls-1" cx="20" cy="20" r="20"/>
  <path id="Фигура_10_копия" data-name="Фигура 10 копия" class="cls-2" d="M1504.74,378.223h-11.59a3.605,3.605,0,0,0-3.64,3.566v11.325a3.606,3.606,0,0,0,3.64,3.567h11.59a3.606,3.606,0,0,0,3.64-3.567V381.789A3.605,3.605,0,0,0,1504.74,378.223Zm1.04,2.127h0.42v3.128l-3.19.01-0.01-3.128Zm-9.53,5.207a3.359,3.359,0,0,1,5.39,0,3.209,3.209,0,0,1,.63,1.895,3.326,3.326,0,0,1-6.65,0A3.209,3.209,0,0,1,1496.25,385.557Zm10.29,7.557a1.787,1.787,0,0,1-1.8,1.768h-11.59a1.787,1.787,0,0,1-1.8-1.768v-7.557h2.81a4.991,4.991,0,0,0-.38,1.895,5.166,5.166,0,0,0,10.33,0,4.991,4.991,0,0,0-.38-1.895h2.81v7.557Z" transform="translate(-1479 -368)"/>
</svg>
