<svg xmlns="http://www.w3.org/2000/svg" width="30.97" height="20" viewBox="0 0 30.97 20">
  <metadata><?xpacket begin="﻿" id="W5M0MpCehiHzreSzNTczkc9d"?>
<x:xmpmeta xmlns:x="adobe:ns:meta/" x:xmptk="Adobe XMP Core 5.6-c138 79.159824, 2016/09/14-01:09:01        ">
   <rdf:RDF xmlns:rdf="http://www.w3.org/1999/02/22-rdf-syntax-ns#">
      <rdf:Description rdf:about=""/>
   </rdf:RDF>
</x:xmpmeta>
                                                                                                    
                                                                                                    
                                                                                                    
                                                                                                    
                                                                                                    
                                                                                                    
                                                                                                    
                                                                                                    
                                                                                                    
                                                                                                    
                                                                                                    
                                                                                                    
                                                                                                    
                                                                                                    
                                                                                                    
                                                                                                    
                                                                                                    
                                                                                                    
                                                                                                    
                                                                                                    
                           
<?xpacket end="w"?></metadata>
<defs>
    <style>
      .cls-1 {
        fill: #dc4e41;
        fill-rule: evenodd;
      }
    </style>
  </defs>
  <path id="g_" data-name="g+" class="cls-1" d="M1548.03,1249.5a9.875,9.875,0,0,1,16.39-7.03,32.628,32.628,0,0,1-2.49,2.63c-2.24-1.57-5.42-2.02-7.66-.2a6.466,6.466,0,0,0-.26,9.98c2.99,2.76,8.65,1.39,9.47-2.84-1.87-.03-3.75,0-5.63-0.06v-3.41c3.13-.01,6.27-0.02,9.41.01a11.583,11.583,0,0,1-1.78,7.73c-2.45,3.5-7.36,4.53-11.2,3.03A10.032,10.032,0,0,1,1548.03,1249.5Zm25.34-3.8h2.8c0,0.95.01,1.9,0.02,2.85,0.93,0.01,1.87.01,2.81,0.02v2.85c-0.94.01-1.87,0.01-2.81,0.02-0.01.96-.02,1.91-0.02,2.86h-2.8c-0.01-.95-0.01-1.9-0.02-2.86-0.94,0-1.88-.01-2.81-0.02v-2.85c0.93-.01,1.87-0.01,2.81-0.02C1573.35,1247.6,1573.36,1246.65,1573.37,1245.7Z" transform="translate(-1548.03 -1240)"/>
</svg>
