<svg xmlns="http://www.w3.org/2000/svg" viewBox="0 0 40 40"><defs><style>.cls-1{fill:#999;}.cls-2{fill:#555;}</style></defs><title>g+_footer</title><g id="Слой_2" data-name="Слой 2"><g id="Слой_1-2" data-name="Слой 1"><circle class="cls-1" cx="20" cy="20" r="20"/><path id="g_" data-name="g " class="cls-2" d="M4.94,19.44a9.88,9.88,0,0,1,16.39-7A32.61,32.61,0,0,1,18.84,15c-2.24-1.57-5.42-2-7.66-.2a6.47,6.47,0,0,0-.26,10c3,2.76,8.65,1.39,9.47-2.84-1.87,0-3.75,0-5.63-.06V18.51c3.13,0,6.27,0,9.41,0a11.58,11.58,0,0,1-1.78,7.73c-2.45,3.5-7.36,4.53-11.2,3A10,10,0,0,1,4.94,19.44Zm25.34-3.8h2.8c0,.95,0,1.9,0,2.85l2.81,0v2.85l-2.81,0c0,1,0,1.91,0,2.86h-2.8c0-.95,0-1.9,0-2.86l-2.81,0V18.51l2.81,0C30.26,17.54,30.27,16.59,30.28,15.64Z"/></g></g></svg>