<svg xmlns="http://www.w3.org/2000/svg" viewBox="0 0 106 25"><defs><style>.cls-1{fill:#dc4e41;}.cls-2{fill:#e7877e;}.cls-3{fill:#fff;}</style></defs><title>Ресурс 10</title><g id="Шар_2" data-name="Шар 2"><g id="Слой_1" data-name="Слой 1"><rect class="cls-1" width="106" height="25" rx="2" ry="2"/><rect class="cls-2" x="23.97" y="2.61" width="0.88" height="19.03"/><path class="cls-3" d="M37.79,8.05v8.28h-1.2V9H33v7.31h-1.2V8.05Z"/><path class="cls-3" d="M40.08,11a2.82,2.82,0,0,1,2.17-.71,2.79,2.79,0,0,1,2.16.71A3.56,3.56,0,0,1,45,13.41a3.51,3.51,0,0,1-.64,2.38,2.82,2.82,0,0,1-2.16.7,2.83,2.83,0,0,1-2.17-.7,3.51,3.51,0,0,1-.64-2.37A3.54,3.54,0,0,1,40.08,11Zm3.41.72a2,2,0,0,0-2.5,0,2.94,2.94,0,0,0-.34,1.67A2.91,2.91,0,0,0,41,15.07a2,2,0,0,0,2.49,0,2.86,2.86,0,0,0,.34-1.66A2.93,2.93,0,0,0,43.49,11.75Z"/><path class="cls-3" d="M52.24,15.39v2.66h-.77l-.1-1.73H46.72l-.1,1.73h-.77V15.39h.71a9.94,9.94,0,0,0,.83-3.53A1.36,1.36,0,0,1,49,10.47H51.4v4.92Zm-1.94-4H49.15a.65.65,0,0,0-.71.68,8.21,8.21,0,0,1-.84,3.34h2.7Z"/><path class="cls-3" d="M57.15,14H54.52A1.73,1.73,0,0,0,55,15.19a2.05,2.05,0,0,0,1.28.31,19,19,0,0,0,2.05-.14l.11.77a6,6,0,0,1-2.32.35,2.87,2.87,0,0,1-2.18-.7,3.49,3.49,0,0,1-.65-2.38A3.5,3.5,0,0,1,53.92,11,2.74,2.74,0,0,1,56,10.32a3.1,3.1,0,0,1,1.94.49,1.82,1.82,0,0,1,.62,1.48Q58.58,14,57.15,14Zm-2.65-.9h2.34q.59,0,.56-.78a.9.9,0,0,0-.29-.76,1.79,1.79,0,0,0-1-.22,1.59,1.59,0,0,0-1.21.37A2.27,2.27,0,0,0,54.5,13.07Z"/><path class="cls-3" d="M65,10.47v5.86H63.88v-5H62.71a.69.69,0,0,0-.51.16,1,1,0,0,0-.21.56,18.12,18.12,0,0,1-.54,3,1.78,1.78,0,0,1-1.93,1.33l-.12-.89a1.8,1.8,0,0,0,.68-.27,1.14,1.14,0,0,0,.34-.5,13.13,13.13,0,0,0,.48-2.84,1.66,1.66,0,0,1,.46-1.07,1.62,1.62,0,0,1,1.13-.35Z"/><path class="cls-3" d="M72.1,16.33h-1V12.62q0-.16,0-.44c0-.19,0-.31,0-.38h0a2.9,2.9,0,0,1-.42.72l-2.82,3.8h-.94V10.47h1v3.72c0,.24,0,.5,0,.79h0a4.77,4.77,0,0,1,.41-.7l2.83-3.82h.94Z"/><path class="cls-3" d="M78.65,11.42H76.58v4.91H75.41V11.42H73.34v-.95h5.32Z"/><path class="cls-3" d="M81,12.68h1.28a3.2,3.2,0,0,1,1.88.4,1.77,1.77,0,0,1,.52,1.47,1.77,1.77,0,0,1-.5,1.45,2.8,2.8,0,0,1-1.71.4q-1.63,0-2.57-.07h0V10.47H81Zm0,2.8h1.28a1.67,1.67,0,0,0,1-.2,1,1,0,0,0,.26-.79.94.94,0,0,0-.26-.76,1.6,1.6,0,0,0-1-.21H81Z"/><path class="cls-3" d="M90.53,15.37l.12.78a6,6,0,0,1-2.05.32,2.83,2.83,0,0,1-2.17-.69,3.53,3.53,0,0,1-.63-2.38A3.52,3.52,0,0,1,86.44,11a2.84,2.84,0,0,1,2.17-.7,5.35,5.35,0,0,1,1.93.3l-.14.74q-.9-.06-1.6-.06a1.78,1.78,0,0,0-1.39.44A2.61,2.61,0,0,0,87,13.4a2.61,2.61,0,0,0,.38,1.66,1.78,1.78,0,0,0,1.39.44A10,10,0,0,0,90.53,15.37Z"/><path class="cls-3" d="M93.21,13.82v0a1.49,1.49,0,0,1-1-.5,1.79,1.79,0,0,1-.31-1.12,1.66,1.66,0,0,1,.49-1.33,2.7,2.7,0,0,1,1.74-.43q1.77,0,2.63.08v5.84H95.62V14.19H94.11q-.77,0-.92.56l-.43,1.57h-1.2l.53-1.76Q92.26,13.93,93.21,13.82Zm2.41-.49v-2H94.16a1.44,1.44,0,0,0-.91.2,1.07,1.07,0,0,0-.22.79,1.08,1.08,0,0,0,.23.79,1.4,1.4,0,0,0,.92.22Z"/><path class="cls-3" d="M7.35,12.2a6,6,0,0,1,6-5.7A6.14,6.14,0,0,1,17.4,8a21.44,21.44,0,0,1-1.53,1.58,4,4,0,0,0-4.7-.12,3.83,3.83,0,0,0-.16,6c1.84,1.66,5.31.83,5.81-1.7-1.15,0-2.3,0-3.45,0,0-.68,0-1.36,0-2,1.92,0,3.85,0,5.77,0a6.85,6.85,0,0,1-1.09,4.64A6,6,0,0,1,7.35,12.2Z"/></g></g></svg>