<svg xmlns="http://www.w3.org/2000/svg" viewBox="0 0 18 23.44"><defs><style>.cls-1{fill:#008b00;}.cls-2{fill:#00b400;}</style></defs><title>Ресурс 2</title><g id="Шар_2" data-name="Шар 2"><g id="Слой_1" data-name="Слой 1"><path class="cls-1" d="M0,16.44V22a1.55,1.55,0,0,0,1.61,1.48H8v-7Z"/><path class="cls-1" d="M10,16.44v7h6.39A1.55,1.55,0,0,0,18,22V16.44Z"/><path class="cls-2" d="M4.81,7.77A4.67,4.67,0,0,1,.37,5.43,3.82,3.82,0,0,1,1,1.2,3.71,3.71,0,0,1,4.27,0,4.68,4.68,0,0,1,7.68,2.67l2,3.8a.69.69,0,0,1-1.21.64l-2-3.81A3.3,3.3,0,0,0,4.08,1.39a2.35,2.35,0,0,0-2,.74,2.42,2.42,0,0,0-.44,2.7c.54,1.11,1.86,1.68,3.62,1.56a.68.68,0,1,1,.09,1.37Z"/><path class="cls-2" d="M13.18,7.77l-.5,0a.68.68,0,1,1,.09-1.37c1.74.11,3.1-.48,3.63-1.57a2.41,2.41,0,0,0-.46-2.7,2.34,2.34,0,0,0-2-.73A3.27,3.27,0,0,0,11.53,3.3l-2,3.81a.69.69,0,0,1-1.21-.64l2-3.81A4.65,4.65,0,0,1,13.71,0,3.71,3.71,0,0,1,17,1.19a3.81,3.81,0,0,1,.69,4.23A4.68,4.68,0,0,1,13.18,7.77Z"/><path class="cls-2" d="M7.82,7.62a.69.69,0,0,1-.42-.14L4,4.93a.69.69,0,1,1,.83-1.09L8.23,6.39a.68.68,0,0,1-.42,1.23Z"/><path class="cls-2" d="M10.19,7.62a.68.68,0,0,1-.42-1.23l3.37-2.55A.69.69,0,1,1,14,4.93L10.61,7.48A.68.68,0,0,1,10.19,7.62Z"/><path class="cls-2" d="M0,15.44V21a1.55,1.55,0,0,0,1.61,1.48H8v-7Z"/><path class="cls-2" d="M8,13.44V7.2c0-.33.45-.6,1-.6s1,.27,1,.6v6.23h8V7.9a1.54,1.54,0,0,0-1.61-1.46H1.61A1.54,1.54,0,0,0,0,7.9v5.54Z"/><path class="cls-2" d="M10,15.44v7h6.39A1.55,1.55,0,0,0,18,21V15.44Z"/></g></g></svg>