<svg xmlns="http://www.w3.org/2000/svg" width="30" height="20" viewBox="0 0 30 20">
  <metadata><?xpacket begin="﻿" id="W5M0MpCehiHzreSzNTczkc9d"?>
<x:xmpmeta xmlns:x="adobe:ns:meta/" x:xmptk="Adobe XMP Core 5.6-c138 79.159824, 2016/09/14-01:09:01        ">
   <rdf:RDF xmlns:rdf="http://www.w3.org/1999/02/22-rdf-syntax-ns#">
      <rdf:Description rdf:about=""/>
   </rdf:RDF>
</x:xmpmeta>
                                                                                                    
                                                                                                    
                                                                                                    
                                                                                                    
                                                                                                    
                                                                                                    
                                                                                                    
                                                                                                    
                                                                                                    
                                                                                                    
                                                                                                    
                                                                                                    
                                                                                                    
                                                                                                    
                                                                                                    
                                                                                                    
                                                                                                    
                                                                                                    
                                                                                                    
                                                                                                    
                           
<?xpacket end="w"?></metadata>
<defs>
    <style>
      .cls-1 {
        fill: #1973ff;
        fill-rule: evenodd;
      }
    </style>
  </defs>
  <path id="_graphics_card" data-name="	graphics card" class="cls-1" d="M1350.53,1114.13h-28.59v-1.67a0.467,0.467,0,0,0-.47-0.46,0.476,0.476,0,0,0-.48.46v19.08a0.47,0.47,0,0,0,.48.46,0.461,0.461,0,0,0,.47-0.46v-1.7h28.59a0.469,0.469,0,0,0,.47-0.47v-14.78A0.467,0.467,0,0,0,1350.53,1114.13Zm-0.48,14.78h-28.11v-13.85h28.11v13.85Zm-20.17-2.08a4.846,4.846,0,1,0-4.93-4.85A4.891,4.891,0,0,0,1329.88,1126.83Zm0-.93a4,4,0,0,1-2.92-1.25,3.8,3.8,0,0,0,3.17-2.22,2.829,2.829,0,0,1,2.93,1.91A3.994,3.994,0,0,1,1329.88,1125.9Zm3.99-3.92a3.785,3.785,0,0,1-.3,1.47,3.79,3.79,0,0,0-3.41-1.85c-0.03-.02-0.05-0.03-0.08-0.05a2.8,2.8,0,0,1,.02-3.48A3.955,3.955,0,0,1,1333.87,1121.98Zm-4.77-3.84a3.586,3.586,0,0,0,.29,3.89,2.9,2.9,0,0,1-3.04,1.78A3.894,3.894,0,0,1,1329.1,1118.14Zm12.89,8.69a4.846,4.846,0,1,0-4.93-4.85A4.891,4.891,0,0,0,1341.99,1126.83Zm0-.93a4.014,4.014,0,0,1-2.92-1.25,3.813,3.813,0,0,0,3.18-2.22,2.852,2.852,0,0,1,2.93,1.91A4.013,4.013,0,0,1,1341.99,1125.9Zm3.99-3.92a3.779,3.779,0,0,1-.29,1.47,3.809,3.809,0,0,0-3.42-1.85,0.558,0.558,0,0,0-.08-0.05,2.8,2.8,0,0,1,.02-3.48A3.955,3.955,0,0,1,1345.98,1121.98Zm-4.77-3.84a3.562,3.562,0,0,0,.3,3.89,2.908,2.908,0,0,1-3.04,1.78,3.8,3.8,0,0,1-.47-1.83A3.948,3.948,0,0,1,1341.21,1118.14Z" transform="translate(-1321 -1112)"/>
</svg>
