<svg xmlns="http://www.w3.org/2000/svg" width="22" height="30" viewBox="0 0 22 30">
  <metadata><?xpacket begin="﻿" id="W5M0MpCehiHzreSzNTczkc9d"?>
<x:xmpmeta xmlns:x="adobe:ns:meta/" x:xmptk="Adobe XMP Core 5.6-c138 79.159824, 2016/09/14-01:09:01        ">
   <rdf:RDF xmlns:rdf="http://www.w3.org/1999/02/22-rdf-syntax-ns#">
      <rdf:Description rdf:about=""/>
   </rdf:RDF>
</x:xmpmeta>
                                                                                                    
                                                                                                    
                                                                                                    
                                                                                                    
                                                                                                    
                                                                                                    
                                                                                                    
                                                                                                    
                                                                                                    
                                                                                                    
                                                                                                    
                                                                                                    
                                                                                                    
                                                                                                    
                                                                                                    
                                                                                                    
                                                                                                    
                                                                                                    
                                                                                                    
                                                                                                    
                           
<?xpacket end="w"?></metadata>
<defs>
    <style>
      .cls-1 {
        fill: #10b1e8;
        fill-rule: evenodd;
      }
    </style>
  </defs>
  <path id="HDD" class="cls-1" d="M568.505,1137.01H547.491a0.488,0.488,0,0,1-.489-0.48v-29.06a0.48,0.48,0,0,1,.489-0.47h21.014a0.48,0.48,0,0,1,.489.47v29.06A0.488,0.488,0,0,1,568.505,1137.01Zm-20.525-.95h20.036v-28.11H547.98v28.11ZM558,1125.9a7.48,7.48,0,1,1,7.751-7.47A7.622,7.622,0,0,1,558,1125.9Zm0-14.01a6.539,6.539,0,1,0,6.773,6.54A6.671,6.671,0,0,0,558,1111.89Zm0,9.24a2.707,2.707,0,1,1,2.806-2.7A2.757,2.757,0,0,1,558,1121.13Zm0-4.47a1.766,1.766,0,1,0,1.828,1.77A1.8,1.8,0,0,0,558,1116.66Zm-1.391,16.77h-5.1a0.48,0.48,0,0,1-.489-0.47v-4.62a0.489,0.489,0,0,1,.978,0v4.15h4.61A0.47,0.47,0,1,1,556.607,1133.43Zm7.909,0a0.484,0.484,0,0,1-.494-0.47,0.475,0.475,0,0,1,.485-0.47h0.009A0.47,0.47,0,1,1,564.516,1133.43Z" transform="translate(-547 -1107)"/>
</svg>
