<?xml version="1.0" encoding="utf-8"?>
<!-- Generator: Adobe Illustrator 21.1.0, SVG Export Plug-In . SVG Version: 6.00 Build 0)  -->
<svg version="1.1" id="Слой_1" xmlns="http://www.w3.org/2000/svg" xmlns:xlink="http://www.w3.org/1999/xlink" x="0px" y="0px"
	 viewBox="0 0 21 21" style="enable-background:new 0 0 21 21;" xml:space="preserve">
<style type="text/css">
	.st0{fill:#8E0202;}
	.st1{fill:#D50000;}
	.st2{fill:#004D40;}
	.st3{fill:#2E7D32;}
	.st4{fill:#104BA6;}
	.st5{fill:#1973FF;}
	.st6{fill:#FFFFFF;}
	.st7{fill:#FFFFFF;stroke:#FFFFFF;stroke-width:0.5;stroke-miterlimit:10;}
	.st8{fill:#4A148C;}
	.st9{fill:#7B1FA2;}
	.st10{fill:#9B2105;}
	.st11{fill:#E64A19;}
</style>
<path class="st0" d="M76.2,21h-35c-2.8,0-5-2.3-5-5V1h35c2.8,0,5,2.3,5,5V21z"/>
<path class="st1" d="M76.2,20h-35c-2.8,0-5-2.3-5-5V0l35,0c2.8,0,5,2.3,5,5V20z"/>
<path class="st2" d="M140.3,21h-45c-2.8,0-5-2.3-5-5V1h45c2.8,0,5,2.3,5,5V21z"/>
<path class="st3" d="M140.3,20h-45c-2.8,0-5-2.3-5-5V0l45,0c2.8,0,5,2.3,5,5V20z"/>
<path class="st4" d="M21,21H5c-2.8,0-5-2.3-5-5V1h16c2.8,0,5,2.3,5,5V21z"/>
<path class="st5" d="M21,20H5c-2.8,0-5-2.3-5-5V0l16,0c2.8,0,5,2.3,5,5V20z"/>
<g>
	<path class="st6" d="M9.4,6.3h2.2c0.1,0,0.3-0.1,0.4-0.2c0.1-0.1,0.2-0.2,0.2-0.4V4.1c0-0.1-0.1-0.3-0.2-0.4
		c-0.1-0.1-0.2-0.2-0.4-0.2H9.4C9.3,3.6,9.1,3.6,9,3.7C8.9,3.8,8.9,4,8.9,4.1v1.6C8.9,5.9,8.9,6,9,6.1C9.1,6.2,9.3,6.3,9.4,6.3
		L9.4,6.3z M9.4,6.3"/>
	<path class="st6" d="M13.1,13.6c-0.1-0.1-0.2-0.2-0.4-0.2h-0.5V8.5c0-0.1-0.1-0.3-0.2-0.4c-0.1-0.1-0.2-0.2-0.4-0.2H8.3
		C8.2,7.9,8,8,7.9,8.1C7.8,8.2,7.8,8.3,7.8,8.5v1.1c0,0.1,0.1,0.3,0.2,0.4c0.1,0.1,0.2,0.2,0.4,0.2h0.5v3.3H8.3
		c-0.1,0-0.3,0.1-0.4,0.2c-0.1,0.1-0.2,0.2-0.2,0.4V15c0,0.1,0.1,0.3,0.2,0.4c0.1,0.1,0.2,0.2,0.4,0.2h4.4c0.1,0,0.3-0.1,0.4-0.2
		c0.1-0.1,0.2-0.2,0.2-0.4V14C13.2,13.8,13.2,13.7,13.1,13.6L13.1,13.6z M13.1,13.6"/>
</g>
<image style="overflow:visible;" width="156" height="24" xlink:href="248AD92C.jpg"  transform="matrix(0.9999 0 0 0.9999 -171.1423 -2.9985)">
</image>
<text transform="matrix(1 0 0 1 42.1213 14.1665)" class="st6" style="font-family:'Exo2-Bold'; font-size:12px;">sale</text>
<g>
	<path class="st7" d="M101.1,3l-6.1,3.5v7l6.1,3.5l6.1-3.5v-7L101.1,3z M106,6.7l-2,1.2l-4.8-2.8l2-1.2L106,6.7z M101.1,9.5
		l-4.8-2.8l2-1.2l4.8,2.8L101.1,9.5z M95.9,7.4l4.8,2.8v5.6L95.9,13V7.4z M101.6,15.8v-5.6l4.8-2.8V13L101.6,15.8z"/>
	<path class="st7" d="M115.3,3l-6.1,3.5v7l6.1,3.5l6.1-3.5v-7L115.3,3z M120.1,6.7l-2,1.2l-4.8-2.8l2-1.2L120.1,6.7z M115.3,9.5
		l-4.8-2.8l2-1.2l4.8,2.8L115.3,9.5z M110,7.4l4.8,2.8v5.6L110,13V7.4z M115.7,15.8v-5.6l4.8-2.8V13L115.7,15.8z"/>
	<path class="st7" d="M129.4,3l-6.1,3.5v7l6.1,3.5l6.1-3.5v-7L129.4,3z M134.2,6.7l-2,1.2l-4.8-2.8l2-1.2L134.2,6.7z M129.4,9.5
		l-4.8-2.8l2-1.2l4.8,2.8L129.4,9.5z M124.1,7.4l4.8,2.8v5.6l-4.8-2.8V7.4z M129.8,15.8v-5.6l4.8-2.8V13L129.8,15.8z"/>
</g>
<path class="st8" d="M140.3,49.3h-45c-2.8,0-5-2.3-5-5v-15h45c2.8,0,5,2.3,5,5V49.3z"/>
<path class="st9" d="M140.3,48.3h-45c-2.8,0-5-2.3-5-5v-15h45c2.8,0,5,2.3,5,5V48.3z"/>
<g>
	<path class="st7" d="M101.1,31.3l-6.1,3.5v7l6.1,3.5l6.1-3.5v-7L101.1,31.3z M106,35l-2,1.2l-4.8-2.8l2-1.2L106,35z M101.1,37.8
		L96.3,35l2-1.2l4.8,2.8L101.1,37.8z M95.9,35.7l4.8,2.8v5.6l-4.8-2.8V35.7z M101.6,44.1v-5.6l4.8-2.8v5.6L101.6,44.1z"/>
	<path class="st7" d="M115.3,31.3l-6.1,3.5v7l6.1,3.5l6.1-3.5v-7L115.3,31.3z M120.1,35l-2,1.2l-4.8-2.8l2-1.2L120.1,35z
		 M115.3,37.8l-4.8-2.8l2-1.2l4.8,2.8L115.3,37.8z M110,35.7l4.8,2.8v5.6l-4.8-2.8V35.7z M115.7,44.1v-5.6l4.8-2.8v5.6L115.7,44.1z"
		/>
	<path class="st7" d="M129.4,31.3l-6.1,3.5v7l6.1,3.5l6.1-3.5v-7L129.4,31.3z M134.2,35l-2,1.2l-4.8-2.8l2-1.2L134.2,35z
		 M129.4,37.8l-4.8-2.8l2-1.2l4.8,2.8L129.4,37.8z M124.1,35.7l4.8,2.8v5.6l-4.8-2.8V35.7z M129.8,44.1v-5.6l4.8-2.8v5.6L129.8,44.1
		z"/>
</g>
<path class="st10" d="M140.3,78.5h-45c-2.8,0-5-2.3-5-5v-15h45c2.8,0,5,2.3,5,5V78.5z"/>
<path class="st11" d="M140.3,77.5h-45c-2.8,0-5-2.3-5-5v-15h45c2.8,0,5,2.3,5,5V77.5z"/>
<g>
	<path class="st7" d="M101.1,60.5L95.1,64v7l6.1,3.5l6.1-3.5v-7L101.1,60.5z M106,64.2l-2,1.2l-4.8-2.8l2-1.2L106,64.2z M101.1,67
		l-4.8-2.8l2-1.2l4.8,2.8L101.1,67z M95.9,64.9l4.8,2.8v5.6l-4.8-2.8V64.9z M101.6,73.3v-5.6l4.8-2.8v5.6L101.6,73.3z"/>
	<path class="st7" d="M115.3,60.5l-6.1,3.5v7l6.1,3.5l6.1-3.5v-7L115.3,60.5z M120.1,64.2l-2,1.2l-4.8-2.8l2-1.2L120.1,64.2z
		 M115.3,67l-4.8-2.8l2-1.2l4.8,2.8L115.3,67z M110,64.9l4.8,2.8v5.6l-4.8-2.8V64.9z M115.7,73.3v-5.6l4.8-2.8v5.6L115.7,73.3z"/>
	<path class="st7" d="M129.4,60.5l-6.1,3.5v7l6.1,3.5l6.1-3.5v-7L129.4,60.5z M134.2,64.2l-2,1.2l-4.8-2.8l2-1.2L134.2,64.2z
		 M129.4,67l-4.8-2.8l2-1.2l4.8,2.8L129.4,67z M124.1,64.9l4.8,2.8v5.6l-4.8-2.8V64.9z M129.8,73.3v-5.6l4.8-2.8v5.6L129.8,73.3z"/>
</g>
</svg>
