<svg xmlns="http://www.w3.org/2000/svg" viewBox="0 0 40 40"><defs><style>.cls-1{fill:#999;}.cls-2{fill:#555;}</style></defs><title>insta_footer</title><g id="Слой_2" data-name="Слой 2"><g id="Слой_1-2" data-name="Слой 1"><circle class="cls-1" cx="20" cy="20" r="20"/><path id="insta" class="cls-2" d="M20,10.6c3.2,0,3.58,0,4.85.07a7,7,0,0,1,2.23.41,3.75,3.75,0,0,1,1.38.9,3.61,3.61,0,0,1,.89,1.38,6.67,6.67,0,0,1,.42,2.23c.05,1.27.07,1.65.07,4.85s0,3.58-.07,4.85a6.67,6.67,0,0,1-.42,2.23,3.89,3.89,0,0,1-2.27,2.27,6.67,6.67,0,0,1-2.23.42c-1.27.06-1.65.07-4.85.07s-3.59,0-4.85-.07a6.61,6.61,0,0,1-2.23-.42,3.61,3.61,0,0,1-1.38-.89,3.75,3.75,0,0,1-.9-1.38,6.74,6.74,0,0,1-.41-2.23c-.06-1.27-.07-1.65-.07-4.85s0-3.58.07-4.85a6.74,6.74,0,0,1,.41-2.23,4,4,0,0,1,2.28-2.28,7,7,0,0,1,2.23-.41c1.26-.06,1.64-.07,4.85-.07m0-2.16c-3.26,0-3.67,0-4.95.07a8.71,8.71,0,0,0-2.91.56,6.07,6.07,0,0,0-3.51,3.51,8.71,8.71,0,0,0-.56,2.91C8,16.77,8,17.18,8,20.44s0,3.67.07,4.95a8.76,8.76,0,0,0,.56,2.91,6.07,6.07,0,0,0,3.51,3.51,8.71,8.71,0,0,0,2.91.56c1.28.06,1.69.07,4.95.07s3.67,0,4.95-.07a8.76,8.76,0,0,0,2.91-.56,6.07,6.07,0,0,0,3.51-3.51,9,9,0,0,0,.56-2.91c.05-1.28.07-1.69.07-4.95s0-3.67-.07-4.95a9,9,0,0,0-.56-2.91,6.07,6.07,0,0,0-3.51-3.51,8.76,8.76,0,0,0-2.91-.56c-1.28-.06-1.69-.07-4.95-.07m0,5.84a6.16,6.16,0,1,0,6.16,6.16A6.16,6.16,0,0,0,20,14.28m0,10.16a4,4,0,1,1,4-4,4,4,0,0,1-4,4M27.84,14a1.44,1.44,0,1,1-1.44-1.44h0A1.43,1.43,0,0,1,27.84,14h0"/></g></g></svg>