<svg xmlns="http://www.w3.org/2000/svg" viewBox="0 0 23.39 16.64"><defs><style>.cls-1,.cls-2{fill:#10b1e8;}.cls-1{fill-rule:evenodd;}</style></defs><title>Asset 6GBK-peremozhci</title><g id="Layer_2" data-name="Layer 2"><g id="Layer_8" data-name="Layer 8"><g id="_Group_" data-name="&lt;Group&gt;"><path id="_Path_" data-name="&lt;Path&gt;" class="cls-1" d="M5.32,13.87V2.77A2.77,2.77,0,0,1,8.1,0H18.74a.58.58,0,1,1,0,1.17H8.1a1.61,1.61,0,0,0-1.6,1.6v11.1a1.61,1.61,0,0,0,1.6,1.6h11.1a1.61,1.61,0,0,0,1.61-1.6V3.15l-.41.41a.58.58,0,1,1-.83-.83L21.4.9l1.82,1.83a.58.58,0,1,1-.83.82L22,3.12V13.87a2.77,2.77,0,0,1-2.77,2.77H8.1A2.77,2.77,0,0,1,5.32,13.87Z"/><g id="_Group_2" data-name="&lt;Group&gt;"><g id="_Group_3" data-name="&lt;Group&gt;"><path id="_Compound_Path_" data-name="&lt;Compound Path&gt;" class="cls-1" d="M3.49,15.46V14.14a1.93,1.93,0,0,0-.06-.48,1.28,1.28,0,0,0-.18-.4A.9.9,0,0,0,2.93,13a1,1,0,0,0-.45-.1,1,1,0,0,0-.34.06.78.78,0,0,0-.48.53h0a.82.82,0,0,0-.31-.33A.88.88,0,0,0,.9,13a.84.84,0,0,0-.49.15.88.88,0,0,0-.31.4,1.51,1.51,0,0,0-.11.59v1.3ZM1.43,14.8H.55v-.63a.56.56,0,0,1,.06-.26.38.38,0,0,1,.15-.16A.46.46,0,0,1,1,13.7a.5.5,0,0,1,.23.05.39.39,0,0,1,.16.15.48.48,0,0,1,.06.25Zm1.52,0h-1v-.71A.59.59,0,0,1,2,13.8a.45.45,0,0,1,.18-.18.54.54,0,0,1,.26-.06.55.55,0,0,1,.26.06.43.43,0,0,1,.18.18.61.61,0,0,1,.07.29Z"/><path id="_Compound_Path_2" data-name="&lt;Compound Path&gt;" class="cls-1" d="M3.49,12.25v-.66H2.19v-.64l1.3-.72V9.48l-1.3.75-.14.09,0,0H2A.88.88,0,0,0,1.78,10a1,1,0,0,0-.34-.21A1.11,1.11,0,0,0,1,9.73a1.14,1.14,0,0,0-.42.08A.9.9,0,0,0,.3,10a1,1,0,0,0-.21.33,1.08,1.08,0,0,0-.05.17,1.62,1.62,0,0,0,0,.22c0,.09,0,.19,0,.31v1.21Zm-1.85-.66H.55V11.1a1.5,1.5,0,0,1,0-.24.61.61,0,0,1,0-.16.42.42,0,0,1,.18-.22.59.59,0,0,1,.29-.07.55.55,0,0,1,.41.15.6.6,0,0,1,.15.42Z"/><path id="_Compound_Path_3" data-name="&lt;Compound Path&gt;" class="cls-1" d="M3.49,9.39V8.72l-.9-.31V7.12l.9-.31V6.13L0,7.41v.7ZM2.08,8.24l-.93-.33L1,7.86l-.18,0-.14,0h0l.14,0,.18,0,.17,0,.93-.32Z"/><rect id="_Path_2" data-name="&lt;Path&gt;" class="cls-2" y="5.03" width="3.49" height="0.66"/><path id="_Path_3" data-name="&lt;Path&gt;" class="cls-1" d="M3.49,4.19V3.52H.94l.06,0,.14-.07.18-.1.17-.11,2-1.39V1.2H0v.66H2.56l-.06,0-.14.07L2.19,2,2,2.14,0,3.52v.66Z"/></g></g><path id="_Path_4" data-name="&lt;Path&gt;" class="cls-1" d="M9.47,13.23a1.93,1.93,0,0,1-.8-.89A3.19,3.19,0,0,1,8.42,11V9.52h0V4a.6.6,0,0,1,1.2,0V9.52a.19.19,0,0,1,0,0v1.51a1.64,1.64,0,0,0,.31,1.07,1.19,1.19,0,0,0,1,.39,1.21,1.21,0,0,0,1-.39,1.55,1.55,0,0,0,.28-1,.75.75,0,0,1,0-.09V4a.58.58,0,1,1,1.15,0v.21h0v6.88a.17.17,0,0,1,0,0A3.13,3.13,0,0,1,13,12.34a2,2,0,0,1-.8.89,2.74,2.74,0,0,1-1.38.32A2.7,2.7,0,0,1,9.47,13.23Z"/><path id="_Compound_Path_4" data-name="&lt;Compound Path&gt;" class="cls-1" d="M14.48,12.84V4.06a.63.63,0,0,1,.65-.7h1.73a2.91,2.91,0,0,1,1.39.3,1.82,1.82,0,0,1,.8.84,3.08,3.08,0,0,1,.25,1.32V7a2.43,2.43,0,0,1-.62,1.81,2.63,2.63,0,0,1-1.92.62H15.7V12.6h0v.23a.61.61,0,0,1-1.21,0Zm3.3-4.69a1.38,1.38,0,0,0,.33-1V5.77a1.53,1.53,0,0,0-.29-1,1.19,1.19,0,0,0-1-.35H15.7V8.46h1.07A1.39,1.39,0,0,0,17.78,8.14Z"/></g></g></g></svg>