<svg xmlns="http://www.w3.org/2000/svg" viewBox="0 0 24 24"><defs><style>.cls-1{fill:#10b1e8;}</style></defs><title>Asset 5GBK-peremozhci</title><g id="Layer_2" data-name="Layer 2"><g id="Layer_5" data-name="Layer 5"><path class="cls-1" d="M12,2A10,10,0,1,1,2,12,10,10,0,0,1,12,2m0-2A12,12,0,1,0,24,12,12,12,0,0,0,12,0Z"/><rect class="cls-1" x="4" y="7.21" width="14.22" height="2"/><rect class="cls-1" x="16.17" y="3.8" width="2" height="6" transform="translate(0.22 14.13) rotate(-45)"/><rect class="cls-1" x="14.17" y="8.63" width="6" height="2" transform="translate(-1.78 14.96) rotate(-45)"/><rect class="cls-1" x="5.78" y="14.73" width="14.22" height="2"/><rect class="cls-1" x="3.83" y="13.31" width="6" height="2" transform="translate(-8.12 9.02) rotate(-45)"/><rect class="cls-1" x="5.83" y="14.14" width="2" height="6" transform="translate(-10.12 9.85) rotate(-45)"/></g></g></svg>