<svg xmlns="http://www.w3.org/2000/svg" viewBox="0 0 24.02 28"><defs><style>.cls-1{fill:#10b1e8;}.cls-2{fill:#fff;}</style></defs><title>Asset 2GBK-peremozhci</title><g id="Layer_2" data-name="Layer 2"><g id="Layer_2-2" data-name="Layer 2"><path class="cls-1" d="M12,6A10,10,0,1,1,2,16,10,10,0,0,1,12,6m0-2A12,12,0,1,0,24,16,12,12,0,0,0,12,4Z"/><circle class="cls-2" cx="12" cy="16" r="1"/><path class="cls-1" d="M12,14a2,2,0,1,0,2,2,2,2,0,0,0-2-2Z"/><rect class="cls-2" x="8" width="8" height="2"/><polygon class="cls-1" points="16 0 8 0 8 2 16 2 16 0 16 0"/><rect class="cls-2" x="11" y="7.04" width="2" height="2"/><polygon class="cls-1" points="13 7.04 11 7.04 11 9.04 13 9.04 13 7.04 13 7.04"/><polygon class="cls-2" points="12 10 11 16 13 16 12 10"/><polygon class="cls-1" points="12 10 11 16 13 16 12 10 12 10"/><rect class="cls-2" x="11" y="23" width="2" height="2"/><polygon class="cls-1" points="13 23 11 23 11 25 13 25 13 23 13 23"/><path class="cls-2" d="M20,16"/><polygon class="cls-1" points="20.98 15.02 18.98 15.02 18.98 17.02 20.98 17.02 20.98 15.02 20.98 15.02"/><path class="cls-2" d="M4,16"/><polygon class="cls-1" points="5.02 15.02 3.02 15.02 3.02 17.02 5.02 17.02 5.02 15.02 5.02 15.02"/><path class="cls-2" d="M17.64,10.38"/><polygon class="cls-1" points="17.64 8.96 16.23 10.38 17.64 11.79 19.06 10.38 17.64 8.96 17.64 8.96"/><path class="cls-2" d="M6.36,21.66"/><polygon class="cls-1" points="6.36 20.25 4.94 21.66 6.36 23.08 7.77 21.66 6.36 20.25 6.36 20.25"/><path class="cls-2" d="M6.36,10.38"/><polygon class="cls-1" points="6.36 8.96 4.94 10.38 6.36 11.79 7.77 10.38 6.36 8.96 6.36 8.96"/><path class="cls-2" d="M17.64,21.66"/><polygon class="cls-1" points="17.64 20.25 16.23 21.66 17.64 23.08 19.06 21.66 17.64 20.25 17.64 20.25"/><path class="cls-2" d="M21.19,5.39l.27.27Z"/><polygon class="cls-1" points="21.19 3.98 19.78 5.39 22.61 8.22 24.02 6.81 21.19 3.98 21.19 3.98"/></g></g></svg>