<svg xmlns="http://www.w3.org/2000/svg" viewBox="0 0 32 18.38"><defs><style>.cls-1{fill:#10b1e8;}</style></defs><title>Asset 1GBK-peremozhci</title><g id="Layer_2" data-name="Layer 2"><g id="Layer_1-2" data-name="Layer 1"><path class="cls-1" d="M32,0H10V3.63H6.18L0,9.52v6.54H3.43a3.2,3.2,0,0,0,6.15,0H21.74a3.2,3.2,0,0,0,6.15,0H32ZM6.5,16.1a.95.95,0,1,1,.95-.95A.95.95,0,0,1,6.5,16.1Zm3.55-2H9.52a3.2,3.2,0,0,0-6,0H2V10.38L7,5.63H10Zm14.77,2a.95.95,0,1,1,.95-.95A.95.95,0,0,1,24.81,16.1Zm5.19-2H27.83a3.2,3.2,0,0,0-6,0H12V10.94H30Zm0-5.12H12V2H30Z"/></g></g></svg>