<svg xmlns="http://www.w3.org/2000/svg" viewBox="0 0 31.93 24.73"><defs><style>.cls-1{fill:#10b1e8;}</style></defs><title>Asset 3GBK-peremozhci</title><g id="Layer_2" data-name="Layer 2"><g id="Layer_3" data-name="Layer 3"><path class="cls-1" d="M22.06,20.86H10V16.73l3.15-.38V5.59H10v-4L18.91,0V16.35l3.15.38Zm-10-2h8V18.5l-3.15-.38V2.4L12,3.29v.31h3.19V18.12L12,18.5Z"/><path class="cls-1" d="M28.79,10.28a3,3,0,0,1-.31-2.72,4,4,0,0,1,1.91-2.19,3.35,3.35,0,0,1,.44,2.91,3.44,3.44,0,0,1-2,2Zm0,0"/><path class="cls-1" d="M26.34,11.09A3.45,3.45,0,0,1,23.9,9.58a3.35,3.35,0,0,1-.21-2.93A4,4,0,0,1,26,8.36a3,3,0,0,1,.3,2.73Zm0,0"/><path class="cls-1" d="M26.18,12.92a3,3,0,0,1-.06,2.74,3.46,3.46,0,0,1-2.22-1.81,3.38,3.38,0,0,1,.17-2.93,4,4,0,0,1,2.11,2Zm0,0"/><path class="cls-1" d="M22.68,14.15a4,4,0,0,1,1.9,2.19,3,3,0,0,1-.32,2.72,3.44,3.44,0,0,1-2-2,3.36,3.36,0,0,1,.45-2.9Zm0,0"/><path class="cls-1" d="M21.56,22.5A3.46,3.46,0,0,1,20.19,20a3.35,3.35,0,0,1,1.27-2.65A4,4,0,0,1,22.65,20a3,3,0,0,1-1.09,2.52Zm0,0"/><path class="cls-1" d="M26.81,7.22A3,3,0,0,1,25,5.13a4,4,0,0,1,.38-2.88,3.35,3.35,0,0,1,2,2.17,3.43,3.43,0,0,1-.59,2.8Zm0,0"/><path class="cls-1" d="M28.8,13.76a3,3,0,0,1,.5-2.69,4,4,0,0,1,2.47-1.53,3.35,3.35,0,0,1-.43,2.9,3.45,3.45,0,0,1-2.54,1.32Zm0,0"/><path class="cls-1" d="M27.66,17.33a3,3,0,0,1,1.09-2.52,4,4,0,0,1,2.75-.94,3.37,3.37,0,0,1-1.07,2.74,3.45,3.45,0,0,1-2.77.72Zm0,0"/><path class="cls-1" d="M25.93,20.28a3,3,0,0,1,1.81-2.07,4,4,0,0,1,2.9-.06,3.37,3.37,0,0,1-1.85,2.28,3.45,3.45,0,0,1-2.86-.15Zm0,0"/><path class="cls-1" d="M25.17,21.51a4,4,0,0,1,2.89.28A3.35,3.35,0,0,1,26,23.84a3.43,3.43,0,0,1-2.82-.5,3,3,0,0,1,2-1.83Zm0,0"/><path class="cls-1" d="M26.65,8.2l.72-.36c0,.08,3.75,8-6.68,16.88l-.52-.61C30.1,15.63,26.8,8.5,26.65,8.2Zm0,0"/><path class="cls-1" d="M3.14,10.28a3,3,0,0,0,.31-2.72A4,4,0,0,0,1.54,5.37,3.35,3.35,0,0,0,1.1,8.27a3.44,3.44,0,0,0,2,2Zm0,0"/><path class="cls-1" d="M5.59,11.09A3.45,3.45,0,0,0,8,9.58a3.35,3.35,0,0,0,.21-2.93A4,4,0,0,0,5.89,8.36a3,3,0,0,0-.3,2.73Zm0,0"/><path class="cls-1" d="M5.75,12.92a3,3,0,0,0,.06,2.74A3.46,3.46,0,0,0,8,13.85a3.38,3.38,0,0,0-.17-2.93,4,4,0,0,0-2.11,2Zm0,0"/><path class="cls-1" d="M9.25,14.15a4,4,0,0,0-1.9,2.19,3,3,0,0,0,.32,2.72,3.44,3.44,0,0,0,2-2,3.36,3.36,0,0,0-.45-2.9Zm0,0"/><path class="cls-1" d="M10.37,22.5A3.46,3.46,0,0,0,11.74,20a3.35,3.35,0,0,0-1.27-2.65A4,4,0,0,0,9.28,20a3,3,0,0,0,1.09,2.52Zm0,0"/><path class="cls-1" d="M5.12,7.22A3,3,0,0,0,6.88,5.13a4,4,0,0,0-.38-2.88,3.35,3.35,0,0,0-2,2.17,3.43,3.43,0,0,0,.59,2.8Zm0,0"/><path class="cls-1" d="M3.13,13.76a3,3,0,0,0-.5-2.69A4,4,0,0,0,.16,9.54a3.35,3.35,0,0,0,.43,2.9,3.45,3.45,0,0,0,2.54,1.32Zm0,0"/><path class="cls-1" d="M4.27,17.33a3,3,0,0,0-1.09-2.52,4,4,0,0,0-2.75-.94A3.37,3.37,0,0,0,1.5,16.61a3.45,3.45,0,0,0,2.77.72Zm0,0"/><path class="cls-1" d="M6,20.28A3,3,0,0,0,4.2,18.21a4,4,0,0,0-2.9-.06,3.37,3.37,0,0,0,1.85,2.28A3.45,3.45,0,0,0,6,20.28Zm0,0"/><path class="cls-1" d="M6.75,21.51a4,4,0,0,0-2.89.28A3.35,3.35,0,0,0,6,23.84a3.43,3.43,0,0,0,2.82-.5,3,3,0,0,0-2-1.83Zm0,0"/><path class="cls-1" d="M5.28,8.2l-.72-.36c0,.08-3.75,8,6.68,16.88l.52-.61C1.83,15.63,5.13,8.5,5.28,8.2Zm0,0"/></g></g></svg>