<?xml version="1.0" encoding="utf-8"?>
<!-- Generator: Adobe Illustrator 21.0.2, SVG Export Plug-In . SVG Version: 6.00 Build 0)  -->
<svg version="1.1" id="Layer_1" xmlns="http://www.w3.org/2000/svg" xmlns:xlink="http://www.w3.org/1999/xlink" x="0px" y="0px"
	 viewBox="0 0 32.2 32" style="enable-background:new 0 0 32.2 32;" xml:space="preserve">
<style type="text/css">
	.st0{fill:#BEBEBE;}
</style>
<g>
	<path class="st0" d="M16.1,0c-8.8,0-16,7.2-16,16c0,8.8,7.2,16,16,16c8.8,0,16-7.2,16-16C32.1,7.2,24.9,0,16.1,0z M16.1,29.4
		c-7.4,0-13.4-6-13.4-13.4s6-13.4,13.4-13.4s13.4,6,13.4,13.4S23.5,29.4,16.1,29.4z"/>
	<path class="st0" d="M17.4,16.7c-0.3-0.1-0.7-0.2-1.2-0.2h-1.3v2.1c0,0.3,0,0.5,0,0.5c0,0.1,0.1,0.1,0.1,0.1c0.1,0,0.2,0,0.4,0h0.7
		c0.4,0,0.8,0,1-0.1c0.3-0.1,0.5-0.2,0.7-0.5c0.2-0.2,0.3-0.5,0.3-0.9c0-0.3-0.1-0.5-0.2-0.7C17.9,16.9,17.7,16.8,17.4,16.7z"/>
	<path class="st0" d="M16.1,4.5C9.7,4.5,4.5,9.6,4.5,16c0,6.4,5.2,11.5,11.5,11.5c6.4,0,11.5-5.2,11.5-11.5
		C27.6,9.6,22.4,4.5,16.1,4.5z M20.3,19.5c-0.3,0.4-0.8,0.8-1.3,1c-0.2,0.1-0.4,0.1-0.7,0.2v1.7h-1.6v-1.6c0,0-0.1,0-0.1,0h-0.9v1.6
		h-1.6v-1.6h-2.5v-1.3h0.4c0.3,0,0.4,0,0.5-0.1c0.1,0,0.2-0.1,0.2-0.2c0-0.1,0.1-0.3,0.1-0.5v-5.4c0-0.3,0-0.5-0.1-0.5
		c0-0.1-0.1-0.1-0.2-0.2c-0.1,0-0.3-0.1-0.5-0.1h-0.4v-1.3h2.5V9.6h1.6v1.6h1V9.6h1.6v1.7c0.2,0,0.5,0.1,0.6,0.2
		c0.5,0.2,0.8,0.5,1.1,0.8c0.3,0.4,0.4,0.8,0.4,1.2c0,0.3-0.1,0.6-0.2,0.9c-0.1,0.3-0.3,0.5-0.6,0.8c-0.3,0.2-0.6,0.4-1,0.5
		c0.5,0.1,0.8,0.2,1,0.4c0.3,0.2,0.6,0.5,0.8,0.8c0.2,0.3,0.3,0.7,0.3,1.2C20.7,18.6,20.6,19.1,20.3,19.5z"/>
	<path class="st0" d="M17.2,15c0.3-0.1,0.5-0.2,0.6-0.4c0.1-0.2,0.2-0.4,0.2-0.6c0-0.3-0.1-0.5-0.2-0.7c-0.1-0.2-0.3-0.3-0.5-0.4
		c-0.2-0.1-0.7-0.1-1.3-0.1h-1.1v2.4H16C16.6,15.1,17,15,17.2,15z"/>
</g>
</svg>
