<?xml version="1.0" encoding="utf-8"?>
<!-- Generator: Adobe Illustrator 21.0.2, SVG Export Plug-In . SVG Version: 6.00 Build 0)  -->
<svg version="1.1" id="Layer_9" xmlns="http://www.w3.org/2000/svg" xmlns:xlink="http://www.w3.org/1999/xlink" x="0px" y="0px"
	 viewBox="0 0 28 28" style="enable-background:new 0 0 28 28;" xml:space="preserve">
<style type="text/css">
	.st0{fill:#1973FF;}
	.st1{fill:none;stroke:#1973FF;stroke-width:2;stroke-miterlimit:10;}
</style>
<g>
	<path class="st0" d="M2.8,2.3l0.3,0.2l1.1,0.7l1.1-0.7l0.3-0.2l0.3,0.2L7,3.2l1.1-0.7l0.3-0.2l0.3,0.2l1.1,0.7l1.1-0.7l0.3-0.2
		l0.3,0.2l1.1,0.7l1.1-0.7L14,2.3l0.3,0.2l1.1,0.7l1.1-0.7l0.3-0.2L17,2.5l0.6,0.4v1.1V5l0.9,0.6l0.9,0.6L20.5,7l1.1-0.7L21.9,6
		l0.3,0.2L23.3,7l1.1-0.7L24.7,6L25,6.2l1,0.7v15.5c0,2-1.6,3.6-3.6,3.6H2.8C2.4,26,2,25.6,2,25.2V2.8l0.6-0.4L2.8,2.3 M0.5,0
		C0.4,0,0.3,0,0.3,0C0.1,0.1,0,0.3,0,0.5v24.7C0,26.8,1.3,28,2.8,28h19.6c3.1,0,5.6-2.5,5.6-5.6V4.2c0-0.2-0.1-0.3-0.2-0.4
		c-0.1,0-0.1-0.1-0.2-0.1c-0.1,0-0.2,0-0.3,0.1l-1.1,0.8L25,3.8c-0.1-0.1-0.2-0.1-0.3-0.1s-0.2,0-0.3,0.1l-1.1,0.8l-1.1-0.8
		c-0.1-0.1-0.2-0.1-0.3-0.1c-0.1,0-0.2,0-0.3,0.1l-1.1,0.8l-0.9-0.6V0.5c0-0.2-0.1-0.4-0.3-0.4c-0.1,0-0.1,0-0.2,0
		c-0.1,0-0.2,0-0.3,0.1l-0.7,0.7l-1.1-0.7C17,0,16.9,0,16.8,0c-0.1,0-0.2,0-0.3,0.1l-1.1,0.8l-1.1-0.8C14.2,0,14.1,0,14,0
		s-0.2,0-0.3,0.1l-1.1,0.8l-1.1-0.8C11.4,0,11.3,0,11.2,0c-0.1,0-0.2,0-0.3,0.1L9.8,0.8L8.7,0.1C8.6,0,8.5,0,8.4,0S8.2,0,8.1,0.1
		L7,0.8L5.9,0.1C5.8,0,5.7,0,5.6,0S5.4,0,5.3,0.1L4.2,0.8L3.1,0.1C3,0,2.9,0,2.8,0C2.7,0,2.6,0,2.5,0.1L1.5,0.8L0.8,0.1
		C0.7,0.1,0.6,0,0.5,0L0.5,0z"/>
</g>
<path class="st1" d="M24.2,26.7c-5.9,0-5.6-2.2-5.6-5.2V3.2"/>
<line class="st1" x1="4.9" y1="9.7" x2="14.7" y2="9.7"/>
<line class="st1" x1="7.2" y1="14.2" x2="12.4" y2="14.2"/>
<line class="st1" x1="5.3" y1="19.4" x2="14.3" y2="19.4"/>
</svg>
