<?xml version="1.0" encoding="utf-8"?>
<!-- Generator: Adobe Illustrator 21.0.2, SVG Export Plug-In . SVG Version: 6.00 Build 0)  -->
<svg version="1.1" id="Layer_1" xmlns="http://www.w3.org/2000/svg" xmlns:xlink="http://www.w3.org/1999/xlink" x="0px" y="0px"
	 viewBox="0 0 32.1 32.2" style="enable-background:new 0 0 32.1 32.2;" xml:space="preserve">
<style type="text/css">
	.st0{fill:#1972FD;}
</style>
<g>
	<path class="st0" d="M16,0.2c-8.8,0-16,7.2-16,16c0,8.8,7.2,16,16,16c8.8,0,16-7.2,16-16C32,7.3,24.9,0.2,16,0.2z M16,29.6
		c-7.4,0-13.4-6-13.4-13.4S8.6,2.7,16,2.7s13.4,6,13.4,13.4S23.4,29.6,16,29.6z"/>
	<path class="st0" d="M17.4,16.8c-0.3-0.1-0.7-0.2-1.2-0.2h-1.3v2.1c0,0.3,0,0.5,0,0.5c0,0.1,0.1,0.1,0.1,0.1c0.1,0,0.2,0,0.4,0h0.7
		c0.4,0,0.8,0,1-0.1c0.3-0.1,0.5-0.2,0.7-0.5c0.2-0.2,0.3-0.5,0.3-0.9c0-0.3-0.1-0.5-0.2-0.7C17.9,17.1,17.7,16.9,17.4,16.8z"/>
	<path class="st0" d="M16,4.6C9.7,4.6,4.5,9.8,4.5,16.2c0,6.4,5.2,11.5,11.5,11.5c6.4,0,11.5-5.2,11.5-11.5
		C27.6,9.8,22.4,4.6,16,4.6z M20.2,19.7c-0.3,0.4-0.8,0.8-1.3,1c-0.2,0.1-0.4,0.1-0.7,0.2v1.7h-1.6V21c0,0-0.1,0-0.1,0h-0.9v1.6
		h-1.6V21h-2.5v-1.3h0.4c0.3,0,0.4,0,0.5-0.1c0.1,0,0.2-0.1,0.2-0.2c0-0.1,0.1-0.3,0.1-0.5v-5.4c0-0.3,0-0.5-0.1-0.5
		c0-0.1-0.1-0.1-0.2-0.2c-0.1,0-0.3-0.1-0.5-0.1h-0.4v-1.3h2.5V9.7h1.6v1.6h1V9.7h1.6v1.7c0.2,0,0.5,0.1,0.6,0.2
		c0.5,0.2,0.8,0.5,1.1,0.8c0.3,0.4,0.4,0.8,0.4,1.2c0,0.3-0.1,0.6-0.2,0.9c-0.1,0.3-0.3,0.5-0.6,0.8c-0.3,0.2-0.6,0.4-1,0.5
		c0.5,0.1,0.8,0.2,1,0.4c0.3,0.2,0.6,0.5,0.8,0.8c0.2,0.3,0.3,0.7,0.3,1.2C20.7,18.8,20.5,19.2,20.2,19.7z"/>
	<path class="st0" d="M17.2,15.1c0.3-0.1,0.5-0.2,0.6-0.4c0.1-0.2,0.2-0.4,0.2-0.6c0-0.3-0.1-0.5-0.2-0.7c-0.1-0.2-0.3-0.3-0.5-0.4
		c-0.2-0.1-0.7-0.1-1.3-0.1h-1.1v2.4H16C16.5,15.2,16.9,15.2,17.2,15.1z"/>
</g>
</svg>
