<?xml version="1.0" encoding="utf-8"?>
<!-- Generator: Adobe Illustrator 21.0.2, SVG Export Plug-In . SVG Version: 6.00 Build 0)  -->
<svg version="1.1" id="Layer_1" xmlns="http://www.w3.org/2000/svg" xmlns:xlink="http://www.w3.org/1999/xlink" x="0px" y="0px"
	 viewBox="0 0 105 104.6" style="enable-background:new 0 0 105 104.6;" xml:space="preserve">
<style type="text/css">
	.st0{fill:#1972FD;}
</style>
<g>
	<path class="st0" d="M52.5,0.5c-29.4,0-53.1,24.4-51.9,54c1,26.9,23,48.9,49.9,49.9c29.6,1.1,54-22.6,54-51.9
		C104.5,23.7,81.2,0.5,52.5,0.5L52.5,0.5z M66.7,72.5c-2.6,2.9-6.2,4.6-11.1,5.1v7.4h-6.2v-7.3c-8-0.8-13-5.5-15-14l9.5-2.5
		c0.9,5.4,3.8,8,8.8,8c2.3,0,4-0.6,5.1-1.7c1.1-1.1,1.6-2.5,1.6-4.2c0-1.7-0.5-3-1.6-3.8c-1.1-0.9-3.5-2-7.3-3.3
		c-3.4-1.2-6-2.3-7.9-3.5c-1.9-1.1-3.5-2.7-4.6-4.8c-1.2-2.1-1.8-4.5-1.8-7.2c0-3.6,1.1-6.8,3.2-9.7c2.1-2.9,5.5-4.6,10-5.3v-5.7
		h6.2v5.7c6.9,0.8,11.3,4.7,13.4,11.7l-8.5,3.5c-1.7-4.8-4.2-7.2-7.7-7.2c-1.7,0-3.1,0.5-4.2,1.6c-1.1,1.1-1.6,2.4-1.6,3.9
		c0,1.5,0.5,2.7,1.5,3.6c1,0.8,3.2,1.8,6.5,3.1c3.7,1.3,6.5,2.6,8.6,3.8c2.1,1.2,3.7,2.8,5,4.9c1.2,2.1,1.9,4.5,1.9,7.3
		C70.5,66,69.2,69.6,66.7,72.5L66.7,72.5z M66.7,72.5"/>
</g>
</svg>
