<?xml version="1.0" encoding="utf-8"?>
<!-- Generator: Adobe Illustrator 21.0.2, SVG Export Plug-In . SVG Version: 6.00 Build 0)  -->
<svg version="1.1" id="Layer_9" xmlns="http://www.w3.org/2000/svg" xmlns:xlink="http://www.w3.org/1999/xlink" x="0px" y="0px"
	 viewBox="0 0 28 26.9" style="enable-background:new 0 0 28 26.9;" xml:space="preserve">
<style type="text/css">
	.st0{fill:#10b1e8;}
</style>
<path class="st0" d="M8,20.3c-0.2,0-0.4-0.1-0.6-0.3c-0.3-0.3-0.3-0.9,0-1.2L19.5,6.8c0.3-0.3,0.9-0.3,1.2,0C21,7.1,21,7.7,20.7,8
	L8.6,20.1C8.5,20.3,8.2,20.3,8,20.3z"/>
<path class="st0" d="M9.7,12.5c-1.9,0-3.5-1.6-3.5-3.5c0-1.9,1.6-3.5,3.5-3.5c1.9,0,3.5,1.6,3.5,3.5C13.1,11,11.6,12.5,9.7,12.5z
	 M9.7,7.3C8.7,7.3,8,8.1,8,9.1c0,0.9,0.8,1.7,1.7,1.7c0.9,0,1.7-0.8,1.7-1.7C11.4,8.1,10.6,7.3,9.7,7.3z"/>
<path class="st0" d="M17.6,26.9c-0.7,0-1.4-0.3-2.1-0.6C15,26,14.4,25.8,14,25.8c-0.4,0-1,0.2-1.5,0.5c-0.7,0.3-1.4,0.6-2.1,0.6
	c-0.3,0-0.5,0-0.7-0.1c-1-0.3-1.6-1.3-2.1-2.1c-0.3-0.5-0.6-1-0.9-1.2c-0.3-0.2-0.9-0.3-1.4-0.5c-0.9-0.2-2-0.4-2.6-1.3
	c-0.6-0.8-0.5-1.9-0.4-2.9c0.1-0.6,0.1-1.2,0-1.5c-0.1-0.3-0.5-0.8-0.9-1.2C0.7,15.3,0,14.5,0,13.4c0-1.1,0.7-1.9,1.4-2.6
	c0.4-0.4,0.7-0.8,0.9-1.2c0.1-0.4,0.1-1,0-1.5c-0.1-1-0.2-2,0.4-2.9c0.6-0.9,1.7-1.1,2.6-1.3c0.6-0.1,1.1-0.2,1.4-0.5
	C7,3.2,7.3,2.7,7.6,2.2c0.5-0.8,1-1.8,2.1-2.1C9.9,0,10.1,0,10.4,0c0.7,0,1.4,0.3,2.1,0.6C13,0.8,13.6,1.1,14,1.1
	c0.4,0,1-0.2,1.5-0.5C16.2,0.3,16.9,0,17.6,0c0.3,0,0.5,0,0.7,0.1c1,0.3,1.6,1.3,2.1,2.1c0.3,0.5,0.6,1,0.9,1.2
	c0.3,0.2,0.9,0.4,1.4,0.5c0.9,0.2,2,0.4,2.6,1.3c0.6,0.8,0.5,1.9,0.4,2.9c-0.1,0.6-0.1,1.2,0,1.5c0.1,0.3,0.5,0.8,0.9,1.2
	c0.6,0.7,1.4,1.6,1.4,2.6s-0.7,1.9-1.4,2.6c-0.4,0.4-0.7,0.8-0.9,1.2c-0.1,0.4-0.1,1,0,1.5c0.1,1,0.2,2-0.4,2.9
	c-0.6,0.9-1.7,1.1-2.6,1.3c-0.6,0.1-1.1,0.2-1.4,0.5c-0.3,0.2-0.6,0.7-0.9,1.2c-0.5,0.8-1,1.8-2.1,2.1
	C18.1,26.8,17.9,26.9,17.6,26.9z M14,24c0.8,0,1.5,0.3,2.2,0.6c0.6,0.3,1.3,0.5,1.6,0.4c0.4-0.1,0.7-0.7,1.1-1.3
	c0.4-0.6,0.8-1.3,1.4-1.7c0.6-0.4,1.4-0.6,2.1-0.8c0.7-0.1,1.4-0.3,1.6-0.6c0.2-0.3,0.2-1,0.1-1.7c-0.1-0.7-0.1-1.5,0.1-2.2
	c0.2-0.7,0.7-1.3,1.2-1.8c0.5-0.5,0.9-1.1,0.9-1.5c0-0.4-0.5-1-0.9-1.5c-0.5-0.5-1-1.1-1.2-1.8c-0.2-0.7-0.2-1.5-0.1-2.2
	c0.1-0.7,0.1-1.4-0.1-1.7c-0.2-0.3-0.9-0.5-1.6-0.6c-0.7-0.2-1.5-0.3-2.1-0.8c-0.6-0.4-1-1.1-1.4-1.7c-0.3-0.6-0.7-1.2-1.1-1.3
	c-0.3-0.1-1,0.2-1.6,0.4c-0.7,0.3-1.4,0.6-2.2,0.6s-1.5-0.3-2.2-0.6c-0.6-0.3-1.3-0.5-1.6-0.4C9.8,1.9,9.5,2.5,9.1,3.1
	C8.7,3.8,8.4,4.4,7.8,4.8C7.2,5.3,6.4,5.5,5.7,5.6C5,5.8,4.3,5.9,4.1,6.2C3.9,6.5,3.9,7.2,4,7.9c0.1,0.7,0.1,1.5-0.1,2.2
	c-0.2,0.7-0.7,1.3-1.2,1.8c-0.5,0.5-0.9,1.1-0.9,1.5s0.5,1,0.9,1.5c0.5,0.5,1,1.1,1.2,1.8c0.2,0.7,0.2,1.5,0.1,2.2
	c-0.1,0.7-0.1,1.4,0.1,1.7C4.3,21,5,21.1,5.7,21.3c0.7,0.2,1.5,0.3,2.1,0.8c0.6,0.4,1,1.1,1.4,1.7c0.3,0.6,0.7,1.2,1.1,1.3
	c0.3,0.1,1-0.2,1.6-0.4C12.5,24.4,13.2,24,14,24z"/>
<path class="st0" d="M18.4,21.3c-1.9,0-3.5-1.6-3.5-3.5s1.6-3.5,3.5-3.5s3.5,1.6,3.5,3.5S20.3,21.3,18.4,21.3z M18.4,16.1
	c-0.9,0-1.7,0.8-1.7,1.7c0,0.9,0.8,1.7,1.7,1.7s1.7-0.8,1.7-1.7S19.4,16.1,18.4,16.1z"/>
</svg>
