<?xml version="1.0" encoding="utf-8"?>
<!-- Generator: Adobe Illustrator 21.0.2, SVG Export Plug-In . SVG Version: 6.00 Build 0)  -->
<svg version="1.1" id="Layer_9" xmlns="http://www.w3.org/2000/svg" xmlns:xlink="http://www.w3.org/1999/xlink" x="0px" y="0px"
	 viewBox="0 0 28 26.7" style="enable-background:new 0 0 28 26.7;" xml:space="preserve">
<style type="text/css">
	.st0{fill:#FFFFFF;}
	.st1{fill:#10b1e8;}
	.st2{fill:#FFFFFF;stroke:#10b1e8;stroke-width:2;stroke-miterlimit:10;}
	.st3{fill:#BEBEBE;stroke:#10b1e8;stroke-miterlimit:10;}
	.st4{stroke:#10b1e8;stroke-miterlimit:10;}
	.st5{fill:#FFFFFF;stroke:#10b1e8;stroke-width:2;stroke-linejoin:round;stroke-miterlimit:10;}
	.st6{fill:#FFFFFF;stroke:#10b1e8;stroke-width:2;stroke-linejoin:bevel;stroke-miterlimit:10;}
</style>
<g>
	<path class="st0" d="M2.7,25.6c-0.9,0-1.7-0.8-1.7-1.7V5.3c0-0.9,0.8-1.7,1.7-1.7H24c0.9,0,1.7,0.8,1.7,1.7v7.2H27v4.9h-1.4v6.5
		c0,0.9-0.8,1.7-1.7,1.7H2.7z"/>
	<path class="st1" d="M24,4.6c0.4,0,0.7,0.3,0.7,0.7v6.2v2H26v2.9h-1.4v2v5.5c0,0.4-0.3,0.7-0.7,0.7H2.7c-0.4,0-0.7-0.3-0.7-0.7V5.3
		c0-0.4,0.3-0.7,0.7-0.7H24 M24,2.6H2.7C1.2,2.6,0,3.8,0,5.3v18.6c0,1.5,1.2,2.7,2.7,2.7H24c1.5,0,2.7-1.2,2.7-2.7v-5.5H28v-6.9
		h-1.4V5.3C26.7,3.8,25.4,2.6,24,2.6L24,2.6z"/>
</g>
<path class="st2" d="M27,17.4h-8.4c-1.2,0-2.3-1-2.3-2.3v-0.2c0-1.2,1-2.3,2.3-2.3H27V17.4z"/>
<path class="st3" d="M21.3,15c0,0.7-0.5,1.2-1.2,1.2c-0.7,0-1.2-0.5-1.2-1.2c0-0.7,0.5-1.2,1.2-1.2C20.8,13.8,21.3,14.4,21.3,15
	L21.3,15z"/>
<path class="st4" d="M23.3,15"/>
<line class="st5" x1="1.4" y1="8.1" x2="26.7" y2="8.1"/>
<path class="st6" d="M17.1,1.1C17.4,0.9,17.8,1,18,1.3l3.8,6.8H4.4L17.1,1.1z"/>
</svg>
