<?xml version="1.0" encoding="utf-8"?>
<!-- Generator: Adobe Illustrator 21.0.2, SVG Export Plug-In . SVG Version: 6.00 Build 0)  -->
<svg version="1.1" id="Layer_1" xmlns="http://www.w3.org/2000/svg" xmlns:xlink="http://www.w3.org/1999/xlink" x="0px" y="0px"
	 viewBox="0 0 10.6 10.6" style="enable-background:new 0 0 10.6 10.6;" xml:space="preserve">
<style type="text/css">
	.st0{fill:#1972FD;}
</style>
<path class="st0" d="M7.5,8.2l1.1,1.2C8.3,9.6,8.1,9.7,7.9,9.9c-0.8,0.4-1.7,0.7-2.6,0.7C2.4,10.6,0,8.2,0,5.3
	c0-2.9,2.4-5.3,5.3-5.3c0.8,0,1.6,0.2,2.3,0.5c0.1,0.1,0.2,0.1,0.3,0.2L7.4,1.2L6.7,0.4L5.5,1.5L4.7,0.7L2.5,2.8l1.5,1.6L3.3,4.9
	l1.4,1.6L4.2,7l2.1,2.3L7.5,8.2z"/>
<rect x="9.6" y="5.1" transform="matrix(0.7436 -0.6686 0.6686 0.7436 -1.154 8.0893)" class="st0" width="0.8" height="0.8"/>
<rect x="8.5" y="7.4" transform="matrix(0.743 -0.6693 0.6693 0.743 -3.0508 8.1534)" class="st0" width="1.3" height="1.3"/>
<rect x="6" y="1.7" transform="matrix(0.7434 -0.6689 0.6689 0.7434 0.1618 5.0048)" class="st0" width="1.3" height="1.3"/>
<polygon class="st0" points="4.7,1.7 5.8,3 4.5,4.1 3.4,2.8 "/>
<rect x="6.8" y="3.5" transform="matrix(0.743 -0.6693 0.6693 0.743 -0.875 6.0697)" class="st0" width="1.3" height="1.3"/>
<polygon class="st0" points="8.6,3.7 9.2,3.1 9.8,3.7 9.1,4.3 "/>
<rect x="7.6" y="5.5" transform="matrix(0.7438 -0.6685 0.6685 0.7438 -1.9958 7.1033)" class="st0" width="1.3" height="1.3"/>
<rect x="8" y="1.4" transform="matrix(0.7436 -0.6687 0.6687 0.7436 0.9178 6.0699)" class="st0" width="0.8" height="0.8"/>
<rect x="4.7" y="4.2" transform="matrix(0.7433 -0.669 0.669 0.7433 -1.9629 4.9754)" class="st0" width="1.7" height="1.7"/>
<rect x="5.5" y="6.4" transform="matrix(0.7433 -0.669 0.669 0.7433 -3.1801 6.1233)" class="st0" width="1.7" height="1.7"/>
<path class="st0" d="M6.3,8.4"/>
</svg>
