<?xml version="1.0" encoding="iso-8859-1"?>
<!-- Generator: Adobe Illustrator 21.0.2, SVG Export Plug-In . SVG Version: 6.00 Build 0)  -->
<svg version="1.1" id="Layer_1" xmlns="http://www.w3.org/2000/svg" xmlns:xlink="http://www.w3.org/1999/xlink" x="0px" y="0px"
	 viewBox="22 141 371 512" style="enable-background:new 22 141 371 512;" xml:space="preserve">
<path style="fill:#10b1e8;" d="M207.001,141c-102.245,0-185.426,83.182-185.426,185.426c0,126.888,165.939,313.167,173.004,321.035
	c6.636,7.391,18.222,7.378,24.846,0c7.065-7.868,173.004-194.147,173.004-321.035C392.426,224.182,309.244,141,207.001,141z
	 M207.001,610.729C151.153,544.391,54.966,413.512,54.966,326.428c0-83.834,68.202-152.036,152.035-152.036
	s152.035,68.202,152.035,152.035C359.034,413.515,262.861,544.37,207.001,610.729z"/>
<path style="fill:#10b1e8;" d="M207.001,233.134c-51.442,0-93.291,41.851-93.291,93.293s41.851,93.293,93.291,93.293
	s93.291-41.851,93.291-93.293S258.441,233.134,207.001,233.134z M207.001,386.328c-33.03,0-59.9-26.871-59.9-59.901
	s26.871-59.901,59.9-59.901s59.9,26.871,59.9,59.901S240.029,386.328,207.001,386.328z"/>
</svg>
