<svg xmlns="http://www.w3.org/2000/svg" viewBox="0 0 225.67 68.11"><defs><style>.cls-1{fill:#f75e5e;}.cls-2{fill:#70bd42;}.cls-3{fill:#ffa121;}.cls-4{fill:#126eab;}</style></defs><title>logo_brain_gid</title><g id="Слой_2" data-name="Слой 2"><g id="Layer_1" data-name="Layer 1"><path class="cls-1" d="M104.2,40.48a17.35,17.35,0,0,1,1-5.77l-9.06-5.18a27.77,27.77,0,0,0-1.52,17.34L86.91,60.22h15.18a27.71,27.71,0,0,0,16.45,7.89V57.63A17.45,17.45,0,0,1,104.2,40.48Z"/><path class="cls-2" d="M148.69,46.8a27.85,27.85,0,0,0-1.54-17.28l-9.07,5.2a17.38,17.38,0,0,1-13.26,22.9V68.1a27.7,27.7,0,0,0,16.38-7.88h15.24Z"/><path class="cls-3" d="M121.64,23A17.4,17.4,0,0,1,135,29.26l9-5.19a27.85,27.85,0,0,0-14.3-10.13L121.68,0l-8,13.92A27.84,27.84,0,0,0,99.26,24.08l9.05,5.17A17.4,17.4,0,0,1,121.64,23Z"/><path class="cls-4" d="M129.79,38.09a8.46,8.46,0,1,0,.35,2.39A8.47,8.47,0,0,0,129.79,38.09Z"/><path class="cls-4" d="M.16,50.49H7.79a10.09,10.09,0,0,0,2.78-.37A7,7,0,0,0,12.89,49a5.3,5.3,0,0,0,1.58-1.9,6,6,0,0,0,.59-2.74,5.88,5.88,0,0,0-.37-2.08,4.71,4.71,0,0,0-1.13-1.76,4.58,4.58,0,0,0-1.91-1.11v-.06a4.75,4.75,0,0,0,1.88-1.84,5.51,5.51,0,0,0,.67-2.67,5.18,5.18,0,0,0-.84-2.95,5.24,5.24,0,0,0-2.3-1.85,8.47,8.47,0,0,0-3.39-.63H.16ZM4,38V32.71H7.64a3.13,3.13,0,0,1,1.47.34A2.21,2.21,0,0,1,10,34a2.92,2.92,0,0,1,.3,1.35A3,3,0,0,1,10,36.7a2.39,2.39,0,0,1-.88,1A2.68,2.68,0,0,1,7.7,38Zm0,9.17V41.11H8.08a3.42,3.42,0,0,1,1.66.4,2.59,2.59,0,0,1,1,1.06,3.46,3.46,0,0,1,.37,1.57,3.64,3.64,0,0,1-.36,1.58,2.55,2.55,0,0,1-1,1.07,3.29,3.29,0,0,1-1.66.4Z"/><path class="cls-4" d="M18.94,50.49h3.83V42.62h3.68l4.15,7.87h4.31l-4.34-7.84c-.21-.38-.37-.66-.49-.83a1.66,1.66,0,0,0-.19-.26V41.5a5.17,5.17,0,0,0,1.91-1.34,6.22,6.22,0,0,0,1.2-2,6.89,6.89,0,0,0,.42-2.4A7.08,7.08,0,0,0,33,33.18a5.46,5.46,0,0,0-1.23-1.94A5.59,5.59,0,0,0,29.86,30a6,6,0,0,0-1-.32,9.28,9.28,0,0,0-1.26-.18c-.48,0-1.07-.06-1.76-.06H18.94ZM22.77,39.3V32.71h2.79A8.71,8.71,0,0,1,27,32.8a3.58,3.58,0,0,1,.92.27,2.45,2.45,0,0,1,1.27,1.11,3.67,3.67,0,0,1,.4,1.77,3.39,3.39,0,0,1-.9,2.45,3.32,3.32,0,0,1-2.43.9Z"/><path class="cls-4" d="M35.63,50.49h3.91l1.78-5.41h7.39l1.81,5.41h3.92L47.05,29.42H43ZM42.27,42l1.9-5.64c.09-.31.19-.64.28-1s.19-.73.27-1.07.15-.62.2-.84.08-.34.08-.34h.06a2.74,2.74,0,0,1,.08.34q.07.33.21.84c.08.34.17.7.26,1.07s.19.7.28,1L47.76,42Z"/><rect class="cls-4" x="57.23" y="29.42" width="3.82" height="21.07"/><path class="cls-4" d="M66.15,50.49H70V38.35c0-.32,0-.67,0-1s0-.73-.08-1.06-.05-.62-.07-.83l0-.34h.06l.16.34c.11.21.24.49.42.83L71,37.31c.21.37.41.72.61,1l8,12.14h3.8V29.42h-3.8V41.58c0,.32,0,.67,0,1s.05.72.08,1.06,0,.62.07.83l0,.34h-.06l-.16-.34-.43-.83c-.17-.34-.36-.69-.56-1.06l-.6-1L70,29.42H66.15Z"/><polygon class="cls-4" points="159.4 50.49 163.23 50.49 163.23 32.71 171.51 32.71 171.51 29.42 159.4 29.42 159.4 50.49"/><rect class="cls-4" x="175.18" y="29.42" width="3.82" height="21.07"/><path class="cls-4" d="M187.84,47.19a14.64,14.64,0,0,0,1.36-2.94A23.42,23.42,0,0,0,190,41a33.45,33.45,0,0,0,.43-3.41c.08-1.13.12-2.22.12-3.26V32.71h5.64V47.19Zm-6.07,0v7.45h3.52V50.48H199v4.16h3.41V47.19h-2.34V29.42H187V34a39.62,39.62,0,0,1-.21,4.43,24.26,24.26,0,0,1-.89,4.52,16.15,16.15,0,0,1-1.95,4.22Z"/><polygon class="cls-4" points="0 22.65 0.95 22.65 0.95 19.68 4.47 19.68 4.47 22.65 5.41 22.65 5.41 15.88 4.47 15.88 4.47 18.86 0.95 18.86 0.95 15.88 0 15.88 0 22.65"/><path class="cls-4" d="M6.69,22.65h1l.68-1.94h2.55l.68,1.94h1l-2.42-6.77h-1Zm1.89-2.73.76-2.14q0-.14.09-.3c0-.11.06-.21.08-.31s.05-.19.07-.25,0-.1,0-.11h0s0,0,0,.11,0,.14.07.25l.09.31q0,.16.09.3l.74,2.14Z"/><path class="cls-4" d="M13.82,22.65h2.43a2.84,2.84,0,0,0,.84-.12,2.21,2.21,0,0,0,.7-.36,1.88,1.88,0,0,0,.47-.61,2,2,0,0,0,.17-.83A1.88,1.88,0,0,0,18.3,20a1.59,1.59,0,0,0-.38-.57,1.48,1.48,0,0,0-.61-.35v0a1.57,1.57,0,0,0,.62-.58,1.82,1.82,0,0,0,.22-.88,1.61,1.61,0,0,0-.25-.93,1.59,1.59,0,0,0-.69-.59,2.47,2.47,0,0,0-1-.21H13.82Zm.95-3.92v-2h1.41a1.18,1.18,0,0,1,.55.12.88.88,0,0,1,.34.35,1.25,1.25,0,0,1,.12.53,1.29,1.29,0,0,1-.13.53.9.9,0,0,1-.34.36,1,1,0,0,1-.53.13Zm0,3.1V19.52h1.52a1.32,1.32,0,0,1,.62.14,1.05,1.05,0,0,1,.4.41,1.16,1.16,0,0,1,.14.6,1.31,1.31,0,0,1-.13.61,1,1,0,0,1-.4.4,1.21,1.21,0,0,1-.62.15Z"/><rect class="cls-4" x="20.05" y="15.88" width="0.95" height="6.77"/><polygon class="cls-4" points="23.04 22.65 23.98 22.65 23.98 16.71 26.76 16.71 26.76 15.88 23.04 15.88 23.04 22.65"/><path class="cls-4" d="M27.28,22.65h1l.68-1.94h2.54l.69,1.94h1l-2.42-6.77h-1Zm1.89-2.73.76-2.14q0-.14.09-.3c0-.11.06-.21.08-.31s0-.19.07-.25,0-.1,0-.11h0l0,.11c0,.06,0,.14.06.25l.09.31q0,.16.09.3l.75,2.14Z"/><polygon class="cls-4" points="36 22.65 36.93 22.65 36.93 16.71 39.26 16.71 39.26 15.88 33.67 15.88 33.67 16.71 36 16.71 36 22.65"/><path class="cls-4" d="M40.13,19.22a3.91,3.91,0,0,0,.27,1.39,3.45,3.45,0,0,0,6.41,0,3.52,3.52,0,0,0,.27-1.39,3.4,3.4,0,0,0-.27-1.36A3.36,3.36,0,0,0,45,16a3.61,3.61,0,0,0-2.74,0,3.26,3.26,0,0,0-1.1.73,3.29,3.29,0,0,0-.74,1.09A3.79,3.79,0,0,0,40.13,19.22Zm1,0a2.61,2.61,0,0,1,.2-1,2.28,2.28,0,0,1,.53-.82,2.34,2.34,0,0,1,.8-.55,2.45,2.45,0,0,1,1.94,0,2.3,2.3,0,0,1,.79.55,2.44,2.44,0,0,1,.54.82,2.61,2.61,0,0,1,.19,1,2.85,2.85,0,0,1-.19,1.06,2.63,2.63,0,0,1-.54.84,2.35,2.35,0,0,1-.79.57,2.41,2.41,0,0,1-2.74-.57,2.45,2.45,0,0,1-.53-.84A2.86,2.86,0,0,1,41.11,19.22Z"/><path class="cls-4" d="M48.69,22.65h1v-2.5h1.53a2.19,2.19,0,0,0,1.1-.27,1.91,1.91,0,0,0,.74-.75A2.28,2.28,0,0,0,53.29,18,2.24,2.24,0,0,0,53,16.88a1.86,1.86,0,0,0-.74-.73,2.3,2.3,0,0,0-1.1-.27H48.69Zm1-3.32V16.71H51a1.52,1.52,0,0,1,.69.15,1.21,1.21,0,0,1,.45.45,1.46,1.46,0,0,1,.16.69,1.55,1.55,0,0,1-.16.71,1.08,1.08,0,0,1-.45.45,1.54,1.54,0,0,1-.7.17Z"/><path class="cls-4" d="M57,19.23a3.94,3.94,0,0,0,.25,1.39,3.17,3.17,0,0,0,.7,1.12,3.22,3.22,0,0,0,1.09.75,3.94,3.94,0,0,0,2.51.12,3.14,3.14,0,0,0,.87-.38,4.05,4.05,0,0,0,.67-.54L62.53,21a3.1,3.1,0,0,1-.61.47,3.82,3.82,0,0,1-.72.31,2.76,2.76,0,0,1-.75.1,2.57,2.57,0,0,1-1.06-.21,2.42,2.42,0,0,1-.79-.58,2.73,2.73,0,0,1-.5-.86,3.12,3.12,0,0,1-.17-1,3,3,0,0,1,.17-1,2.36,2.36,0,0,1,.49-.82,2.21,2.21,0,0,1,.79-.55,2.52,2.52,0,0,1,1-.21,2.48,2.48,0,0,1,.71.1,3.18,3.18,0,0,1,.67.25,2.68,2.68,0,0,1,.58.39l.47-.71a2.82,2.82,0,0,0-.73-.51,3.71,3.71,0,0,0-.85-.29,4.56,4.56,0,0,0-.89-.09A3.61,3.61,0,0,0,59,16a3.31,3.31,0,0,0-1.09.73,3.2,3.2,0,0,0-.71,1.1A3.63,3.63,0,0,0,57,19.23Z"/><path class="cls-4" d="M64.48,22.65H66.9a2.84,2.84,0,0,0,.84-.12,2,2,0,0,0,.7-.36,1.76,1.76,0,0,0,.47-.61,2,2,0,0,0,.18-.83A1.89,1.89,0,0,0,69,20a1.47,1.47,0,0,0-.38-.57,1.42,1.42,0,0,0-.61-.35v0a1.51,1.51,0,0,0,.62-.58,1.83,1.83,0,0,0,.23-.88,1.7,1.7,0,0,0-.26-.93,1.48,1.48,0,0,0-.69-.59,2.47,2.47,0,0,0-1-.21H64.48Zm1-3.92v-2h1.4a1.15,1.15,0,0,1,.55.12.88.88,0,0,1,.34.35,1.12,1.12,0,0,1,.12.53,1.15,1.15,0,0,1-.12.53.93.93,0,0,1-.35.36,1,1,0,0,1-.53.13Zm0,3.1V19.52H67a1.28,1.28,0,0,1,.61.14,1.08,1.08,0,0,1,.41.41,1.27,1.27,0,0,1,.14.6,1.31,1.31,0,0,1-.14.61.91.91,0,0,1-.4.4,1.21,1.21,0,0,1-.62.15Z"/><rect class="cls-4" x="70.7" y="15.88" width="0.95" height="6.77"/><polygon class="cls-4" points="75.27 22.65 76.21 22.65 76.21 16.71 78.54 16.71 78.54 15.88 72.94 15.88 72.94 16.71 75.27 16.71 75.27 22.65"/><path class="cls-4" d="M79.66,22.32a2.36,2.36,0,0,0,.58.32,1.78,1.78,0,0,0,.65.12,1.4,1.4,0,0,0,.56-.11,1.35,1.35,0,0,0,.43-.31,2.07,2.07,0,0,0,.32-.44,3.85,3.85,0,0,0,.24-.5l2.15-5.52h-1L82.34,19.3l-.14.41c0,.13-.08.24-.1.33l0,.14h0A.55.55,0,0,0,82,20a3.54,3.54,0,0,0-.14-.33,3.89,3.89,0,0,0-.19-.42L80,15.88H79l2.67,5.3a2.26,2.26,0,0,1-.19.41.87.87,0,0,1-.24.26.62.62,0,0,1-.34.09.85.85,0,0,1-.31-.06,2.1,2.1,0,0,1-.26-.13l-.2-.14Z"/><polygon class="cls-4" points="159.23 22.63 163.33 22.63 163.33 21.81 160.18 21.81 160.18 19.63 162.61 19.63 162.61 18.81 160.18 18.81 160.18 16.69 163.17 16.69 163.17 15.87 159.23 15.87 159.23 22.63"/><path class="cls-4" d="M164.11,21.84v.87a2.06,2.06,0,0,0,1.17-.41,2.49,2.49,0,0,0,.75-1,6.5,6.5,0,0,0,.4-1.62,17.65,17.65,0,0,0,.12-2.18v-.78h2.1v5.94h.94V15.87h-3.94v1.59a15.24,15.24,0,0,1-.15,2.33,3.72,3.72,0,0,1-.49,1.46,1.28,1.28,0,0,1-.9.59Z"/><polygon class="cls-4" points="171.63 22.63 175.73 22.63 175.73 21.81 172.57 21.81 172.57 19.63 175 19.63 175 18.81 172.57 18.81 172.57 16.69 175.56 16.69 175.56 15.87 171.63 15.87 171.63 22.63"/><polygon class="cls-4" points="177.27 22.63 178.22 22.63 178.22 19.54 179.23 19.54 181.03 22.63 182.11 22.63 180.02 19.1 180.02 19.08 181.99 15.87 180.95 15.87 179.23 18.71 178.22 18.71 178.22 15.87 177.27 15.87 177.27 22.63"/><polygon class="cls-4" points="184.98 22.63 185.92 22.63 185.92 16.69 188.25 16.69 188.25 15.87 182.65 15.87 182.65 16.69 184.98 16.69 184.98 22.63"/><path class="cls-4" d="M189.54,22.63h1v-2.5H192a2.16,2.16,0,0,0,1.1-.27,1.93,1.93,0,0,0,.75-.75,2.28,2.28,0,0,0,.27-1.13,2.24,2.24,0,0,0-.27-1.12,1.88,1.88,0,0,0-.75-.73,2.26,2.26,0,0,0-1.1-.26h-2.48Zm1-3.32V16.69h1.39a1.35,1.35,0,0,1,.69.16,1,1,0,0,1,.45.44,1.35,1.35,0,0,1,.16.69,1.43,1.43,0,0,1-.16.71,1.11,1.11,0,0,1-.45.46,1.54,1.54,0,0,1-.7.16Z"/><path class="cls-4" d="M195.15,19.2a4,4,0,0,0,.27,1.4,3.53,3.53,0,0,0,.74,1.12,3.47,3.47,0,0,0,1.1.75,3.49,3.49,0,0,0,2.74,0,3.4,3.4,0,0,0,1.83-1.87,3.6,3.6,0,0,0,.27-1.4,3.4,3.4,0,0,0-.27-1.36A3.36,3.36,0,0,0,200,16a3.61,3.61,0,0,0-2.74,0,3.26,3.26,0,0,0-1.1.73,3.29,3.29,0,0,0-.74,1.09A3.79,3.79,0,0,0,195.15,19.2Zm1,0a2.61,2.61,0,0,1,.2-1,2.28,2.28,0,0,1,.53-.82,2.34,2.34,0,0,1,.8-.55,2.45,2.45,0,0,1,1.94,0,2.3,2.3,0,0,1,.79.55,2.44,2.44,0,0,1,.54.82,2.61,2.61,0,0,1,.19,1,2.85,2.85,0,0,1-.19,1.06,2.63,2.63,0,0,1-.54.84,2.35,2.35,0,0,1-.79.57,2.41,2.41,0,0,1-2.74-.57,2.45,2.45,0,0,1-.53-.84A2.86,2.86,0,0,1,196.13,19.2Z"/><polygon class="cls-4" points="203.71 22.63 204.66 22.63 204.66 19.66 208.18 19.66 208.18 22.63 209.11 22.63 209.11 15.87 208.18 15.87 208.18 18.84 204.66 18.84 204.66 15.87 203.71 15.87 203.71 22.63"/><rect class="cls-4" x="211.14" y="15.87" width="0.95" height="6.76"/><polygon class="cls-4" points="214.13 22.63 215.08 22.63 215.08 19.54 216.08 19.54 217.89 22.63 218.97 22.63 216.87 19.1 216.87 19.08 218.84 15.87 217.8 15.87 216.08 18.71 215.08 18.71 215.08 15.87 214.13 15.87 214.13 22.63"/><path class="cls-4" d="M220.26,22.63h.93l3-4.39c.06-.09.13-.2.19-.31l.19-.32.13-.25a.67.67,0,0,0,.06-.11h0a.75.75,0,0,1,0,.11c0,.06,0,.14,0,.24s0,.21,0,.33,0,.21,0,.31v4.39h.94V15.87h-.93l-3,4.37-.19.31-.19.33-.14.26-.05.1h0a.82.82,0,0,1,0-.1c0-.06,0-.15,0-.25s0-.21,0-.32v-4.7h-.94Z"/></g></g></svg>