<svg xmlns="http://www.w3.org/2000/svg" width="30" height="16" viewBox="0 0 30 16">
  <metadata><?xpacket begin="﻿" id="W5M0MpCehiHzreSzNTczkc9d"?>
<x:xmpmeta xmlns:x="adobe:ns:meta/" x:xmptk="Adobe XMP Core 5.6-c138 79.159824, 2016/09/14-01:09:01        ">
   <rdf:RDF xmlns:rdf="http://www.w3.org/1999/02/22-rdf-syntax-ns#">
      <rdf:Description rdf:about=""/>
   </rdf:RDF>
</x:xmpmeta>
                                                                                                    
                                                                                                    
                                                                                                    
                                                                                                    
                                                                                                    
                                                                                                    
                                                                                                    
                                                                                                    
                                                                                                    
                                                                                                    
                                                                                                    
                                                                                                    
                                                                                                    
                                                                                                    
                                                                                                    
                                                                                                    
                                                                                                    
                                                                                                    
                                                                                                    
                                                                                                    
                           
<?xpacket end="w"?></metadata>
<defs>
    <style>
      .cls-1 {
        fill: #1973ff;
        fill-rule: evenodd;
      }
    </style>
  </defs>
  <path id="memory" class="cls-1" d="M356.528,1424H327.47a0.479,0.479,0,0,1-.472-0.48v-15.04a0.473,0.473,0,0,1,.472-0.48h29.058a0.473,0.473,0,0,1,.472.48v15.04A0.479,0.479,0,0,1,356.528,1424Zm-28.587-.96h28.116v-14.08H327.941v14.08Zm28.587-3.01H327.47a0.473,0.473,0,0,1-.472-0.48,0.479,0.479,0,0,1,.472-0.48h29.058a0.479,0.479,0,0,1,.472.48A0.473,0.473,0,0,1,356.528,1420.03ZM332.274,1424a0.479,0.479,0,0,1-.472-0.48v-3.97a0.472,0.472,0,1,1,.943,0v3.97A0.479,0.479,0,0,1,332.274,1424Zm4.862,0a0.479,0.479,0,0,1-.471-0.48v-3.97a0.472,0.472,0,1,1,.943,0v3.97A0.479,0.479,0,0,1,337.136,1424Zm4.863,0a0.479,0.479,0,0,1-.472-0.48v-3.97a0.472,0.472,0,1,1,.944,0v3.97A0.479,0.479,0,0,1,342,1424Zm4.863,0a0.479,0.479,0,0,1-.472-0.48v-3.97a0.472,0.472,0,1,1,.944,0v3.97A0.479,0.479,0,0,1,346.862,1424Zm4.863,0a0.479,0.479,0,0,1-.472-0.48v-3.97a0.472,0.472,0,1,1,.943,0v3.97A0.479,0.479,0,0,1,351.725,1424Zm-7.031-10.87H339.3a0.473,0.473,0,0,1-.472-0.48v-4.17a0.473,0.473,0,0,1,.472-0.48h5.39a0.473,0.473,0,0,1,.472.48v4.17A0.473,0.473,0,0,1,344.694,1413.13Zm-4.918-.96h4.446v-3.21h-4.446v3.21Z" transform="translate(-327 -1408)"/>
</svg>
