<svg xmlns="http://www.w3.org/2000/svg" width="30" height="20" viewBox="0 0 30 20">
  <metadata><?xpacket begin="﻿" id="W5M0MpCehiHzreSzNTczkc9d"?>
<x:xmpmeta xmlns:x="adobe:ns:meta/" x:xmptk="Adobe XMP Core 5.6-c138 79.159824, 2016/09/14-01:09:01        ">
   <rdf:RDF xmlns:rdf="http://www.w3.org/1999/02/22-rdf-syntax-ns#">
      <rdf:Description rdf:about=""/>
   </rdf:RDF>
</x:xmpmeta>
                                                                                                    
                                                                                                    
                                                                                                    
                                                                                                    
                                                                                                    
                                                                                                    
                                                                                                    
                                                                                                    
                                                                                                    
                                                                                                    
                                                                                                    
                                                                                                    
                                                                                                    
                                                                                                    
                                                                                                    
                                                                                                    
                                                                                                    
                                                                                                    
                                                                                                    
                                                                                                    
                           
<?xpacket end="w"?></metadata>
<defs>
    <style>
      .cls-1 {
        fill: #1973ff;
        fill-rule: evenodd;
      }
    </style>
  </defs>
  <path id="motherboard" class="cls-1" d="M337.455,1271.58h5.385a0.471,0.471,0,0,0,.472-0.47v-5.38a0.471,0.471,0,0,0-.472-0.47h-5.385a0.471,0.471,0,0,0-.472.47v5.38A0.471,0.471,0,0,0,337.455,1271.58Zm0.471-5.38h4.442v4.44h-4.442v-4.44Zm-4.482,0a0.47,0.47,0,1,0,0-.94h-0.01a0.467,0.467,0,0,0-.467.47A0.475,0.475,0,0,0,333.444,1266.2Zm0,5.38a0.47,0.47,0,1,0,0-.94h-0.01a0.467,0.467,0,0,0-.467.47A0.475,0.475,0,0,0,333.444,1271.58Zm13.463-5.38a0.47,0.47,0,1,0,0-.94H346.9a0.466,0.466,0,0,0-.467.47A0.475,0.475,0,0,0,346.907,1266.2Zm0,5.38a0.47,0.47,0,1,0,0-.94H346.9a0.466,0.466,0,0,0-.467.47A0.475,0.475,0,0,0,346.907,1271.58Zm5.358,0a0.47,0.47,0,0,0,.471-0.47v-5.38a0.472,0.472,0,0,0-.943,0v5.38A0.471,0.471,0,0,0,352.265,1271.58Zm4.263-10.58H327.469a0.47,0.47,0,0,0-.471.47v17.26a0.47,0.47,0,0,0,.471.47h2.558v1.32a0.471,0.471,0,0,0,.472.47h4.824a0.471,0.471,0,0,0,.472-0.47v-1.32h5v1.32a0.471,0.471,0,0,0,.472.47h4.824a0.47,0.47,0,0,0,.471-0.47v-1.32h3.1v1.32a0.472,0.472,0,0,0,.944,0v-1.32h5.923a0.471,0.471,0,0,0,.472-0.47v-17.26A0.471,0.471,0,0,0,356.528,1261Zm-21.676,19.05H330.97v-3.87h3.882v3.87Zm10.77,0h-3.881v-3.87h3.881v3.87Zm10.434-1.79h-5.451v-2.56a0.472,0.472,0,0,0-.944,0v2.56h-3.1v-2.56a0.47,0.47,0,0,0-.471-0.47H341.27a0.471,0.471,0,0,0-.472.47v2.56h-5v-2.56a0.471,0.471,0,0,0-.472-0.47H330.5a0.471,0.471,0,0,0-.472.47v2.56h-2.086v-16.32h28.115v16.32Z" transform="translate(-327 -1261)"/>
</svg>
