<svg xmlns="http://www.w3.org/2000/svg" viewBox="0 0 32 21"><defs><style>.cls-1{fill:#ef6406;}.cls-2{fill:#f79839;}.cls-3{fill:#fff;}</style></defs><title>Ресурс 1</title><g id="Шар_2" data-name="Шар 2"><g id="Слой_1" data-name="Слой 1"><path class="cls-1" d="M0,1H27.41A4.59,4.59,0,0,1,32,5.59V21a0,0,0,0,1,0,0H4.59A4.59,4.59,0,0,1,0,16.41V1A0,0,0,0,1,0,1Z"/><path class="cls-2" d="M0,0H27.41A4.59,4.59,0,0,1,32,4.59V20a0,0,0,0,1,0,0H4.59A4.59,4.59,0,0,1,0,15.41V0A0,0,0,0,1,0,0Z"/><path class="cls-3" d="M10.11,6.13v7.4a.56.56,0,0,1-.63.64H8.37A.65.65,0,0,1,8,14a1.2,1.2,0,0,1-.29-.4L5.55,9.35a7.35,7.35,0,0,1-.49-1.25H4.93A9.24,9.24,0,0,1,5,9.39v4.78H3.33V6.77A.57.57,0,0,1,4,6.13H5.05a.65.65,0,0,1,.42.12,1.2,1.2,0,0,1,.29.4l2,4.16q.29.58.58,1.29H8.5q-.07-.91-.07-1.35V6.13Z"/><path class="cls-3" d="M17.09,12.78l.08,1.31q-1.1.12-3.73.12a1.83,1.83,0,0,1-1.28-.44,1.56,1.56,0,0,1-.49-1.18V7.71a1.56,1.56,0,0,1,.49-1.18,1.83,1.83,0,0,1,1.28-.44q2.63,0,3.73.12l-.08,1.32H14a.55.55,0,0,0-.42.14.66.66,0,0,0-.13.45V9.34h3.2v1.28h-3.2v1.55a.68.68,0,0,0,.13.47.55.55,0,0,0,.42.14Z"/><path class="cls-3" d="M28.67,6.13,27.4,13.68a.59.59,0,0,1-.22.36.67.67,0,0,1-.42.13h-1.7a.65.65,0,0,1-.42-.14.56.56,0,0,1-.21-.36l-.87-5.26q-.09-.51-.14-1H23.2s0,.17-.05.43-.06.46-.09.59l-.86,5.24A.55.55,0,0,1,22,14a.67.67,0,0,1-.42.14h-1.7a.67.67,0,0,1-.41-.13.58.58,0,0,1-.23-.36L17.94,6.13h1.82l.78,5.58q.07.52.1,1.17h.23q0-.33.17-1.17l.86-5a.63.63,0,0,1,.2-.4.61.61,0,0,1,.42-.15h1.54a.6.6,0,0,1,.41.15.64.64,0,0,1,.2.4l.86,5q.14.86.16,1.15H26q0-.66.1-1.14l.79-5.61Z"/></g></g></svg>