<?xml version="1.0" encoding="utf-8"?>
<!-- Generator: Adobe Illustrator 21.1.0, SVG Export Plug-In . SVG Version: 6.00 Build 0)  -->
<svg version="1.1" id="Layer_1" xmlns="http://www.w3.org/2000/svg" xmlns:xlink="http://www.w3.org/1999/xlink" x="0px" y="0px"
	 viewBox="-37.8 141 500.8 512" style="enable-background:new -37.8 141 500.8 512;" xml:space="preserve">
<style type="text/css">
	.st0{fill:#FFFFFF;}
	.st1{opacity:0.15;fill:#2173FB;}
	.st2{fill:#10b1e8;}
</style>
<path class="st0" d="M212.6,653c-3.4,0-6.8-1-9.7-3.1l-233.7-167c-5.9-4.2-8.4-11.8-6.2-18.7c2.2-6.9,8.6-11.6,15.9-11.6h50.1v-295
	c0-9.2,7.5-16.7,16.7-16.7h333.9c9.2,0,16.7,7.5,16.7,16.7v295h50.1c7.3,0,13.7,4.7,15.9,11.6c2.2,6.9-0.3,14.5-6.2,18.7l-233.7,167
	C219.4,652,216,653,212.6,653z"/>
<path class="st1" d="M446.3,452.7h-50.1v-295c0-9.2-7.5-16.7-16.7-16.7h-167v512l0,0c3.4,0,6.8-1,9.7-3.1l233.7-167
	c5.9-4.2,8.4-11.8,6.2-18.7C460,457.3,453.6,452.7,446.3,452.7z"/>
<path class="st2" d="M145.8,296.8c-27.6,0-50.1-22.5-50.1-50.1s22.5-50.1,50.1-50.1s50.1,22.5,50.1,50.1S173.4,296.8,145.8,296.8z
	 M145.8,230c-9.2,0-16.7,7.5-16.7,16.7s7.5,16.7,16.7,16.7s16.7-7.5,16.7-16.7S155,230,145.8,230z"/>
<path class="st2" d="M279.3,430.4c-27.6,0-50.1-22.5-50.1-50.1s22.5-50.1,50.1-50.1s50.1,22.5,50.1,50.1S307,430.4,279.3,430.4z
	 M279.3,363.6c-9.2,0-16.7,7.5-16.7,16.7s7.5,16.7,16.7,16.7c9.2,0,16.7-7.5,16.7-16.7S288.6,363.6,279.3,363.6z"/>
<path class="st2" d="M141.7,401.1c-4.3,0-8.5-1.6-11.8-4.9c-6.5-6.5-6.5-17.1,0-23.6l141.7-141.7c6.5-6.5,17.1-6.5,23.6,0
	c6.5,6.5,6.5,17.1,0,23.6L153.5,396.2C150.3,399.4,146,401.1,141.7,401.1z"/>
<path class="st2" d="M271.6,230.9l-59,59v47.2l82.6-82.6c6.5-6.5,6.5-17.1,0-23.6C288.7,224.4,278.1,224.4,271.6,230.9z"/>
</svg>
