<svg xmlns="http://www.w3.org/2000/svg" viewBox="0 0 500.84 553"><defs><style>.cls-1{fill:#35bfeb;}.cls-2{opacity:0.1;isolation:isolate;}.cls-3{fill:#fff;}.cls-4{fill:#d1e7f8;}</style></defs><title>Ресурс 1</title><g id="Слой_2" data-name="Слой 2"><g id="Слой_1-2" data-name="Слой 1"><g id="Layer_2" data-name="Layer 2"><g id="Layer_1-2" data-name="Layer 1-2"><path class="cls-1" d="M250.42,553a16.69,16.69,0,0,1-9.71-3.11L7,382.93a16.7,16.7,0,0,1,9.71-30.28H66.76V16.7A16.7,16.7,0,0,1,83.46,0H417.37a16.7,16.7,0,0,1,16.7,16.7h0v336h50.08A16.7,16.7,0,0,1,493.86,383L260.12,550A16.68,16.68,0,0,1,250.42,553Z"/><path class="cls-2" d="M484.15,352.65H434.07V16.7A16.7,16.7,0,0,0,417.37,0h-167V553h0a16.68,16.68,0,0,0,9.7-3.11l233.74-167a16.7,16.7,0,0,0-9.71-30.28Z"/><path class="cls-3" d="M183.63,248.42a50.09,50.09,0,1,1,50.09-50.09h0A50.14,50.14,0,0,1,183.63,248.42Zm0-66.78a16.7,16.7,0,1,0,16.7,16.7h0A16.71,16.71,0,0,0,183.63,181.64Z"/><path class="cls-4" d="M317.2,382a50.09,50.09,0,1,1,50.09-50.09h0A50.14,50.14,0,0,1,317.2,382Zm0-66.78a16.7,16.7,0,1,0,16.69,16.71h0A16.72,16.72,0,0,0,317.2,315.2Z"/><path class="cls-3" d="M179.58,352.65a16.7,16.7,0,0,1-11.81-28.5L309.44,182.48a16.69,16.69,0,1,1,23.61,23.61L191.38,347.76A16.64,16.64,0,0,1,179.58,352.65Z"/><path class="cls-4" d="M309.44,182.48l-59,59V288.7l82.63-82.64a16.69,16.69,0,1,0-23.61-23.61Z"/></g></g></g></g></svg>