<svg xmlns="http://www.w3.org/2000/svg" viewBox="0 0 21 21"><defs><style>.cls-1{fill:#ca2032;}.cls-2{fill:#f15f5f;}.cls-3{fill:#fff;}</style></defs><title>Ресурс 1</title><g id="Шар_2" data-name="Шар 2"><g id="Слой_1" data-name="Слой 1"><path class="cls-1" d="M0,1H16a5,5,0,0,1,5,5V21a0,0,0,0,1,0,0H5a5,5,0,0,1-5-5V1A0,0,0,0,1,0,1Z"/><path class="cls-2" d="M0,0H16a5,5,0,0,1,5,5V20a0,0,0,0,1,0,0H5a5,5,0,0,1-5-5V0A0,0,0,0,1,0,0Z"/><path class="cls-3" d="M6.27,3.66a2.86,2.86,0,0,1,2.28.77A4.31,4.31,0,0,1,9.2,7.15a4.32,4.32,0,0,1-.65,2.72,2.84,2.84,0,0,1-2.28.77A2.82,2.82,0,0,1,4,9.87a4.32,4.32,0,0,1-.65-2.72A4.31,4.31,0,0,1,4,4.42,2.84,2.84,0,0,1,6.27,3.66Zm0,1.4a.84.84,0,0,0-.83.42,4.3,4.3,0,0,0-.21,1.68,4.29,4.29,0,0,0,.21,1.69.84.84,0,0,0,.83.41.88.88,0,0,0,.86-.41,4.29,4.29,0,0,0,.21-1.69,4.3,4.3,0,0,0-.21-1.69A.88.88,0,0,0,6.25,5.05ZM7.77,15.63H6.15L13.2,3.88h1.6Zm7-6.8A2.84,2.84,0,0,1,17,9.61a4.32,4.32,0,0,1,.65,2.72A4.35,4.35,0,0,1,17,15.06a2.84,2.84,0,0,1-2.28.78,2.79,2.79,0,0,1-2.26-.78,4.4,4.4,0,0,1-.64-2.73,4.36,4.36,0,0,1,.64-2.72A2.79,2.79,0,0,1,14.72,8.83Zm.84,1.82a.86.86,0,0,0-.84-.41.87.87,0,0,0-.84.4,4.1,4.1,0,0,0-.2,1.68,4.17,4.17,0,0,0,.2,1.69.86.86,0,0,0,.84.41.86.86,0,0,0,.84-.41,4.29,4.29,0,0,0,.21-1.69A4.23,4.23,0,0,0,15.56,10.66Z"/></g></g></svg>