<svg xmlns="http://www.w3.org/2000/svg" width="30" height="19" viewBox="0 0 30 19">
  <metadata><?xpacket begin="﻿" id="W5M0MpCehiHzreSzNTczkc9d"?>
<x:xmpmeta xmlns:x="adobe:ns:meta/" x:xmptk="Adobe XMP Core 5.6-c138 79.159824, 2016/09/14-01:09:01        ">
   <rdf:RDF xmlns:rdf="http://www.w3.org/1999/02/22-rdf-syntax-ns#">
      <rdf:Description rdf:about=""/>
   </rdf:RDF>
</x:xmpmeta>
                                                                                                    
                                                                                                    
                                                                                                    
                                                                                                    
                                                                                                    
                                                                                                    
                                                                                                    
                                                                                                    
                                                                                                    
                                                                                                    
                                                                                                    
                                                                                                    
                                                                                                    
                                                                                                    
                                                                                                    
                                                                                                    
                                                                                                    
                                                                                                    
                                                                                                    
                                                                                                    
                           
<?xpacket end="w"?></metadata>
<defs>
    <style>
      .cls-1 {
        fill: #428cff;
        fill-rule: evenodd;
      }
    </style>
  </defs>
  <path id="_power_adapter" data-name="	power adapter" class="cls-1" d="M830.527,1258H801.468a0.469,0.469,0,0,0-.472.46v18.08a0.46,0.46,0,0,0,.472.45h29.059a0.46,0.46,0,0,0,.472-0.45v-18.08A0.469,0.469,0,0,0,830.527,1258Zm-0.472,18.08H801.94v-17.16h28.115v17.16Zm-18.7-1.85a6.733,6.733,0,1,0-6.925-6.73A6.838,6.838,0,0,0,811.351,1274.23Zm-3.9-2.33,1.5-1.46a3.928,3.928,0,0,0,4.725.04l1.509,1.47A6.1,6.1,0,0,1,807.454,1271.9Zm0.981-4.4a2.738,2.738,0,0,1,.521-1.61l1.675,1.62-1.661,1.62A2.771,2.771,0,0,1,808.435,1267.5Zm5.833,0a2.794,2.794,0,0,1-.58,1.69l-1.722-1.68,1.736-1.68A2.753,2.753,0,0,1,814.268,1267.5Zm-1.257,2.33a3.021,3.021,0,0,1-1.66.5,2.912,2.912,0,0,1-1.719-.55l1.667-1.62Zm-1.712-2.97-1.686-1.63a2.907,2.907,0,0,1,1.738-.57,3,3,0,0,1,1.678.52Zm6.034,0.64a5.689,5.689,0,0,1-1.469,3.8l-1.5-1.46a3.652,3.652,0,0,0,.014-4.67l1.5-1.46A5.694,5.694,0,0,1,817.333,1267.5Zm-2.123-4.44-1.508,1.47a3.893,3.893,0,0,0-2.351-.78,3.939,3.939,0,0,0-2.411.82l-1.5-1.46A6.112,6.112,0,0,1,815.21,1263.06Zm-8.437.7,1.51,1.47a3.642,3.642,0,0,0,.014,4.55l-1.508,1.47A5.675,5.675,0,0,1,806.773,1263.76Zm18.487,2,0.5-.02v-3.8l-0.024-.48h-3.9l-0.5.03v3.79l0.024,0.48h3.9Zm-2.98-3.38h2.532v2.46H822.28v-2.46Z" transform="translate(-801 -1258)"/>
</svg>
