<svg xmlns="http://www.w3.org/2000/svg" width="30" height="30" viewBox="0 0 30 30">
  <metadata><?xpacket begin="﻿" id="W5M0MpCehiHzreSzNTczkc9d"?>
<x:xmpmeta xmlns:x="adobe:ns:meta/" x:xmptk="Adobe XMP Core 5.6-c138 79.159824, 2016/09/14-01:09:01        ">
   <rdf:RDF xmlns:rdf="http://www.w3.org/1999/02/22-rdf-syntax-ns#">
      <rdf:Description rdf:about=""/>
   </rdf:RDF>
</x:xmpmeta>
                                                                                                    
                                                                                                    
                                                                                                    
                                                                                                    
                                                                                                    
                                                                                                    
                                                                                                    
                                                                                                    
                                                                                                    
                                                                                                    
                                                                                                    
                                                                                                    
                                                                                                    
                                                                                                    
                                                                                                    
                                                                                                    
                                                                                                    
                                                                                                    
                                                                                                    
                                                                                                    
                           
<?xpacket end="w"?></metadata>
<defs>
    <style>
      .cls-1 {
        fill: #10b1e8;
        fill-rule: evenodd;
      }
    </style>
  </defs>
  <path id="processor" class="cls-1" d="M347.428,1116.1H336.571a0.471,0.471,0,0,0-.472.47v10.85a0.479,0.479,0,0,0,.472.48h10.857a0.479,0.479,0,0,0,.472-0.48v-10.85A0.471,0.471,0,0,0,347.428,1116.1Zm-0.472,10.85h-9.913v-9.91h9.913v9.91Zm9.573-4.48a0.47,0.47,0,1,0,0-.94h-3.36v-4.81h3.36a0.47,0.47,0,1,0,0-.94h-3.36v-4.48a0.471,0.471,0,0,0-.472-0.47h-4.478v-3.36a0.472,0.472,0,0,0-.943,0v3.36h-4.805v-3.36a0.472,0.472,0,0,0-.943,0v3.36h-4.805v-3.36a0.472,0.472,0,0,0-.943,0v3.36H331.3a0.471,0.471,0,0,0-.472.47v4.48h-3.36a0.47,0.47,0,1,0,0,.94h3.36v4.81h-3.36a0.47,0.47,0,1,0,0,.94h3.36v4.8h-3.36a0.47,0.47,0,1,0,0,.94h3.36v4.48a0.471,0.471,0,0,0,.472.47h4.478v3.36a0.472,0.472,0,0,0,.943,0v-3.36h4.805v3.36a0.472,0.472,0,0,0,.943,0v-3.36h4.805v3.36a0.472,0.472,0,0,0,.943,0v-3.36H352.7a0.471,0.471,0,0,0,.472-0.47v-4.48h3.36a0.47,0.47,0,1,0,0-.94h-3.36v-4.8h3.36Zm-4.3,9.75H331.774v-20.44h20.451v20.44Z" transform="translate(-327 -1107)"/>
</svg>
