<svg xmlns="http://www.w3.org/2000/svg" xmlns:xlink="http://www.w3.org/1999/xlink" viewBox="0 0 46 21"><defs><style>.cls-1{fill:none;}.cls-2{isolation:isolate;}.cls-3{clip-path:url(#clip-path);}.cls-4{fill:#35bfeb;}.cls-5{mix-blend-mode:multiply;}.cls-6{clip-path:url(#clip-path-3);}.cls-7{fill:#fff;}</style><clipPath id="clip-path"><rect class="cls-1" width="46" height="21"/></clipPath><clipPath id="clip-path-3"><rect class="cls-1" y="1" width="46" height="20"/></clipPath></defs><title>Ресурс 1</title><g class="cls-2"><g id="Слой_2" data-name="Слой 2"><g id="Слой_1-2" data-name="Слой 1"><g class="cls-3"><g class="cls-3"><path class="cls-4" d="M46,21H5a5,5,0,0,1-5-5V1H41a5,5,0,0,1,5,5Z"/><g class="cls-5"><g class="cls-6"><path class="cls-4" d="M46,21H5a5,5,0,0,1-5-5V1H41a5,5,0,0,1,5,5Z"/></g></g><path class="cls-4" d="M46,20H5a5,5,0,0,1-5-5V0H41a5,5,0,0,1,5,5Z"/><polygon class="cls-7" points="7.92 9.86 7.84 9.86 6.32 12.55 4.35 12.55 6.32 9.27 4.49 6.15 6.45 6.15 7.82 8.62 7.95 8.62 9.31 6.15 11.28 6.15 9.44 9.27 11.42 12.55 9.44 12.55 7.92 9.86"/><polygon class="cls-7" points="17.94 9.86 17.87 9.86 16.34 12.55 14.37 12.55 16.34 9.27 14.51 6.15 16.48 6.15 17.84 8.62 17.97 8.62 19.34 6.15 21.3 6.15 19.46 9.27 21.44 12.55 19.46 12.55 17.94 9.86"/><polygon class="cls-7" points="27.97 9.86 27.89 9.86 26.37 12.55 24.39 12.55 26.37 9.27 24.54 6.15 26.5 6.15 27.86 8.62 27.99 8.62 29.36 6.15 31.32 6.15 29.49 9.27 31.46 12.55 29.49 12.55 27.97 9.86"/><polygon class="cls-7" points="37.99 9.86 37.91 9.86 36.39 12.55 34.41 12.55 36.39 9.27 34.56 6.15 36.52 6.15 37.89 8.62 38.02 8.62 39.38 6.15 41.34 6.15 39.51 9.27 41.49 12.55 39.51 12.55 37.99 9.86"/><rect class="cls-7" x="4.22" y="13.2" width="7.27" height="0.65"/><rect class="cls-7" x="14.24" y="13.2" width="7.27" height="0.65"/><rect class="cls-7" x="24.26" y="13.2" width="7.27" height="0.65"/><rect class="cls-7" x="34.28" y="13.2" width="7.27" height="0.65"/></g></g></g></g></g></svg>