<svg xmlns="http://www.w3.org/2000/svg" viewBox="0 0 639.32 84.85"><defs><style>.cls-1{fill:#0b334e;}.cls-2{fill:#cecece;}.cls-3{fill:#fff;}.cls-4{fill:#70bd42;}</style></defs><title>Ресурс 1</title><g id="Слой_2" data-name="Слой 2"><g id="Слой_1-2" data-name="Слой 1"><g id="Layer_2" data-name="Layer 2"><g id="Layer_1_copy" data-name="Layer 1 copy"><path class="cls-1" d="M5.59,81.45l.11.79a9.44,9.44,0,0,1-2.43.28,3,3,0,0,1-2.52-1A5.65,5.65,0,0,1,0,78.23a5.64,5.64,0,0,1,.73-3.32,3,3,0,0,1,2.52-1,9.49,9.49,0,0,1,2.26.24L5.42,75c-.72-.07-1.44-.11-2.15-.11a1.83,1.83,0,0,0-1.67.73,5.23,5.23,0,0,0-.46,2.62,5.2,5.2,0,0,0,.46,2.62,1.81,1.81,0,0,0,1.67.73A16.65,16.65,0,0,0,5.59,81.45Z"/><path class="cls-1" d="M9.75,79.31h0a2,2,0,0,1,.58.11,1.28,1.28,0,0,1,.47.28q.21.21.36.39a3.87,3.87,0,0,1,.33.59c.13.28.23.52.31.72s.19.51.35.93H11.08l-.28-.74L10.55,81a2.64,2.64,0,0,0-.26-.5c-.06-.09-.15-.2-.26-.34a.79.79,0,0,0-.31-.28l-.35-.13a1.35,1.35,0,0,0-.46-.07H8c0,.26.05.45.05.57v2.07h-1v-5.8h1v1.74a4.06,4.06,0,0,1-.06.67h.81a1.74,1.74,0,0,0,.72-.14,1.54,1.54,0,0,0,.55-.51,5.29,5.29,0,0,0,.4-.72c.1-.23.24-.58.41-1H12c-.09.26-.16.45-.21.56s-.1.26-.19.47a3.36,3.36,0,0,1-.2.44l-.19.35a1.92,1.92,0,0,1-.21.33l-.24.23a1,1,0,0,1-.29.2,1.25,1.25,0,0,1-.31.12A1.59,1.59,0,0,1,9.75,79.31Z"/><path class="cls-1" d="M15.94,76.38a2.78,2.78,0,0,1,2.13.7,4.86,4.86,0,0,1,0,4.75,2.74,2.74,0,0,1-2.13.7,2.73,2.73,0,0,1-2.13-.7,4.79,4.79,0,0,1,0-4.75A2.77,2.77,0,0,1,15.94,76.38Zm0,.87a1.58,1.58,0,0,0-1.33.47,4.38,4.38,0,0,0,0,3.48,1.61,1.61,0,0,0,1.33.46,1.58,1.58,0,0,0,1.32-.46,4.38,4.38,0,0,0,0-3.48A1.56,1.56,0,0,0,15.94,77.25Z"/><path class="cls-1" d="M25.32,76.53v5.84h-1v-5h-3v5h-1V76.53Z"/><path class="cls-1" d="M27.54,74H28c.2,0,.3.11.3.32V75c0,.21-.1.31-.3.31h-.48a.28.28,0,0,1-.32-.31v-.68a.29.29,0,0,1,.26-.32Zm.74,8.33h-1v-5.8h1Z"/><path class="cls-1" d="M31.24,79h1.5a3,3,0,0,1,.66-2,2.81,2.81,0,0,1,2-.56,2.88,2.88,0,0,1,2.16.66,5,5,0,0,1,0,4.79,2.92,2.92,0,0,1-2.16.65,2.78,2.78,0,0,1-2-.59,3.24,3.24,0,0,1-.63-2.13h-1.5v2.61h-1v-5.9h1Zm4.12,2.66a1.62,1.62,0,0,0,1.34-.47,4,4,0,0,0,0-3.44,1.62,1.62,0,0,0-1.34-.46,1.55,1.55,0,0,0-1.3.46,4.52,4.52,0,0,0,0,3.44,1.55,1.55,0,0,0,1.3.43Z"/><path class="cls-1" d="M44.9,82.37H44v-4.3a3.22,3.22,0,0,0,0-.35h0a3.41,3.41,0,0,1-.41.68l-3,4h-.84V76.53h.93V80.4a7.28,7.28,0,0,1,0,.78h0a2.94,2.94,0,0,1,.42-.67l3-4H45Zm-1.6-8.43h.78a1.37,1.37,0,0,1-.44,1.17,1.89,1.89,0,0,1-1.34.47,2,2,0,0,1-1.37-.47,1.4,1.4,0,0,1-.45-1.17h.78a1.08,1.08,0,0,0,.27.79,1.13,1.13,0,0,0,1.51,0A1.08,1.08,0,0,0,43.3,73.94Z"/><path class="cls-1" d="M51.43,77.37H49.32v5h-1v-5H46.17v-.84h5.26Z"/><path class="cls-1" d="M56.12,80H53.4a1.94,1.94,0,0,0,.49,1.35,2,2,0,0,0,1.34.35,15.78,15.78,0,0,0,2-.14l.1.68a6,6,0,0,1-2.27.33,2.79,2.79,0,0,1-2.15-.71,3.54,3.54,0,0,1-.63-2.38,3.47,3.47,0,0,1,.62-2.37,2.69,2.69,0,0,1,2-.68,3.06,3.06,0,0,1,1.91.48,1.73,1.73,0,0,1,.61,1.43C57.51,79.4,57,80,56.12,80Zm-2.74-.79h2.48c.43,0,.64-.29.62-.87a1,1,0,0,0-.32-.8A2,2,0,0,0,55,77.25a1.61,1.61,0,0,0-1.28.41,2.36,2.36,0,0,0-.36,1.5Z"/><path class="cls-1" d="M64.42,79.31h0a2,2,0,0,1,.58.11,1.28,1.28,0,0,1,.47.28q.21.21.36.39a3.16,3.16,0,0,1,.33.59c.13.28.23.52.31.72s.19.51.35.93H65.76c-.14-.35-.24-.6-.29-.74L65.22,81a2.64,2.64,0,0,0-.26-.5l-.25-.34a.88.88,0,0,0-.32-.28L64,79.8a1.35,1.35,0,0,0-.46-.07h-.84v2.64h-1V76.53h1v1.74a4.06,4.06,0,0,1-.06.67h.81a1.74,1.74,0,0,0,.72-.14,1.46,1.46,0,0,0,.55-.51,5.29,5.29,0,0,0,.4-.72c.11-.23.24-.58.41-1h1.06l-.21.56c-.05.1-.11.26-.2.47L66,78c0,.09-.12.2-.2.35a1.92,1.92,0,0,1-.21.33l-.24.23a1.13,1.13,0,0,1-.28.2,1.52,1.52,0,0,1-.32.12A1.59,1.59,0,0,1,64.42,79.31Z"/><path class="cls-1" d="M70.62,76.38a2.76,2.76,0,0,1,2.12.7,4.86,4.86,0,0,1,0,4.75,2.72,2.72,0,0,1-2.12.7,2.75,2.75,0,0,1-2.14-.7,4.86,4.86,0,0,1,0-4.75A2.79,2.79,0,0,1,70.62,76.38Zm0,.87a1.59,1.59,0,0,0-1.34.47,4.38,4.38,0,0,0,0,3.48,1.62,1.62,0,0,0,1.34.46,1.58,1.58,0,0,0,1.32-.46,4.38,4.38,0,0,0,0-3.48A1.56,1.56,0,0,0,70.62,77.25Z"/><path class="cls-1" d="M80.47,81.56V84.1H79.8l-.09-1.73H75l-.09,1.73h-.66V81.56h.67a9.81,9.81,0,0,0,.88-3.69,1.31,1.31,0,0,1,1.27-1.35H79.7v5Zm-1.78,0V77.33H77.43a.67.67,0,0,0-.73.71,8.68,8.68,0,0,1-.88,3.52Z"/><path class="cls-1" d="M89.64,76.53v5.84h-1V79.66H85.56v2.71h-1V76.53h1v2.35h3.07V76.53Z"/><path class="cls-1" d="M91.57,77.4l-.1-.75a17.68,17.68,0,0,1,2.83-.27,2.27,2.27,0,0,1,1.51.43,1.86,1.86,0,0,1,.48,1.45v4.11h-.8l-.12-1a3.81,3.81,0,0,1-1,.75,3,3,0,0,1-1.36.32A1.78,1.78,0,0,1,91.74,82a1.5,1.5,0,0,1-.47-1.2v-.64a1.36,1.36,0,0,1,.42-1.06,1.78,1.78,0,0,1,1.2-.38h2.44v-.51a1,1,0,0,0-.27-.78,1.34,1.34,0,0,0-.92-.23Q93.24,77.25,91.57,77.4Zm.68,3v.37a.9.9,0,0,0,.22.66,1,1,0,0,0,.69.21,2.72,2.72,0,0,0,1-.21,3.65,3.65,0,0,0,1.07-.66V79.55H93a.72.72,0,0,0-.77.81Z"/><path class="cls-1" d="M100.6,77.39l-.07-.78a7.81,7.81,0,0,1,1.8-.18,4.67,4.67,0,0,1,2.06.32A1.29,1.29,0,0,1,105,78a1.42,1.42,0,0,1-.28,1,1.34,1.34,0,0,1-1,.39h0a1.6,1.6,0,0,1,1.1.44,1.57,1.57,0,0,1,.34,1.11,1.29,1.29,0,0,1-.56,1.23,4.27,4.27,0,0,1-1.94.32,13.21,13.21,0,0,1-2.33-.18l.08-.78c.72.06,1.45.1,2.17.1a2.69,2.69,0,0,0,1.21-.19.75.75,0,0,0,.32-.71.82.82,0,0,0-.33-.75,2.52,2.52,0,0,0-1.18-.2h-1.4V79h1.4a2.16,2.16,0,0,0,1.06-.18.79.79,0,0,0,.28-.71.67.67,0,0,0-.33-.66,3.32,3.32,0,0,0-1.28-.16A14.2,14.2,0,0,0,100.6,77.39Z"/><path class="cls-1" d="M111.87,76.53v5.84h-1V79.66H107.8v2.71h-1V76.53h1v2.35h3.07V76.53Z"/><path class="cls-1" d="M118.9,82.37H118V78.5a3.82,3.82,0,0,1,0-.43v-.35h0a3,3,0,0,1-.41.68l-3,4h-.84V76.53h.92V80.4a7.28,7.28,0,0,1,0,.78h0a3.85,3.85,0,0,1,.42-.67l3-4h.83Z"/><path class="cls-1" d="M126.62,79.31h0a2.13,2.13,0,0,1,.55.12,1.12,1.12,0,0,1,.45.29,5,5,0,0,1,.34.38,2.92,2.92,0,0,1,.33.6l.29.71c.07.18.18.49.34.93h-1a16.55,16.55,0,0,0-.88-2,1.33,1.33,0,0,0-1.09-.67H125v2.65h-.9v-2.6h-.9a1.18,1.18,0,0,0-1,.49,10.73,10.73,0,0,0-.9,1.86,1.54,1.54,0,0,1-.12.3h-1c.16-.44.27-.75.34-.93s.17-.41.3-.71a2.56,2.56,0,0,1,.32-.6,5,5,0,0,1,.34-.38,1.12,1.12,0,0,1,.45-.29,2.22,2.22,0,0,1,.55-.12h0a1.53,1.53,0,0,1-.94-.44,2.44,2.44,0,0,1-.56-.75c-.12-.25-.31-.74-.57-1.45l-.06-.14h1c.15.38.26.66.34.84s.18.4.31.65a2.44,2.44,0,0,0,.34.53,1.62,1.62,0,0,0,.39.28,1.15,1.15,0,0,0,.53.12h.85a4.4,4.4,0,0,1,0-.68V76.53h.9v1.74a4.4,4.4,0,0,1,0,.68h.79a1.19,1.19,0,0,0,1-.53,10.2,10.2,0,0,0,.88-1.89h1c-.16.45-.28.76-.36,1a7,7,0,0,1-.31.71,2.15,2.15,0,0,1-.38.6,1.88,1.88,0,0,1-.46.33A1.55,1.55,0,0,1,126.62,79.31Z"/><path class="cls-1" d="M133,79.31h0a2,2,0,0,1,.58.11,1.28,1.28,0,0,1,.47.28q.21.21.36.39a3.16,3.16,0,0,1,.33.59c.13.28.23.52.31.72s.19.51.35.93h-1.06c-.14-.35-.24-.6-.29-.74l-.25-.58a2.64,2.64,0,0,0-.26-.5l-.25-.34a.88.88,0,0,0-.32-.28l-.35-.13a1.35,1.35,0,0,0-.46-.07h-.86c0,.26.05.45.05.57v2.07h-1v-5.8h1v1.74a4.06,4.06,0,0,1-.06.67H132a1.74,1.74,0,0,0,.72-.14,1.46,1.46,0,0,0,.55-.51,5.29,5.29,0,0,0,.4-.72c.11-.23.24-.58.41-1h1.06l-.21.56c-.05.1-.11.26-.2.47l-.19.44c0,.09-.12.2-.2.35a1.92,1.92,0,0,1-.21.33l-.24.23a1.13,1.13,0,0,1-.28.2,1.52,1.52,0,0,1-.32.12A1.59,1.59,0,0,1,133,79.31Z"/><path class="cls-1" d="M141.89,76.53l-2.32,6.17a3.82,3.82,0,0,1-1.11,1.7,2.88,2.88,0,0,1-2.17.38l.1-.7a2.28,2.28,0,0,0,1.4-.27,2.53,2.53,0,0,0,.82-1.19l.1-.25h-.22a.38.38,0,0,1-.38-.26L136,76.53h1.09l1.55,4.35c.09.27.16.5.22.71H139c.05-.16.13-.39.24-.71l1.53-4.35Z"/><path class="cls-1" d="M179.09,81.51v2.67h-.73l-.1-1.81h-6l-.11,1.81h-.73V81.51h.8a16.05,16.05,0,0,0,1.22-5.87,1.53,1.53,0,0,1,.46-1.14,1.75,1.75,0,0,1,1.22-.41h3v7.42Zm-2.08,0V75h-1.7a.88.88,0,0,0-.64.19.93.93,0,0,0-.23.65,23.17,23.17,0,0,1-.37,3.22,9.47,9.47,0,0,1-.83,2.49Z"/><path class="cls-1" d="M182.9,76.38a2.78,2.78,0,0,1,2.13.7,4.86,4.86,0,0,1,0,4.75,3.59,3.59,0,0,1-4.26,0,4.79,4.79,0,0,1,0-4.75A2.77,2.77,0,0,1,182.9,76.38Zm0,.87a1.58,1.58,0,0,0-1.33.47,4.38,4.38,0,0,0,0,3.48,1.61,1.61,0,0,0,1.33.46,1.58,1.58,0,0,0,1.32-.46,4.38,4.38,0,0,0,0-3.48A1.56,1.56,0,0,0,182.9,77.25Z"/><path class="cls-1" d="M192.76,81.56V84.1h-.68L192,82.37h-4.73l-.09,1.73h-.66V81.56h.67a9.63,9.63,0,0,0,.87-3.69,1.31,1.31,0,0,1,1.27-1.35H192v5Zm-1.78,0V77.33h-1.26a.67.67,0,0,0-.7.64s0,0,0,0a8.84,8.84,0,0,1-.88,3.52Z"/><path class="cls-1" d="M194.2,77.4l-.1-.75a17.68,17.68,0,0,1,2.83-.27,2.29,2.29,0,0,1,1.51.43,1.86,1.86,0,0,1,.48,1.45v4.11h-.8l-.12-1a3.81,3.81,0,0,1-1,.75,3,3,0,0,1-1.36.32,1.78,1.78,0,0,1-1.27-.43,1.5,1.5,0,0,1-.47-1.2v-.64a1.36,1.36,0,0,1,.42-1.06,1.78,1.78,0,0,1,1.2-.38H198v-.51a1,1,0,0,0-.26-.78,1.34,1.34,0,0,0-.92-.23Q195.87,77.25,194.2,77.4Zm.68,3v.37a.86.86,0,0,0,.22.66,1,1,0,0,0,.69.21,2.72,2.72,0,0,0,1-.21,3.48,3.48,0,0,0,1.06-.66V79.55H195.6a.72.72,0,0,0-.72.81Z"/><path class="cls-1" d="M205.92,82.37H205v-4.3a3.22,3.22,0,0,0,0-.35h0a3.41,3.41,0,0,1-.41.68l-3,4h-.83V76.53h.92V80.4a7.28,7.28,0,0,1,0,.78h0a2.94,2.94,0,0,1,.42-.67l3-4H206Zm-1.6-8.43h.78a1.37,1.37,0,0,1-.44,1.17,2.17,2.17,0,0,1-2.7,0,1.38,1.38,0,0,1-.46-1.17h.79a1.08,1.08,0,0,0,.26.79,1.13,1.13,0,0,0,1.51,0,1.08,1.08,0,0,0,.26-.79Z"/><path class="cls-1" d="M212.45,77.37h-2.11v5h-1v-5h-2.13v-.84h5.26Z"/><path class="cls-1" d="M217.14,80h-2.72a1.94,1.94,0,0,0,.49,1.35,2,2,0,0,0,1.34.35,15.78,15.78,0,0,0,2-.14l.1.68a6,6,0,0,1-2.27.33,2.79,2.79,0,0,1-2.15-.71,3.54,3.54,0,0,1-.63-2.38,3.47,3.47,0,0,1,.62-2.37,2.69,2.69,0,0,1,2.05-.68,3.06,3.06,0,0,1,1.91.48,1.73,1.73,0,0,1,.61,1.43C218.53,79.4,218.07,80,217.14,80Zm-2.74-.79h2.48c.43,0,.64-.29.62-.87a1,1,0,0,0-.32-.8,2,2,0,0,0-1.12-.24,1.61,1.61,0,0,0-1.28.41,2.36,2.36,0,0,0-.38,1.45Z"/><path class="cls-1" d="M227.39,77.37h-2.11v5h-1v-5h-2.13v-.84h5.26Z"/><path class="cls-1" d="M231,76.38a2.76,2.76,0,0,1,2.12.7,4.86,4.86,0,0,1,0,4.75,2.72,2.72,0,0,1-2.12.7,2.75,2.75,0,0,1-2.14-.7,4.86,4.86,0,0,1,0-4.75A2.79,2.79,0,0,1,231,76.38Zm0,.87a1.59,1.59,0,0,0-1.34.47,4.38,4.38,0,0,0,0,3.48,1.62,1.62,0,0,0,1.34.46,1.58,1.58,0,0,0,1.32-.46,4.38,4.38,0,0,0,0-3.48A1.56,1.56,0,0,0,231,77.25Z"/><path class="cls-1" d="M239,79.35h0a1.36,1.36,0,0,1,1.47,1.55,1.29,1.29,0,0,1-.53,1.2,3.6,3.6,0,0,1-1.81.33,26.09,26.09,0,0,1-2.71-.08V76.54c.59-.05,1.38-.07,2.38-.07a4.13,4.13,0,0,1,1.93.32,1.35,1.35,0,0,1,.53,1.24,1.37,1.37,0,0,1-.3,1A1.42,1.42,0,0,1,239,79.35ZM236.36,79h1.54a2.12,2.12,0,0,0,1.07-.19.75.75,0,0,0,.3-.7.67.67,0,0,0-.33-.66,2.76,2.76,0,0,0-1.2-.18h-1.38Zm0,.73v1.91H238a2.43,2.43,0,0,0,1.15-.19.8.8,0,0,0,.31-.74.85.85,0,0,0-.33-.77,2.27,2.27,0,0,0-1.19-.22Z"/><path class="cls-1" d="M242.09,77.4l-.1-.75a17.68,17.68,0,0,1,2.83-.27,2.27,2.27,0,0,1,1.51.43,1.86,1.86,0,0,1,.49,1.45v4.11H246l-.12-1a3.81,3.81,0,0,1-1.05.75,3,3,0,0,1-1.36.32,1.78,1.78,0,0,1-1.27-.43,1.54,1.54,0,0,1-.47-1.2v-.64a1.33,1.33,0,0,1,.43-1.06,1.73,1.73,0,0,1,1.19-.38h2.44v-.51a1,1,0,0,0-.27-.78,1.34,1.34,0,0,0-.92-.23Q243.76,77.25,242.09,77.4Zm.68,3v.37a.9.9,0,0,0,.22.66,1,1,0,0,0,.69.21,2.68,2.68,0,0,0,1.05-.21,3.65,3.65,0,0,0,1.07-.66V79.55h-2.26a.72.72,0,0,0-.77.81Z"/><path class="cls-1" d="M249.52,76.53l.08.93a3.6,3.6,0,0,1,1.13-.79,3.25,3.25,0,0,1,1.29-.29,1.68,1.68,0,0,1,1.54.77,4.48,4.48,0,0,1,.48,2.33,4,4,0,0,1-.53,2.35,2,2,0,0,1-1.68.69,4.09,4.09,0,0,1-2.16-.6,10.55,10.55,0,0,1,0,1.17v1.69h-1V76.53Zm.18,1.64v3.1a7.21,7.21,0,0,0,1.87.36,1.24,1.24,0,0,0,1.1-.45,3.17,3.17,0,0,0,.31-1.7,3.56,3.56,0,0,0-.29-1.72,1.08,1.08,0,0,0-1-.49A3.63,3.63,0,0,0,249.7,78.17Z"/><path class="cls-1" d="M263.53,76.53,261.2,82.7a3.82,3.82,0,0,1-1.1,1.7,2.89,2.89,0,0,1-2.17.38l.09-.7a2.32,2.32,0,0,0,1.41-.27,2.45,2.45,0,0,0,.81-1.19l.11-.25h-.23a.37.37,0,0,1-.37-.26l-2.11-5.58h1.09l1.55,4.35c.09.27.16.5.22.71h.16c.06-.16.14-.39.24-.71l1.54-4.35Z"/><path class="cls-1" d="M270.08,79.31h0a2,2,0,0,1,.58.11,1.28,1.28,0,0,1,.47.28q.21.21.36.39a3.16,3.16,0,0,1,.33.59c.13.28.23.52.31.72s.19.51.35.93h-1.06c-.14-.35-.24-.6-.29-.74l-.25-.58a2.64,2.64,0,0,0-.26-.5l-.25-.34a.88.88,0,0,0-.32-.28l-.35-.13a1.35,1.35,0,0,0-.46-.07h-.86c0,.26,0,.45,0,.57v2.07h-1v-5.8h1v1.74a4.06,4.06,0,0,1-.06.67h.81a1.74,1.74,0,0,0,.72-.14,1.46,1.46,0,0,0,.55-.51,5.29,5.29,0,0,0,.4-.72c.11-.23.24-.58.41-1h1.06l-.21.56a2.11,2.11,0,0,1-.2.47l-.19.44c0,.09-.12.2-.2.35a1.92,1.92,0,0,1-.21.33l-.24.23a1.13,1.13,0,0,1-.28.2,1.52,1.52,0,0,1-.32.12A1.59,1.59,0,0,1,270.08,79.31Z"/><path class="cls-1" d="M276.28,76.38a2.76,2.76,0,0,1,2.12.7,4.86,4.86,0,0,1,0,4.75,2.72,2.72,0,0,1-2.12.7,2.75,2.75,0,0,1-2.14-.7,4.86,4.86,0,0,1,0-4.75A2.79,2.79,0,0,1,276.28,76.38Zm0,.87a1.59,1.59,0,0,0-1.34.47,4.39,4.39,0,0,0,0,3.48,1.62,1.62,0,0,0,1.34.46,1.58,1.58,0,0,0,1.32-.46,4.39,4.39,0,0,0,0-3.48A1.56,1.56,0,0,0,276.28,77.25Z"/><path class="cls-1" d="M288.41,76.53v5.84h-7.77V76.53h1v5H284v-5h1v5h2.43v-5Z"/><path class="cls-1" d="M295.45,82.37h-.92v-4.3a3.22,3.22,0,0,0,0-.35h0a3,3,0,0,1-.41.68l-3,4h-.84V76.53h.92V80.4a7.28,7.28,0,0,1,0,.78h0a3.85,3.85,0,0,1,.42-.67l3-4h.83Z"/><path class="cls-1" d="M300,79.31h0a2,2,0,0,1,.57.11,1.2,1.2,0,0,1,.47.28q.21.21.36.39a3.09,3.09,0,0,1,.34.59l.3.72.36.93h-1.07c-.14-.35-.24-.6-.29-.74l-.25-.58a2.78,2.78,0,0,0-.25-.5l-.26-.34a.8.8,0,0,0-.32-.28l-.35-.13a1.33,1.33,0,0,0-.45-.07h-.87c0,.26,0,.45,0,.57v2.07h-1v-5.8h1v1.74a4.06,4.06,0,0,1-.06.67h.81a1.76,1.76,0,0,0,.73-.14,1.52,1.52,0,0,0,.54-.51,4.39,4.39,0,0,0,.4-.72c.11-.23.24-.58.41-1h1.06l-.21.56c0,.1-.11.26-.19.47s-.16.35-.2.44a3.29,3.29,0,0,0-.19.35,1.86,1.86,0,0,1-.22.33l-.24.23a1.13,1.13,0,0,1-.28.2,1.33,1.33,0,0,1-.32.12A1.61,1.61,0,0,1,300,79.31Z"/><path class="cls-2" d="M176,39.41a10.51,10.51,0,0,0-18.16,0,10.5,10.5,0,1,0,18.16,0Zm-3.58,5.88-6.2,6.2a.8.8,0,0,1-.61.26.83.83,0,0,1-.62-.26l-1.39-1.39a.86.86,0,0,1,0-1.22h0l4.19-4.19-4.19-4.2a.83.83,0,0,1-.26-.61.87.87,0,0,1,.26-.62l1.4-1.39a.87.87,0,0,1,.62-.26.83.83,0,0,1,.61.26l6.2,6.2a.83.83,0,0,1,.26.62.81.81,0,0,1-.26.61Z"/><path class="cls-1" d="M346.76,78.05h0a1.67,1.67,0,0,1,1.28.63,2.77,2.77,0,0,1,.38,1.58,2,2,0,0,1-.59,1.7,3.4,3.4,0,0,1-2,.46,25.43,25.43,0,0,1-3.06-.1V74.09c.63-.06,1.52-.09,2.68-.09a3.79,3.79,0,0,1,2.16.45,2,2,0,0,1,.6,1.71,2.33,2.33,0,0,1-.33,1.36A1.42,1.42,0,0,1,346.76,78.05Zm-3-.37h1.77a2.17,2.17,0,0,0,1.28-.3,1.39,1.39,0,0,0,.34-1.1,1.32,1.32,0,0,0-.37-1.11,2.63,2.63,0,0,0-1.41-.27h-1.61Zm0,.8v3.08h1.86a2.33,2.33,0,0,0,1.37-.29,1.4,1.4,0,0,0,.37-1.15,1.68,1.68,0,0,0-.39-1.29,2.39,2.39,0,0,0-1.42-.36Z"/><path class="cls-1" d="M353.64,79.35h0a1.62,1.62,0,0,1,1.12.44,1.59,1.59,0,0,1,.34,1.11,1.28,1.28,0,0,1-.52,1.2,3.64,3.64,0,0,1-1.82.33,25.78,25.78,0,0,1-2.7-.08V76.54c.58-.05,1.38-.07,2.38-.07a4.09,4.09,0,0,1,1.92.32A1.33,1.33,0,0,1,354.9,78a1.37,1.37,0,0,1-.3,1A1.42,1.42,0,0,1,353.64,79.35ZM351,79h1.54a2.07,2.07,0,0,0,1.06-.19.75.75,0,0,0,.3-.7.67.67,0,0,0-.33-.66,2.71,2.71,0,0,0-1.19-.18H351Zm0,.73v1.91h1.6a2.36,2.36,0,0,0,1.14-.19.81.81,0,0,0,.32-.74.83.83,0,0,0-.34-.77,2.25,2.25,0,0,0-1.18-.22Z"/><path class="cls-1" d="M360.24,80h-2.73a1.54,1.54,0,0,0,1.86,1.65,15.78,15.78,0,0,0,2-.14l.09.68a6,6,0,0,1-2.26.33,2.78,2.78,0,0,1-2.15-.71,4.76,4.76,0,0,1,0-4.75,2.68,2.68,0,0,1,2-.68,3.06,3.06,0,0,1,1.91.48,1.73,1.73,0,0,1,.61,1.43C361.63,79.4,361.16,80,360.24,80Zm-2.74-.79H360q.65,0,.63-.87a.93.93,0,0,0-.33-.8,1.92,1.92,0,0,0-1.11-.24,1.64,1.64,0,0,0-1.29.41,2.37,2.37,0,0,0-.42,1.45Z"/><path class="cls-1" d="M368.82,81.56V84.1h-.68L368,82.37h-4.73l-.09,1.73h-.66V81.56h.67a9.63,9.63,0,0,0,.87-3.69,1.31,1.31,0,0,1,1.27-1.35H368v5Zm-1.78,0V77.33h-1.26A.67.67,0,0,0,365,78a8.84,8.84,0,0,1-.88,3.52Z"/><path class="cls-1" d="M370.54,74H371c.2,0,.3.11.3.32V75c0,.21-.1.31-.3.31h-.48a.28.28,0,0,1-.31-.31v-.68a.28.28,0,0,1,.23-.32Zm.75,8.33h-1v-5.8h1Z"/><path class="cls-1" d="M377.85,77.37h-2.11v5h-1v-5h-2.12v-.84h5.25Z"/><path class="cls-1" d="M380.11,78.8h1.38a3.19,3.19,0,0,1,1.85.39,1.75,1.75,0,0,1,.5,1.43,1.73,1.73,0,0,1-.5,1.43,2.82,2.82,0,0,1-1.7.39c-1,0-1.88,0-2.49-.07h0V76.53h1Zm0,2.83h1.38a1.78,1.78,0,0,0,1-.21,1.37,1.37,0,0,0,0-1.66,1.8,1.8,0,0,0-1-.22h-1.38Z"/><path class="cls-1" d="M390.66,79.31h0a2,2,0,0,1,.57.11,1.2,1.2,0,0,1,.47.28q.21.21.36.39a3.09,3.09,0,0,1,.34.59l.3.72.36.93h-1c-.14-.35-.24-.6-.29-.74l-.25-.58a2.78,2.78,0,0,0-.25-.5l-.26-.34a.86.86,0,0,0-.31-.28l-.36-.13a1.29,1.29,0,0,0-.45-.07H389c0,.26,0,.45,0,.57v2.07h-1v-5.8h1v1.74a4.06,4.06,0,0,1-.06.67h.82a1.74,1.74,0,0,0,.72-.14,1.44,1.44,0,0,0,.54-.51,4.39,4.39,0,0,0,.4-.72c.11-.23.24-.58.41-1h1.06l-.21.56c0,.1-.11.26-.19.47a3.36,3.36,0,0,1-.2.44l-.19.35a1.86,1.86,0,0,1-.22.33l-.24.23a1.13,1.13,0,0,1-.28.2,1.33,1.33,0,0,1-.32.12A1.61,1.61,0,0,1,390.66,79.31Z"/><path class="cls-1" d="M396.85,76.38a2.74,2.74,0,0,1,2.12.7,4.79,4.79,0,0,1,0,4.75,2.7,2.7,0,0,1-2.12.7,2.75,2.75,0,0,1-2.14-.7,4.86,4.86,0,0,1,0-4.75A2.79,2.79,0,0,1,396.85,76.38Zm0,.87a1.55,1.55,0,0,0-1.33.47,4.39,4.39,0,0,0,0,3.48,2.14,2.14,0,0,0,2.65,0,4.39,4.39,0,0,0,0-3.48A1.56,1.56,0,0,0,396.85,77.25Z"/><path class="cls-1" d="M406.7,81.56V84.1H406l-.09-1.73h-4.71l-.1,1.73h-.66V81.56h.67a9.81,9.81,0,0,0,.88-3.69,1.31,1.31,0,0,1,1.27-1.35h2.62v5Zm-1.78,0V77.33h-1.26a.68.68,0,0,0-.73.71,8.68,8.68,0,0,1-.87,3.52Z"/><path class="cls-1" d="M415.87,76.53v5.84h-1V79.66H411.8v2.71h-1V76.53h1v2.35h3.07V76.53Z"/><path class="cls-1" d="M417.8,77.4l-.1-.75a17.68,17.68,0,0,1,2.83-.27,2.27,2.27,0,0,1,1.51.43,1.86,1.86,0,0,1,.49,1.45v4.11h-.81l-.12-1a3.81,3.81,0,0,1-1,.75,3,3,0,0,1-1.36.32,1.78,1.78,0,0,1-1.27-.43,1.54,1.54,0,0,1-.47-1.2v-.64a1.33,1.33,0,0,1,.43-1.06,1.73,1.73,0,0,1,1.19-.38h2.44v-.51a1,1,0,0,0-.27-.78,1.34,1.34,0,0,0-.92-.23Q419.47,77.25,417.8,77.4Zm.68,3v.37a.9.9,0,0,0,.22.66,1,1,0,0,0,.69.21,2.68,2.68,0,0,0,1-.21,3.65,3.65,0,0,0,1.07-.66V79.55h-2.26a.72.72,0,0,0-.77.81Z"/><path class="cls-1" d="M426.83,77.39l-.07-.78a7.81,7.81,0,0,1,1.8-.18,4.67,4.67,0,0,1,2.06.32,1.29,1.29,0,0,1,.57,1.24,1.42,1.42,0,0,1-.28,1,1.33,1.33,0,0,1-.94.39h0a1.37,1.37,0,0,1,1.44,1.55,1.3,1.3,0,0,1-.57,1.23,4.24,4.24,0,0,1-1.94.32,13.21,13.21,0,0,1-2.33-.18l.08-.78c.72.06,1.45.1,2.18.1a2.67,2.67,0,0,0,1.2-.19.75.75,0,0,0,.32-.71A.82.82,0,0,0,430,80a2.49,2.49,0,0,0-1.18-.2h-1.39V79h1.39a2.16,2.16,0,0,0,1.06-.18.79.79,0,0,0,.28-.71.67.67,0,0,0-.33-.66,3.28,3.28,0,0,0-1.28-.16A14.31,14.31,0,0,0,426.83,77.39Z"/><path class="cls-1" d="M438.1,76.53v5.84h-1V79.66H434v2.71h-1V76.53h1v2.35h3.07V76.53Z"/><path class="cls-1" d="M445.13,82.37h-.92V77.72h0a3,3,0,0,1-.41.68l-3,4H440V76.53h.92v4.65h0a3.85,3.85,0,0,1,.42-.67l3-4h.82Z"/><path class="cls-1" d="M452.85,79.31h0a2.13,2.13,0,0,1,.55.12,1.12,1.12,0,0,1,.45.29,3.48,3.48,0,0,1,.34.38,2.92,2.92,0,0,1,.33.6c.13.3.22.53.29.71s.18.49.34.93h-1a15,15,0,0,0-.88-2,1.33,1.33,0,0,0-1.09-.67h-.89a4,4,0,0,1,0,.58v2.07h-.9v-2a3,3,0,0,1,0-.58h-.9a1.15,1.15,0,0,0-1,.49,9.41,9.41,0,0,0-.9,1.86l-.12.3h-1c.16-.44.28-.75.34-.93s.17-.41.3-.71a3,3,0,0,1,.32-.6,5,5,0,0,1,.34-.38,1.12,1.12,0,0,1,.45-.29,2.21,2.21,0,0,1,.56-.12h0a1.53,1.53,0,0,1-1-.44,2.61,2.61,0,0,1-.56-.75c-.12-.25-.31-.74-.57-1.45a.64.64,0,0,0-.06-.14h1l.34.84c.08.18.18.4.31.65a2.41,2.41,0,0,0,.35.53,1.3,1.3,0,0,0,.39.28,1.11,1.11,0,0,0,.52.12h.85a4.4,4.4,0,0,1,0-.68V76.53h.9v1.74a3.43,3.43,0,0,1,0,.68h.8a1.17,1.17,0,0,0,1-.53,9.57,9.57,0,0,0,.88-1.89h1l-.36,1c-.08.19-.18.43-.32.71a2.15,2.15,0,0,1-.38.6,1.88,1.88,0,0,1-.46.33A1.55,1.55,0,0,1,452.85,79.31Z"/><path class="cls-1" d="M459.19,79.31h0a2,2,0,0,1,.57.11,1.2,1.2,0,0,1,.47.28q.21.21.36.39a3.09,3.09,0,0,1,.34.59c.12.28.23.52.3.72l.36.93h-1.07c-.14-.35-.23-.6-.29-.74L460,81a2.78,2.78,0,0,0-.25-.5l-.26-.34a.86.86,0,0,0-.31-.28l-.36-.13a1.29,1.29,0,0,0-.45-.07h-.87c0,.26,0,.45,0,.57v2.07h-1v-5.8h1v1.74a4.06,4.06,0,0,1-.06.67h.82a1.74,1.74,0,0,0,.72-.14,1.44,1.44,0,0,0,.54-.51,4.39,4.39,0,0,0,.4-.72c.11-.23.24-.58.41-1h1.06l-.21.56c0,.1-.11.26-.19.47a3.36,3.36,0,0,1-.2.44l-.19.35a1.86,1.86,0,0,1-.22.33l-.24.23a1.13,1.13,0,0,1-.28.2,1.33,1.33,0,0,1-.32.12A1.61,1.61,0,0,1,459.19,79.31Z"/><path class="cls-1" d="M468.12,76.53,465.8,82.7a3.74,3.74,0,0,1-1.11,1.7,2.88,2.88,0,0,1-2.17.38l.1-.7a2.28,2.28,0,0,0,1.4-.27,2.53,2.53,0,0,0,.82-1.19l.11-.25h-.23a.38.38,0,0,1-.38-.26l-2.11-5.58h1.1l1.54,4.35c.09.27.16.5.22.71h.17c0-.16.13-.39.24-.71L467,76.53Z"/><path class="cls-1" d="M533.24,74.88a3.93,3.93,0,0,1,5.1,0,5.73,5.73,0,0,1,.72,3.35,5.76,5.76,0,0,1-.72,3.36,3.93,3.93,0,0,1-5.1,0,5.76,5.76,0,0,1-.72-3.36A5.73,5.73,0,0,1,533.24,74.88Zm4.25.73a1.89,1.89,0,0,0-1.7-.73,1.87,1.87,0,0,0-1.69.73,5.21,5.21,0,0,0-.47,2.62,5.18,5.18,0,0,0,.47,2.62,1.85,1.85,0,0,0,1.69.73,1.87,1.87,0,0,0,1.7-.73,5.2,5.2,0,0,0,.46-2.62A5.23,5.23,0,0,0,537.49,75.61Z"/><path class="cls-1" d="M545.37,77.37h-2.11v5h-1v-5h-2.13v-.84h5.26Z"/><path class="cls-1" d="M547.47,76.53l.08.93a3.53,3.53,0,0,1,1.14-.79,3.18,3.18,0,0,1,1.29-.29,1.68,1.68,0,0,1,1.53.77,4.48,4.48,0,0,1,.48,2.33,4,4,0,0,1-.52,2.35,2,2,0,0,1-1.68.69,4,4,0,0,1-2.16-.6,8.72,8.72,0,0,1,0,1.17v1.69h-1V76.53Zm.18,1.64v3.1a7.28,7.28,0,0,0,1.87.36,1.26,1.26,0,0,0,1.11-.45,3.27,3.27,0,0,0,.31-1.7,3.54,3.54,0,0,0-.3-1.72,1.06,1.06,0,0,0-1-.49A3.66,3.66,0,0,0,547.65,78.17Z"/><path class="cls-1" d="M558.76,82.37h-.92V78.5a3.83,3.83,0,0,1,0-.43v-.35h0a3,3,0,0,1-.41.68l-3,4h-.84V76.53h.92V80.4a7.29,7.29,0,0,1,0,.78h0a3.85,3.85,0,0,1,.42-.67l3-4h.83Z"/><path class="cls-1" d="M566.17,76.53h1.06a.34.34,0,0,1,.39.38l.25,5.46h-1l-.23-5.06h-.2L565,81.4a.42.42,0,0,1-.41.34h-.79a.43.43,0,0,1-.41-.34l-1.48-4.09h-.21l-.21,5.06h-.94l.24-5.46c0-.25.13-.38.4-.38h1a.4.4,0,0,1,.4.33l1.21,3.36c.08.23.16.51.25.84h.19c.12-.39.2-.67.26-.84l1.21-3.36A.41.41,0,0,1,566.17,76.53Z"/><path class="cls-1" d="M569.68,77.4l-.1-.75a17.79,17.79,0,0,1,2.84-.27,2.24,2.24,0,0,1,1.5.43,1.83,1.83,0,0,1,.49,1.45v4.11h-.8l-.12-1a3.72,3.72,0,0,1-1.06.75,3,3,0,0,1-1.36.32A1.79,1.79,0,0,1,569.8,82a1.54,1.54,0,0,1-.47-1.2v-.64a1.36,1.36,0,0,1,.43-1.06,1.73,1.73,0,0,1,1.19-.38h2.44v-.51a1.08,1.08,0,0,0-.26-.78,1.37,1.37,0,0,0-.93-.23Q571.35,77.25,569.68,77.4Zm.69,3v.37a.86.86,0,0,0,.22.66,1,1,0,0,0,.69.21,2.64,2.64,0,0,0,1-.21,3.52,3.52,0,0,0,1.07-.66V79.55h-2.26a.71.71,0,0,0-.72.81Z"/><path class="cls-1" d="M581.41,82.37h-.93V77.72h0a2.67,2.67,0,0,1-.41.68l-3,4h-.84V76.53h.92v4.65h0a3.85,3.85,0,0,1,.42-.67l3-4h.83Zm-1.6-8.43h.78a1.43,1.43,0,0,1-.44,1.17,1.9,1.9,0,0,1-1.35.47,1.92,1.92,0,0,1-1.36-.47,1.4,1.4,0,0,1-.45-1.17h.78a1.08,1.08,0,0,0,.27.79,1,1,0,0,0,1.77-.79Z"/><path class="cls-1" d="M587.93,77.37h-2.11v5h-1v-5H582.7v-.84H588Z"/><path class="cls-1" d="M592.62,80H589.9a1.52,1.52,0,0,0,1.84,1.7,15.78,15.78,0,0,0,2-.14l.09.68a6,6,0,0,1-2.26.33,2.78,2.78,0,0,1-2.15-.71,4.76,4.76,0,0,1,0-4.75,2.66,2.66,0,0,1,2-.68,3.08,3.08,0,0,1,1.91.48,1.73,1.73,0,0,1,.61,1.43C594,79.4,593.55,80,592.62,80Zm-2.73-.79h2.47q.64,0,.63-.87a.93.93,0,0,0-.33-.8,1.92,1.92,0,0,0-1.11-.24,1.64,1.64,0,0,0-1.29.41,2.37,2.37,0,0,0-.37,1.45Z"/><path class="cls-1" d="M598,77.39l-.07-.78a7.81,7.81,0,0,1,1.8-.18,4.67,4.67,0,0,1,2.06.32,1.29,1.29,0,0,1,.57,1.24,1.42,1.42,0,0,1-.28,1,1.33,1.33,0,0,1-.94.39h0a1.37,1.37,0,0,1,1.44,1.55,1.3,1.3,0,0,1-.57,1.23,4.24,4.24,0,0,1-1.94.32,13.21,13.21,0,0,1-2.33-.18l.08-.78c.72.06,1.45.1,2.18.1a2.67,2.67,0,0,0,1.2-.19.75.75,0,0,0,.32-.71.82.82,0,0,0-.33-.75,2.49,2.49,0,0,0-1.18-.2h-1.39V79H600a2.16,2.16,0,0,0,1.06-.18.79.79,0,0,0,.28-.71.67.67,0,0,0-.33-.66,3.28,3.28,0,0,0-1.28-.16A14.31,14.31,0,0,0,598,77.39Z"/><path class="cls-1" d="M609.29,76.53v5.84h-1V79.66h-3.08v2.71h-1V76.53h1v2.35h3.08V76.53Z"/><path class="cls-1" d="M616.32,82.37h-.92V77.72h0a3,3,0,0,1-.41.68l-3,4h-.84V76.53h.92v4.65h0a3.85,3.85,0,0,1,.42-.67l3-4h.82Z"/><path class="cls-1" d="M624,79.31h0a2.13,2.13,0,0,1,.55.12,1.12,1.12,0,0,1,.45.29,3.48,3.48,0,0,1,.34.38,2.92,2.92,0,0,1,.33.6c.13.3.22.53.29.71s.18.49.34.93h-1a15,15,0,0,0-.88-2,1.33,1.33,0,0,0-1.09-.67h-.89a4,4,0,0,1,0,.58v2.07h-.9v-2.6h-.9a1.15,1.15,0,0,0-1,.49,9.41,9.41,0,0,0-.9,1.86l-.12.3h-1c.16-.44.28-.75.34-.93s.17-.41.3-.71a3,3,0,0,1,.32-.6,5,5,0,0,1,.34-.38,1.12,1.12,0,0,1,.45-.29,2.21,2.21,0,0,1,.56-.12h0a1.53,1.53,0,0,1-1-.44,2.61,2.61,0,0,1-.56-.75c-.12-.25-.31-.74-.57-1.45a.64.64,0,0,0-.06-.14h1l.34.84c.08.18.18.4.31.65a2.41,2.41,0,0,0,.35.53,1.3,1.3,0,0,0,.39.28,1.11,1.11,0,0,0,.52.12h.85a4.41,4.41,0,0,1,0-.68V76.53h.9v1.74a3.43,3.43,0,0,1,0,.68h.8a1.17,1.17,0,0,0,1-.53,9.57,9.57,0,0,0,.88-1.89h1l-.36,1c-.08.19-.18.43-.32.71a2.15,2.15,0,0,1-.38.6,1.88,1.88,0,0,1-.46.33A1.55,1.55,0,0,1,624,79.31Z"/><path class="cls-1" d="M630.38,79.31h0a2,2,0,0,1,.57.11,1.2,1.2,0,0,1,.47.28q.21.21.36.39a3.09,3.09,0,0,1,.34.59c.12.28.23.52.3.72l.36.93h-1.07c-.14-.35-.23-.6-.29-.74l-.25-.58a2.78,2.78,0,0,0-.25-.5l-.26-.34a.86.86,0,0,0-.31-.28l-.36-.13a1.29,1.29,0,0,0-.45-.07h-.87c0,.26,0,.45,0,.57v2.07h-1v-5.8h1v1.74a4.06,4.06,0,0,1-.06.67h.82a1.74,1.74,0,0,0,.72-.14,1.44,1.44,0,0,0,.54-.51,4.39,4.39,0,0,0,.4-.72c.11-.23.24-.58.41-1h1.06l-.21.56a2.51,2.51,0,0,1-.19.47,3.37,3.37,0,0,1-.2.44l-.19.35a1.86,1.86,0,0,1-.22.33l-.24.23a1.13,1.13,0,0,1-.28.2,1.33,1.33,0,0,1-.32.12A1.61,1.61,0,0,1,630.38,79.31Z"/><path class="cls-1" d="M639.32,76.53,637,82.7a3.74,3.74,0,0,1-1.11,1.7,2.88,2.88,0,0,1-2.17.38l.1-.7a2.28,2.28,0,0,0,1.4-.27,2.53,2.53,0,0,0,.82-1.19l.11-.25h-.23a.36.36,0,0,1-.37-.26l-2.12-5.58h1.1L636,80.88c.09.27.16.5.22.71h.17c0-.16.13-.39.24-.71l1.53-4.35Z"/><path class="cls-3" d="M250,31.82a1.57,1.57,0,0,0-1.26-.64h-35.1L212.22,27a1.56,1.56,0,0,0-.89-.94l-7.24-2.84A1.55,1.55,0,0,0,203,26.16l6.57,2.58,8,23.17a1.25,1.25,0,0,0-.79.78l-2.33,6.45a1.3,1.3,0,0,0,.16,1.18,1.28,1.28,0,0,0,1.06.55h1.19a4.65,4.65,0,1,0,6.91,0h10.13a4.65,4.65,0,1,0,6.92,0h1.45a1.29,1.29,0,0,0,0-2.58H217.5l1.44-4a1.53,1.53,0,0,0,.6.12h22.73a1.54,1.54,0,0,0,1.47-1.07l6.46-20.15a1.54,1.54,0,0,0-.22-1.38ZM220.31,66.05A2.07,2.07,0,1,1,222.38,64v0a2.07,2.07,0,0,1-2.07,2.07h0Zm17.05,0A2.07,2.07,0,1,1,239.43,64v0a2.07,2.07,0,0,1-2.07,2.07h0Zm8.12-28.28h-7.91V34.28h9Zm-2.27,7.1h-5.64v-4h6.92Zm-15.88,0v-4h7.14v4Zm7.14,3.1v3.36h-7.14V48ZM217,40.87h7.22v4h-5.83Zm10.32-3.1V34.28h7.14v3.49Zm-3.1-3.49v3.49H216l-1.21-3.49ZM219.48,48h4.75v3.36h-3.59Zm18.09,3.36V48h4.64l-1.07,3.36Z"/><rect class="cls-4" x="247.54" y="1.53" width="36.71" height="21.26" rx="2" ry="2"/><path class="cls-3" d="M282.25,24.32H249.54A3.53,3.53,0,0,1,246,20.79V3.53A3.53,3.53,0,0,1,249.54,0h32.71a3.53,3.53,0,0,1,3.53,3.53V20.79A3.53,3.53,0,0,1,282.25,24.32ZM249.54,3.06a.47.47,0,0,0-.47.47h0V20.79a.47.47,0,0,0,.47.47h32.71a.47.47,0,0,0,.47-.47h0V3.53a.47.47,0,0,0-.47-.47H249.54Z"/><path class="cls-3" d="M242.74,26.3h46.33a.43.43,0,0,1,.43.43v0a.43.43,0,0,1-.43.43H242.74a.44.44,0,0,1-.44-.44v0A.43.43,0,0,1,242.74,26.3Z"/><path class="cls-3" d="M289,28.26H242.73a1.53,1.53,0,0,1,0-3.06H289a1.53,1.53,0,0,1,0,3.06Z"/><rect class="cls-3" x="266.11" y="4.44" width="15.21" height="23.6" rx="3.31" ry="3.31"/><path class="cls-4" d="M278,5.75a2,2,0,0,1,2,2v17a2,2,0,0,1-2,2h-8.6a2,2,0,0,1-2-2v-17a2,2,0,0,1,2-2H278m0-2.62h-8.6a4.63,4.63,0,0,0-4.62,4.62v17a4.62,4.62,0,0,0,4.62,4.62H278a4.63,4.63,0,0,0,4.62-4.62v-17A4.63,4.63,0,0,0,278,3.13Z"/><rect class="cls-4" x="267.42" y="5.75" width="12.59" height="20.98" rx="2" ry="2"/><path class="cls-3" d="M278,28.26h-8.6a3.53,3.53,0,0,1-3.53-3.53v-17a3.54,3.54,0,0,1,3.53-3.53H278a3.54,3.54,0,0,1,3.53,3.53v17A3.54,3.54,0,0,1,278,28.26Zm-8.59-21a.48.48,0,0,0-.47.47v17a.47.47,0,0,0,.47.47H278a.47.47,0,0,0,.47-.47h0v-17a.48.48,0,0,0-.47-.47Z"/><path class="cls-3" d="M273.71,22.79a1.05,1.05,0,1,0,1,1.05h0a1,1,0,0,0-.95-1Z"/><rect class="cls-3" x="258.77" y="11.44" width="11.01" height="16.61" rx="3.31" ry="3.31"/><path class="cls-4" d="M266.47,12.75a2,2,0,0,1,2,2v10a2,2,0,0,1-2,2h-4.39a2,2,0,0,1-2-2v-10a2,2,0,0,1,2-2h4.39m0-2.63h-4.39a4.64,4.64,0,0,0-4.63,4.63v10a4.63,4.63,0,0,0,4.63,4.62h4.39a4.62,4.62,0,0,0,4.62-4.62v-10A4.63,4.63,0,0,0,266.47,10.12Z"/><rect class="cls-4" x="260.08" y="12.75" width="8.39" height="13.99" rx="2" ry="2"/><path class="cls-3" d="M266.47,28.26h-4.39a3.53,3.53,0,0,1-3.53-3.53v-10a3.53,3.53,0,0,1,3.53-3.53h4.39A3.54,3.54,0,0,1,270,14.73s0,0,0,0v10A3.54,3.54,0,0,1,266.47,28.26Zm-4.39-14a.47.47,0,0,0-.47.47h0v10a.47.47,0,0,0,.47.47h4.39a.47.47,0,0,0,.47-.47h0v-10a.47.47,0,0,0-.47-.47h-4.39Z"/><path class="cls-3" d="M264.27,22.79a1.05,1.05,0,1,0,1,1.05h0a1,1,0,0,0-.95-1Z"/><path class="cls-3" d="M232.74,21.89h-3.49v-7a4,4,0,0,1,4-4H243v3.5h-9.73a.53.53,0,0,0-.53.53Z"/><polygon class="cls-3" points="227.51 20.87 230.99 26.91 234.48 20.87 227.51 20.87"/><rect class="cls-4" x="22.75" y="30.69" width="103.14" height="27.97" rx="2" ry="2"/><path class="cls-3" d="M123.89,60.19H24.75a3.53,3.53,0,0,1-3.53-3.53v-24a3.54,3.54,0,0,1,3.53-3.53h99.14a3.54,3.54,0,0,1,3.53,3.53v24A3.53,3.53,0,0,1,123.89,60.19Zm-99.14-28a.47.47,0,0,0-.47.47h0v24a.47.47,0,0,0,.47.47h99.14a.47.47,0,0,0,.47-.47h0v-24a.47.47,0,0,0-.47-.47H24.75Z"/><path class="cls-3" d="M127.87,68.47a1.47,1.47,0,0,1-1-.44L123,64.2l-2.12,2.89a1.49,1.49,0,0,1-1.19.6h-.2a1.49,1.49,0,0,1-1.19-1l-5.65-15.94a1.48,1.48,0,0,1,1.39-2,1.43,1.43,0,0,1,.5.09l15.93,5.65a1.47,1.47,0,0,1,.38,2.58L128,59.19,131.82,63a1.43,1.43,0,0,1,.43,1,1.47,1.47,0,0,1-.43,1l-2.9,3A1.49,1.49,0,0,1,127.87,68.47Z"/><path class="cls-4" d="M114,49.9a.27.27,0,0,1,.13,0l15.94,5.65a.37.37,0,0,1,.25.3.41.41,0,0,1-.15.37l-3.92,2.87L131,63.85a.38.38,0,0,1,0,.54h0l-2.87,2.87a.38.38,0,0,1-.55,0l-4.74-4.74L120,66.44a.38.38,0,0,1-.31.16h0a.4.4,0,0,1-.31-.26l-5.65-15.93a.39.39,0,0,1,.09-.4.35.35,0,0,1,.27-.11m0-2.19a2.57,2.57,0,0,0-2.42,3.43l5.65,15.93a2.57,2.57,0,0,0,2,1.69h.38a2.58,2.58,0,0,0,2.08-1l1.36-1.86L126,68.81a2.57,2.57,0,0,0,3.63,0h0l2.86-2.86a2.56,2.56,0,0,0,0-3.62l0,0-2.94-2.94L131.49,58a2.54,2.54,0,0,0-.69-4.45l-15.93-5.64a2.47,2.47,0,0,0-.86-.15Z"/><path class="cls-3" d="M31.89,45.76h-.33l-2.29,3.65H27.72l2.71-4.17-2.51-3.92h1.53l2.09,3.34h.39L34,41.32h1.53L33,45.24l2.71,4.17H34.2Z"/><path class="cls-3" d="M40.66,45.76h-.33L38,49.41H36.49l2.71-4.17-2.51-3.92h1.53l2.09,3.34h.38l2.08-3.34H44.3l-2.51,3.92,2.71,4.17H43Z"/><path class="cls-3" d="M49.43,45.76H49.1l-2.29,3.65H45.26L48,45.24l-2.51-3.92H47l2.09,3.34h.38l2.08-3.34H53.1l-2.51,3.92,2.71,4.17H51.74Z"/><path class="cls-3" d="M59.61,45.76H54.54V44.68h5.07Z"/><path class="cls-3" d="M65,45.76h-.33l-2.3,3.65h-1.5l2.71-4.17-2.51-3.92h1.53l2.09,3.34h.38l2.08-3.34h1.52l-2.5,3.92,2.7,4.17H67.37Z"/><path class="cls-3" d="M73.83,45.76h-.34L71.2,49.41H69.66l2.7-4.17-2.5-3.92h1.52l2.1,3.34h.38l2.07-3.34h1.53L75,45.24l2.7,4.17H76.13Z"/><path class="cls-3" d="M82.59,45.76h-.33L80,49.41H78.43l2.7-4.17-2.51-3.92h1.53l2.1,3.34h.38l2.07-3.34h1.53l-2.51,3.92,2.71,4.17H84.9Z"/><path class="cls-3" d="M92.78,45.76H87.71V44.68h5.07Z"/><path class="cls-3" d="M98.22,45.76h-.33L95.6,49.41H94l2.71-4.17-2.51-3.92h1.53l2.09,3.34h.39l2.07-3.34h1.53l-2.51,3.92,2.7,4.17h-1.53Z"/><path class="cls-3" d="M107,45.76h-.33l-2.29,3.65h-1.58l2.71-4.17L103,41.32h1.53l2.09,3.34H107l2.08-3.34h1.53l-2.51,3.92,2.71,4.17H109.3Z"/><path class="cls-3" d="M115.76,45.76h-.33l-2.29,3.65h-1.55l2.71-4.17-2.51-3.92h1.53l2.09,3.34h.38l2.08-3.34h1.53l-2.51,3.92,2.71,4.17h-1.53Z"/><rect class="cls-4" x="351.96" y="12.34" width="103.14" height="27.97" rx="2" ry="2"/><path class="cls-3" d="M453.1,41.84H354a3.54,3.54,0,0,1-3.53-3.53v-24A3.53,3.53,0,0,1,354,10.78H453.1a3.53,3.53,0,0,1,3.53,3.53v24A3.54,3.54,0,0,1,453.1,41.84ZM354,13.84a.47.47,0,0,0-.47.47h0v24a.47.47,0,0,0,.47.47H453.1a.47.47,0,0,0,.47-.47h0v-24a.47.47,0,0,0-.47-.47H354Z"/><path class="cls-3" d="M457.09,50.11a1.47,1.47,0,0,1-1-.43l-3.84-3.84-2.11,2.89a1.5,1.5,0,0,1-1.2.61h-.2a1.46,1.46,0,0,1-1.19-1l-5.65-15.93a1.47,1.47,0,0,1,.36-1.54,1.43,1.43,0,0,1,1-.43,1.67,1.67,0,0,1,.49.08l15.93,5.65a1.46,1.46,0,0,1,1,1.17,1.48,1.48,0,0,1-.59,1.42l-2.89,2.11L461,44.72a1.48,1.48,0,0,1,0,2.09l-2.87,2.87A1.44,1.44,0,0,1,457.09,50.11Z"/><path class="cls-4" d="M443.25,31.54h.12l15.94,5.65a.4.4,0,0,1,.25.31.38.38,0,0,1-.15.36l-3.92,2.87,4.74,4.74a.39.39,0,0,1,0,.55l-2.87,2.87a.4.4,0,0,1-.27.11.43.43,0,0,1-.28-.11l-4.74-4.74-2.87,3.92a.36.36,0,0,1-.31.15h0a.4.4,0,0,1-.31-.25L442.88,32a.4.4,0,0,1,.09-.4.43.43,0,0,1,.28-.11m0-2.19a2.61,2.61,0,0,0-1.83.76,2.57,2.57,0,0,0-.59,2.68l5.64,15.93a2.57,2.57,0,0,0,2,1.68h.37a2.59,2.59,0,0,0,2.13-1l1.36-1.86,2.94,2.94a2.56,2.56,0,0,0,3.62,0l0,0,2.86-2.87a2.55,2.55,0,0,0,.76-1.82,2.51,2.51,0,0,0-.76-1.81l-3-2.95,1.86-1.36a2.57,2.57,0,0,0-.67-4.5L444.1,29.5a2.45,2.45,0,0,0-.85-.15Z"/><path class="cls-3" d="M361.11,27.4h-.34L358.48,31h-1.54l2.7-4.16L357.14,23h1.52l2.1,3.34h.38L363.21,23h1.53l-2.51,3.92,2.71,4.16h-1.53Z"/><path class="cls-3" d="M369.87,27.4h-.33L367.25,31h-1.54l2.7-4.16L365.9,23h1.53l2.1,3.34h.38L372,23h1.53L371,26.89,373.73,31H372.2Z"/><path class="cls-3" d="M378.64,27.4h-.33L376,31h-1.55l2.71-4.16L374.67,23h1.53l2.09,3.34h.39L380.75,23h1.53l-2.51,3.92,2.71,4.16H381Z"/><path class="cls-3" d="M388.82,27.4h-5.06V26.32h5.06Z"/><path class="cls-3" d="M394.27,27.4h-.33L391.65,31H390.1l2.71-4.16L390.3,23h1.53l2.09,3.34h.38L396.38,23h1.53l-2.51,3.92,2.71,4.16h-1.53Z"/><path class="cls-3" d="M403,27.4h-.33L400.4,31h-1.55l2.71-4.16L399.07,23h1.53l2.09,3.34h.38L405.15,23h1.53l-2.51,3.92,2.7,4.16h-1.52Z"/><path class="cls-3" d="M411.81,27.4h-.33L409.18,31h-1.54l2.71-4.16L407.84,23h1.53l2.09,3.34h.38L413.92,23h1.52l-2.5,3.92,2.7,4.16h-1.52Z"/><path class="cls-3" d="M422,27.4h-5.1V26.32H422Z"/><path class="cls-3" d="M427.44,27.4h-.34L424.81,31h-1.54l2.7-4.16L423.47,23H425l2.1,3.34h.38l2-3.34h1.53l-2.51,3.92,2.71,4.16h-1.53Z"/><path class="cls-3" d="M436.2,27.4h-.33L433.58,31H432l2.7-4.16L432.23,23h1.53l2.1,3.34h.38L438.31,23h1.53l-2.51,3.92L440,31h-1.53Z"/><path class="cls-3" d="M445,27.4h-.33L442.4,31h-1.55l2.71-4.16L441,23h1.53l2.09,3.34H445L447.08,23h1.53l-2.51,3.92,2.71,4.16h-1.53Z"/><path class="cls-3" d="M426.72,31.82a1.54,1.54,0,0,0-1.25-.64H390.41L389,27.06a1.58,1.58,0,0,0-.9-.94l-7.23-2.84a1.55,1.55,0,1,0-1.13,2.89l6.57,2.58,8,23.17a1.29,1.29,0,0,0-.8.78l-2.32,6.45a1.29,1.29,0,0,0,1.21,1.73h1.2a4.65,4.65,0,1,0,6.91,0h10.13a4.66,4.66,0,1,0,6.91,0H419a1.29,1.29,0,1,0,0-2.58H394.25l1.44-4a1.53,1.53,0,0,0,.6.12H419a1.55,1.55,0,0,0,1.48-1.07L427,33.2a1.55,1.55,0,0,0-.23-1.38ZM397,66.05A2.07,2.07,0,1,1,399.13,64,2.07,2.07,0,0,1,397,66.05Zm17,0a1.76,1.76,0,1,1,.09,0Zm8.12-28.28h-7.82V34.28h9Zm-2.28,7.1h-5.54v-4h6.92Zm-15.87,0v-4h7.14v4ZM411.22,48v3.36h-7.14V48Zm-17.46-7.1H401v4h-5.83Zm10.32-3.1V34.28h7.14v3.49ZM401,34.28v3.49h-8.29l-1.21-3.49ZM396.23,48H401v3.36h-3.59Zm18.09,3.36V48H419l-1.08,3.36Z"/><path class="cls-4" d="M414.11,71.13A7.16,7.16,0,0,1,407,64q0-.3,0-.6h-2.8V64a7.15,7.15,0,1,1-14.3,0v0a6.71,6.71,0,0,1,.15-1.42,4.27,4.27,0,0,1-.75-.78,3.82,3.82,0,0,1-.46-3.48l2.32-6.45a3.15,3.15,0,0,1,.27-.59l-7.15-20.61-5.5-2.16a4.05,4.05,0,1,1,3-7.53L389,23.8a4,4,0,0,1,2.34,2.43l.85,2.45H425.5a4.06,4.06,0,0,1,3.27,1.66h0a4.09,4.09,0,0,1,.58,3.62L422.89,54.1A4.06,4.06,0,0,1,421,56.39a3.79,3.79,0,0,1,.1,6.33,6.72,6.72,0,0,1,.12,1.26A7.16,7.16,0,0,1,414.11,71.13Zm0-7.58a.43.43,0,1,0,.43.43A.43.43,0,0,0,414.11,63.55Zm-17,0a.43.43,0,1,0,.43.43A.43.43,0,0,0,397.11,63.55Z"/><path class="cls-3" d="M426.72,31.82a1.54,1.54,0,0,0-1.25-.64H390.41L389,27.06a1.58,1.58,0,0,0-.9-.94l-7.23-2.84a1.55,1.55,0,1,0-1.13,2.89l6.57,2.58,8,23.17a1.29,1.29,0,0,0-.8.78l-2.32,6.45a1.29,1.29,0,0,0,1.21,1.73h1.2a4.65,4.65,0,1,0,6.91,0h10.13a4.66,4.66,0,1,0,6.91,0H419a1.29,1.29,0,1,0,0-2.58H394.25l1.44-4a1.53,1.53,0,0,0,.6.12H419a1.55,1.55,0,0,0,1.48-1.07L427,33.2a1.55,1.55,0,0,0-.23-1.38ZM397,66.05A2.07,2.07,0,1,1,399.13,64,2.07,2.07,0,0,1,397,66.05Zm17,0a1.76,1.76,0,1,1,.09,0Zm8.12-28.28h-7.82V34.28h9Zm-2.28,7.1h-5.54v-4h6.92Zm-15.87,0v-4h7.14v4ZM411.22,48v3.36h-7.14V48Zm-17.46-7.1H401v4h-5.83Zm10.32-3.1V34.28h7.14v3.49ZM401,34.28v3.49h-8.29l-1.21-3.49ZM396.23,48H401v3.36h-3.59Zm18.09,3.36V48H419l-1.08,3.36Z"/><rect class="cls-4" x="556.07" y="18.96" width="60.07" height="34.79" rx="2" ry="2"/><path class="cls-3" d="M614.14,55.94H558.07a4.19,4.19,0,0,1-4.19-4.18V21a4.19,4.19,0,0,1,4.19-4.18h56.07A4.19,4.19,0,0,1,618.33,21V51.8A4.19,4.19,0,0,1,614.14,55.94Zm-55.88-4.37H614V21.15h-55.7Z"/><rect class="cls-3" x="547.49" y="59.49" width="77.24" height="1.43" rx="0.5" ry="0.5"/><rect class="cls-3" x="545.7" y="57.7" width="80.81" height="5.01" rx="2.29" ry="2.29"/><rect class="cls-3" x="586.96" y="23.73" width="24.89" height="38.62" rx="4.15" ry="4.15"/><path class="cls-4" d="M607.71,25.88a2,2,0,0,1,2,2V58.2a2,2,0,0,1-2,2h-16.6a2,2,0,0,1-2-2V27.88a2,2,0,0,1,2-2h16.6m0-4.29h-16.6a6.29,6.29,0,0,0-6.29,6.29V58.2a6.29,6.29,0,0,0,6.29,6.29h16.6A6.3,6.3,0,0,0,614,58.2h0V27.88a6.3,6.3,0,0,0-6.29-6.29Z"/><rect class="cls-4" x="589.11" y="25.88" width="20.6" height="34.33" rx="2" ry="2"/><path class="cls-3" d="M607.71,62.39h-16.6a4.2,4.2,0,0,1-4.19-4.19V27.88a4.2,4.2,0,0,1,4.19-4.19h16.6a4.19,4.19,0,0,1,4.18,4.19V58.2A4.19,4.19,0,0,1,607.71,62.39ZM591.29,58h16.23V28H591.29Z"/><path class="cls-3" d="M599.41,53.76a1.72,1.72,0,1,0,1.71,1.73s0,0,0,0a1.71,1.71,0,0,0-1.71-1.71Z"/><path class="cls-3" d="M538.52,34.52,555.45,17.6a3.89,3.89,0,0,1,2.83-1.12l8.9.23A3,3,0,0,1,570,19.59l.21,8.89a3.9,3.9,0,0,1-1.14,2.81l-16.9,16.92a3.85,3.85,0,0,1-5.44,0h0L538.51,40a3.89,3.89,0,0,1,0-5.48Zm25.7-7.69a3,3,0,1,0-4.29,0,3,3,0,0,0,4.29,0Z"/><path class="cls-4" d="M549.44,51.54h0a6,6,0,0,1-4.24-1.76L537,41.55A6.07,6.07,0,0,1,537,33h0L554,16.09a6.18,6.18,0,0,1,4.42-1.77l8.91.23a5.14,5.14,0,0,1,5,5l.21,8.89a6.07,6.07,0,0,1-1.78,4.41l-17,16.9A6,6,0,0,1,549.44,51.54ZM540,36.07a1.71,1.71,0,0,0,0,2.39l8.22,8.23a1.63,1.63,0,0,0,1.16.48h0a1.66,1.66,0,0,0,1.2-.51l16.94-16.91a1.69,1.69,0,0,0,.5-1.22l-.21-8.89a.77.77,0,0,0-.75-.75l-8.89-.23a1.57,1.57,0,0,0-1.23.49Zm22-6.17a5.22,5.22,0,0,1,0-10.43h0a5.22,5.22,0,0,1,0,10.43Zm0-6.06a.88.88,0,0,0-.6.25.84.84,0,0,0,0,1.19h0a.85.85,0,0,0,1.19,0h0a.83.83,0,0,0,.24-.59.86.86,0,0,0-.24-.6.88.88,0,0,0-.6-.25Z"/><path class="cls-3" d="M538.52,34.52,555.45,17.6a3.89,3.89,0,0,1,2.83-1.12l8.9.23A3,3,0,0,1,570,19.59l.21,8.89a3.9,3.9,0,0,1-1.14,2.81l-16.9,16.92a3.85,3.85,0,0,1-5.44,0h0L538.51,40a3.89,3.89,0,0,1,0-5.48Zm25.7-7.69a3,3,0,1,0-4.29,0,3,3,0,0,0,4.29,0Z"/><rect class="cls-3" x="574.95" y="35.17" width="18.02" height="27.18" rx="4.15" ry="4.15"/><path class="cls-4" d="M588.83,37.32a2,2,0,0,1,2,2V58.2a2,2,0,0,1-2,2h-9.74a2,2,0,0,1-2-2V39.32a2,2,0,0,1,2-2h9.74m0-4.29h-9.74a6.3,6.3,0,0,0-6.29,6.29V58.2a6.3,6.3,0,0,0,6.29,6.29h9.74a6.3,6.3,0,0,0,6.29-6.29V39.32A6.3,6.3,0,0,0,588.84,33h0Z"/><rect class="cls-4" x="577.09" y="37.32" width="13.73" height="22.88" rx="2" ry="2"/><path class="cls-3" d="M588.83,62.39h-9.74a4.19,4.19,0,0,1-4.18-4.19V39.32a4.19,4.19,0,0,1,4.18-4.19h9.74A4.19,4.19,0,0,1,593,39.32h0V58.2a4.19,4.19,0,0,1-4.19,4.19ZM579.28,58h9.36V39.5h-9.36Z"/><path class="cls-4" d="M584,53.76a1.72,1.72,0,1,0,1.72,1.72h0A1.71,1.71,0,0,0,584,53.76Z"/><path class="cls-4" d="M542.21,40a3.47,3.47,0,1,1,4.91,0h0A3.48,3.48,0,0,1,542.21,40Z"/><path class="cls-4" d="M557.72,37.71a3.46,3.46,0,1,1,0-4.9A3.46,3.46,0,0,1,557.72,37.71Z"/><path class="cls-3" d="M553.83,35.26a1.44,1.44,0,1,0,1.43-1.44,1.42,1.42,0,0,0-1.43,1.41S553.83,35.25,553.83,35.26Z"/><path class="cls-3" d="M544.66,36.15a1.44,1.44,0,1,0,1.44,1.44A1.44,1.44,0,0,0,544.66,36.15Z"/><path class="cls-4" d="M550.71,44.38a.87.87,0,0,1-.93-.77l-1.31-14.19a.84.84,0,0,1,1.68-.16h0l1.32,14.19A.86.86,0,0,1,550.71,44.38Z"/><path class="cls-2" d="M506.13,39.41a10.42,10.42,0,0,0-3.82-3.81,10.53,10.53,0,0,0-10.53,0A10.42,10.42,0,0,0,488,39.41a10.6,10.6,0,0,0,0,10.53,10.5,10.5,0,0,0,18.17,0A10.6,10.6,0,0,0,506.13,39.41Zm-3.58,5.88-6.2,6.2a.83.83,0,0,1-.62.26.81.81,0,0,1-.61-.26l-1.39-1.39a.86.86,0,0,1,0-1.22h0l4.19-4.19-4.19-4.2a.8.8,0,0,1-.26-.61.83.83,0,0,1,.26-.62l1.39-1.39a.85.85,0,0,1,.61-.26.87.87,0,0,1,.62.26l6.2,6.2a.87.87,0,0,1,.26.62A.85.85,0,0,1,502.55,45.29Z"/><path class="cls-2" d="M320.88,39.41A10.42,10.42,0,0,0,317,35.6a10.48,10.48,0,1,0,3.82,3.81Zm-3.58,5.88-6.2,6.2a.86.86,0,0,1-1.22,0h0l-1.39-1.39a.86.86,0,0,1,0-1.22h0l4.19-4.19-4.19-4.2a.8.8,0,0,1-.26-.61.83.83,0,0,1,.26-.62l1.39-1.39a.86.86,0,0,1,1.22,0h0l6.2,6.2a.87.87,0,0,1,.26.62A.85.85,0,0,1,317.3,45.29Z"/><path class="cls-3" d="M172.4,45.29l-6.2,6.2a.8.8,0,0,1-.61.26.83.83,0,0,1-.62-.26l-1.39-1.39a.86.86,0,0,1,0-1.22h0l4.19-4.19-4.19-4.2a.83.83,0,0,1-.26-.61.87.87,0,0,1,.26-.62L165,37.86a.87.87,0,0,1,.62-.26.83.83,0,0,1,.61.26l6.2,6.2a.83.83,0,0,1,.26.62.81.81,0,0,1-.26.61Z"/><path class="cls-3" d="M317.3,45.29l-6.2,6.2a.86.86,0,0,1-1.22,0h0l-1.39-1.39a.86.86,0,0,1,0-1.22h0l4.19-4.19-4.19-4.2a.8.8,0,0,1-.26-.61.83.83,0,0,1,.26-.62l1.39-1.39a.86.86,0,0,1,1.22,0h0l6.2,6.2a.87.87,0,0,1,.26.62A.85.85,0,0,1,317.3,45.29Z"/><path class="cls-3" d="M502.55,45.29l-6.2,6.2a.83.83,0,0,1-.62.26.81.81,0,0,1-.61-.26l-1.39-1.39a.86.86,0,0,1,0-1.22h0l4.19-4.19-4.19-4.2a.8.8,0,0,1-.26-.61.83.83,0,0,1,.26-.62l1.39-1.39a.85.85,0,0,1,.61-.26.87.87,0,0,1,.62.26l6.2,6.2a.87.87,0,0,1,.26.62A.85.85,0,0,1,502.55,45.29Z"/></g></g></g></g></svg>