<svg xmlns="http://www.w3.org/2000/svg" width="24" height="20.969" viewBox="0 0 24 20.969">
  <defs>
    <style>
      .cls-1 {
        fill: #10b1e8;
        fill-rule: evenodd;
      }
    </style>
  </defs>
  <path id="search_icon" class="cls-1" d="M1618.18,198.557l-3.46-2.606a10.517,10.517,0,0,0,.89-5.983,10.361,10.361,0,1,0-8.76,11.876,10.256,10.256,0,0,0,5.73-2.859l3.39,2.561a1.978,1.978,0,0,0,2.71-.275h0A2.049,2.049,0,0,0,1618.18,198.557Zm-11.82-.075a7.079,7.079,0,1,1,5.92-8.025A7.013,7.013,0,0,1,1606.36,198.482Z" transform="translate(-1595 -181)"/>
</svg>
