<svg xmlns="http://www.w3.org/2000/svg" width="30" height="21" viewBox="0 0 30 21">
  <metadata><?xpacket begin="﻿" id="W5M0MpCehiHzreSzNTczkc9d"?>
<x:xmpmeta xmlns:x="adobe:ns:meta/" x:xmptk="Adobe XMP Core 5.6-c138 79.159824, 2016/09/14-01:09:01        ">
   <rdf:RDF xmlns:rdf="http://www.w3.org/1999/02/22-rdf-syntax-ns#">
      <rdf:Description rdf:about=""/>
   </rdf:RDF>
</x:xmpmeta>
                                                                                                    
                                                                                                    
                                                                                                    
                                                                                                    
                                                                                                    
                                                                                                    
                                                                                                    
                                                                                                    
                                                                                                    
                                                                                                    
                                                                                                    
                                                                                                    
                                                                                                    
                                                                                                    
                                                                                                    
                                                                                                    
                                                                                                    
                                                                                                    
                                                                                                    
                                                                                                    
                           
<?xpacket end="w"?></metadata>
<defs>
    <style>
      .cls-1 {
        fill: #10b1e8;
        fill-rule: evenodd;
      }
    </style>
  </defs>
  <path id="SSD" class="cls-1" d="M572.528,1279H543.47a0.469,0.469,0,0,1-.472-0.46v-20.08a0.469,0.469,0,0,1,.472-0.46h29.058a0.469,0.469,0,0,1,.472.46v20.08A0.469,0.469,0,0,1,572.528,1279Zm-28.587-.92h28.116v-19.16H543.941v19.16Zm4.238-14.14a1.6,1.6,0,1,1,1.651-1.6A1.629,1.629,0,0,1,548.179,1263.94Zm0-2.38a0.78,0.78,0,1,0,.808.78A0.795,0.795,0,0,0,548.179,1261.56Zm19.9,2.38a1.6,1.6,0,1,1,1.65-1.6A1.629,1.629,0,0,1,568.079,1263.94Zm0-2.38a0.78,0.78,0,1,0,.808.78A0.795,0.795,0,0,0,568.079,1261.56Zm-19.9,14.85a1.6,1.6,0,1,1,1.651-1.6A1.629,1.629,0,0,1,548.179,1276.41Zm0-2.39a0.785,0.785,0,1,0,.808.79A0.8,0.8,0,0,0,548.179,1274.02Zm19.9,2.39a1.6,1.6,0,1,1,1.65-1.6A1.629,1.629,0,0,1,568.079,1276.41Zm0-2.39a0.785,0.785,0,1,0,.808.79A0.8,0.8,0,0,0,568.079,1274.02Z" transform="translate(-543 -1258)"/>
</svg>
