<svg xmlns="http://www.w3.org/2000/svg" width="18" height="30" viewBox="0 0 18 30">
  <metadata><?xpacket begin="﻿" id="W5M0MpCehiHzreSzNTczkc9d"?>
<x:xmpmeta xmlns:x="adobe:ns:meta/" x:xmptk="Adobe XMP Core 5.6-c138 79.159824, 2016/09/14-01:09:01        ">
   <rdf:RDF xmlns:rdf="http://www.w3.org/1999/02/22-rdf-syntax-ns#">
      <rdf:Description rdf:about=""/>
   </rdf:RDF>
</x:xmpmeta>
                                                                                                    
                                                                                                    
                                                                                                    
                                                                                                    
                                                                                                    
                                                                                                    
                                                                                                    
                                                                                                    
                                                                                                    
                                                                                                    
                                                                                                    
                                                                                                    
                                                                                                    
                                                                                                    
                                                                                                    
                                                                                                    
                                                                                                    
                                                                                                    
                                                                                                    
                                                                                                    
                           
<?xpacket end="w"?></metadata>
<defs>
    <style>
      .cls-1 {
        fill: #1973ff;
        fill-rule: evenodd;
      }
    </style>
  </defs>
  <path id="systemblock" class="cls-1" d="M566.441,1432.01H549.556a0.557,0.557,0,0,1-.559-0.55v-28.92a0.548,0.548,0,0,1,.559-0.54h16.885a0.548,0.548,0,0,1,.559.54v28.92A0.557,0.557,0,0,1,566.441,1432.01Zm-16.327-1.09h15.769v-27.83H550.114v27.83Zm7.918-3.58a1.54,1.54,0,1,1-.012-3.08h0.012A1.54,1.54,0,1,1,558.032,1427.34ZM563,1412H553c-0.309,0-.373.18-0.373-0.12a0.548,0.548,0,0,1,.559-0.54h9.626a0.548,0.548,0,0,1,.559.54C563.371,1412.18,563.309,1412,563,1412Zm-0.188,5.93h-9.626a0.54,0.54,0,1,1,0-1.08h9.626A0.54,0.54,0,1,1,562.812,1417.93Z" transform="translate(-549 -1402)"/>
</svg>
