<svg xmlns="http://www.w3.org/2000/svg" viewBox="0 0 364.59 364.59"><defs><style>.cls-1{fill:#61a8de;}.cls-2{fill:#fff;}</style></defs><title>Asset 1Telegram</title><g id="Layer_2" data-name="Layer 2"><g id="Layer_1-2" data-name="Layer 1"><rect class="cls-1" width="364.59" height="364.59"/><path class="cls-2" d="M287.07,80.48l-243.8,95A8.89,8.89,0,0,0,44,192.3l62,18.29L129.06,284a10.64,10.64,0,0,0,17.75,4.25l32-32.71,62.85,46.13a13.12,13.12,0,0,0,20.6-7.89l41.63-199a12.54,12.54,0,0,0-16.83-14.25Zm-30.57,44.16L143.27,224.79a6.07,6.07,0,0,0-2,3.88l-4.36,38.76a1.17,1.17,0,0,1-2.29.22l-17.94-57.8a6.08,6.08,0,0,1,2.61-7L253,119.92a3,3,0,0,1,3.51,4.72Zm0,0"/></g></g></svg>