<svg xmlns="http://www.w3.org/2000/svg" width="25" height="21" viewBox="0 0 25 21">
  <metadata><?xpacket begin="﻿" id="W5M0MpCehiHzreSzNTczkc9d"?>
<x:xmpmeta xmlns:x="adobe:ns:meta/" x:xmptk="Adobe XMP Core 5.6-c138 79.159824, 2016/09/14-01:09:01        ">
   <rdf:RDF xmlns:rdf="http://www.w3.org/1999/02/22-rdf-syntax-ns#">
      <rdf:Description rdf:about=""/>
   </rdf:RDF>
</x:xmpmeta>
                                                                                                    
                                                                                                    
                                                                                                    
                                                                                                    
                                                                                                    
                                                                                                    
                                                                                                    
                                                                                                    
                                                                                                    
                                                                                                    
                                                                                                    
                                                                                                    
                                                                                                    
                                                                                                    
                                                                                                    
                                                                                                    
                                                                                                    
                                                                                                    
                                                                                                    
                                                                                                    
                           
<?xpacket end="w"?></metadata>
<defs>
    <style>
      .cls-1 {
        fill: #0ab02a;
        fill-rule: evenodd;
      }
    </style>
  </defs>
  <path id="thumbs_up_article" class="cls-1" d="M621.907,4081h-3.088a1.755,1.755,0,0,1-1.357-.59,2.4,2.4,0,0,1-.293-0.45c-0.021-.04-0.04-0.08-0.057-0.11l-0.112-.19v-9.51l0.068-.16,0.024-.05c0.023-.05.049-0.12,0.08-0.18a1.877,1.877,0,0,1,1.8-1.07h6.364l-0.021.86c-0.013.48-.018,1.19-0.018,1.3h0c-0.018,1.58-.019,3.14-0.019,4.32,0,1.42,0,2.88.019,4.33v0.13c0,0.12,0,.31,0,0.52l0.009,0.84h-0.864C623.6,4081,622.752,4081,621.907,4081Zm-3.14-1.68h4.811c-0.015-1.39-.016-2.79-0.016-4.14,0-1.19,0-2.75.018-4.33h0v-0.02h0v-0.1c0-.09,0-0.2,0-0.34v-0.03h-4.613c-0.2,0-.21.04-0.245,0.11l-0.01.02v8.74C618.734,4079.26,618.754,4079.3,618.767,4079.32Zm9.8,1.05a3.8,3.8,0,0,1-2.076-.58l-0.4-.25,0-.46c0.017-2.21.023-4.61,0.022-7.56v-2.33l0.225-.23c0.089-.11.182-0.23,0.274-0.34a11.47,11.47,0,0,0,.752-0.99c0.425-.67.838-1.37,1.236-2.05,0.167-.29.342-0.58,0.512-0.87a0.33,0.33,0,0,0,.052-0.22c-0.02-.47-0.029-0.95-0.039-1.4,0-.27-0.011-0.55-0.019-0.83a2,2,0,0,1,1.163-1.89,3.426,3.426,0,0,1,2.9-.09,2.189,2.189,0,0,1,1.25,1.29q0.1,0.27.209,0.54c0.19,0.48.386,0.98,0.564,1.49a5.016,5.016,0,0,1,.119,2.72c-0.062.31-.114,0.61-0.167,0.93h4.044a3.587,3.587,0,0,1,1.171.19,2.358,2.358,0,0,1,1.552,1.74c0.006,0.03.017,0.06,0.028,0.1l0.022,0.06,0.038,0.12v1l-0.092.12a2.986,2.986,0,0,1-.459,1.01,3.061,3.061,0,0,1,.115.68,2.883,2.883,0,0,1-.537,1.74,2.542,2.542,0,0,1,.1.55,3.066,3.066,0,0,1-.529,1.89,3.389,3.389,0,0,1,.061,1.04,2.975,2.975,0,0,1-2.152,2.65,5.475,5.475,0,0,1-1.678.22h-2.188c-1.985,0-4.037-.01-6.054,0h-0.027Zm-0.756-1.8a2.036,2.036,0,0,0,.773.12c2.022-.01,4.077-0.01,6.065-0.01h2.186a3.7,3.7,0,0,0,1.144-.13,1.3,1.3,0,0,0,.977-1.19,1.582,1.582,0,0,0-.068-0.69,1.037,1.037,0,0,1,.166-0.98,1.477,1.477,0,0,0,.368-1.03,2.057,2.057,0,0,0-.105-0.4,1.057,1.057,0,0,1,.185-1.04,1.376,1.376,0,0,0,.351-0.9,1.728,1.728,0,0,0-.065-0.32c-0.024-.1-0.052-0.2-0.074-0.32a0.991,0.991,0,0,1,.216-0.9,1.38,1.38,0,0,0,.341-0.72l0-.01c0-.02.007-0.03,0.011-0.05v-0.28c-0.012-.04-0.023-0.08-0.035-0.12h0a0.692,0.692,0,0,0-.458-0.58,1.84,1.84,0,0,0-.616-0.09c-1.172-.01-2.369-0.01-3.525-0.01h-1.3a1.035,1.035,0,0,1-.836-0.33,0.963,0.963,0,0,1-.192-0.85c0.033-.19.064-0.38,0.1-0.57,0.063-.38.129-0.78,0.209-1.18a3.4,3.4,0,0,0-.057-1.85c-0.169-.48-0.36-0.97-0.544-1.44-0.071-.18-0.142-0.37-0.213-0.55a0.513,0.513,0,0,0-.308-0.33,1.625,1.625,0,0,0-1.444.03,0.346,0.346,0,0,0-.244.36q0.01,0.42.019,0.84c0.009,0.45.018,0.91,0.037,1.37a2,2,0,0,1-.283,1.13c-0.17.29-.342,0.58-0.508,0.86-0.4.69-.825,1.4-1.266,2.09a11.676,11.676,0,0,1-.868,1.16l-0.124.15v1.71c0,2.73,0,4.99-.015,7.05h0Zm12.616-1.87h0Zm0.42-2.45h0Z" transform="translate(-617 -4060)"/>
</svg>
