<svg xmlns="http://www.w3.org/2000/svg" width="25" height="21" viewBox="0 0 25 21">
  <metadata><?xpacket begin="﻿" id="W5M0MpCehiHzreSzNTczkc9d"?>
<x:xmpmeta xmlns:x="adobe:ns:meta/" x:xmptk="Adobe XMP Core 5.6-c138 79.159824, 2016/09/14-01:09:01        ">
   <rdf:RDF xmlns:rdf="http://www.w3.org/1999/02/22-rdf-syntax-ns#">
      <rdf:Description rdf:about=""/>
   </rdf:RDF>
</x:xmpmeta>
                                                                                                    
                                                                                                    
                                                                                                    
                                                                                                    
                                                                                                    
                                                                                                    
                                                                                                    
                                                                                                    
                                                                                                    
                                                                                                    
                                                                                                    
                                                                                                    
                                                                                                    
                                                                                                    
                                                                                                    
                                                                                                    
                                                                                                    
                                                                                                    
                                                                                                    
                                                                                                    
                           
<?xpacket end="w"?></metadata>
<defs>
    <style>
      .cls-1 {
        fill: #f75e5e;
        fill-rule: evenodd;
      }
    </style>
  </defs>
  <path id="thumbs_down_article" class="cls-1" d="M697.906,4063h-3.087a1.755,1.755,0,0,0-1.357.59,2.4,2.4,0,0,0-.293.45c-0.021.04-.041,0.08-0.058,0.11l-0.111.19v9.51l0.068,0.15,0.024,0.06c0.023,0.05.049,0.11,0.079,0.18a1.88,1.88,0,0,0,1.8,1.07h6.363l-0.021-.86c-0.012-.48-0.018-1.19-0.018-1.3h0c-0.017-1.58-.019-3.14-0.019-4.33,0-1.41,0-2.88.019-4.32v-0.13c0-.12,0-0.31,0-0.52l0.009-.84-0.864-.01h-2.54Zm-3.138,1.68h4.81c-0.015,1.38-.016,2.79-0.016,4.14,0,1.18,0,2.74.018,4.33h0v0.01h0v0.11c0,0.08,0,.2,0,0.34v0.02h-4.612c-0.2,0-.21-0.03-0.244-0.1l-0.011-.02v-8.74A0.541,0.541,0,0,1,694.768,4064.68Zm9.8-1.05a3.8,3.8,0,0,0-2.077.58l-0.4.25,0,0.46c0.017,2.2.024,4.61,0.022,7.56v2.32l0.225,0.24c0.089,0.11.182,0.23,0.274,0.34a11.47,11.47,0,0,1,.752.99c0.425,0.67.838,1.37,1.236,2.05,0.167,0.28.342,0.58,0.512,0.86a0.373,0.373,0,0,1,.052.23c-0.02.47-.029,0.94-0.038,1.4-0.006.27-.012,0.55-0.02,0.83a1.974,1.974,0,0,0,1.163,1.88,3.391,3.391,0,0,0,2.9.1,2.189,2.189,0,0,0,1.25-1.29q0.1-.27.209-0.54c0.19-.48.386-0.99,0.564-1.49a5.016,5.016,0,0,0,.119-2.72c-0.062-.31-0.114-0.61-0.167-0.93h0.5c1.16,0,2.359,0,3.54-.01a3.58,3.58,0,0,0,1.172-.18,2.376,2.376,0,0,0,1.552-1.75c0.006-.02.017-0.05,0.028-0.09l0.022-.07,0.038-.12v-1l-0.092-.11a3.035,3.035,0,0,0-.459-1.02,2.918,2.918,0,0,0,.114-0.67,2.875,2.875,0,0,0-.536-1.74,2.6,2.6,0,0,0,.1-0.55,3.049,3.049,0,0,0-.529-1.89,3.42,3.42,0,0,0,.061-1.04,2.975,2.975,0,0,0-2.152-2.65,5.475,5.475,0,0,0-1.678-.22h-2.188c-1.985,0-4.037,0-6.054-.01h-0.024Zm-0.757,1.8a2.036,2.036,0,0,1,.773-0.12c2.023,0.01,4.077.01,6.065,0h2.186a3.706,3.706,0,0,1,1.144.14,1.3,1.3,0,0,1,.976,1.19,1.6,1.6,0,0,1-.067.69,1.012,1.012,0,0,0,.166.97,1.508,1.508,0,0,1,.368,1.03,1.965,1.965,0,0,1-.105.41,1.057,1.057,0,0,0,.185,1.04,1.358,1.358,0,0,1,.351.9,1.912,1.912,0,0,1-.065.32c-0.025.09-.052,0.2-0.074,0.31a0.981,0.981,0,0,0,.216.9,1.454,1.454,0,0,1,.341.73l0,0.01c0,0.02.007,0.03,0.011,0.05v0.28c-0.012.04-.023,0.08-0.035,0.12h0a0.706,0.706,0,0,1-.458.58,2.136,2.136,0,0,1-.616.09c-1.172.01-2.369,0.01-3.525,0.01h-1.3a1.057,1.057,0,0,0-.837.32,0.989,0.989,0,0,0-.191.86c0.033,0.19.064,0.38,0.1,0.57,0.063,0.38.129,0.78,0.209,1.17a3.435,3.435,0,0,1-.057,1.86c-0.169.48-.36,0.97-0.544,1.44-0.072.18-.142,0.36-0.213,0.55a0.514,0.514,0,0,1-.309.33,1.656,1.656,0,0,1-1.443-.03,0.346,0.346,0,0,1-.244-0.36q0.01-.42.019-0.84c0.009-.45.018-0.91,0.037-1.37a2.006,2.006,0,0,0-.283-1.13c-0.17-.29-0.342-0.58-0.508-0.86-0.4-.69-0.825-1.4-1.266-2.1a11.524,11.524,0,0,0-.868-1.15l-0.124-.15v-1.71c0-2.73,0-4.99-.015-7.05h0Zm12.616,1.87h0Zm0.42,2.44h0Z" transform="translate(-693 -4063)"/>
</svg>
