<svg xmlns="http://www.w3.org/2000/svg" width="20" height="17" viewBox="0 0 20 17">
  <metadata><?xpacket begin="﻿" id="W5M0MpCehiHzreSzNTczkc9d"?>
<x:xmpmeta xmlns:x="adobe:ns:meta/" x:xmptk="Adobe XMP Core 5.6-c138 79.159824, 2016/09/14-01:09:01        ">
   <rdf:RDF xmlns:rdf="http://www.w3.org/1999/02/22-rdf-syntax-ns#">
      <rdf:Description rdf:about=""/>
   </rdf:RDF>
</x:xmpmeta>
                                                                                                    
                                                                                                    
                                                                                                    
                                                                                                    
                                                                                                    
                                                                                                    
                                                                                                    
                                                                                                    
                                                                                                    
                                                                                                    
                                                                                                    
                                                                                                    
                                                                                                    
                                                                                                    
                                                                                                    
                                                                                                    
                                                                                                    
                                                                                                    
                                                                                                    
                                                                                                    
                           
<?xpacket end="w"?></metadata>
<defs>
    <style>
      .cls-1 {
        fill: #555;
        fill-rule: evenodd;
      }
    </style>
  </defs>
  <path id="thumb_up" class="cls-1" d="M1514.92,886h-2.47a1.4,1.4,0,0,1-1.08-.479,2.387,2.387,0,0,1-.24-0.364c-0.01-.031-0.03-0.061-0.04-0.085l-0.09-.156v-7.7l0.05-.126,0.02-.046c0.02-.043.04-0.092,0.07-0.144a1.493,1.493,0,0,1,1.44-.868h5.09l-0.02.694c-0.01.391-.01,0.965-0.01,1.056h0c-0.02,1.281-.02,2.543-0.02,3.5,0,1.146,0,2.332.02,3.5v0.526l0.01,0.683-0.7,0C1516.28,886,1515.6,886,1514.92,886Zm-2.51-1.361,0.04,0h3.81c-0.01-1.125-.01-2.259-0.01-3.357,0-.957,0-2.219.01-3.5h0V877.77h0v-0.381h-3.69c-0.15,0-.16.027-0.19,0.085l-0.01.02v7.072A0.761,0.761,0,0,1,1512.41,884.638Zm7.84,0.849a3.02,3.02,0,0,1-1.66-.466l-0.32-.2v-0.377c0.01-1.782.02-3.727,0.02-6.119v-1.881l0.18-.192c0.07-.091.14-0.183,0.22-0.275a8.757,8.757,0,0,0,.6-0.8c0.34-.54.67-1.108,0.99-1.656,0.13-.231.27-0.467,0.41-0.7a0.374,0.374,0,0,0,.04-0.182c-0.02-.38-0.03-0.764-0.03-1.136-0.01-.219-0.01-0.445-0.02-0.666a1.6,1.6,0,0,1,.93-1.528,2.678,2.678,0,0,1,2.32-.078,1.726,1.726,0,0,1,1,1.045c0.06,0.145.12,0.29,0.17,0.435,0.15,0.392.31,0.8,0.45,1.208a4.148,4.148,0,0,1,.1,2.2c-0.05.248-.09,0.494-0.14,0.75h0.41c0.92,0,1.88,0,2.83,0a2.97,2.97,0,0,1,.94.149,1.906,1.906,0,0,1,1.24,1.412,0.281,0.281,0,0,0,.02.075l0.02,0.056,0.03,0.1v0.81l-0.08.1a1.272,1.272,0,0,0-.27,1.363,2.383,2.383,0,0,1-.43,1.41,2.24,2.24,0,0,1,.08.447,2.529,2.529,0,0,1-.42,1.527,2.99,2.99,0,0,1,.05.844,2.414,2.414,0,0,1-1.72,2.147,4.351,4.351,0,0,1-1.35.175h-1.75c-1.59,0-3.23,0-4.84.007h-0.02Zm-0.61-1.454a1.8,1.8,0,0,0,.62.1c1.62-.01,3.26-0.008,4.85-0.007h1.75a3.049,3.049,0,0,0,.92-0.108,1.052,1.052,0,0,0,.78-0.961,1.343,1.343,0,0,0-.05-0.559,0.826,0.826,0,0,1,.13-0.792,1.193,1.193,0,0,0,.29-0.834,1.171,1.171,0,0,0-.08-0.327,0.847,0.847,0,0,1,.15-0.845,1.114,1.114,0,0,0,.28-0.727,2.2,2.2,0,0,0-.05-0.257,1.783,1.783,0,0,1-.06-0.256,0.8,0.8,0,0,1,.17-0.729,1.158,1.158,0,0,0,.27-0.585l0.01-.012v-0.267a0.365,0.365,0,0,0-.02-0.1h0a0.584,0.584,0,0,0-.37-0.469,1.633,1.633,0,0,0-.49-0.074c-0.94-.007-1.9-0.006-2.82,0h-1.04a0.835,0.835,0,0,1-.67-0.265,0.764,0.764,0,0,1-.15-0.7c0.02-.152.05-0.3,0.07-0.456,0.05-.311.1-0.633,0.17-0.954a2.776,2.776,0,0,0-.05-1.5c-0.13-.388-0.28-0.783-0.43-1.166-0.06-.146-0.12-0.293-0.17-0.441a0.431,0.431,0,0,0-.25-0.27,1.276,1.276,0,0,0-1.15.027,0.277,0.277,0,0,0-.2.29c0.01,0.227.01,0.456,0.02,0.677,0,0.365.01,0.742,0.03,1.108a1.742,1.742,0,0,1-.23.92c-0.14.231-.27,0.466-0.41,0.694-0.32.558-.66,1.134-1.01,1.7a10.375,10.375,0,0,1-.69.935l-0.1.122v1.38c0,2.211,0,4.039-.02,5.711h0Zm10.1-1.516v0Zm0.33-1.977h0Z" transform="translate(-1511 -869)"/>
</svg>
