<svg xmlns="http://www.w3.org/2000/svg" viewBox="0 0 91 25"><defs><style>.cls-1{fill:#00acec;}.cls-2{fill:#2ebff5;}.cls-3{fill:#fff;}</style></defs><title>Ресурс 8</title><g id="Шар_2" data-name="Шар 2"><g id="Слой_1" data-name="Слой 1"><rect class="cls-1" width="91" height="25" rx="2" ry="2"/><rect class="cls-2" x="23.97" y="2.98" width="0.88" height="19.03"/><path class="cls-3" d="M37.48,9.12H34.85v7.21H33.64V9.12H31V8.05h6.44Z"/><path class="cls-3" d="M41.36,13.31v0a1.62,1.62,0,0,1,1.13.44,1.6,1.6,0,0,1,.34,1.1,1.31,1.31,0,0,1-.53,1.21,3.71,3.71,0,0,1-1.82.32q-1.75,0-2.77-.07V10.49q.91-.07,2.45-.07a4.06,4.06,0,0,1,1.93.32A1.32,1.32,0,0,1,42.62,12a1.37,1.37,0,0,1-.3,1A1.38,1.38,0,0,1,41.36,13.31Zm-2.57-.41h1.44a2.11,2.11,0,0,0,1-.17.69.69,0,0,0,.28-.65.62.62,0,0,0-.31-.61,2.76,2.76,0,0,0-1.12-.16h-1.3Zm0,2.59h1.5a2.3,2.3,0,0,0,1.07-.17.74.74,0,0,0,.29-.69.77.77,0,0,0-.32-.71,2.24,2.24,0,0,0-1.11-.2H38.79Z"/><path class="cls-3" d="M49.58,16.33h-1V12.62c0-.1,0-.25,0-.44s0-.31,0-.38h0a2.91,2.91,0,0,1-.42.72l-2.82,3.8h-.94V10.47h1v3.72q0,.36,0,.79h0a4.77,4.77,0,0,1,.41-.7l2.83-3.82h.94Z"/><path class="cls-3" d="M56.13,11.42H54.05v4.91H52.89V11.42H50.81v-.95h5.32Z"/><path class="cls-3" d="M62.54,10.47v5.86H61.39V13.67H58.49v2.66H57.35V10.47h1.14v2.3h2.89v-2.3Z"/><path class="cls-3" d="M69.67,10.47l-2.28,6.13a3.68,3.68,0,0,1-1.1,1.74,3,3,0,0,1-2.29.38l.11-.82a2.24,2.24,0,0,0,1.4-.24,2.63,2.63,0,0,0,.8-1.13l.08-.22h-.25a.39.39,0,0,1-.41-.3l-2.06-5.56H64.9l1.45,4.26a4.18,4.18,0,0,1,.22.72h.17l.08-.24.09-.27.07-.21,1.44-4.26Z"/><path class="cls-3" d="M75.51,11.42H73.43v4.91H72.27V11.42H70.19v-.95h5.32Z"/><path class="cls-3" d="M77.85,12.68h1.28a3.2,3.2,0,0,1,1.88.4,1.77,1.77,0,0,1,.52,1.47A1.77,1.77,0,0,1,81,16a2.8,2.8,0,0,1-1.71.4q-1.63,0-2.57-.07h0V10.47h1.12Zm0,2.8h1.28a1.68,1.68,0,0,0,1-.2,1,1,0,0,0,.26-.79.94.94,0,0,0-.26-.76,1.6,1.6,0,0,0-1-.21H77.85Z"/><path class="cls-3" d="M20.75,7.92a5.51,5.51,0,0,1-1.65.48,3,3,0,0,0,1.26-1.68,5.57,5.57,0,0,1-1.82.73,2.8,2.8,0,0,0-2.1-1,3,3,0,0,0-2.87,3,3.17,3.17,0,0,0,.07.69A8,8,0,0,1,7.72,7.05a3.15,3.15,0,0,0-.39,1.52A3.08,3.08,0,0,0,8.61,11.1a2.76,2.76,0,0,1-1.3-.38v0a3,3,0,0,0,2.3,3,2.67,2.67,0,0,1-.76.11,2.72,2.72,0,0,1-.54-.05A2.9,2.9,0,0,0,11,15.88a5.57,5.57,0,0,1-3.57,1.3,5.44,5.44,0,0,1-.69,0,7.83,7.83,0,0,0,4.4,1.36c5.28,0,8.17-4.62,8.17-8.62,0-.13,0-.26,0-.39a6,6,0,0,0,1.43-1.57"/></g></g></svg>