<svg xmlns="http://www.w3.org/2000/svg" viewBox="0 0 364.59 364.59"><defs><style>.cls-1{fill:#7d3daf;}.cls-2{fill:#fff;}</style></defs><title>Asset 1Viber</title><g id="Layer_2" data-name="Layer 2"><g id="Layer_1-2" data-name="Layer 1"><rect class="cls-1" width="364.59" height="364.59"/><path class="cls-2" d="M297.6,117.52l-.07-.29c-5.82-23.55-32.08-48.81-56.19-54.07l-.27-.05a312.19,312.19,0,0,0-117.54,0l-.28.05c-24.1,5.26-50.36,30.52-56.19,54.07l-.07.29a230.09,230.09,0,0,0,0,99.1l.07.29c5.58,22.54,29.88,46.64,53.09,53.27v26.28a10.57,10.57,0,0,0,18.18,7.32L165,276.11c5.77.32,11.56.5,17.33.5A313.35,313.35,0,0,0,241.06,271l.27-.06c24.11-5.25,50.37-30.52,56.19-54.06l.07-.29a230.09,230.09,0,0,0,0-99.1Zm-21.07,94.34c-3.89,15.36-23.82,34.46-39.66,38a290.94,290.94,0,0,1-62.51,5.05,1.47,1.47,0,0,0-1.11.45l-19.44,20-20.68,21.22a2.42,2.42,0,0,1-4.17-1.67V251.31a1.5,1.5,0,0,0-1.22-1.47h0c-15.84-3.53-35.77-22.63-39.66-38a208.73,208.73,0,0,1,0-89.57c3.89-15.36,23.82-34.46,39.66-38a290.7,290.7,0,0,1,109.14,0c15.85,3.53,35.78,22.62,39.66,38a208.48,208.48,0,0,1,0,89.57Zm0,0"/><path class="cls-2" d="M216.75,232c-2.44-.74-4.76-1.23-6.91-2.13-22.34-9.27-42.89-21.22-59.17-39.54-9.26-10.42-16.5-22.18-22.63-34.64-2.9-5.9-5.35-12-7.85-18.13-2.27-5.56,1.08-11.3,4.61-15.49A36.44,36.44,0,0,1,137,112.87c3.6-1.73,7.15-.73,9.79,2.32a126.07,126.07,0,0,1,15.14,21.19c2.6,4.71,1.89,10.46-2.82,13.66-1.14.78-2.19,1.69-3.26,2.57a10.77,10.77,0,0,0-2.46,2.59,7.09,7.09,0,0,0-.47,6.24c5.81,16,15.61,28.4,31.69,35.09,2.57,1.07,5.16,2.32,8.12,2,5-.58,6.57-6,10.05-8.87a9.47,9.47,0,0,1,11.41-.5c3.66,2.32,7.22,4.81,10.74,7.32a122.24,122.24,0,0,1,10.11,7.7c3.07,2.71,4.13,6.26,2.4,9.93-3.17,6.73-7.78,12.32-14.43,15.9-1.88,1-4.12,1.33-6.24,2-2.44-.74,2.12-.65,0,0Zm0,0"/><path class="cls-2" d="M182.35,105.18c29.21.82,53.2,20.21,58.34,49.09.88,4.92,1.19,10,1.58,14.94.16,2.1-1,4.1-3.29,4.13s-3.39-1.93-3.55-4c-.3-4.16-.51-8.33-1.08-12.45a52.19,52.19,0,0,0-42-43.63c-3.26-.58-6.6-.73-9.9-1.08-2.09-.22-4.82-.34-5.28-2.94a3.56,3.56,0,0,1,3.52-4c.56,0,1.13,0,1.69,0,29.21.82-.57,0,0,0Zm0,0"/><path class="cls-2" d="M226.75,162.73a13.58,13.58,0,0,1-.28,2c-.78,2.93-5.22,3.3-6.25.34a8.86,8.86,0,0,1-.35-2.82,35.38,35.38,0,0,0-4.47-17.75,33,33,0,0,0-13.86-13,39.9,39.9,0,0,0-11-3.39c-1.66-.27-3.35-.44-5-.68a3.18,3.18,0,0,1-3-3.57,3.14,3.14,0,0,1,3.5-3.1,45.88,45.88,0,0,1,19.14,5c12.12,6.42,19,16.55,21.07,30.08.09.61.24,1.22.29,1.84.11,1.52.18,3,.3,5,0,.36-.12-2,0,0Zm0,0"/><path class="cls-2" d="M208.58,162a3.61,3.61,0,0,1-4-3.55,36.48,36.48,0,0,0-.69-4.66A13.14,13.14,0,0,0,199,146.2a12.68,12.68,0,0,0-3.95-1.9c-1.79-.52-3.66-.37-5.45-.82a3.34,3.34,0,0,1-2.71-3.87,3.51,3.51,0,0,1,3.7-2.82c11.32.82,19.42,6.67,20.57,20a9.2,9.2,0,0,1,0,2.83,2.91,2.91,0,0,1-2.61,2.39c-2.44,0,1.11-.08,0,0Zm0,0"/></g></g></svg>