<svg xmlns="http://www.w3.org/2000/svg" width="29" height="17" viewBox="0 0 29 17">
  <metadata><?xpacket begin="﻿" id="W5M0MpCehiHzreSzNTczkc9d"?>
<x:xmpmeta xmlns:x="adobe:ns:meta/" x:xmptk="Adobe XMP Core 5.6-c138 79.159824, 2016/09/14-01:09:01        ">
   <rdf:RDF xmlns:rdf="http://www.w3.org/1999/02/22-rdf-syntax-ns#">
      <rdf:Description rdf:about=""/>
   </rdf:RDF>
</x:xmpmeta>
                                                                                                    
                                                                                                    
                                                                                                    
                                                                                                    
                                                                                                    
                                                                                                    
                                                                                                    
                                                                                                    
                                                                                                    
                                                                                                    
                                                                                                    
                                                                                                    
                                                                                                    
                                                                                                    
                                                                                                    
                                                                                                    
                                                                                                    
                                                                                                    
                                                                                                    
                                                                                                    
                           
<?xpacket end="w"?></metadata>
<defs>
    <style>
      .cls-1 {
        fill: #4c76a6;
        fill-rule: evenodd;
      }
    </style>
  </defs>
  <path id="vk" class="cls-1" d="M1421.81,1252.92a24.813,24.813,0,0,1,2.93,3.47,0.169,0.169,0,0,1,.02.05,1.021,1.021,0,0,1,.18.96,1.576,1.576,0,0,1-1.08.6h-4.15a2.868,2.868,0,0,1-1.62-.6,9.581,9.581,0,0,1-1.65-1.7c-0.8-.95-1.5-1.78-2.2-1.78a0.746,0.746,0,0,0-.26.04c-0.53.17-1.21,0.95-1.21,3.02a0.971,0.971,0,0,1-.85,1.02h-1.89a10.1,10.1,0,0,1-7-3.46c-3.66-3.95-6.95-11.88-6.98-11.95-0.2-.51.23-0.79,0.69-0.79h4.18a0.876,0.876,0,0,1,.88.66,27.089,27.089,0,0,0,1.59,3.4c1.46,2.62,2.35,3.69,3.07,3.69a0.758,0.758,0,0,0,.38-0.11c0.93-.52.76-3.94,0.72-4.65a4.745,4.745,0,0,0-.48-2.2,2.1,2.1,0,0,0-1.28-.74,1.489,1.489,0,0,1,.55-0.48,7.645,7.645,0,0,1,2.94-.37h0.64a6.93,6.93,0,0,1,2.02.22c0.91,0.22.92,0.82,0.84,2.89-0.02.58-.04,1.25-0.04,2.03,0,0.16-.01.35-0.01,0.54-0.03,1.06-.06,2.25.66,2.74a0.6,0.6,0,0,0,.32.09c0.25,0,1.01,0,3.05-3.61a27.8,27.8,0,0,0,1.65-3.61,1.037,1.037,0,0,1,.31-0.39,0.669,0.669,0,0,1,.34-0.08h4.92a1.006,1.006,0,0,1,.97.29c0.12,0.34-.02,1.37-2.27,4.48-0.38.52-.71,0.97-1,1.36-2.04,2.75-2.04,2.88.12,4.97h0Z" transform="translate(-1396 -1241)"/>
</svg>
