<svg xmlns="http://www.w3.org/2000/svg" viewBox="0 0 40 40"><defs><style>.cls-1{fill:#999;}.cls-2{fill:#555;}</style></defs><title>vk_footer</title><g id="Слой_2" data-name="Слой 2"><g id="Слой_1-2" data-name="Слой 1"><circle class="cls-1" cx="20" cy="20" r="20"/><path id="vk" class="cls-2" d="M30.31,24.43a24.82,24.82,0,0,1,2.93,3.47l0,.05a1,1,0,0,1,.18,1,1.58,1.58,0,0,1-1.08.6H28.21a2.87,2.87,0,0,1-1.62-.6,9.58,9.58,0,0,1-1.65-1.7c-.8-.95-1.5-1.78-2.2-1.78a.74.74,0,0,0-.26,0c-.53.17-1.21.95-1.21,3a1,1,0,0,1-.85,1H18.53a10.1,10.1,0,0,1-7-3.46c-3.66-3.95-6.95-11.88-7-11.95-.2-.51.23-.79.69-.79H9.42a.88.88,0,0,1,.88.66,27.09,27.09,0,0,0,1.59,3.4C13.35,20,14.24,21.06,15,21.06a.76.76,0,0,0,.38-.11c.93-.52.76-3.94.72-4.65a4.75,4.75,0,0,0-.48-2.2,2.1,2.1,0,0,0-1.28-.74,1.49,1.49,0,0,1,.55-.48,7.65,7.65,0,0,1,2.94-.37h.64a6.93,6.93,0,0,1,2,.22c.91.22.92.82.84,2.89,0,.58,0,1.25,0,2,0,.16,0,.35,0,.54,0,1.06-.06,2.25.66,2.74a.6.6,0,0,0,.32.09c.25,0,1,0,3.05-3.61a27.79,27.79,0,0,0,1.65-3.61,1,1,0,0,1,.31-.39.67.67,0,0,1,.34-.08h4.92a1,1,0,0,1,1,.29c.12.34,0,1.37-2.27,4.48l-1,1.36c-2,2.75-2,2.88.12,5h0Z"/></g></g></svg>