<svg xmlns="http://www.w3.org/2000/svg" width="27.813" height="27.16" viewBox="0 0 27.813 27.16">
  <metadata><?xpacket begin="﻿" id="W5M0MpCehiHzreSzNTczkc9d"?>
<x:xmpmeta xmlns:x="adobe:ns:meta/" x:xmptk="Adobe XMP Core 5.6-c138 79.159824, 2016/09/14-01:09:01        ">
   <rdf:RDF xmlns:rdf="http://www.w3.org/1999/02/22-rdf-syntax-ns#">
      <rdf:Description rdf:about=""/>
   </rdf:RDF>
</x:xmpmeta>
                                                                                                    
                                                                                                    
                                                                                                    
                                                                                                    
                                                                                                    
                                                                                                    
                                                                                                    
                                                                                                    
                                                                                                    
                                                                                                    
                                                                                                    
                                                                                                    
                                                                                                    
                                                                                                    
                                                                                                    
                                                                                                    
                                                                                                    
                                                                                                    
                                                                                                    
                                                                                                    
                           
<?xpacket end="w"?></metadata>
<defs>
    <style>
      .cls-1 {
        fill: #1973ff;
        fill-rule: evenodd;
      }
    </style>
  </defs>
  <path id="wire" class="cls-1" d="M827.087,1404.77a5.445,5.445,0,0,0-8.092.16,12.605,12.605,0,0,0-3.022,6.03c-0.136.5-.254,0.94-0.38,1.28a6.6,6.6,0,0,1-.756,1.42l-0.626-.62a0.617,0.617,0,0,0-.87.03l-1.558,1.55a0.616,0.616,0,0,0-.025.87l0.643,0.64a7.145,7.145,0,0,1-1.535.82c-0.34.12-.776,0.24-1.281,0.37a12.79,12.79,0,0,0-6.057,3.01,5.4,5.4,0,0,0-.157,8.06c0.02,0.02.046,0.03,0.069,0.05a0.686,0.686,0,0,0,.045.07,5.46,5.46,0,0,0,8.092-.16,12.648,12.648,0,0,0,3.022-6.03c0.136-.51.254-0.94,0.38-1.28a6.892,6.892,0,0,1,.823-1.53l0.731,0.73a0.627,0.627,0,0,0,.871-0.02l1.557-1.56a0.6,0.6,0,0,0,.026-0.86l-0.137-.14a5.3,5.3,0,0,1,4.046,1.04c-0.6.73-1.394,2.56-.748,3.21l1.135,1.13a0.618,0.618,0,0,0,.871-0.03l0.068-.07,1.4,1.4a0.507,0.507,0,0,0,.712-0.02,0.5,0.5,0,0,0,.021-0.71l-1.4-1.4,2.218-2.21,1.4,1.4a0.519,0.519,0,0,0,.734-0.73l-1.4-1.4,0.1-.09a0.616,0.616,0,0,0,.026-0.87l-1.135-1.13c-0.661-.66-2.537.14-3.27,0.78a6.115,6.115,0,0,0-4.588-1.33,7.231,7.231,0,0,1,.669-0.3c0.339-.12.775-0.24,1.281-0.38a12.7,12.7,0,0,0,6.056-3.01,5.4,5.4,0,0,0,.157-8.06c-0.02-.02-0.046-0.02-0.069-0.04A0.549,0.549,0,0,0,827.087,1404.77Zm-22.869,23.01c-0.02-.02-0.046-0.03-0.069-0.05a0.686,0.686,0,0,0-.045-0.07,4.367,4.367,0,0,1-.784-5.53,5.371,5.371,0,0,0,1.554,4.77c0.019,0.02.044,0.02,0.066,0.04a0.185,0.185,0,0,0,.043.06,5.385,5.385,0,0,0,4.805,1.55A4.418,4.418,0,0,1,804.218,1427.78Zm10.874-8.97a0.294,0.294,0,0,1-.033.04c-0.012.02-.015,0.04-0.025,0.06a7.964,7.964,0,0,0-1,1.83c-0.143.39-.266,0.84-0.409,1.37a15.144,15.144,0,0,1-1.543,4.01c-0.022.02-.047,0.03-0.066,0.05a4.181,4.181,0,0,1-6.3.1c-0.02-.02-0.044-0.02-0.066-0.04a0.447,0.447,0,0,0-.043-0.06,4.152,4.152,0,0,1,.108-6.28,0.313,0.313,0,0,1,.032-0.05,15.444,15.444,0,0,1,4.045-1.55,13.343,13.343,0,0,0,1.373-.41,7.852,7.852,0,0,0,1.844-.99c0.018-.01.038-0.01,0.056-0.02a0.3,0.3,0,0,1,.045-0.04Zm-0.892-4.32,0,0.01,0.69,0.68h0l1.849,1.85h0l0.083,0.08,0.607,0.61h0l0.179,0.18,0.363,0.36-0.987.99-0.548-.55h0l-0.691-.69h0l-1.839-1.84h0l-0.691-.69h0l-0.46-.46,0.987-.98Zm10.02,4.24c0.327-.33,1.635-1.13,1.943-0.82l0.867,0.86-0.181.18-2.951,2.94-0.15.15-0.867-.86c-0.308-.31.5-1.61,0.825-1.94Zm-4.813-3.34a8.27,8.27,0,0,0-1.839,1l-2.026-2.02a8.105,8.105,0,0,0,.994-1.84c0.142-.38.266-0.84,0.408-1.36a15.033,15.033,0,0,1,1.573-4.06,0.341,0.341,0,0,0,.084-0.06,4.192,4.192,0,0,1,6.3-.11c0.019,0.02.044,0.03,0.065,0.05s0.024,0.04.043,0.06a4.152,4.152,0,0,1-.108,6.28,0.748,0.748,0,0,0-.069.1,15.219,15.219,0,0,1-4.055,1.56C820.25,1415.13,819.792,1415.25,819.407,1415.39Zm7.061-9.78a4.387,4.387,0,0,1,.834,5.47,5.363,5.363,0,0,0-1.556-4.76,0.2,0.2,0,0,0-.066-0.04,0.648,0.648,0,0,0-.042-0.07,5.4,5.4,0,0,0-4.753-1.55,4.414,4.414,0,0,1,5.469.84c0.021,0.02.047,0.03,0.069,0.05A0.586,0.586,0,0,0,826.468,1405.61Z" transform="translate(-801.625 -1403.06)"/>
</svg>
